G75*
%MOIN*%
%OFA0B0*%
%FSLAX25Y25*%
%IPPOS*%
%LPD*%
%AMOC8*
5,1,8,0,0,1.08239X$1,22.5*
%
%ADD10C,0.02000*%
%ADD11C,0.00200*%
%ADD12C,0.00500*%
%ADD13C,0.00000*%
%ADD14C,0.01200*%
%ADD15C,0.00400*%
%ADD16C,0.00600*%
%ADD17C,0.00800*%
D10*
X0002456Y0003000D02*
X0139456Y0002000D01*
X0139456Y0264000D01*
X0002456Y0264000D01*
X0002456Y0003000D01*
D11*
X0013161Y0049700D02*
X0013161Y0051900D01*
X0012550Y0051900D02*
X0013772Y0051900D01*
X0014670Y0051900D02*
X0014670Y0049700D01*
X0014670Y0050678D02*
X0015282Y0050678D01*
X0015330Y0050680D01*
X0015378Y0050686D01*
X0015425Y0050695D01*
X0015471Y0050708D01*
X0015516Y0050725D01*
X0015559Y0050745D01*
X0015601Y0050768D01*
X0015641Y0050795D01*
X0015679Y0050824D01*
X0015714Y0050857D01*
X0015747Y0050892D01*
X0015776Y0050930D01*
X0015803Y0050970D01*
X0015826Y0051012D01*
X0015846Y0051055D01*
X0015863Y0051100D01*
X0015876Y0051146D01*
X0015885Y0051193D01*
X0015891Y0051241D01*
X0015893Y0051289D01*
X0015891Y0051337D01*
X0015885Y0051385D01*
X0015876Y0051432D01*
X0015863Y0051478D01*
X0015846Y0051523D01*
X0015826Y0051566D01*
X0015803Y0051608D01*
X0015776Y0051648D01*
X0015747Y0051686D01*
X0015714Y0051721D01*
X0015679Y0051754D01*
X0015641Y0051783D01*
X0015601Y0051810D01*
X0015559Y0051833D01*
X0015516Y0051853D01*
X0015471Y0051870D01*
X0015425Y0051883D01*
X0015378Y0051892D01*
X0015330Y0051898D01*
X0015282Y0051900D01*
X0014670Y0051900D01*
X0016632Y0049456D02*
X0017610Y0049456D01*
X0018526Y0050189D02*
X0018526Y0051411D01*
X0018528Y0051454D01*
X0018533Y0051496D01*
X0018543Y0051538D01*
X0018555Y0051578D01*
X0018572Y0051618D01*
X0018592Y0051655D01*
X0018614Y0051691D01*
X0018640Y0051725D01*
X0018669Y0051757D01*
X0018701Y0051786D01*
X0018735Y0051812D01*
X0018770Y0051834D01*
X0018808Y0051854D01*
X0018848Y0051871D01*
X0018888Y0051883D01*
X0018930Y0051893D01*
X0018972Y0051898D01*
X0019015Y0051900D01*
X0019748Y0051900D01*
X0019748Y0050922D02*
X0019748Y0049700D01*
X0019015Y0049700D01*
X0018972Y0049702D01*
X0018930Y0049707D01*
X0018888Y0049717D01*
X0018848Y0049729D01*
X0018808Y0049746D01*
X0018771Y0049766D01*
X0018735Y0049788D01*
X0018701Y0049814D01*
X0018669Y0049843D01*
X0018640Y0049875D01*
X0018614Y0049909D01*
X0018592Y0049945D01*
X0018572Y0049982D01*
X0018555Y0050022D01*
X0018543Y0050062D01*
X0018533Y0050104D01*
X0018528Y0050146D01*
X0018526Y0050189D01*
X0019381Y0050922D02*
X0019748Y0050922D01*
X0020830Y0051900D02*
X0020830Y0049700D01*
X0022052Y0049700D02*
X0020830Y0051900D01*
X0022052Y0051900D02*
X0022052Y0049700D01*
X0023134Y0049700D02*
X0023134Y0051900D01*
X0023745Y0051900D01*
X0023793Y0051898D01*
X0023841Y0051892D01*
X0023888Y0051883D01*
X0023934Y0051870D01*
X0023979Y0051853D01*
X0024022Y0051833D01*
X0024064Y0051810D01*
X0024104Y0051783D01*
X0024142Y0051754D01*
X0024177Y0051721D01*
X0024210Y0051686D01*
X0024239Y0051648D01*
X0024266Y0051608D01*
X0024289Y0051566D01*
X0024309Y0051523D01*
X0024326Y0051478D01*
X0024339Y0051432D01*
X0024348Y0051385D01*
X0024354Y0051337D01*
X0024356Y0051289D01*
X0024356Y0050311D01*
X0024354Y0050263D01*
X0024348Y0050215D01*
X0024339Y0050168D01*
X0024326Y0050122D01*
X0024309Y0050077D01*
X0024289Y0050034D01*
X0024266Y0049992D01*
X0024239Y0049952D01*
X0024210Y0049914D01*
X0024177Y0049879D01*
X0024142Y0049846D01*
X0024104Y0049817D01*
X0024064Y0049790D01*
X0024022Y0049767D01*
X0023979Y0049747D01*
X0023934Y0049730D01*
X0023888Y0049717D01*
X0023841Y0049708D01*
X0023793Y0049702D01*
X0023745Y0049700D01*
X0023134Y0049700D01*
X0004356Y0065589D02*
X0004356Y0066078D01*
X0004356Y0065589D02*
X0004354Y0065546D01*
X0004349Y0065504D01*
X0004339Y0065462D01*
X0004327Y0065422D01*
X0004310Y0065382D01*
X0004290Y0065345D01*
X0004268Y0065309D01*
X0004242Y0065275D01*
X0004213Y0065243D01*
X0004181Y0065214D01*
X0004147Y0065188D01*
X0004112Y0065166D01*
X0004074Y0065146D01*
X0004034Y0065129D01*
X0003994Y0065117D01*
X0003952Y0065107D01*
X0003910Y0065102D01*
X0003867Y0065100D01*
X0002645Y0065100D01*
X0002602Y0065102D01*
X0002560Y0065107D01*
X0002518Y0065117D01*
X0002478Y0065129D01*
X0002438Y0065146D01*
X0002401Y0065166D01*
X0002365Y0065188D01*
X0002331Y0065214D01*
X0002299Y0065243D01*
X0002270Y0065275D01*
X0002244Y0065309D01*
X0002222Y0065344D01*
X0002202Y0065382D01*
X0002185Y0065422D01*
X0002173Y0065462D01*
X0002163Y0065504D01*
X0002158Y0065546D01*
X0002156Y0065589D01*
X0002156Y0066078D01*
X0002156Y0066906D02*
X0002156Y0067640D01*
X0002158Y0067683D01*
X0002163Y0067725D01*
X0002173Y0067767D01*
X0002185Y0067807D01*
X0002202Y0067847D01*
X0002222Y0067885D01*
X0002244Y0067920D01*
X0002270Y0067954D01*
X0002299Y0067986D01*
X0002331Y0068015D01*
X0002365Y0068041D01*
X0002401Y0068063D01*
X0002438Y0068083D01*
X0002478Y0068100D01*
X0002518Y0068112D01*
X0002560Y0068122D01*
X0002602Y0068127D01*
X0002645Y0068129D01*
X0002688Y0068127D01*
X0002730Y0068122D01*
X0002772Y0068112D01*
X0002812Y0068100D01*
X0002852Y0068083D01*
X0002890Y0068063D01*
X0002925Y0068041D01*
X0002959Y0068015D01*
X0002991Y0067986D01*
X0003020Y0067954D01*
X0003046Y0067920D01*
X0003068Y0067885D01*
X0003088Y0067847D01*
X0003105Y0067807D01*
X0003117Y0067767D01*
X0003127Y0067725D01*
X0003132Y0067683D01*
X0003134Y0067640D01*
X0003134Y0067151D01*
X0003134Y0067517D02*
X0003136Y0067565D01*
X0003142Y0067613D01*
X0003151Y0067660D01*
X0003164Y0067706D01*
X0003181Y0067751D01*
X0003201Y0067794D01*
X0003224Y0067836D01*
X0003251Y0067876D01*
X0003280Y0067914D01*
X0003313Y0067949D01*
X0003348Y0067982D01*
X0003386Y0068011D01*
X0003426Y0068038D01*
X0003468Y0068061D01*
X0003511Y0068081D01*
X0003556Y0068098D01*
X0003602Y0068111D01*
X0003649Y0068120D01*
X0003697Y0068126D01*
X0003745Y0068128D01*
X0003793Y0068126D01*
X0003841Y0068120D01*
X0003888Y0068111D01*
X0003934Y0068098D01*
X0003979Y0068081D01*
X0004022Y0068061D01*
X0004064Y0068038D01*
X0004104Y0068011D01*
X0004142Y0067982D01*
X0004177Y0067949D01*
X0004210Y0067914D01*
X0004239Y0067876D01*
X0004266Y0067836D01*
X0004289Y0067794D01*
X0004309Y0067751D01*
X0004326Y0067706D01*
X0004339Y0067660D01*
X0004348Y0067613D01*
X0004354Y0067565D01*
X0004356Y0067517D01*
X0004356Y0066906D01*
X0015556Y0103332D02*
X0015556Y0104554D01*
X0015556Y0103943D02*
X0017756Y0103943D01*
X0017756Y0105452D02*
X0015556Y0105452D01*
X0015556Y0106063D01*
X0015558Y0106111D01*
X0015564Y0106159D01*
X0015573Y0106206D01*
X0015586Y0106252D01*
X0015603Y0106297D01*
X0015623Y0106340D01*
X0015646Y0106382D01*
X0015673Y0106422D01*
X0015702Y0106460D01*
X0015735Y0106495D01*
X0015770Y0106528D01*
X0015808Y0106557D01*
X0015848Y0106584D01*
X0015890Y0106607D01*
X0015933Y0106627D01*
X0015978Y0106644D01*
X0016024Y0106657D01*
X0016071Y0106666D01*
X0016119Y0106672D01*
X0016167Y0106674D01*
X0016215Y0106672D01*
X0016263Y0106666D01*
X0016310Y0106657D01*
X0016356Y0106644D01*
X0016401Y0106627D01*
X0016444Y0106607D01*
X0016486Y0106584D01*
X0016526Y0106557D01*
X0016564Y0106528D01*
X0016599Y0106495D01*
X0016632Y0106460D01*
X0016661Y0106422D01*
X0016688Y0106382D01*
X0016711Y0106340D01*
X0016731Y0106297D01*
X0016748Y0106252D01*
X0016761Y0106206D01*
X0016770Y0106159D01*
X0016776Y0106111D01*
X0016778Y0106063D01*
X0016778Y0105452D01*
X0018000Y0107414D02*
X0018000Y0108392D01*
X0017756Y0109236D02*
X0017756Y0110458D01*
X0017756Y0109847D02*
X0015556Y0109847D01*
X0016045Y0109236D01*
X0017756Y0111396D02*
X0016534Y0112434D01*
X0015556Y0112068D02*
X0015558Y0112016D01*
X0015564Y0111964D01*
X0015573Y0111912D01*
X0015587Y0111862D01*
X0015604Y0111812D01*
X0015625Y0111764D01*
X0015649Y0111718D01*
X0015676Y0111674D01*
X0015707Y0111631D01*
X0015741Y0111591D01*
X0015777Y0111554D01*
X0015817Y0111520D01*
X0015859Y0111488D01*
X0015902Y0111460D01*
X0015948Y0111435D01*
X0015996Y0111413D01*
X0016045Y0111395D01*
X0016534Y0112435D02*
X0016500Y0112468D01*
X0016463Y0112498D01*
X0016423Y0112526D01*
X0016382Y0112550D01*
X0016339Y0112570D01*
X0016294Y0112587D01*
X0016248Y0112601D01*
X0016201Y0112610D01*
X0016154Y0112616D01*
X0016106Y0112618D01*
X0016061Y0112616D01*
X0016015Y0112610D01*
X0015971Y0112601D01*
X0015927Y0112588D01*
X0015885Y0112572D01*
X0015844Y0112552D01*
X0015805Y0112528D01*
X0015768Y0112502D01*
X0015733Y0112473D01*
X0015701Y0112441D01*
X0015672Y0112406D01*
X0015646Y0112369D01*
X0015622Y0112330D01*
X0015602Y0112289D01*
X0015586Y0112247D01*
X0015573Y0112203D01*
X0015564Y0112159D01*
X0015558Y0112113D01*
X0015556Y0112068D01*
X0015556Y0113433D02*
X0017756Y0114167D01*
X0015556Y0114900D01*
X0017756Y0112618D02*
X0017756Y0111396D01*
X0031556Y0149100D02*
X0032778Y0149100D01*
X0032167Y0149100D02*
X0032167Y0151300D01*
X0031556Y0150811D01*
X0033716Y0151300D02*
X0034449Y0151300D01*
X0034492Y0151298D01*
X0034534Y0151293D01*
X0034576Y0151283D01*
X0034616Y0151271D01*
X0034656Y0151254D01*
X0034694Y0151234D01*
X0034729Y0151212D01*
X0034763Y0151186D01*
X0034795Y0151157D01*
X0034824Y0151125D01*
X0034850Y0151091D01*
X0034872Y0151056D01*
X0034892Y0151018D01*
X0034909Y0150978D01*
X0034921Y0150938D01*
X0034931Y0150896D01*
X0034936Y0150854D01*
X0034938Y0150811D01*
X0034936Y0150768D01*
X0034931Y0150726D01*
X0034921Y0150684D01*
X0034909Y0150644D01*
X0034892Y0150604D01*
X0034872Y0150567D01*
X0034850Y0150531D01*
X0034824Y0150497D01*
X0034795Y0150465D01*
X0034763Y0150436D01*
X0034729Y0150410D01*
X0034694Y0150388D01*
X0034656Y0150368D01*
X0034616Y0150351D01*
X0034576Y0150339D01*
X0034534Y0150329D01*
X0034492Y0150324D01*
X0034449Y0150322D01*
X0033960Y0150322D01*
X0034327Y0150322D02*
X0034375Y0150320D01*
X0034423Y0150314D01*
X0034470Y0150305D01*
X0034516Y0150292D01*
X0034561Y0150275D01*
X0034604Y0150255D01*
X0034646Y0150232D01*
X0034686Y0150205D01*
X0034724Y0150176D01*
X0034759Y0150143D01*
X0034792Y0150108D01*
X0034821Y0150070D01*
X0034848Y0150030D01*
X0034871Y0149988D01*
X0034891Y0149945D01*
X0034908Y0149900D01*
X0034921Y0149854D01*
X0034930Y0149807D01*
X0034936Y0149759D01*
X0034938Y0149711D01*
X0034936Y0149663D01*
X0034930Y0149615D01*
X0034921Y0149568D01*
X0034908Y0149522D01*
X0034891Y0149477D01*
X0034871Y0149434D01*
X0034848Y0149392D01*
X0034821Y0149352D01*
X0034792Y0149314D01*
X0034759Y0149279D01*
X0034724Y0149246D01*
X0034686Y0149217D01*
X0034646Y0149190D01*
X0034604Y0149167D01*
X0034561Y0149147D01*
X0034516Y0149130D01*
X0034470Y0149117D01*
X0034423Y0149108D01*
X0034375Y0149102D01*
X0034327Y0149100D01*
X0033716Y0149100D01*
X0033778Y0168100D02*
X0032556Y0168100D01*
X0033167Y0168100D02*
X0033167Y0170300D01*
X0032556Y0169811D01*
X0035938Y0169200D02*
X0035936Y0169118D01*
X0035931Y0169036D01*
X0035921Y0168954D01*
X0035908Y0168873D01*
X0035892Y0168792D01*
X0035871Y0168713D01*
X0035847Y0168634D01*
X0035820Y0168556D01*
X0035789Y0168480D01*
X0035755Y0168406D01*
X0035755Y0168405D02*
X0035740Y0168368D01*
X0035722Y0168332D01*
X0035701Y0168298D01*
X0035677Y0168266D01*
X0035650Y0168236D01*
X0035621Y0168209D01*
X0035590Y0168184D01*
X0035556Y0168162D01*
X0035521Y0168144D01*
X0035484Y0168128D01*
X0035446Y0168116D01*
X0035407Y0168107D01*
X0035367Y0168102D01*
X0035327Y0168100D01*
X0035287Y0168102D01*
X0035247Y0168107D01*
X0035208Y0168116D01*
X0035170Y0168128D01*
X0035133Y0168144D01*
X0035098Y0168162D01*
X0035064Y0168184D01*
X0035033Y0168209D01*
X0035004Y0168236D01*
X0034977Y0168266D01*
X0034953Y0168298D01*
X0034932Y0168332D01*
X0034914Y0168368D01*
X0034899Y0168405D01*
X0034838Y0168589D02*
X0035816Y0169811D01*
X0035755Y0169995D02*
X0035740Y0170032D01*
X0035722Y0170068D01*
X0035701Y0170102D01*
X0035677Y0170134D01*
X0035650Y0170164D01*
X0035621Y0170191D01*
X0035590Y0170216D01*
X0035556Y0170238D01*
X0035521Y0170256D01*
X0035484Y0170272D01*
X0035446Y0170284D01*
X0035407Y0170293D01*
X0035367Y0170298D01*
X0035327Y0170300D01*
X0035287Y0170298D01*
X0035247Y0170293D01*
X0035208Y0170284D01*
X0035170Y0170272D01*
X0035133Y0170256D01*
X0035098Y0170238D01*
X0035064Y0170216D01*
X0035033Y0170191D01*
X0035004Y0170164D01*
X0034977Y0170134D01*
X0034953Y0170102D01*
X0034932Y0170068D01*
X0034914Y0170032D01*
X0034899Y0169995D01*
X0035755Y0169994D02*
X0035789Y0169920D01*
X0035820Y0169844D01*
X0035847Y0169766D01*
X0035871Y0169687D01*
X0035892Y0169608D01*
X0035908Y0169527D01*
X0035921Y0169446D01*
X0035931Y0169364D01*
X0035936Y0169282D01*
X0035938Y0169200D01*
X0034716Y0169200D02*
X0034718Y0169282D01*
X0034723Y0169364D01*
X0034733Y0169446D01*
X0034746Y0169527D01*
X0034762Y0169608D01*
X0034783Y0169687D01*
X0034807Y0169766D01*
X0034834Y0169844D01*
X0034865Y0169920D01*
X0034899Y0169994D01*
X0034716Y0169200D02*
X0034718Y0169118D01*
X0034723Y0169036D01*
X0034733Y0168954D01*
X0034746Y0168873D01*
X0034762Y0168792D01*
X0034783Y0168713D01*
X0034807Y0168634D01*
X0034834Y0168556D01*
X0034865Y0168480D01*
X0034899Y0168406D01*
X0035167Y0188100D02*
X0035778Y0190300D01*
X0034556Y0190300D01*
X0034556Y0190056D01*
X0033412Y0208100D02*
X0033412Y0209078D01*
X0033778Y0208589D02*
X0032556Y0208589D01*
X0033045Y0210300D01*
X0032778Y0230100D02*
X0031556Y0230100D01*
X0032167Y0230100D02*
X0032167Y0232300D01*
X0031556Y0231811D01*
X0019556Y0185509D02*
X0019556Y0184287D01*
X0019556Y0184898D02*
X0017356Y0184898D01*
X0017845Y0184287D01*
X0018334Y0183469D02*
X0018334Y0182491D01*
X0017356Y0182491D02*
X0017356Y0183469D01*
X0017356Y0182491D02*
X0019556Y0182491D01*
X0019867Y0167230D02*
X0019867Y0166008D01*
X0018156Y0166497D01*
X0019378Y0166864D02*
X0020356Y0166864D01*
X0019439Y0164898D02*
X0019073Y0164226D01*
X0018156Y0164470D02*
X0018158Y0164529D01*
X0018164Y0164588D01*
X0018173Y0164646D01*
X0018186Y0164703D01*
X0018203Y0164760D01*
X0018224Y0164815D01*
X0018247Y0164869D01*
X0018275Y0164922D01*
X0018306Y0164972D01*
X0018339Y0165020D01*
X0019073Y0164226D02*
X0019050Y0164190D01*
X0019023Y0164156D01*
X0018994Y0164124D01*
X0018962Y0164095D01*
X0018928Y0164069D01*
X0018892Y0164046D01*
X0018853Y0164027D01*
X0018814Y0164010D01*
X0018773Y0163998D01*
X0018731Y0163988D01*
X0018688Y0163983D01*
X0018645Y0163981D01*
X0018602Y0163983D01*
X0018560Y0163988D01*
X0018518Y0163998D01*
X0018478Y0164010D01*
X0018438Y0164027D01*
X0018401Y0164047D01*
X0018365Y0164069D01*
X0018331Y0164095D01*
X0018299Y0164124D01*
X0018270Y0164156D01*
X0018244Y0164190D01*
X0018222Y0164226D01*
X0018202Y0164263D01*
X0018185Y0164303D01*
X0018173Y0164343D01*
X0018163Y0164385D01*
X0018158Y0164427D01*
X0018156Y0164470D01*
X0020050Y0163920D02*
X0020094Y0163965D01*
X0020134Y0164013D01*
X0020171Y0164063D01*
X0020205Y0164116D01*
X0020236Y0164171D01*
X0020264Y0164227D01*
X0020288Y0164285D01*
X0020309Y0164344D01*
X0020326Y0164405D01*
X0020339Y0164466D01*
X0020348Y0164528D01*
X0020354Y0164590D01*
X0020356Y0164653D01*
X0020354Y0164696D01*
X0020349Y0164738D01*
X0020339Y0164780D01*
X0020327Y0164820D01*
X0020310Y0164860D01*
X0020290Y0164898D01*
X0020268Y0164933D01*
X0020242Y0164967D01*
X0020213Y0164999D01*
X0020181Y0165028D01*
X0020147Y0165054D01*
X0020112Y0165076D01*
X0020074Y0165096D01*
X0020034Y0165113D01*
X0019994Y0165125D01*
X0019952Y0165135D01*
X0019910Y0165140D01*
X0019867Y0165142D01*
X0019867Y0165143D02*
X0019824Y0165141D01*
X0019781Y0165136D01*
X0019739Y0165126D01*
X0019698Y0165114D01*
X0019659Y0165097D01*
X0019620Y0165078D01*
X0019584Y0165055D01*
X0019550Y0165029D01*
X0019518Y0165000D01*
X0019489Y0164968D01*
X0019462Y0164934D01*
X0019439Y0164898D01*
X0019378Y0162548D02*
X0019378Y0161937D01*
X0019378Y0162548D02*
X0019376Y0162596D01*
X0019370Y0162644D01*
X0019361Y0162691D01*
X0019348Y0162737D01*
X0019331Y0162782D01*
X0019311Y0162825D01*
X0019288Y0162867D01*
X0019261Y0162907D01*
X0019232Y0162945D01*
X0019199Y0162980D01*
X0019164Y0163013D01*
X0019126Y0163042D01*
X0019086Y0163069D01*
X0019044Y0163092D01*
X0019001Y0163112D01*
X0018956Y0163129D01*
X0018910Y0163142D01*
X0018863Y0163151D01*
X0018815Y0163157D01*
X0018767Y0163159D01*
X0018719Y0163157D01*
X0018671Y0163151D01*
X0018624Y0163142D01*
X0018578Y0163129D01*
X0018533Y0163112D01*
X0018490Y0163092D01*
X0018448Y0163069D01*
X0018408Y0163042D01*
X0018370Y0163013D01*
X0018335Y0162980D01*
X0018302Y0162945D01*
X0018273Y0162907D01*
X0018246Y0162867D01*
X0018223Y0162825D01*
X0018203Y0162782D01*
X0018186Y0162737D01*
X0018173Y0162691D01*
X0018164Y0162644D01*
X0018158Y0162596D01*
X0018156Y0162548D01*
X0018156Y0161937D01*
X0020356Y0161937D01*
X0019745Y0160822D02*
X0018767Y0160822D01*
X0018719Y0160820D01*
X0018671Y0160814D01*
X0018624Y0160805D01*
X0018578Y0160792D01*
X0018533Y0160775D01*
X0018490Y0160755D01*
X0018448Y0160732D01*
X0018408Y0160705D01*
X0018370Y0160676D01*
X0018335Y0160643D01*
X0018302Y0160608D01*
X0018273Y0160570D01*
X0018246Y0160530D01*
X0018223Y0160488D01*
X0018203Y0160445D01*
X0018186Y0160400D01*
X0018173Y0160354D01*
X0018164Y0160307D01*
X0018158Y0160259D01*
X0018156Y0160211D01*
X0018156Y0159600D01*
X0020356Y0159600D01*
X0020356Y0160211D01*
X0020354Y0160259D01*
X0020348Y0160307D01*
X0020339Y0160354D01*
X0020326Y0160400D01*
X0020309Y0160445D01*
X0020289Y0160488D01*
X0020266Y0160530D01*
X0020239Y0160570D01*
X0020210Y0160608D01*
X0020177Y0160643D01*
X0020142Y0160676D01*
X0020104Y0160705D01*
X0020064Y0160732D01*
X0020022Y0160755D01*
X0019979Y0160775D01*
X0019934Y0160792D01*
X0019888Y0160805D01*
X0019841Y0160814D01*
X0019793Y0160820D01*
X0019745Y0160822D01*
X0082556Y0121300D02*
X0083778Y0121300D01*
X0083167Y0121300D02*
X0083167Y0119100D01*
X0084677Y0119100D02*
X0084677Y0121300D01*
X0085288Y0121300D01*
X0085336Y0121298D01*
X0085384Y0121292D01*
X0085431Y0121283D01*
X0085477Y0121270D01*
X0085522Y0121253D01*
X0085565Y0121233D01*
X0085607Y0121210D01*
X0085647Y0121183D01*
X0085685Y0121154D01*
X0085720Y0121121D01*
X0085753Y0121086D01*
X0085782Y0121048D01*
X0085809Y0121008D01*
X0085832Y0120966D01*
X0085852Y0120923D01*
X0085869Y0120878D01*
X0085882Y0120832D01*
X0085891Y0120785D01*
X0085897Y0120737D01*
X0085899Y0120689D01*
X0085897Y0120641D01*
X0085891Y0120593D01*
X0085882Y0120546D01*
X0085869Y0120500D01*
X0085852Y0120455D01*
X0085832Y0120412D01*
X0085809Y0120370D01*
X0085782Y0120330D01*
X0085753Y0120292D01*
X0085720Y0120257D01*
X0085685Y0120224D01*
X0085647Y0120195D01*
X0085607Y0120168D01*
X0085565Y0120145D01*
X0085522Y0120125D01*
X0085477Y0120108D01*
X0085431Y0120095D01*
X0085384Y0120086D01*
X0085336Y0120080D01*
X0085288Y0120078D01*
X0084677Y0120078D01*
X0086638Y0118856D02*
X0087616Y0118856D01*
X0088460Y0119100D02*
X0089193Y0119100D01*
X0089236Y0119102D01*
X0089278Y0119107D01*
X0089320Y0119117D01*
X0089360Y0119129D01*
X0089400Y0119146D01*
X0089437Y0119166D01*
X0089473Y0119188D01*
X0089507Y0119214D01*
X0089539Y0119243D01*
X0089568Y0119275D01*
X0089594Y0119309D01*
X0089616Y0119344D01*
X0089636Y0119382D01*
X0089653Y0119422D01*
X0089665Y0119462D01*
X0089675Y0119504D01*
X0089680Y0119546D01*
X0089682Y0119589D01*
X0089682Y0119833D01*
X0089680Y0119876D01*
X0089675Y0119918D01*
X0089665Y0119960D01*
X0089653Y0120000D01*
X0089636Y0120040D01*
X0089616Y0120078D01*
X0089594Y0120113D01*
X0089568Y0120147D01*
X0089539Y0120179D01*
X0089507Y0120208D01*
X0089473Y0120234D01*
X0089438Y0120256D01*
X0089400Y0120276D01*
X0089360Y0120293D01*
X0089320Y0120305D01*
X0089278Y0120315D01*
X0089236Y0120320D01*
X0089193Y0120322D01*
X0088460Y0120322D01*
X0088460Y0121300D01*
X0089682Y0121300D01*
X0090498Y0121300D02*
X0091231Y0119100D01*
X0091964Y0121300D01*
X0094002Y0120200D02*
X0094000Y0120118D01*
X0093995Y0120036D01*
X0093985Y0119954D01*
X0093972Y0119873D01*
X0093956Y0119792D01*
X0093935Y0119713D01*
X0093911Y0119634D01*
X0093884Y0119556D01*
X0093853Y0119480D01*
X0093819Y0119406D01*
X0093819Y0119405D02*
X0093804Y0119368D01*
X0093786Y0119332D01*
X0093765Y0119298D01*
X0093741Y0119266D01*
X0093714Y0119236D01*
X0093685Y0119209D01*
X0093654Y0119184D01*
X0093620Y0119162D01*
X0093585Y0119144D01*
X0093548Y0119128D01*
X0093510Y0119116D01*
X0093471Y0119107D01*
X0093431Y0119102D01*
X0093391Y0119100D01*
X0093351Y0119102D01*
X0093311Y0119107D01*
X0093272Y0119116D01*
X0093234Y0119128D01*
X0093197Y0119144D01*
X0093162Y0119162D01*
X0093128Y0119184D01*
X0093097Y0119209D01*
X0093068Y0119236D01*
X0093041Y0119266D01*
X0093017Y0119298D01*
X0092996Y0119332D01*
X0092978Y0119368D01*
X0092963Y0119405D01*
X0092902Y0119589D02*
X0093880Y0120811D01*
X0093819Y0120995D02*
X0093804Y0121032D01*
X0093786Y0121068D01*
X0093765Y0121102D01*
X0093741Y0121134D01*
X0093714Y0121164D01*
X0093685Y0121191D01*
X0093654Y0121216D01*
X0093620Y0121238D01*
X0093585Y0121256D01*
X0093548Y0121272D01*
X0093510Y0121284D01*
X0093471Y0121293D01*
X0093431Y0121298D01*
X0093391Y0121300D01*
X0093351Y0121298D01*
X0093311Y0121293D01*
X0093272Y0121284D01*
X0093234Y0121272D01*
X0093197Y0121256D01*
X0093162Y0121238D01*
X0093128Y0121216D01*
X0093097Y0121191D01*
X0093068Y0121164D01*
X0093041Y0121134D01*
X0093017Y0121102D01*
X0092996Y0121068D01*
X0092978Y0121032D01*
X0092963Y0120995D01*
X0093819Y0120994D02*
X0093853Y0120920D01*
X0093884Y0120844D01*
X0093911Y0120766D01*
X0093935Y0120687D01*
X0093956Y0120608D01*
X0093972Y0120527D01*
X0093985Y0120446D01*
X0093995Y0120364D01*
X0094000Y0120282D01*
X0094002Y0120200D01*
X0092780Y0120200D02*
X0092782Y0120282D01*
X0092787Y0120364D01*
X0092797Y0120446D01*
X0092810Y0120527D01*
X0092826Y0120608D01*
X0092847Y0120687D01*
X0092871Y0120766D01*
X0092898Y0120844D01*
X0092929Y0120920D01*
X0092963Y0120994D01*
X0092780Y0120200D02*
X0092782Y0120118D01*
X0092787Y0120036D01*
X0092797Y0119954D01*
X0092810Y0119873D01*
X0092826Y0119792D01*
X0092847Y0119713D01*
X0092871Y0119634D01*
X0092898Y0119556D01*
X0092929Y0119480D01*
X0092963Y0119406D01*
X0091028Y0132456D02*
X0090050Y0132456D01*
X0088699Y0133678D02*
X0088088Y0133678D01*
X0088699Y0133678D02*
X0088747Y0133680D01*
X0088795Y0133686D01*
X0088842Y0133695D01*
X0088888Y0133708D01*
X0088933Y0133725D01*
X0088976Y0133745D01*
X0089018Y0133768D01*
X0089058Y0133795D01*
X0089096Y0133824D01*
X0089131Y0133857D01*
X0089164Y0133892D01*
X0089193Y0133930D01*
X0089220Y0133970D01*
X0089243Y0134012D01*
X0089263Y0134055D01*
X0089280Y0134100D01*
X0089293Y0134146D01*
X0089302Y0134193D01*
X0089308Y0134241D01*
X0089310Y0134289D01*
X0089308Y0134337D01*
X0089302Y0134385D01*
X0089293Y0134432D01*
X0089280Y0134478D01*
X0089263Y0134523D01*
X0089243Y0134566D01*
X0089220Y0134608D01*
X0089193Y0134648D01*
X0089164Y0134686D01*
X0089131Y0134721D01*
X0089096Y0134754D01*
X0089058Y0134783D01*
X0089018Y0134810D01*
X0088976Y0134833D01*
X0088933Y0134853D01*
X0088888Y0134870D01*
X0088842Y0134883D01*
X0088795Y0134892D01*
X0088747Y0134898D01*
X0088699Y0134900D01*
X0088088Y0134900D01*
X0088088Y0132700D01*
X0086579Y0132700D02*
X0086579Y0134900D01*
X0085968Y0134900D02*
X0087190Y0134900D01*
X0091948Y0134900D02*
X0091948Y0132700D01*
X0092926Y0132700D01*
X0093816Y0133189D02*
X0093816Y0134411D01*
X0093815Y0134411D02*
X0093817Y0134454D01*
X0093822Y0134496D01*
X0093832Y0134538D01*
X0093844Y0134578D01*
X0093861Y0134618D01*
X0093881Y0134655D01*
X0093903Y0134691D01*
X0093929Y0134725D01*
X0093958Y0134757D01*
X0093990Y0134786D01*
X0094024Y0134812D01*
X0094059Y0134834D01*
X0094097Y0134854D01*
X0094137Y0134871D01*
X0094177Y0134883D01*
X0094219Y0134893D01*
X0094261Y0134898D01*
X0094304Y0134900D01*
X0095038Y0134900D01*
X0095038Y0133922D02*
X0095038Y0132700D01*
X0094304Y0132700D01*
X0094261Y0132702D01*
X0094219Y0132707D01*
X0094177Y0132717D01*
X0094137Y0132729D01*
X0094097Y0132746D01*
X0094060Y0132766D01*
X0094024Y0132788D01*
X0093990Y0132814D01*
X0093958Y0132843D01*
X0093929Y0132875D01*
X0093903Y0132909D01*
X0093881Y0132945D01*
X0093861Y0132982D01*
X0093844Y0133022D01*
X0093832Y0133062D01*
X0093822Y0133104D01*
X0093817Y0133146D01*
X0093815Y0133189D01*
X0094671Y0133922D02*
X0095038Y0133922D01*
X0096134Y0133678D02*
X0096745Y0133678D01*
X0096867Y0133678D02*
X0097356Y0132700D01*
X0096134Y0132700D02*
X0096134Y0134900D01*
X0096745Y0134900D01*
X0096793Y0134898D01*
X0096841Y0134892D01*
X0096888Y0134883D01*
X0096934Y0134870D01*
X0096979Y0134853D01*
X0097022Y0134833D01*
X0097064Y0134810D01*
X0097104Y0134783D01*
X0097142Y0134754D01*
X0097177Y0134721D01*
X0097210Y0134686D01*
X0097239Y0134648D01*
X0097266Y0134608D01*
X0097289Y0134566D01*
X0097309Y0134523D01*
X0097326Y0134478D01*
X0097339Y0134432D01*
X0097348Y0134385D01*
X0097354Y0134337D01*
X0097356Y0134289D01*
X0097354Y0134241D01*
X0097348Y0134193D01*
X0097339Y0134146D01*
X0097326Y0134100D01*
X0097309Y0134055D01*
X0097289Y0134012D01*
X0097266Y0133970D01*
X0097239Y0133930D01*
X0097210Y0133892D01*
X0097177Y0133857D01*
X0097142Y0133824D01*
X0097104Y0133795D01*
X0097064Y0133768D01*
X0097022Y0133745D01*
X0096979Y0133725D01*
X0096934Y0133708D01*
X0096888Y0133695D01*
X0096841Y0133686D01*
X0096793Y0133680D01*
X0096745Y0133678D01*
X0092926Y0134900D02*
X0091948Y0134900D01*
X0091948Y0133922D02*
X0092681Y0133922D01*
X0118256Y0120990D02*
X0118258Y0121032D01*
X0118264Y0121073D01*
X0118273Y0121113D01*
X0118286Y0121153D01*
X0118303Y0121191D01*
X0118323Y0121227D01*
X0118347Y0121261D01*
X0118373Y0121293D01*
X0118403Y0121323D01*
X0118435Y0121349D01*
X0118469Y0121373D01*
X0118505Y0121393D01*
X0118543Y0121410D01*
X0118583Y0121423D01*
X0118623Y0121432D01*
X0118664Y0121438D01*
X0118706Y0121440D01*
X0119056Y0121290D02*
X0120056Y0120440D01*
X0120056Y0121440D01*
X0118656Y0120440D02*
X0118613Y0120456D01*
X0118572Y0120475D01*
X0118532Y0120497D01*
X0118495Y0120522D01*
X0118459Y0120550D01*
X0118426Y0120581D01*
X0118395Y0120614D01*
X0118367Y0120650D01*
X0118341Y0120688D01*
X0118319Y0120727D01*
X0118300Y0120769D01*
X0118284Y0120811D01*
X0118272Y0120855D01*
X0118263Y0120900D01*
X0118258Y0120945D01*
X0118256Y0120990D01*
X0118706Y0121440D02*
X0118745Y0121438D01*
X0118784Y0121434D01*
X0118822Y0121426D01*
X0118860Y0121415D01*
X0118896Y0121401D01*
X0118932Y0121384D01*
X0118965Y0121364D01*
X0118997Y0121342D01*
X0119028Y0121317D01*
X0119056Y0121290D01*
X0119306Y0119500D02*
X0119006Y0118950D01*
X0118256Y0119150D02*
X0118258Y0119204D01*
X0118264Y0119257D01*
X0118273Y0119310D01*
X0118286Y0119362D01*
X0118303Y0119412D01*
X0118324Y0119462D01*
X0118348Y0119510D01*
X0118375Y0119556D01*
X0118406Y0119600D01*
X0119006Y0118950D02*
X0118985Y0118918D01*
X0118961Y0118888D01*
X0118934Y0118860D01*
X0118905Y0118835D01*
X0118874Y0118813D01*
X0118841Y0118794D01*
X0118806Y0118779D01*
X0118769Y0118766D01*
X0118732Y0118757D01*
X0118694Y0118752D01*
X0118656Y0118750D01*
X0118617Y0118752D01*
X0118578Y0118758D01*
X0118540Y0118767D01*
X0118503Y0118780D01*
X0118467Y0118797D01*
X0118434Y0118817D01*
X0118402Y0118841D01*
X0118373Y0118867D01*
X0118347Y0118896D01*
X0118323Y0118928D01*
X0118303Y0118961D01*
X0118286Y0118997D01*
X0118273Y0119034D01*
X0118264Y0119072D01*
X0118258Y0119111D01*
X0118256Y0119150D01*
X0119806Y0118700D02*
X0119844Y0118740D01*
X0119880Y0118783D01*
X0119912Y0118828D01*
X0119942Y0118875D01*
X0119968Y0118924D01*
X0119991Y0118975D01*
X0120011Y0119027D01*
X0120027Y0119080D01*
X0120040Y0119134D01*
X0120049Y0119189D01*
X0120054Y0119244D01*
X0120056Y0119300D01*
X0120054Y0119339D01*
X0120048Y0119378D01*
X0120039Y0119416D01*
X0120026Y0119453D01*
X0120009Y0119489D01*
X0119989Y0119522D01*
X0119965Y0119554D01*
X0119939Y0119583D01*
X0119910Y0119609D01*
X0119878Y0119633D01*
X0119845Y0119653D01*
X0119809Y0119670D01*
X0119772Y0119683D01*
X0119734Y0119692D01*
X0119695Y0119698D01*
X0119656Y0119700D01*
X0119618Y0119698D01*
X0119580Y0119693D01*
X0119543Y0119684D01*
X0119506Y0119671D01*
X0119471Y0119656D01*
X0119438Y0119637D01*
X0119407Y0119615D01*
X0119378Y0119590D01*
X0119351Y0119562D01*
X0119327Y0119532D01*
X0119306Y0119500D01*
X0119256Y0117550D02*
X0119256Y0117050D01*
X0119256Y0117550D02*
X0119254Y0117594D01*
X0119248Y0117637D01*
X0119239Y0117679D01*
X0119226Y0117721D01*
X0119209Y0117761D01*
X0119189Y0117800D01*
X0119166Y0117837D01*
X0119139Y0117871D01*
X0119110Y0117904D01*
X0119077Y0117933D01*
X0119043Y0117960D01*
X0119006Y0117983D01*
X0118967Y0118003D01*
X0118927Y0118020D01*
X0118885Y0118033D01*
X0118843Y0118042D01*
X0118800Y0118048D01*
X0118756Y0118050D01*
X0118712Y0118048D01*
X0118669Y0118042D01*
X0118627Y0118033D01*
X0118585Y0118020D01*
X0118545Y0118003D01*
X0118506Y0117983D01*
X0118469Y0117960D01*
X0118435Y0117933D01*
X0118402Y0117904D01*
X0118373Y0117871D01*
X0118346Y0117837D01*
X0118323Y0117800D01*
X0118303Y0117761D01*
X0118286Y0117721D01*
X0118273Y0117679D01*
X0118264Y0117637D01*
X0118258Y0117594D01*
X0118256Y0117550D01*
X0118256Y0117050D01*
X0120056Y0117050D01*
X0119556Y0116100D02*
X0118256Y0116100D01*
X0118256Y0115100D02*
X0119556Y0115100D01*
X0119600Y0115102D01*
X0119643Y0115108D01*
X0119685Y0115117D01*
X0119727Y0115130D01*
X0119767Y0115147D01*
X0119806Y0115167D01*
X0119843Y0115190D01*
X0119877Y0115217D01*
X0119910Y0115246D01*
X0119939Y0115279D01*
X0119966Y0115313D01*
X0119989Y0115350D01*
X0120009Y0115389D01*
X0120026Y0115429D01*
X0120039Y0115471D01*
X0120048Y0115513D01*
X0120054Y0115556D01*
X0120056Y0115600D01*
X0120054Y0115644D01*
X0120048Y0115687D01*
X0120039Y0115729D01*
X0120026Y0115771D01*
X0120009Y0115811D01*
X0119989Y0115850D01*
X0119966Y0115887D01*
X0119939Y0115921D01*
X0119910Y0115954D01*
X0119877Y0115983D01*
X0119843Y0116010D01*
X0119806Y0116033D01*
X0119767Y0116053D01*
X0119727Y0116070D01*
X0119685Y0116083D01*
X0119643Y0116092D01*
X0119600Y0116098D01*
X0119556Y0116100D01*
X0122356Y0060684D02*
X0120156Y0059951D01*
X0122356Y0059218D01*
X0121806Y0059401D02*
X0121806Y0060501D01*
X0122356Y0057935D02*
X0120156Y0057935D01*
X0120156Y0057324D02*
X0120156Y0058546D01*
X0120156Y0055919D02*
X0122356Y0056652D01*
X0121806Y0056469D02*
X0121806Y0055369D01*
X0122356Y0055186D02*
X0120156Y0055919D01*
X0120767Y0054298D02*
X0121745Y0054298D01*
X0121793Y0054296D01*
X0121841Y0054290D01*
X0121888Y0054281D01*
X0121934Y0054268D01*
X0121979Y0054251D01*
X0122022Y0054231D01*
X0122064Y0054208D01*
X0122104Y0054181D01*
X0122142Y0054152D01*
X0122177Y0054119D01*
X0122210Y0054084D01*
X0122239Y0054046D01*
X0122266Y0054006D01*
X0122289Y0053964D01*
X0122309Y0053921D01*
X0122326Y0053876D01*
X0122339Y0053830D01*
X0122348Y0053783D01*
X0122354Y0053735D01*
X0122356Y0053687D01*
X0122356Y0053076D01*
X0120156Y0053076D01*
X0120156Y0053687D01*
X0120158Y0053735D01*
X0120164Y0053783D01*
X0120173Y0053830D01*
X0120186Y0053876D01*
X0120203Y0053921D01*
X0120223Y0053964D01*
X0120246Y0054006D01*
X0120273Y0054046D01*
X0120302Y0054084D01*
X0120335Y0054119D01*
X0120370Y0054152D01*
X0120408Y0054181D01*
X0120448Y0054208D01*
X0120490Y0054231D01*
X0120533Y0054251D01*
X0120578Y0054268D01*
X0120624Y0054281D01*
X0120671Y0054290D01*
X0120719Y0054296D01*
X0120767Y0054298D01*
X0122600Y0052160D02*
X0122600Y0051182D01*
X0121378Y0049832D02*
X0121378Y0049221D01*
X0121378Y0049832D02*
X0121376Y0049880D01*
X0121370Y0049928D01*
X0121361Y0049975D01*
X0121348Y0050021D01*
X0121331Y0050066D01*
X0121311Y0050109D01*
X0121288Y0050151D01*
X0121261Y0050191D01*
X0121232Y0050229D01*
X0121199Y0050264D01*
X0121164Y0050297D01*
X0121126Y0050326D01*
X0121086Y0050353D01*
X0121044Y0050376D01*
X0121001Y0050396D01*
X0120956Y0050413D01*
X0120910Y0050426D01*
X0120863Y0050435D01*
X0120815Y0050441D01*
X0120767Y0050443D01*
X0120719Y0050441D01*
X0120671Y0050435D01*
X0120624Y0050426D01*
X0120578Y0050413D01*
X0120533Y0050396D01*
X0120490Y0050376D01*
X0120448Y0050353D01*
X0120408Y0050326D01*
X0120370Y0050297D01*
X0120335Y0050264D01*
X0120302Y0050229D01*
X0120273Y0050191D01*
X0120246Y0050151D01*
X0120223Y0050109D01*
X0120203Y0050066D01*
X0120186Y0050021D01*
X0120173Y0049975D01*
X0120164Y0049928D01*
X0120158Y0049880D01*
X0120156Y0049832D01*
X0120156Y0049221D01*
X0122356Y0049221D01*
X0122356Y0047711D02*
X0120156Y0047711D01*
X0120156Y0047100D02*
X0120156Y0048322D01*
X0044867Y0011900D02*
X0044134Y0011900D01*
X0043318Y0011900D02*
X0042585Y0009700D01*
X0041852Y0011900D01*
X0040547Y0011900D02*
X0039814Y0011900D01*
X0040547Y0011900D02*
X0040590Y0011898D01*
X0040632Y0011893D01*
X0040674Y0011883D01*
X0040714Y0011871D01*
X0040754Y0011854D01*
X0040792Y0011834D01*
X0040827Y0011812D01*
X0040861Y0011786D01*
X0040893Y0011757D01*
X0040922Y0011725D01*
X0040948Y0011691D01*
X0040970Y0011655D01*
X0040990Y0011618D01*
X0041007Y0011578D01*
X0041019Y0011538D01*
X0041029Y0011496D01*
X0041034Y0011454D01*
X0041036Y0011411D01*
X0041034Y0011368D01*
X0041029Y0011326D01*
X0041019Y0011284D01*
X0041007Y0011244D01*
X0040990Y0011204D01*
X0040970Y0011167D01*
X0040948Y0011131D01*
X0040922Y0011097D01*
X0040893Y0011065D01*
X0040861Y0011036D01*
X0040827Y0011010D01*
X0040792Y0010988D01*
X0040754Y0010968D01*
X0040714Y0010951D01*
X0040674Y0010939D01*
X0040632Y0010929D01*
X0040590Y0010924D01*
X0040547Y0010922D01*
X0040058Y0010922D01*
X0040425Y0010922D02*
X0040473Y0010920D01*
X0040521Y0010914D01*
X0040568Y0010905D01*
X0040614Y0010892D01*
X0040659Y0010875D01*
X0040702Y0010855D01*
X0040744Y0010832D01*
X0040784Y0010805D01*
X0040822Y0010776D01*
X0040857Y0010743D01*
X0040890Y0010708D01*
X0040919Y0010670D01*
X0040946Y0010630D01*
X0040969Y0010588D01*
X0040989Y0010545D01*
X0041006Y0010500D01*
X0041019Y0010454D01*
X0041028Y0010407D01*
X0041034Y0010359D01*
X0041036Y0010311D01*
X0041034Y0010263D01*
X0041028Y0010215D01*
X0041019Y0010168D01*
X0041006Y0010122D01*
X0040989Y0010077D01*
X0040969Y0010034D01*
X0040946Y0009992D01*
X0040919Y0009952D01*
X0040890Y0009914D01*
X0040857Y0009879D01*
X0040822Y0009846D01*
X0040784Y0009817D01*
X0040744Y0009790D01*
X0040702Y0009767D01*
X0040659Y0009747D01*
X0040614Y0009730D01*
X0040568Y0009717D01*
X0040521Y0009708D01*
X0040473Y0009702D01*
X0040425Y0009700D01*
X0039814Y0009700D01*
X0038970Y0009456D02*
X0037992Y0009456D01*
X0036642Y0010678D02*
X0036030Y0010678D01*
X0036642Y0010678D02*
X0036690Y0010680D01*
X0036738Y0010686D01*
X0036785Y0010695D01*
X0036831Y0010708D01*
X0036876Y0010725D01*
X0036919Y0010745D01*
X0036961Y0010768D01*
X0037001Y0010795D01*
X0037039Y0010824D01*
X0037074Y0010857D01*
X0037107Y0010892D01*
X0037136Y0010930D01*
X0037163Y0010970D01*
X0037186Y0011012D01*
X0037206Y0011055D01*
X0037223Y0011100D01*
X0037236Y0011146D01*
X0037245Y0011193D01*
X0037251Y0011241D01*
X0037253Y0011289D01*
X0037251Y0011337D01*
X0037245Y0011385D01*
X0037236Y0011432D01*
X0037223Y0011478D01*
X0037206Y0011523D01*
X0037186Y0011566D01*
X0037163Y0011608D01*
X0037136Y0011648D01*
X0037107Y0011686D01*
X0037074Y0011721D01*
X0037039Y0011754D01*
X0037001Y0011783D01*
X0036961Y0011810D01*
X0036919Y0011833D01*
X0036876Y0011853D01*
X0036831Y0011870D01*
X0036785Y0011883D01*
X0036738Y0011892D01*
X0036690Y0011898D01*
X0036642Y0011900D01*
X0036030Y0011900D01*
X0036030Y0009700D01*
X0034521Y0009700D02*
X0034521Y0011900D01*
X0033910Y0011900D02*
X0035132Y0011900D01*
X0044134Y0009700D02*
X0044745Y0009700D01*
X0044793Y0009702D01*
X0044841Y0009708D01*
X0044888Y0009717D01*
X0044934Y0009730D01*
X0044979Y0009747D01*
X0045022Y0009767D01*
X0045064Y0009790D01*
X0045104Y0009817D01*
X0045142Y0009846D01*
X0045177Y0009879D01*
X0045210Y0009914D01*
X0045239Y0009952D01*
X0045266Y0009992D01*
X0045289Y0010034D01*
X0045309Y0010077D01*
X0045326Y0010122D01*
X0045339Y0010168D01*
X0045348Y0010215D01*
X0045354Y0010263D01*
X0045356Y0010311D01*
X0045354Y0010359D01*
X0045348Y0010407D01*
X0045339Y0010454D01*
X0045326Y0010500D01*
X0045309Y0010545D01*
X0045289Y0010588D01*
X0045266Y0010630D01*
X0045239Y0010670D01*
X0045210Y0010708D01*
X0045177Y0010743D01*
X0045142Y0010776D01*
X0045104Y0010805D01*
X0045064Y0010832D01*
X0045022Y0010855D01*
X0044979Y0010875D01*
X0044934Y0010892D01*
X0044888Y0010905D01*
X0044841Y0010914D01*
X0044793Y0010920D01*
X0044745Y0010922D01*
X0044867Y0010922D02*
X0044378Y0010922D01*
X0044867Y0010922D02*
X0044910Y0010924D01*
X0044952Y0010929D01*
X0044994Y0010939D01*
X0045034Y0010951D01*
X0045074Y0010968D01*
X0045112Y0010988D01*
X0045147Y0011010D01*
X0045181Y0011036D01*
X0045213Y0011065D01*
X0045242Y0011097D01*
X0045268Y0011131D01*
X0045290Y0011167D01*
X0045310Y0011204D01*
X0045327Y0011244D01*
X0045339Y0011284D01*
X0045349Y0011326D01*
X0045354Y0011368D01*
X0045356Y0011411D01*
X0045354Y0011454D01*
X0045349Y0011496D01*
X0045339Y0011538D01*
X0045327Y0011578D01*
X0045310Y0011618D01*
X0045290Y0011655D01*
X0045268Y0011691D01*
X0045242Y0011725D01*
X0045213Y0011757D01*
X0045181Y0011786D01*
X0045147Y0011812D01*
X0045112Y0011834D01*
X0045074Y0011854D01*
X0045034Y0011871D01*
X0044994Y0011883D01*
X0044952Y0011893D01*
X0044910Y0011898D01*
X0044867Y0011900D01*
X0124307Y0226052D02*
X0125285Y0226052D01*
X0126206Y0226297D02*
X0126206Y0228497D01*
X0127183Y0228497D01*
X0127995Y0228008D02*
X0127995Y0226786D01*
X0127997Y0226743D01*
X0128002Y0226701D01*
X0128012Y0226659D01*
X0128024Y0226619D01*
X0128041Y0226579D01*
X0128061Y0226542D01*
X0128083Y0226506D01*
X0128109Y0226472D01*
X0128138Y0226440D01*
X0128170Y0226411D01*
X0128204Y0226385D01*
X0128240Y0226363D01*
X0128277Y0226343D01*
X0128317Y0226326D01*
X0128357Y0226314D01*
X0128399Y0226304D01*
X0128441Y0226299D01*
X0128484Y0226297D01*
X0128973Y0226297D01*
X0129873Y0226908D02*
X0129873Y0228497D01*
X0128973Y0228497D02*
X0128484Y0228497D01*
X0128441Y0228495D01*
X0128399Y0228490D01*
X0128357Y0228480D01*
X0128317Y0228468D01*
X0128277Y0228451D01*
X0128239Y0228431D01*
X0128204Y0228409D01*
X0128170Y0228383D01*
X0128138Y0228354D01*
X0128109Y0228322D01*
X0128083Y0228288D01*
X0128061Y0228252D01*
X0128041Y0228215D01*
X0128024Y0228175D01*
X0128012Y0228135D01*
X0128002Y0228093D01*
X0127997Y0228051D01*
X0127995Y0228008D01*
X0126939Y0227519D02*
X0126206Y0227519D01*
X0126206Y0226297D02*
X0127183Y0226297D01*
X0129873Y0226908D02*
X0129875Y0226860D01*
X0129881Y0226812D01*
X0129890Y0226765D01*
X0129903Y0226719D01*
X0129920Y0226674D01*
X0129940Y0226631D01*
X0129963Y0226589D01*
X0129990Y0226549D01*
X0130019Y0226511D01*
X0130052Y0226476D01*
X0130087Y0226443D01*
X0130125Y0226414D01*
X0130165Y0226387D01*
X0130207Y0226364D01*
X0130250Y0226344D01*
X0130295Y0226327D01*
X0130341Y0226314D01*
X0130388Y0226305D01*
X0130436Y0226299D01*
X0130484Y0226297D01*
X0130532Y0226299D01*
X0130580Y0226305D01*
X0130627Y0226314D01*
X0130673Y0226327D01*
X0130718Y0226344D01*
X0130761Y0226364D01*
X0130803Y0226387D01*
X0130843Y0226414D01*
X0130881Y0226443D01*
X0130916Y0226476D01*
X0130949Y0226511D01*
X0130978Y0226549D01*
X0131005Y0226589D01*
X0131028Y0226631D01*
X0131048Y0226674D01*
X0131065Y0226719D01*
X0131078Y0226765D01*
X0131087Y0226812D01*
X0131093Y0226860D01*
X0131095Y0226908D01*
X0131095Y0228497D01*
X0122957Y0228497D02*
X0122346Y0228497D01*
X0122346Y0226297D01*
X0122346Y0227275D02*
X0122957Y0227275D01*
X0123005Y0227277D01*
X0123053Y0227283D01*
X0123100Y0227292D01*
X0123146Y0227305D01*
X0123191Y0227322D01*
X0123234Y0227342D01*
X0123276Y0227365D01*
X0123316Y0227392D01*
X0123354Y0227421D01*
X0123389Y0227454D01*
X0123422Y0227489D01*
X0123451Y0227527D01*
X0123478Y0227567D01*
X0123501Y0227609D01*
X0123521Y0227652D01*
X0123538Y0227697D01*
X0123551Y0227743D01*
X0123560Y0227790D01*
X0123566Y0227838D01*
X0123568Y0227886D01*
X0123566Y0227934D01*
X0123560Y0227982D01*
X0123551Y0228029D01*
X0123538Y0228075D01*
X0123521Y0228120D01*
X0123501Y0228163D01*
X0123478Y0228205D01*
X0123451Y0228245D01*
X0123422Y0228283D01*
X0123389Y0228318D01*
X0123354Y0228351D01*
X0123316Y0228380D01*
X0123276Y0228407D01*
X0123234Y0228430D01*
X0123191Y0228450D01*
X0123146Y0228467D01*
X0123100Y0228480D01*
X0123053Y0228489D01*
X0123005Y0228495D01*
X0122957Y0228497D01*
X0121448Y0228497D02*
X0120225Y0228497D01*
X0120836Y0228497D02*
X0120836Y0226297D01*
D12*
X0131762Y0154087D02*
X0132373Y0154087D01*
X0132373Y0151642D01*
X0131762Y0151642D02*
X0133289Y0151642D01*
X0133347Y0151644D01*
X0133404Y0151649D01*
X0133461Y0151658D01*
X0133517Y0151671D01*
X0133572Y0151687D01*
X0133627Y0151706D01*
X0133679Y0151729D01*
X0133731Y0151755D01*
X0133780Y0151785D01*
X0133828Y0151817D01*
X0133874Y0151852D01*
X0133917Y0151891D01*
X0133957Y0151931D01*
X0133996Y0151974D01*
X0134031Y0152020D01*
X0134063Y0152068D01*
X0134093Y0152117D01*
X0134119Y0152169D01*
X0134142Y0152221D01*
X0134161Y0152276D01*
X0134177Y0152331D01*
X0134190Y0152387D01*
X0134199Y0152444D01*
X0134204Y0152501D01*
X0134206Y0152559D01*
X0134206Y0154087D01*
X0131762Y0154086D02*
X0131693Y0154084D01*
X0131625Y0154078D01*
X0131557Y0154069D01*
X0131490Y0154055D01*
X0131424Y0154038D01*
X0131358Y0154017D01*
X0131294Y0153993D01*
X0131232Y0153965D01*
X0131171Y0153934D01*
X0131112Y0153899D01*
X0131055Y0153861D01*
X0131000Y0153819D01*
X0130948Y0153775D01*
X0130898Y0153728D01*
X0130851Y0153678D01*
X0130807Y0153626D01*
X0130765Y0153571D01*
X0130727Y0153514D01*
X0130692Y0153455D01*
X0130661Y0153394D01*
X0130633Y0153332D01*
X0130609Y0153268D01*
X0130588Y0153202D01*
X0130571Y0153136D01*
X0130557Y0153069D01*
X0130548Y0153001D01*
X0130542Y0152933D01*
X0130540Y0152864D01*
X0130542Y0152795D01*
X0130548Y0152727D01*
X0130557Y0152659D01*
X0130571Y0152592D01*
X0130588Y0152526D01*
X0130609Y0152460D01*
X0130633Y0152396D01*
X0130661Y0152334D01*
X0130692Y0152273D01*
X0130727Y0152214D01*
X0130765Y0152157D01*
X0130807Y0152102D01*
X0130851Y0152050D01*
X0130898Y0152000D01*
X0130948Y0151953D01*
X0131000Y0151909D01*
X0131055Y0151867D01*
X0131112Y0151829D01*
X0131171Y0151794D01*
X0131232Y0151763D01*
X0131294Y0151735D01*
X0131358Y0151711D01*
X0131424Y0151690D01*
X0131490Y0151673D01*
X0131557Y0151659D01*
X0131625Y0151650D01*
X0131693Y0151644D01*
X0131762Y0151642D01*
X0134206Y0149754D02*
X0134204Y0149696D01*
X0134199Y0149639D01*
X0134190Y0149582D01*
X0134177Y0149526D01*
X0134161Y0149471D01*
X0134142Y0149416D01*
X0134119Y0149364D01*
X0134093Y0149312D01*
X0134063Y0149263D01*
X0134031Y0149215D01*
X0133996Y0149169D01*
X0133957Y0149126D01*
X0133917Y0149086D01*
X0133874Y0149047D01*
X0133828Y0149012D01*
X0133780Y0148980D01*
X0133731Y0148950D01*
X0133679Y0148924D01*
X0133627Y0148901D01*
X0133572Y0148882D01*
X0133517Y0148866D01*
X0133461Y0148853D01*
X0133404Y0148844D01*
X0133347Y0148839D01*
X0133289Y0148837D01*
X0133289Y0148838D02*
X0128706Y0148838D01*
X0130539Y0147040D02*
X0130539Y0145207D01*
X0134206Y0145207D01*
X0134206Y0142769D02*
X0134206Y0141242D01*
X0134204Y0141184D01*
X0134199Y0141127D01*
X0134190Y0141070D01*
X0134177Y0141014D01*
X0134161Y0140959D01*
X0134142Y0140904D01*
X0134119Y0140852D01*
X0134093Y0140800D01*
X0134063Y0140751D01*
X0134031Y0140703D01*
X0133996Y0140657D01*
X0133957Y0140614D01*
X0133917Y0140574D01*
X0133874Y0140535D01*
X0133828Y0140500D01*
X0133780Y0140468D01*
X0133731Y0140438D01*
X0133679Y0140412D01*
X0133627Y0140389D01*
X0133572Y0140370D01*
X0133517Y0140354D01*
X0133461Y0140341D01*
X0133404Y0140332D01*
X0133347Y0140327D01*
X0133289Y0140325D01*
X0131762Y0140325D01*
X0132373Y0140325D02*
X0132373Y0142769D01*
X0131762Y0142769D01*
X0131693Y0142767D01*
X0131625Y0142761D01*
X0131557Y0142752D01*
X0131490Y0142738D01*
X0131424Y0142721D01*
X0131358Y0142700D01*
X0131294Y0142676D01*
X0131232Y0142648D01*
X0131171Y0142617D01*
X0131112Y0142582D01*
X0131055Y0142544D01*
X0131000Y0142502D01*
X0130948Y0142458D01*
X0130898Y0142411D01*
X0130851Y0142361D01*
X0130807Y0142309D01*
X0130765Y0142254D01*
X0130727Y0142197D01*
X0130692Y0142138D01*
X0130661Y0142077D01*
X0130633Y0142015D01*
X0130609Y0141951D01*
X0130588Y0141885D01*
X0130571Y0141819D01*
X0130557Y0141752D01*
X0130548Y0141684D01*
X0130542Y0141616D01*
X0130540Y0141547D01*
X0130542Y0141478D01*
X0130548Y0141410D01*
X0130557Y0141342D01*
X0130571Y0141275D01*
X0130588Y0141209D01*
X0130609Y0141143D01*
X0130633Y0141079D01*
X0130661Y0141017D01*
X0130692Y0140956D01*
X0130727Y0140897D01*
X0130765Y0140840D01*
X0130807Y0140785D01*
X0130851Y0140733D01*
X0130898Y0140683D01*
X0130948Y0140636D01*
X0131000Y0140592D01*
X0131055Y0140550D01*
X0131112Y0140512D01*
X0131171Y0140477D01*
X0131232Y0140446D01*
X0131294Y0140418D01*
X0131358Y0140394D01*
X0131424Y0140373D01*
X0131490Y0140356D01*
X0131557Y0140342D01*
X0131625Y0140333D01*
X0131693Y0140327D01*
X0131762Y0140325D01*
X0131456Y0138127D02*
X0133289Y0138127D01*
X0133347Y0138125D01*
X0133404Y0138120D01*
X0133461Y0138111D01*
X0133517Y0138098D01*
X0133572Y0138082D01*
X0133627Y0138063D01*
X0133679Y0138040D01*
X0133731Y0138014D01*
X0133780Y0137984D01*
X0133828Y0137952D01*
X0133874Y0137917D01*
X0133917Y0137878D01*
X0133957Y0137838D01*
X0133996Y0137795D01*
X0134031Y0137749D01*
X0134063Y0137701D01*
X0134093Y0137652D01*
X0134119Y0137600D01*
X0134142Y0137548D01*
X0134161Y0137493D01*
X0134177Y0137438D01*
X0134190Y0137382D01*
X0134199Y0137325D01*
X0134204Y0137268D01*
X0134206Y0137210D01*
X0134206Y0135682D01*
X0128706Y0135682D01*
X0128706Y0133493D02*
X0128706Y0131048D01*
X0134206Y0131048D01*
X0134206Y0133493D01*
X0131150Y0132882D02*
X0131150Y0131048D01*
X0130539Y0135682D02*
X0130539Y0137210D01*
X0130541Y0137268D01*
X0130546Y0137325D01*
X0130555Y0137382D01*
X0130568Y0137438D01*
X0130584Y0137493D01*
X0130603Y0137548D01*
X0130626Y0137600D01*
X0130652Y0137652D01*
X0130682Y0137701D01*
X0130714Y0137749D01*
X0130749Y0137795D01*
X0130788Y0137838D01*
X0130828Y0137878D01*
X0130871Y0137917D01*
X0130917Y0137952D01*
X0130965Y0137984D01*
X0131014Y0138014D01*
X0131066Y0138040D01*
X0131118Y0138063D01*
X0131173Y0138082D01*
X0131228Y0138098D01*
X0131284Y0138111D01*
X0131341Y0138120D01*
X0131398Y0138125D01*
X0131456Y0138127D01*
X0131150Y0147040D02*
X0130539Y0147040D01*
X0131456Y0125524D02*
X0134206Y0125524D01*
X0134206Y0123080D02*
X0130539Y0123080D01*
X0130539Y0124607D01*
X0130541Y0124667D01*
X0130547Y0124727D01*
X0130557Y0124786D01*
X0130570Y0124844D01*
X0130588Y0124902D01*
X0130609Y0124958D01*
X0130634Y0125013D01*
X0130662Y0125065D01*
X0130694Y0125116D01*
X0130728Y0125165D01*
X0130767Y0125212D01*
X0130808Y0125255D01*
X0130851Y0125296D01*
X0130898Y0125335D01*
X0130947Y0125369D01*
X0130997Y0125401D01*
X0131050Y0125429D01*
X0131105Y0125454D01*
X0131161Y0125475D01*
X0131219Y0125493D01*
X0131277Y0125506D01*
X0131336Y0125516D01*
X0131396Y0125522D01*
X0131456Y0125524D01*
X0131456Y0120494D02*
X0134206Y0120494D01*
X0134206Y0118050D02*
X0128706Y0118050D01*
X0130539Y0118050D02*
X0130539Y0119577D01*
X0130541Y0119637D01*
X0130547Y0119697D01*
X0130557Y0119756D01*
X0130570Y0119814D01*
X0130588Y0119872D01*
X0130609Y0119928D01*
X0130634Y0119983D01*
X0130662Y0120035D01*
X0130694Y0120086D01*
X0130728Y0120135D01*
X0130767Y0120182D01*
X0130808Y0120225D01*
X0130851Y0120266D01*
X0130898Y0120305D01*
X0130947Y0120339D01*
X0130997Y0120371D01*
X0131050Y0120399D01*
X0131105Y0120424D01*
X0131161Y0120445D01*
X0131219Y0120463D01*
X0131277Y0120476D01*
X0131336Y0120486D01*
X0131396Y0120492D01*
X0131456Y0120494D01*
X0131762Y0115644D02*
X0132984Y0115644D01*
X0133053Y0115642D01*
X0133121Y0115636D01*
X0133189Y0115627D01*
X0133256Y0115613D01*
X0133322Y0115596D01*
X0133388Y0115575D01*
X0133452Y0115551D01*
X0133514Y0115523D01*
X0133575Y0115492D01*
X0133634Y0115457D01*
X0133691Y0115419D01*
X0133746Y0115377D01*
X0133798Y0115333D01*
X0133848Y0115286D01*
X0133895Y0115236D01*
X0133939Y0115184D01*
X0133981Y0115129D01*
X0134019Y0115072D01*
X0134054Y0115013D01*
X0134085Y0114952D01*
X0134113Y0114890D01*
X0134137Y0114826D01*
X0134158Y0114760D01*
X0134175Y0114694D01*
X0134189Y0114627D01*
X0134198Y0114559D01*
X0134204Y0114491D01*
X0134206Y0114422D01*
X0134204Y0114353D01*
X0134198Y0114285D01*
X0134189Y0114217D01*
X0134175Y0114150D01*
X0134158Y0114084D01*
X0134137Y0114018D01*
X0134113Y0113954D01*
X0134085Y0113892D01*
X0134054Y0113831D01*
X0134019Y0113772D01*
X0133981Y0113715D01*
X0133939Y0113660D01*
X0133895Y0113608D01*
X0133848Y0113558D01*
X0133798Y0113511D01*
X0133746Y0113467D01*
X0133691Y0113425D01*
X0133634Y0113387D01*
X0133575Y0113352D01*
X0133514Y0113321D01*
X0133452Y0113293D01*
X0133388Y0113269D01*
X0133322Y0113248D01*
X0133256Y0113231D01*
X0133189Y0113217D01*
X0133121Y0113208D01*
X0133053Y0113202D01*
X0132984Y0113200D01*
X0132984Y0113199D02*
X0131762Y0113199D01*
X0131762Y0113200D02*
X0131693Y0113202D01*
X0131625Y0113208D01*
X0131557Y0113217D01*
X0131490Y0113231D01*
X0131424Y0113248D01*
X0131358Y0113269D01*
X0131294Y0113293D01*
X0131232Y0113321D01*
X0131171Y0113352D01*
X0131112Y0113387D01*
X0131055Y0113425D01*
X0131000Y0113467D01*
X0130948Y0113511D01*
X0130898Y0113558D01*
X0130851Y0113608D01*
X0130807Y0113660D01*
X0130765Y0113715D01*
X0130727Y0113772D01*
X0130692Y0113831D01*
X0130661Y0113892D01*
X0130633Y0113954D01*
X0130609Y0114018D01*
X0130588Y0114084D01*
X0130571Y0114150D01*
X0130557Y0114217D01*
X0130548Y0114285D01*
X0130542Y0114353D01*
X0130540Y0114422D01*
X0130542Y0114491D01*
X0130548Y0114559D01*
X0130557Y0114627D01*
X0130571Y0114694D01*
X0130588Y0114760D01*
X0130609Y0114826D01*
X0130633Y0114890D01*
X0130661Y0114952D01*
X0130692Y0115013D01*
X0130727Y0115072D01*
X0130765Y0115129D01*
X0130807Y0115184D01*
X0130851Y0115236D01*
X0130898Y0115286D01*
X0130948Y0115333D01*
X0131000Y0115377D01*
X0131055Y0115419D01*
X0131112Y0115457D01*
X0131171Y0115492D01*
X0131232Y0115523D01*
X0131294Y0115551D01*
X0131358Y0115575D01*
X0131424Y0115596D01*
X0131490Y0115613D01*
X0131557Y0115627D01*
X0131625Y0115636D01*
X0131693Y0115642D01*
X0131762Y0115644D01*
X0132984Y0110762D02*
X0128706Y0110762D01*
X0129928Y0103967D02*
X0129997Y0103965D01*
X0130065Y0103959D01*
X0130133Y0103950D01*
X0130200Y0103936D01*
X0130266Y0103919D01*
X0130332Y0103898D01*
X0130396Y0103874D01*
X0130458Y0103846D01*
X0130519Y0103815D01*
X0130578Y0103780D01*
X0130635Y0103742D01*
X0130690Y0103700D01*
X0130742Y0103656D01*
X0130792Y0103609D01*
X0130839Y0103559D01*
X0130883Y0103507D01*
X0130925Y0103452D01*
X0130963Y0103395D01*
X0130998Y0103336D01*
X0131029Y0103275D01*
X0131057Y0103213D01*
X0131081Y0103149D01*
X0131102Y0103083D01*
X0131119Y0103017D01*
X0131133Y0102950D01*
X0131142Y0102882D01*
X0131148Y0102814D01*
X0131150Y0102745D01*
X0131148Y0102676D01*
X0131142Y0102608D01*
X0131133Y0102540D01*
X0131119Y0102473D01*
X0131102Y0102407D01*
X0131081Y0102341D01*
X0131057Y0102277D01*
X0131029Y0102215D01*
X0130998Y0102154D01*
X0130963Y0102095D01*
X0130925Y0102038D01*
X0130883Y0101983D01*
X0130839Y0101931D01*
X0130792Y0101881D01*
X0130742Y0101834D01*
X0130690Y0101790D01*
X0130635Y0101748D01*
X0130578Y0101710D01*
X0130519Y0101675D01*
X0130458Y0101644D01*
X0130396Y0101616D01*
X0130332Y0101592D01*
X0130266Y0101571D01*
X0130200Y0101554D01*
X0130133Y0101540D01*
X0130065Y0101531D01*
X0129997Y0101525D01*
X0129928Y0101523D01*
X0129859Y0101525D01*
X0129791Y0101531D01*
X0129723Y0101540D01*
X0129656Y0101554D01*
X0129590Y0101571D01*
X0129524Y0101592D01*
X0129460Y0101616D01*
X0129398Y0101644D01*
X0129337Y0101675D01*
X0129278Y0101710D01*
X0129221Y0101748D01*
X0129166Y0101790D01*
X0129114Y0101834D01*
X0129064Y0101881D01*
X0129017Y0101931D01*
X0128973Y0101983D01*
X0128931Y0102038D01*
X0128893Y0102095D01*
X0128858Y0102154D01*
X0128827Y0102215D01*
X0128799Y0102277D01*
X0128775Y0102341D01*
X0128754Y0102407D01*
X0128737Y0102473D01*
X0128723Y0102540D01*
X0128714Y0102608D01*
X0128708Y0102676D01*
X0128706Y0102745D01*
X0128708Y0102814D01*
X0128714Y0102882D01*
X0128723Y0102950D01*
X0128737Y0103017D01*
X0128754Y0103083D01*
X0128775Y0103149D01*
X0128799Y0103213D01*
X0128827Y0103275D01*
X0128858Y0103336D01*
X0128893Y0103395D01*
X0128931Y0103452D01*
X0128973Y0103507D01*
X0129017Y0103559D01*
X0129064Y0103609D01*
X0129114Y0103656D01*
X0129166Y0103700D01*
X0129221Y0103742D01*
X0129278Y0103780D01*
X0129337Y0103815D01*
X0129398Y0103846D01*
X0129460Y0103874D01*
X0129524Y0103898D01*
X0129590Y0103919D01*
X0129656Y0103936D01*
X0129723Y0103950D01*
X0129791Y0103959D01*
X0129859Y0103965D01*
X0129928Y0103967D01*
X0132678Y0104273D02*
X0132755Y0104271D01*
X0132833Y0104265D01*
X0132909Y0104255D01*
X0132986Y0104242D01*
X0133061Y0104224D01*
X0133135Y0104203D01*
X0133209Y0104178D01*
X0133281Y0104149D01*
X0133351Y0104117D01*
X0133420Y0104081D01*
X0133486Y0104042D01*
X0133551Y0103999D01*
X0133613Y0103953D01*
X0133673Y0103904D01*
X0133731Y0103852D01*
X0133785Y0103798D01*
X0133837Y0103740D01*
X0133886Y0103680D01*
X0133932Y0103618D01*
X0133975Y0103553D01*
X0134014Y0103487D01*
X0134050Y0103418D01*
X0134082Y0103348D01*
X0134111Y0103276D01*
X0134136Y0103202D01*
X0134157Y0103128D01*
X0134175Y0103053D01*
X0134188Y0102976D01*
X0134198Y0102900D01*
X0134204Y0102822D01*
X0134206Y0102745D01*
X0134204Y0102668D01*
X0134198Y0102590D01*
X0134188Y0102514D01*
X0134175Y0102437D01*
X0134157Y0102362D01*
X0134136Y0102288D01*
X0134111Y0102214D01*
X0134082Y0102142D01*
X0134050Y0102072D01*
X0134014Y0102003D01*
X0133975Y0101937D01*
X0133932Y0101872D01*
X0133886Y0101810D01*
X0133837Y0101750D01*
X0133785Y0101692D01*
X0133731Y0101638D01*
X0133673Y0101586D01*
X0133613Y0101537D01*
X0133551Y0101491D01*
X0133486Y0101448D01*
X0133420Y0101409D01*
X0133351Y0101373D01*
X0133281Y0101341D01*
X0133209Y0101312D01*
X0133135Y0101287D01*
X0133061Y0101266D01*
X0132986Y0101248D01*
X0132909Y0101235D01*
X0132833Y0101225D01*
X0132755Y0101219D01*
X0132678Y0101217D01*
X0132601Y0101219D01*
X0132523Y0101225D01*
X0132447Y0101235D01*
X0132370Y0101248D01*
X0132295Y0101266D01*
X0132221Y0101287D01*
X0132147Y0101312D01*
X0132075Y0101341D01*
X0132005Y0101373D01*
X0131936Y0101409D01*
X0131870Y0101448D01*
X0131805Y0101491D01*
X0131743Y0101537D01*
X0131683Y0101586D01*
X0131625Y0101638D01*
X0131571Y0101692D01*
X0131519Y0101750D01*
X0131470Y0101810D01*
X0131424Y0101872D01*
X0131381Y0101937D01*
X0131342Y0102003D01*
X0131306Y0102072D01*
X0131274Y0102142D01*
X0131245Y0102214D01*
X0131220Y0102288D01*
X0131199Y0102362D01*
X0131181Y0102437D01*
X0131168Y0102514D01*
X0131158Y0102590D01*
X0131152Y0102668D01*
X0131150Y0102745D01*
X0131152Y0102822D01*
X0131158Y0102900D01*
X0131168Y0102976D01*
X0131181Y0103053D01*
X0131199Y0103128D01*
X0131220Y0103202D01*
X0131245Y0103276D01*
X0131274Y0103348D01*
X0131306Y0103418D01*
X0131342Y0103487D01*
X0131381Y0103553D01*
X0131424Y0103618D01*
X0131470Y0103680D01*
X0131519Y0103740D01*
X0131571Y0103798D01*
X0131625Y0103852D01*
X0131683Y0103904D01*
X0131743Y0103953D01*
X0131805Y0103999D01*
X0131870Y0104042D01*
X0131936Y0104081D01*
X0132005Y0104117D01*
X0132075Y0104149D01*
X0132147Y0104178D01*
X0132221Y0104203D01*
X0132295Y0104224D01*
X0132370Y0104242D01*
X0132447Y0104255D01*
X0132523Y0104265D01*
X0132601Y0104271D01*
X0132678Y0104273D01*
X0134206Y0108929D02*
X0134206Y0109540D01*
X0134204Y0109609D01*
X0134198Y0109677D01*
X0134189Y0109745D01*
X0134175Y0109812D01*
X0134158Y0109878D01*
X0134137Y0109944D01*
X0134113Y0110008D01*
X0134085Y0110070D01*
X0134054Y0110131D01*
X0134019Y0110190D01*
X0133981Y0110247D01*
X0133939Y0110302D01*
X0133895Y0110354D01*
X0133848Y0110404D01*
X0133798Y0110451D01*
X0133746Y0110495D01*
X0133691Y0110537D01*
X0133634Y0110575D01*
X0133575Y0110610D01*
X0133514Y0110641D01*
X0133452Y0110669D01*
X0133388Y0110693D01*
X0133322Y0110714D01*
X0133256Y0110731D01*
X0133189Y0110745D01*
X0133121Y0110754D01*
X0133053Y0110760D01*
X0132984Y0110762D01*
X0134206Y0098884D02*
X0134206Y0095828D01*
X0134206Y0097356D02*
X0128706Y0097356D01*
X0129928Y0095828D01*
X0131456Y0090439D02*
X0131584Y0090441D01*
X0131713Y0090446D01*
X0131841Y0090455D01*
X0131969Y0090468D01*
X0132096Y0090484D01*
X0132223Y0090504D01*
X0132349Y0090528D01*
X0132475Y0090555D01*
X0132600Y0090586D01*
X0132724Y0090620D01*
X0132846Y0090658D01*
X0132968Y0090699D01*
X0133089Y0090743D01*
X0133208Y0090791D01*
X0133326Y0090843D01*
X0133442Y0090897D01*
X0132984Y0090744D02*
X0129928Y0093189D01*
X0129470Y0093037D02*
X0129408Y0093013D01*
X0129347Y0092986D01*
X0129287Y0092955D01*
X0129230Y0092921D01*
X0129175Y0092884D01*
X0129122Y0092843D01*
X0129071Y0092799D01*
X0129023Y0092753D01*
X0128978Y0092703D01*
X0128936Y0092651D01*
X0128898Y0092597D01*
X0128862Y0092540D01*
X0128830Y0092482D01*
X0128801Y0092421D01*
X0128776Y0092360D01*
X0128755Y0092296D01*
X0128737Y0092232D01*
X0128724Y0092166D01*
X0128714Y0092100D01*
X0128708Y0092034D01*
X0128706Y0091967D01*
X0128708Y0091900D01*
X0128714Y0091834D01*
X0128724Y0091768D01*
X0128737Y0091702D01*
X0128755Y0091638D01*
X0128776Y0091574D01*
X0128801Y0091513D01*
X0128830Y0091452D01*
X0128862Y0091394D01*
X0128898Y0091337D01*
X0128936Y0091283D01*
X0128978Y0091231D01*
X0129023Y0091181D01*
X0129071Y0091135D01*
X0129122Y0091091D01*
X0129175Y0091050D01*
X0129230Y0091013D01*
X0129287Y0090979D01*
X0129347Y0090948D01*
X0129408Y0090921D01*
X0129470Y0090897D01*
X0129470Y0093036D02*
X0129586Y0093090D01*
X0129704Y0093142D01*
X0129823Y0093190D01*
X0129944Y0093234D01*
X0130066Y0093275D01*
X0130188Y0093313D01*
X0130312Y0093347D01*
X0130437Y0093378D01*
X0130563Y0093405D01*
X0130689Y0093429D01*
X0130816Y0093449D01*
X0130943Y0093465D01*
X0131071Y0093478D01*
X0131199Y0093487D01*
X0131328Y0093492D01*
X0131456Y0093494D01*
X0131456Y0090439D02*
X0131328Y0090441D01*
X0131199Y0090446D01*
X0131071Y0090455D01*
X0130943Y0090468D01*
X0130816Y0090484D01*
X0130689Y0090504D01*
X0130563Y0090528D01*
X0130437Y0090555D01*
X0130312Y0090586D01*
X0130188Y0090620D01*
X0130066Y0090658D01*
X0129944Y0090699D01*
X0129823Y0090743D01*
X0129704Y0090791D01*
X0129586Y0090843D01*
X0129470Y0090897D01*
X0131456Y0093494D02*
X0131584Y0093492D01*
X0131713Y0093487D01*
X0131841Y0093478D01*
X0131969Y0093465D01*
X0132096Y0093449D01*
X0132223Y0093429D01*
X0132349Y0093405D01*
X0132475Y0093378D01*
X0132600Y0093347D01*
X0132724Y0093313D01*
X0132846Y0093275D01*
X0132968Y0093234D01*
X0133089Y0093190D01*
X0133208Y0093142D01*
X0133326Y0093090D01*
X0133442Y0093036D01*
X0134206Y0091967D02*
X0134204Y0091900D01*
X0134198Y0091834D01*
X0134188Y0091768D01*
X0134175Y0091702D01*
X0134157Y0091638D01*
X0134136Y0091574D01*
X0134111Y0091513D01*
X0134082Y0091452D01*
X0134050Y0091394D01*
X0134014Y0091337D01*
X0133976Y0091283D01*
X0133934Y0091231D01*
X0133889Y0091181D01*
X0133841Y0091135D01*
X0133790Y0091091D01*
X0133737Y0091050D01*
X0133682Y0091013D01*
X0133625Y0090979D01*
X0133565Y0090948D01*
X0133504Y0090921D01*
X0133442Y0090897D01*
X0134206Y0091967D02*
X0134204Y0092034D01*
X0134198Y0092100D01*
X0134188Y0092166D01*
X0134175Y0092232D01*
X0134157Y0092296D01*
X0134136Y0092360D01*
X0134111Y0092421D01*
X0134082Y0092482D01*
X0134050Y0092540D01*
X0134014Y0092597D01*
X0133976Y0092651D01*
X0133934Y0092703D01*
X0133889Y0092753D01*
X0133841Y0092799D01*
X0133790Y0092843D01*
X0133737Y0092884D01*
X0133682Y0092921D01*
X0133625Y0092955D01*
X0133565Y0092986D01*
X0133504Y0093013D01*
X0133442Y0093037D01*
X0134206Y0088105D02*
X0134206Y0085050D01*
X0131150Y0087647D01*
X0128706Y0086730D02*
X0128708Y0086648D01*
X0128714Y0086566D01*
X0128723Y0086484D01*
X0128737Y0086403D01*
X0128754Y0086322D01*
X0128775Y0086243D01*
X0128799Y0086164D01*
X0128827Y0086087D01*
X0128859Y0086011D01*
X0128894Y0085937D01*
X0128933Y0085864D01*
X0128975Y0085794D01*
X0129020Y0085725D01*
X0129068Y0085658D01*
X0129120Y0085594D01*
X0129174Y0085532D01*
X0129231Y0085473D01*
X0129291Y0085417D01*
X0129354Y0085363D01*
X0129418Y0085313D01*
X0129486Y0085265D01*
X0129555Y0085221D01*
X0129626Y0085180D01*
X0129699Y0085142D01*
X0129774Y0085108D01*
X0129850Y0085077D01*
X0129928Y0085050D01*
X0131151Y0087647D02*
X0131098Y0087699D01*
X0131042Y0087749D01*
X0130984Y0087797D01*
X0130924Y0087841D01*
X0130861Y0087882D01*
X0130797Y0087920D01*
X0130731Y0087954D01*
X0130663Y0087986D01*
X0130593Y0088013D01*
X0130523Y0088037D01*
X0130451Y0088058D01*
X0130378Y0088075D01*
X0130304Y0088088D01*
X0130230Y0088097D01*
X0130156Y0088103D01*
X0130081Y0088105D01*
X0130009Y0088103D01*
X0129937Y0088097D01*
X0129866Y0088088D01*
X0129795Y0088075D01*
X0129725Y0088058D01*
X0129656Y0088038D01*
X0129588Y0088014D01*
X0129522Y0087986D01*
X0129457Y0087955D01*
X0129394Y0087921D01*
X0129332Y0087883D01*
X0129273Y0087842D01*
X0129216Y0087799D01*
X0129161Y0087752D01*
X0129109Y0087702D01*
X0129059Y0087650D01*
X0129012Y0087595D01*
X0128969Y0087538D01*
X0128928Y0087479D01*
X0128890Y0087418D01*
X0128856Y0087354D01*
X0128825Y0087289D01*
X0128797Y0087223D01*
X0128773Y0087155D01*
X0128753Y0087086D01*
X0128736Y0087016D01*
X0128723Y0086945D01*
X0128714Y0086874D01*
X0128708Y0086802D01*
X0128706Y0086730D01*
X0130539Y0076722D02*
X0130539Y0075500D01*
X0130541Y0075442D01*
X0130546Y0075385D01*
X0130555Y0075328D01*
X0130568Y0075272D01*
X0130584Y0075217D01*
X0130603Y0075162D01*
X0130626Y0075110D01*
X0130652Y0075058D01*
X0130682Y0075009D01*
X0130714Y0074961D01*
X0130749Y0074915D01*
X0130788Y0074872D01*
X0130828Y0074832D01*
X0130871Y0074793D01*
X0130917Y0074758D01*
X0130965Y0074726D01*
X0131014Y0074696D01*
X0131066Y0074670D01*
X0131118Y0074647D01*
X0131173Y0074628D01*
X0131228Y0074612D01*
X0131284Y0074599D01*
X0131341Y0074590D01*
X0131398Y0074585D01*
X0131456Y0074583D01*
X0133289Y0074583D01*
X0133347Y0074585D01*
X0133404Y0074590D01*
X0133461Y0074599D01*
X0133517Y0074612D01*
X0133572Y0074628D01*
X0133627Y0074647D01*
X0133679Y0074670D01*
X0133731Y0074696D01*
X0133780Y0074726D01*
X0133828Y0074758D01*
X0133874Y0074793D01*
X0133917Y0074832D01*
X0133957Y0074872D01*
X0133996Y0074915D01*
X0134031Y0074961D01*
X0134063Y0075009D01*
X0134093Y0075058D01*
X0134119Y0075110D01*
X0134142Y0075162D01*
X0134161Y0075217D01*
X0134177Y0075272D01*
X0134190Y0075328D01*
X0134199Y0075385D01*
X0134204Y0075442D01*
X0134206Y0075500D01*
X0134206Y0076722D01*
X0131456Y0071250D02*
X0131316Y0071252D01*
X0131175Y0071258D01*
X0131035Y0071267D01*
X0130896Y0071280D01*
X0130756Y0071297D01*
X0130617Y0071318D01*
X0130479Y0071342D01*
X0130341Y0071370D01*
X0130205Y0071402D01*
X0130069Y0071437D01*
X0129934Y0071476D01*
X0129800Y0071519D01*
X0129668Y0071565D01*
X0129536Y0071615D01*
X0129406Y0071668D01*
X0129278Y0071725D01*
X0129151Y0071785D01*
X0129026Y0071848D01*
X0128903Y0071915D01*
X0128781Y0071985D01*
X0128661Y0072059D01*
X0128544Y0072135D01*
X0128428Y0072215D01*
X0128315Y0072298D01*
X0128203Y0072384D01*
X0128095Y0072472D01*
X0128095Y0078588D02*
X0128203Y0078676D01*
X0128315Y0078762D01*
X0128428Y0078845D01*
X0128544Y0078925D01*
X0128661Y0079001D01*
X0128781Y0079075D01*
X0128903Y0079145D01*
X0129026Y0079212D01*
X0129151Y0079275D01*
X0129278Y0079335D01*
X0129406Y0079392D01*
X0129536Y0079445D01*
X0129668Y0079495D01*
X0129800Y0079541D01*
X0129934Y0079584D01*
X0130069Y0079623D01*
X0130205Y0079658D01*
X0130341Y0079690D01*
X0130479Y0079718D01*
X0130617Y0079742D01*
X0130756Y0079763D01*
X0130896Y0079780D01*
X0131035Y0079793D01*
X0131175Y0079802D01*
X0131316Y0079808D01*
X0131456Y0079810D01*
X0134817Y0072472D02*
X0134709Y0072384D01*
X0134597Y0072298D01*
X0134484Y0072215D01*
X0134368Y0072135D01*
X0134251Y0072059D01*
X0134131Y0071985D01*
X0134009Y0071915D01*
X0133886Y0071848D01*
X0133761Y0071785D01*
X0133634Y0071725D01*
X0133506Y0071668D01*
X0133376Y0071615D01*
X0133244Y0071565D01*
X0133112Y0071519D01*
X0132978Y0071476D01*
X0132843Y0071437D01*
X0132707Y0071402D01*
X0132571Y0071370D01*
X0132433Y0071342D01*
X0132295Y0071318D01*
X0132156Y0071297D01*
X0132016Y0071280D01*
X0131877Y0071267D01*
X0131737Y0071258D01*
X0131596Y0071252D01*
X0131456Y0071250D01*
X0134817Y0078588D02*
X0134709Y0078676D01*
X0134597Y0078762D01*
X0134484Y0078845D01*
X0134368Y0078925D01*
X0134251Y0079001D01*
X0134131Y0079075D01*
X0134009Y0079145D01*
X0133886Y0079212D01*
X0133761Y0079275D01*
X0133634Y0079335D01*
X0133506Y0079392D01*
X0133376Y0079445D01*
X0133244Y0079495D01*
X0133112Y0079541D01*
X0132978Y0079584D01*
X0132843Y0079623D01*
X0132707Y0079658D01*
X0132571Y0079690D01*
X0132433Y0079718D01*
X0132295Y0079742D01*
X0132156Y0079763D01*
X0132016Y0079780D01*
X0131877Y0079793D01*
X0131737Y0079802D01*
X0131596Y0079808D01*
X0131456Y0079810D01*
X0114133Y0087748D02*
X0057834Y0087748D01*
X0057834Y0007039D01*
X0114133Y0007039D01*
X0114133Y0087748D01*
X0112586Y0099910D02*
X0110246Y0101090D01*
X0112596Y0102430D01*
X0112586Y0102430D01*
X0112586Y0099980D01*
X0084666Y0144910D02*
X0082326Y0146090D01*
X0082326Y0146020D02*
X0082326Y0143570D01*
X0082316Y0143570D01*
X0084666Y0144910D01*
X0066291Y0126984D02*
X0020621Y0126984D01*
X0020621Y0093126D01*
X0066291Y0093126D01*
X0066291Y0126984D01*
X0042606Y0085748D02*
X0031582Y0085748D01*
X0031582Y0054252D01*
X0042606Y0054252D01*
X0042606Y0085748D01*
X0031582Y0085748D02*
X0014259Y0085748D01*
X0009535Y0081024D01*
X0009535Y0058976D01*
X0014259Y0054252D01*
X0031582Y0054252D01*
X0033278Y0041250D02*
X0033278Y0039772D01*
X0033276Y0039733D01*
X0033271Y0039694D01*
X0033262Y0039657D01*
X0033250Y0039620D01*
X0033234Y0039584D01*
X0033215Y0039550D01*
X0033193Y0039518D01*
X0033168Y0039488D01*
X0033140Y0039460D01*
X0033110Y0039435D01*
X0033078Y0039413D01*
X0033044Y0039394D01*
X0033008Y0039378D01*
X0032971Y0039366D01*
X0032934Y0039357D01*
X0032895Y0039352D01*
X0032856Y0039350D01*
X0032645Y0039350D01*
X0034510Y0039350D02*
X0034510Y0041250D01*
X0035038Y0041250D01*
X0035082Y0041248D01*
X0035125Y0041243D01*
X0035168Y0041234D01*
X0035209Y0041221D01*
X0035250Y0041206D01*
X0035289Y0041186D01*
X0035327Y0041164D01*
X0035362Y0041139D01*
X0035396Y0041110D01*
X0035426Y0041080D01*
X0035455Y0041046D01*
X0035480Y0041011D01*
X0035502Y0040973D01*
X0035522Y0040934D01*
X0035537Y0040893D01*
X0035550Y0040852D01*
X0035559Y0040809D01*
X0035564Y0040766D01*
X0035566Y0040722D01*
X0035566Y0039878D01*
X0035564Y0039834D01*
X0035559Y0039791D01*
X0035550Y0039748D01*
X0035537Y0039707D01*
X0035522Y0039666D01*
X0035502Y0039627D01*
X0035480Y0039589D01*
X0035455Y0039554D01*
X0035426Y0039520D01*
X0035396Y0039490D01*
X0035362Y0039461D01*
X0035327Y0039436D01*
X0035289Y0039414D01*
X0035250Y0039394D01*
X0035209Y0039379D01*
X0035168Y0039366D01*
X0035125Y0039357D01*
X0035082Y0039352D01*
X0035038Y0039350D01*
X0034510Y0039350D01*
X0036822Y0039350D02*
X0036822Y0041250D01*
X0037667Y0041250D01*
X0037455Y0040406D02*
X0036822Y0040406D01*
X0036822Y0039350D02*
X0037667Y0039350D01*
X0038744Y0039350D02*
X0038744Y0041250D01*
X0039272Y0041250D01*
X0039312Y0041248D01*
X0039352Y0041242D01*
X0039391Y0041233D01*
X0039429Y0041220D01*
X0039465Y0041203D01*
X0039500Y0041183D01*
X0039533Y0041160D01*
X0039563Y0041133D01*
X0039591Y0041104D01*
X0039616Y0041073D01*
X0039637Y0041039D01*
X0039656Y0041003D01*
X0039671Y0040966D01*
X0039682Y0040927D01*
X0039690Y0040888D01*
X0039694Y0040848D01*
X0039694Y0040808D01*
X0039690Y0040768D01*
X0039682Y0040729D01*
X0039671Y0040690D01*
X0039656Y0040653D01*
X0039637Y0040617D01*
X0039616Y0040583D01*
X0039591Y0040552D01*
X0039563Y0040523D01*
X0039533Y0040496D01*
X0039500Y0040473D01*
X0039465Y0040453D01*
X0039429Y0040436D01*
X0039391Y0040423D01*
X0039352Y0040414D01*
X0039312Y0040408D01*
X0039272Y0040406D01*
X0038744Y0040406D01*
X0039272Y0040406D02*
X0039317Y0040404D01*
X0039361Y0040398D01*
X0039405Y0040389D01*
X0039448Y0040376D01*
X0039489Y0040359D01*
X0039530Y0040339D01*
X0039568Y0040315D01*
X0039604Y0040289D01*
X0039637Y0040259D01*
X0039668Y0040227D01*
X0039697Y0040192D01*
X0039722Y0040155D01*
X0039743Y0040116D01*
X0039762Y0040075D01*
X0039777Y0040033D01*
X0039788Y0039989D01*
X0039796Y0039945D01*
X0039800Y0039900D01*
X0039800Y0039856D01*
X0039796Y0039811D01*
X0039788Y0039767D01*
X0039777Y0039723D01*
X0039762Y0039681D01*
X0039743Y0039640D01*
X0039722Y0039601D01*
X0039697Y0039564D01*
X0039668Y0039529D01*
X0039637Y0039497D01*
X0039604Y0039467D01*
X0039568Y0039441D01*
X0039530Y0039417D01*
X0039489Y0039397D01*
X0039448Y0039380D01*
X0039405Y0039367D01*
X0039361Y0039358D01*
X0039317Y0039352D01*
X0039272Y0039350D01*
X0038744Y0039350D01*
X0040846Y0039878D02*
X0040846Y0041250D01*
X0041902Y0041250D02*
X0041902Y0039878D01*
X0041900Y0039833D01*
X0041894Y0039789D01*
X0041885Y0039745D01*
X0041872Y0039702D01*
X0041855Y0039661D01*
X0041835Y0039620D01*
X0041811Y0039582D01*
X0041785Y0039546D01*
X0041755Y0039513D01*
X0041723Y0039482D01*
X0041688Y0039453D01*
X0041651Y0039428D01*
X0041612Y0039407D01*
X0041571Y0039388D01*
X0041529Y0039373D01*
X0041485Y0039362D01*
X0041441Y0039354D01*
X0041396Y0039350D01*
X0041352Y0039350D01*
X0041307Y0039354D01*
X0041263Y0039362D01*
X0041219Y0039373D01*
X0041177Y0039388D01*
X0041136Y0039407D01*
X0041097Y0039428D01*
X0041060Y0039453D01*
X0041025Y0039482D01*
X0040993Y0039513D01*
X0040963Y0039546D01*
X0040937Y0039582D01*
X0040913Y0039620D01*
X0040893Y0039661D01*
X0040876Y0039702D01*
X0040863Y0039745D01*
X0040854Y0039789D01*
X0040848Y0039833D01*
X0040846Y0039878D01*
X0043150Y0039772D02*
X0043150Y0040828D01*
X0043151Y0040828D02*
X0043153Y0040867D01*
X0043158Y0040906D01*
X0043167Y0040943D01*
X0043179Y0040980D01*
X0043195Y0041016D01*
X0043214Y0041050D01*
X0043236Y0041082D01*
X0043261Y0041112D01*
X0043289Y0041140D01*
X0043319Y0041165D01*
X0043351Y0041187D01*
X0043385Y0041206D01*
X0043421Y0041221D01*
X0043458Y0041234D01*
X0043495Y0041243D01*
X0043534Y0041248D01*
X0043573Y0041250D01*
X0044206Y0041250D01*
X0044206Y0040406D02*
X0044206Y0039350D01*
X0043573Y0039350D01*
X0043534Y0039352D01*
X0043495Y0039357D01*
X0043458Y0039366D01*
X0043421Y0039378D01*
X0043385Y0039394D01*
X0043351Y0039413D01*
X0043319Y0039435D01*
X0043289Y0039460D01*
X0043261Y0039488D01*
X0043236Y0039518D01*
X0043214Y0039550D01*
X0043195Y0039584D01*
X0043179Y0039620D01*
X0043167Y0039657D01*
X0043158Y0039694D01*
X0043153Y0039733D01*
X0043151Y0039772D01*
X0043889Y0040406D02*
X0044206Y0040406D01*
X0061456Y0020000D02*
X0061456Y0012000D01*
X0061456Y0020000D02*
X0067456Y0020000D01*
X0067456Y0012000D01*
X0071456Y0012000D01*
X0071456Y0022000D01*
X0071456Y0020000D01*
X0077456Y0020000D01*
X0077456Y0012000D01*
X0081456Y0012000D01*
X0081456Y0022000D01*
X0087456Y0022000D01*
X0087456Y0012000D01*
X0089456Y0012000D01*
X0089456Y0020000D01*
X0095456Y0020000D01*
X0095456Y0012000D01*
X0099456Y0012000D01*
X0099456Y0022000D01*
X0103456Y0022000D01*
X0103456Y0012000D01*
X0107456Y0012000D01*
X0107456Y0022000D01*
X0062678Y0069250D02*
X0061306Y0069250D01*
X0061306Y0070306D02*
X0062678Y0070306D01*
X0062723Y0070304D01*
X0062767Y0070298D01*
X0062811Y0070289D01*
X0062854Y0070276D01*
X0062895Y0070259D01*
X0062936Y0070239D01*
X0062974Y0070215D01*
X0063010Y0070189D01*
X0063043Y0070159D01*
X0063074Y0070127D01*
X0063103Y0070092D01*
X0063128Y0070055D01*
X0063149Y0070016D01*
X0063168Y0069975D01*
X0063183Y0069933D01*
X0063194Y0069889D01*
X0063202Y0069845D01*
X0063206Y0069800D01*
X0063206Y0069756D01*
X0063202Y0069711D01*
X0063194Y0069667D01*
X0063183Y0069623D01*
X0063168Y0069581D01*
X0063149Y0069540D01*
X0063128Y0069501D01*
X0063103Y0069464D01*
X0063074Y0069429D01*
X0063043Y0069397D01*
X0063010Y0069367D01*
X0062974Y0069341D01*
X0062936Y0069317D01*
X0062895Y0069297D01*
X0062854Y0069280D01*
X0062811Y0069267D01*
X0062767Y0069258D01*
X0062723Y0069252D01*
X0062678Y0069250D01*
X0062150Y0071562D02*
X0062150Y0072195D01*
X0061306Y0072406D02*
X0061306Y0071562D01*
X0063206Y0071562D01*
X0063206Y0072406D01*
X0062414Y0074127D02*
X0062437Y0074161D01*
X0062462Y0074192D01*
X0062490Y0074221D01*
X0062521Y0074248D01*
X0062554Y0074271D01*
X0062589Y0074291D01*
X0062626Y0074308D01*
X0062664Y0074321D01*
X0062703Y0074330D01*
X0062744Y0074336D01*
X0062784Y0074338D01*
X0062784Y0074337D02*
X0062823Y0074335D01*
X0062862Y0074330D01*
X0062899Y0074321D01*
X0062936Y0074309D01*
X0062972Y0074293D01*
X0063006Y0074274D01*
X0063038Y0074252D01*
X0063068Y0074227D01*
X0063096Y0074199D01*
X0063121Y0074169D01*
X0063143Y0074137D01*
X0063162Y0074103D01*
X0063178Y0074067D01*
X0063190Y0074030D01*
X0063199Y0073993D01*
X0063204Y0073954D01*
X0063206Y0073915D01*
X0062414Y0074126D02*
X0062098Y0073546D01*
X0061306Y0073757D02*
X0061308Y0073808D01*
X0061313Y0073859D01*
X0061321Y0073909D01*
X0061332Y0073959D01*
X0061347Y0074007D01*
X0061364Y0074055D01*
X0061385Y0074102D01*
X0061409Y0074147D01*
X0061435Y0074190D01*
X0061464Y0074232D01*
X0062098Y0073546D02*
X0062075Y0073512D01*
X0062050Y0073481D01*
X0062022Y0073452D01*
X0061991Y0073425D01*
X0061958Y0073402D01*
X0061923Y0073382D01*
X0061886Y0073365D01*
X0061848Y0073352D01*
X0061809Y0073343D01*
X0061768Y0073337D01*
X0061728Y0073335D01*
X0061689Y0073337D01*
X0061650Y0073342D01*
X0061613Y0073351D01*
X0061576Y0073363D01*
X0061540Y0073379D01*
X0061506Y0073398D01*
X0061474Y0073420D01*
X0061444Y0073445D01*
X0061416Y0073473D01*
X0061391Y0073503D01*
X0061369Y0073535D01*
X0061350Y0073569D01*
X0061334Y0073605D01*
X0061322Y0073642D01*
X0061313Y0073679D01*
X0061308Y0073718D01*
X0061306Y0073757D01*
X0062942Y0073282D02*
X0062982Y0073324D01*
X0063020Y0073370D01*
X0063054Y0073417D01*
X0063085Y0073467D01*
X0063113Y0073519D01*
X0063137Y0073572D01*
X0063158Y0073627D01*
X0063175Y0073683D01*
X0063189Y0073740D01*
X0063198Y0073798D01*
X0063204Y0073856D01*
X0063206Y0073915D01*
X0063206Y0075500D02*
X0061306Y0075500D01*
X0061306Y0076027D01*
X0061308Y0076072D01*
X0061314Y0076116D01*
X0061323Y0076160D01*
X0061336Y0076203D01*
X0061353Y0076244D01*
X0061373Y0076285D01*
X0061397Y0076323D01*
X0061423Y0076359D01*
X0061453Y0076392D01*
X0061485Y0076423D01*
X0061520Y0076452D01*
X0061557Y0076477D01*
X0061596Y0076498D01*
X0061637Y0076517D01*
X0061679Y0076532D01*
X0061723Y0076543D01*
X0061767Y0076551D01*
X0061812Y0076555D01*
X0061856Y0076555D01*
X0061901Y0076551D01*
X0061945Y0076543D01*
X0061989Y0076532D01*
X0062031Y0076517D01*
X0062072Y0076498D01*
X0062111Y0076477D01*
X0062148Y0076452D01*
X0062183Y0076423D01*
X0062215Y0076392D01*
X0062245Y0076359D01*
X0062271Y0076323D01*
X0062295Y0076285D01*
X0062315Y0076244D01*
X0062332Y0076203D01*
X0062345Y0076160D01*
X0062354Y0076116D01*
X0062360Y0076072D01*
X0062362Y0076027D01*
X0062362Y0075500D01*
X0010519Y0070000D02*
X0010524Y0070401D01*
X0010539Y0070802D01*
X0010563Y0071202D01*
X0010598Y0071602D01*
X0010642Y0072000D01*
X0010696Y0072397D01*
X0010760Y0072793D01*
X0010833Y0073188D01*
X0010916Y0073580D01*
X0011009Y0073970D01*
X0011111Y0074358D01*
X0011223Y0074743D01*
X0011344Y0075125D01*
X0011474Y0075504D01*
X0011614Y0075880D01*
X0011763Y0076253D01*
X0011921Y0076621D01*
X0012088Y0076986D01*
X0012264Y0077346D01*
X0012448Y0077702D01*
X0012642Y0078053D01*
X0012844Y0078400D01*
X0013054Y0078741D01*
X0013273Y0079077D01*
X0013499Y0079408D01*
X0013734Y0079733D01*
X0013977Y0080052D01*
X0014228Y0080365D01*
X0014486Y0080672D01*
X0014752Y0080973D01*
X0015025Y0081266D01*
X0015305Y0081553D01*
X0015592Y0081833D01*
X0015885Y0082106D01*
X0016186Y0082372D01*
X0016493Y0082630D01*
X0016806Y0082881D01*
X0017125Y0083124D01*
X0017450Y0083359D01*
X0017781Y0083585D01*
X0018117Y0083804D01*
X0018458Y0084014D01*
X0018805Y0084216D01*
X0019156Y0084410D01*
X0019512Y0084594D01*
X0019872Y0084770D01*
X0020237Y0084937D01*
X0020605Y0085095D01*
X0020978Y0085244D01*
X0021354Y0085384D01*
X0021733Y0085514D01*
X0022115Y0085635D01*
X0022500Y0085747D01*
X0022888Y0085849D01*
X0023278Y0085942D01*
X0023670Y0086025D01*
X0024065Y0086098D01*
X0024461Y0086162D01*
X0024858Y0086216D01*
X0025256Y0086260D01*
X0025656Y0086295D01*
X0026056Y0086319D01*
X0026457Y0086334D01*
X0026858Y0086339D01*
X0027259Y0086334D01*
X0027660Y0086319D01*
X0028060Y0086295D01*
X0028460Y0086260D01*
X0028858Y0086216D01*
X0029255Y0086162D01*
X0029651Y0086098D01*
X0030046Y0086025D01*
X0030438Y0085942D01*
X0030828Y0085849D01*
X0031216Y0085747D01*
X0031601Y0085635D01*
X0031983Y0085514D01*
X0032362Y0085384D01*
X0032738Y0085244D01*
X0033111Y0085095D01*
X0033479Y0084937D01*
X0033844Y0084770D01*
X0034204Y0084594D01*
X0034560Y0084410D01*
X0034911Y0084216D01*
X0035258Y0084014D01*
X0035599Y0083804D01*
X0035935Y0083585D01*
X0036266Y0083359D01*
X0036591Y0083124D01*
X0036910Y0082881D01*
X0037223Y0082630D01*
X0037530Y0082372D01*
X0037831Y0082106D01*
X0038124Y0081833D01*
X0038411Y0081553D01*
X0038691Y0081266D01*
X0038964Y0080973D01*
X0039230Y0080672D01*
X0039488Y0080365D01*
X0039739Y0080052D01*
X0039982Y0079733D01*
X0040217Y0079408D01*
X0040443Y0079077D01*
X0040662Y0078741D01*
X0040872Y0078400D01*
X0041074Y0078053D01*
X0041268Y0077702D01*
X0041452Y0077346D01*
X0041628Y0076986D01*
X0041795Y0076621D01*
X0041953Y0076253D01*
X0042102Y0075880D01*
X0042242Y0075504D01*
X0042372Y0075125D01*
X0042493Y0074743D01*
X0042605Y0074358D01*
X0042707Y0073970D01*
X0042800Y0073580D01*
X0042883Y0073188D01*
X0042956Y0072793D01*
X0043020Y0072397D01*
X0043074Y0072000D01*
X0043118Y0071602D01*
X0043153Y0071202D01*
X0043177Y0070802D01*
X0043192Y0070401D01*
X0043197Y0070000D01*
X0043192Y0069599D01*
X0043177Y0069198D01*
X0043153Y0068798D01*
X0043118Y0068398D01*
X0043074Y0068000D01*
X0043020Y0067603D01*
X0042956Y0067207D01*
X0042883Y0066812D01*
X0042800Y0066420D01*
X0042707Y0066030D01*
X0042605Y0065642D01*
X0042493Y0065257D01*
X0042372Y0064875D01*
X0042242Y0064496D01*
X0042102Y0064120D01*
X0041953Y0063747D01*
X0041795Y0063379D01*
X0041628Y0063014D01*
X0041452Y0062654D01*
X0041268Y0062298D01*
X0041074Y0061947D01*
X0040872Y0061600D01*
X0040662Y0061259D01*
X0040443Y0060923D01*
X0040217Y0060592D01*
X0039982Y0060267D01*
X0039739Y0059948D01*
X0039488Y0059635D01*
X0039230Y0059328D01*
X0038964Y0059027D01*
X0038691Y0058734D01*
X0038411Y0058447D01*
X0038124Y0058167D01*
X0037831Y0057894D01*
X0037530Y0057628D01*
X0037223Y0057370D01*
X0036910Y0057119D01*
X0036591Y0056876D01*
X0036266Y0056641D01*
X0035935Y0056415D01*
X0035599Y0056196D01*
X0035258Y0055986D01*
X0034911Y0055784D01*
X0034560Y0055590D01*
X0034204Y0055406D01*
X0033844Y0055230D01*
X0033479Y0055063D01*
X0033111Y0054905D01*
X0032738Y0054756D01*
X0032362Y0054616D01*
X0031983Y0054486D01*
X0031601Y0054365D01*
X0031216Y0054253D01*
X0030828Y0054151D01*
X0030438Y0054058D01*
X0030046Y0053975D01*
X0029651Y0053902D01*
X0029255Y0053838D01*
X0028858Y0053784D01*
X0028460Y0053740D01*
X0028060Y0053705D01*
X0027660Y0053681D01*
X0027259Y0053666D01*
X0026858Y0053661D01*
X0026457Y0053666D01*
X0026056Y0053681D01*
X0025656Y0053705D01*
X0025256Y0053740D01*
X0024858Y0053784D01*
X0024461Y0053838D01*
X0024065Y0053902D01*
X0023670Y0053975D01*
X0023278Y0054058D01*
X0022888Y0054151D01*
X0022500Y0054253D01*
X0022115Y0054365D01*
X0021733Y0054486D01*
X0021354Y0054616D01*
X0020978Y0054756D01*
X0020605Y0054905D01*
X0020237Y0055063D01*
X0019872Y0055230D01*
X0019512Y0055406D01*
X0019156Y0055590D01*
X0018805Y0055784D01*
X0018458Y0055986D01*
X0018117Y0056196D01*
X0017781Y0056415D01*
X0017450Y0056641D01*
X0017125Y0056876D01*
X0016806Y0057119D01*
X0016493Y0057370D01*
X0016186Y0057628D01*
X0015885Y0057894D01*
X0015592Y0058167D01*
X0015305Y0058447D01*
X0015025Y0058734D01*
X0014752Y0059027D01*
X0014486Y0059328D01*
X0014228Y0059635D01*
X0013977Y0059948D01*
X0013734Y0060267D01*
X0013499Y0060592D01*
X0013273Y0060923D01*
X0013054Y0061259D01*
X0012844Y0061600D01*
X0012642Y0061947D01*
X0012448Y0062298D01*
X0012264Y0062654D01*
X0012088Y0063014D01*
X0011921Y0063379D01*
X0011763Y0063747D01*
X0011614Y0064120D01*
X0011474Y0064496D01*
X0011344Y0064875D01*
X0011223Y0065257D01*
X0011111Y0065642D01*
X0011009Y0066030D01*
X0010916Y0066420D01*
X0010833Y0066812D01*
X0010760Y0067207D01*
X0010696Y0067603D01*
X0010642Y0068000D01*
X0010598Y0068398D01*
X0010563Y0068798D01*
X0010539Y0069198D01*
X0010524Y0069599D01*
X0010519Y0070000D01*
X0010706Y0140250D02*
X0010706Y0141778D01*
X0010708Y0141855D01*
X0010714Y0141933D01*
X0010724Y0142009D01*
X0010737Y0142086D01*
X0010755Y0142161D01*
X0010776Y0142235D01*
X0010801Y0142309D01*
X0010830Y0142381D01*
X0010862Y0142451D01*
X0010898Y0142520D01*
X0010937Y0142586D01*
X0010980Y0142651D01*
X0011026Y0142713D01*
X0011075Y0142773D01*
X0011127Y0142831D01*
X0011181Y0142885D01*
X0011239Y0142937D01*
X0011299Y0142986D01*
X0011361Y0143032D01*
X0011426Y0143075D01*
X0011492Y0143114D01*
X0011561Y0143150D01*
X0011631Y0143182D01*
X0011703Y0143211D01*
X0011777Y0143236D01*
X0011851Y0143257D01*
X0011926Y0143275D01*
X0012003Y0143288D01*
X0012079Y0143298D01*
X0012157Y0143304D01*
X0012234Y0143306D01*
X0012311Y0143304D01*
X0012389Y0143298D01*
X0012465Y0143288D01*
X0012542Y0143275D01*
X0012617Y0143257D01*
X0012691Y0143236D01*
X0012765Y0143211D01*
X0012837Y0143182D01*
X0012907Y0143150D01*
X0012976Y0143114D01*
X0013042Y0143075D01*
X0013107Y0143032D01*
X0013169Y0142986D01*
X0013229Y0142937D01*
X0013287Y0142885D01*
X0013341Y0142831D01*
X0013393Y0142773D01*
X0013442Y0142713D01*
X0013488Y0142651D01*
X0013531Y0142586D01*
X0013570Y0142520D01*
X0013606Y0142451D01*
X0013638Y0142381D01*
X0013667Y0142309D01*
X0013692Y0142235D01*
X0013713Y0142161D01*
X0013731Y0142086D01*
X0013744Y0142009D01*
X0013754Y0141933D01*
X0013760Y0141855D01*
X0013762Y0141778D01*
X0013762Y0140250D01*
X0013762Y0142083D02*
X0016206Y0143306D01*
X0016206Y0145795D02*
X0010706Y0145795D01*
X0010706Y0148239D01*
X0010706Y0150454D02*
X0016206Y0153510D01*
X0010706Y0153510D01*
X0010706Y0155862D02*
X0010706Y0157084D01*
X0010706Y0156473D02*
X0016206Y0156473D01*
X0016206Y0155862D02*
X0016206Y0157084D01*
X0016206Y0158951D02*
X0010706Y0162618D01*
X0010706Y0158951D02*
X0016206Y0162618D01*
X0016206Y0167711D02*
X0010706Y0167711D01*
X0010706Y0170155D01*
X0011928Y0172175D02*
X0014984Y0172175D01*
X0015053Y0172177D01*
X0015121Y0172183D01*
X0015189Y0172192D01*
X0015256Y0172206D01*
X0015322Y0172223D01*
X0015388Y0172244D01*
X0015452Y0172268D01*
X0015514Y0172296D01*
X0015575Y0172327D01*
X0015634Y0172362D01*
X0015691Y0172400D01*
X0015746Y0172442D01*
X0015798Y0172486D01*
X0015848Y0172533D01*
X0015895Y0172583D01*
X0015939Y0172635D01*
X0015981Y0172690D01*
X0016019Y0172747D01*
X0016054Y0172806D01*
X0016085Y0172867D01*
X0016113Y0172929D01*
X0016137Y0172993D01*
X0016158Y0173059D01*
X0016175Y0173125D01*
X0016189Y0173192D01*
X0016198Y0173260D01*
X0016204Y0173328D01*
X0016206Y0173397D01*
X0016206Y0174619D01*
X0014678Y0176861D02*
X0010706Y0176861D01*
X0010706Y0174619D02*
X0010706Y0173397D01*
X0010708Y0173328D01*
X0010714Y0173260D01*
X0010723Y0173192D01*
X0010737Y0173125D01*
X0010754Y0173059D01*
X0010775Y0172993D01*
X0010799Y0172929D01*
X0010827Y0172867D01*
X0010858Y0172806D01*
X0010893Y0172747D01*
X0010931Y0172690D01*
X0010973Y0172635D01*
X0011017Y0172583D01*
X0011064Y0172533D01*
X0011114Y0172486D01*
X0011166Y0172442D01*
X0011221Y0172400D01*
X0011278Y0172362D01*
X0011337Y0172327D01*
X0011398Y0172296D01*
X0011460Y0172268D01*
X0011524Y0172244D01*
X0011590Y0172223D01*
X0011656Y0172206D01*
X0011723Y0172192D01*
X0011791Y0172183D01*
X0011859Y0172177D01*
X0011928Y0172175D01*
X0013150Y0169544D02*
X0013150Y0167711D01*
X0016206Y0167711D02*
X0016206Y0170155D01*
X0014678Y0176861D02*
X0014755Y0176863D01*
X0014833Y0176869D01*
X0014909Y0176879D01*
X0014986Y0176892D01*
X0015061Y0176910D01*
X0015135Y0176931D01*
X0015209Y0176956D01*
X0015281Y0176985D01*
X0015351Y0177017D01*
X0015420Y0177053D01*
X0015486Y0177092D01*
X0015551Y0177135D01*
X0015613Y0177181D01*
X0015673Y0177230D01*
X0015731Y0177282D01*
X0015785Y0177336D01*
X0015837Y0177394D01*
X0015886Y0177454D01*
X0015932Y0177516D01*
X0015975Y0177581D01*
X0016014Y0177647D01*
X0016050Y0177716D01*
X0016082Y0177786D01*
X0016111Y0177858D01*
X0016136Y0177932D01*
X0016157Y0178006D01*
X0016175Y0178081D01*
X0016188Y0178158D01*
X0016198Y0178234D01*
X0016204Y0178312D01*
X0016206Y0178389D01*
X0016204Y0178466D01*
X0016198Y0178544D01*
X0016188Y0178620D01*
X0016175Y0178697D01*
X0016157Y0178772D01*
X0016136Y0178846D01*
X0016111Y0178920D01*
X0016082Y0178992D01*
X0016050Y0179062D01*
X0016014Y0179131D01*
X0015975Y0179197D01*
X0015932Y0179262D01*
X0015886Y0179324D01*
X0015837Y0179384D01*
X0015785Y0179442D01*
X0015731Y0179496D01*
X0015673Y0179548D01*
X0015613Y0179597D01*
X0015551Y0179643D01*
X0015486Y0179686D01*
X0015420Y0179725D01*
X0015351Y0179761D01*
X0015281Y0179793D01*
X0015209Y0179822D01*
X0015135Y0179847D01*
X0015061Y0179868D01*
X0014986Y0179886D01*
X0014909Y0179899D01*
X0014833Y0179909D01*
X0014755Y0179915D01*
X0014678Y0179917D01*
X0010706Y0179917D01*
X0010706Y0185143D02*
X0010706Y0186365D01*
X0010706Y0185754D02*
X0016206Y0185754D01*
X0016206Y0185143D02*
X0016206Y0186365D01*
X0016206Y0188664D02*
X0012539Y0188664D01*
X0012539Y0190192D01*
X0012541Y0190252D01*
X0012547Y0190312D01*
X0012557Y0190371D01*
X0012570Y0190429D01*
X0012588Y0190487D01*
X0012609Y0190543D01*
X0012634Y0190598D01*
X0012662Y0190650D01*
X0012694Y0190701D01*
X0012728Y0190750D01*
X0012767Y0190797D01*
X0012808Y0190840D01*
X0012851Y0190881D01*
X0012898Y0190920D01*
X0012947Y0190954D01*
X0012997Y0190986D01*
X0013050Y0191014D01*
X0013105Y0191039D01*
X0013161Y0191060D01*
X0013219Y0191078D01*
X0013277Y0191091D01*
X0013336Y0191101D01*
X0013396Y0191107D01*
X0013456Y0191109D01*
X0013456Y0191108D02*
X0016206Y0191108D01*
X0015289Y0193668D02*
X0010706Y0193668D01*
X0012539Y0193057D02*
X0012539Y0194890D01*
X0013762Y0196927D02*
X0015289Y0196927D01*
X0014373Y0196927D02*
X0014373Y0199372D01*
X0013762Y0199372D01*
X0013762Y0199371D02*
X0013693Y0199369D01*
X0013625Y0199363D01*
X0013557Y0199354D01*
X0013490Y0199340D01*
X0013424Y0199323D01*
X0013358Y0199302D01*
X0013294Y0199278D01*
X0013232Y0199250D01*
X0013171Y0199219D01*
X0013112Y0199184D01*
X0013055Y0199146D01*
X0013000Y0199104D01*
X0012948Y0199060D01*
X0012898Y0199013D01*
X0012851Y0198963D01*
X0012807Y0198911D01*
X0012765Y0198856D01*
X0012727Y0198799D01*
X0012692Y0198740D01*
X0012661Y0198679D01*
X0012633Y0198617D01*
X0012609Y0198553D01*
X0012588Y0198487D01*
X0012571Y0198421D01*
X0012557Y0198354D01*
X0012548Y0198286D01*
X0012542Y0198218D01*
X0012540Y0198149D01*
X0012542Y0198080D01*
X0012548Y0198012D01*
X0012557Y0197944D01*
X0012571Y0197877D01*
X0012588Y0197811D01*
X0012609Y0197745D01*
X0012633Y0197681D01*
X0012661Y0197619D01*
X0012692Y0197558D01*
X0012727Y0197499D01*
X0012765Y0197442D01*
X0012807Y0197387D01*
X0012851Y0197335D01*
X0012898Y0197285D01*
X0012948Y0197238D01*
X0013000Y0197194D01*
X0013055Y0197152D01*
X0013112Y0197114D01*
X0013171Y0197079D01*
X0013232Y0197048D01*
X0013294Y0197020D01*
X0013358Y0196996D01*
X0013424Y0196975D01*
X0013490Y0196958D01*
X0013557Y0196944D01*
X0013625Y0196935D01*
X0013693Y0196929D01*
X0013762Y0196927D01*
X0015289Y0196927D02*
X0015347Y0196929D01*
X0015404Y0196934D01*
X0015461Y0196943D01*
X0015517Y0196956D01*
X0015572Y0196972D01*
X0015627Y0196991D01*
X0015679Y0197014D01*
X0015731Y0197040D01*
X0015780Y0197070D01*
X0015828Y0197102D01*
X0015874Y0197137D01*
X0015917Y0197176D01*
X0015957Y0197216D01*
X0015996Y0197259D01*
X0016031Y0197305D01*
X0016063Y0197353D01*
X0016093Y0197402D01*
X0016119Y0197454D01*
X0016142Y0197506D01*
X0016161Y0197561D01*
X0016177Y0197616D01*
X0016190Y0197672D01*
X0016199Y0197729D01*
X0016204Y0197786D01*
X0016206Y0197844D01*
X0016206Y0199372D01*
X0016206Y0201809D02*
X0012539Y0201809D01*
X0012539Y0203643D01*
X0013150Y0203643D01*
X0012539Y0205054D02*
X0012539Y0206888D01*
X0011623Y0205665D02*
X0011563Y0205667D01*
X0011503Y0205673D01*
X0011444Y0205683D01*
X0011386Y0205696D01*
X0011328Y0205714D01*
X0011272Y0205735D01*
X0011217Y0205760D01*
X0011165Y0205788D01*
X0011114Y0205820D01*
X0011065Y0205854D01*
X0011018Y0205893D01*
X0010975Y0205934D01*
X0010934Y0205977D01*
X0010896Y0206024D01*
X0010861Y0206073D01*
X0010829Y0206123D01*
X0010801Y0206176D01*
X0010776Y0206231D01*
X0010755Y0206287D01*
X0010737Y0206345D01*
X0010724Y0206403D01*
X0010714Y0206462D01*
X0010708Y0206522D01*
X0010706Y0206582D01*
X0010706Y0206888D01*
X0011623Y0205666D02*
X0016206Y0205666D01*
X0016206Y0209466D02*
X0016206Y0210841D01*
X0013456Y0210841D01*
X0014067Y0210841D02*
X0014067Y0209466D01*
X0013456Y0210841D02*
X0013398Y0210839D01*
X0013341Y0210834D01*
X0013284Y0210825D01*
X0013228Y0210812D01*
X0013173Y0210796D01*
X0013118Y0210777D01*
X0013066Y0210754D01*
X0013014Y0210728D01*
X0012965Y0210698D01*
X0012917Y0210666D01*
X0012871Y0210631D01*
X0012828Y0210592D01*
X0012788Y0210552D01*
X0012749Y0210509D01*
X0012714Y0210463D01*
X0012682Y0210415D01*
X0012652Y0210366D01*
X0012626Y0210314D01*
X0012603Y0210262D01*
X0012584Y0210207D01*
X0012568Y0210152D01*
X0012555Y0210096D01*
X0012546Y0210039D01*
X0012541Y0209982D01*
X0012539Y0209924D01*
X0012539Y0208702D01*
X0014068Y0209466D02*
X0014070Y0209401D01*
X0014076Y0209337D01*
X0014086Y0209273D01*
X0014099Y0209210D01*
X0014116Y0209148D01*
X0014137Y0209087D01*
X0014162Y0209027D01*
X0014190Y0208969D01*
X0014222Y0208913D01*
X0014257Y0208859D01*
X0014296Y0208807D01*
X0014337Y0208757D01*
X0014381Y0208710D01*
X0014428Y0208666D01*
X0014478Y0208625D01*
X0014530Y0208586D01*
X0014584Y0208551D01*
X0014640Y0208519D01*
X0014698Y0208491D01*
X0014758Y0208466D01*
X0014819Y0208445D01*
X0014881Y0208428D01*
X0014944Y0208415D01*
X0015008Y0208405D01*
X0015072Y0208399D01*
X0015137Y0208397D01*
X0015202Y0208399D01*
X0015266Y0208405D01*
X0015330Y0208415D01*
X0015393Y0208428D01*
X0015455Y0208445D01*
X0015516Y0208466D01*
X0015576Y0208491D01*
X0015634Y0208519D01*
X0015690Y0208551D01*
X0015744Y0208586D01*
X0015796Y0208625D01*
X0015846Y0208666D01*
X0015893Y0208710D01*
X0015937Y0208757D01*
X0015978Y0208807D01*
X0016017Y0208859D01*
X0016052Y0208913D01*
X0016084Y0208969D01*
X0016112Y0209027D01*
X0016137Y0209087D01*
X0016158Y0209148D01*
X0016175Y0209210D01*
X0016188Y0209273D01*
X0016198Y0209337D01*
X0016204Y0209401D01*
X0016206Y0209466D01*
X0015289Y0213281D02*
X0013456Y0213281D01*
X0013456Y0213280D02*
X0013398Y0213282D01*
X0013341Y0213287D01*
X0013284Y0213296D01*
X0013228Y0213309D01*
X0013173Y0213325D01*
X0013118Y0213344D01*
X0013066Y0213367D01*
X0013014Y0213393D01*
X0012965Y0213423D01*
X0012917Y0213455D01*
X0012871Y0213490D01*
X0012828Y0213529D01*
X0012788Y0213569D01*
X0012749Y0213612D01*
X0012714Y0213658D01*
X0012682Y0213706D01*
X0012652Y0213755D01*
X0012626Y0213807D01*
X0012603Y0213859D01*
X0012584Y0213914D01*
X0012568Y0213969D01*
X0012555Y0214025D01*
X0012546Y0214082D01*
X0012541Y0214139D01*
X0012539Y0214197D01*
X0012539Y0215420D01*
X0013762Y0217406D02*
X0015289Y0217406D01*
X0014373Y0217406D02*
X0014373Y0219851D01*
X0013762Y0219851D01*
X0013762Y0219850D02*
X0013693Y0219848D01*
X0013625Y0219842D01*
X0013557Y0219833D01*
X0013490Y0219819D01*
X0013424Y0219802D01*
X0013358Y0219781D01*
X0013294Y0219757D01*
X0013232Y0219729D01*
X0013171Y0219698D01*
X0013112Y0219663D01*
X0013055Y0219625D01*
X0013000Y0219583D01*
X0012948Y0219539D01*
X0012898Y0219492D01*
X0012851Y0219442D01*
X0012807Y0219390D01*
X0012765Y0219335D01*
X0012727Y0219278D01*
X0012692Y0219219D01*
X0012661Y0219158D01*
X0012633Y0219096D01*
X0012609Y0219032D01*
X0012588Y0218966D01*
X0012571Y0218900D01*
X0012557Y0218833D01*
X0012548Y0218765D01*
X0012542Y0218697D01*
X0012540Y0218628D01*
X0012542Y0218559D01*
X0012548Y0218491D01*
X0012557Y0218423D01*
X0012571Y0218356D01*
X0012588Y0218290D01*
X0012609Y0218224D01*
X0012633Y0218160D01*
X0012661Y0218098D01*
X0012692Y0218037D01*
X0012727Y0217978D01*
X0012765Y0217921D01*
X0012807Y0217866D01*
X0012851Y0217814D01*
X0012898Y0217764D01*
X0012948Y0217717D01*
X0013000Y0217673D01*
X0013055Y0217631D01*
X0013112Y0217593D01*
X0013171Y0217558D01*
X0013232Y0217527D01*
X0013294Y0217499D01*
X0013358Y0217475D01*
X0013424Y0217454D01*
X0013490Y0217437D01*
X0013557Y0217423D01*
X0013625Y0217414D01*
X0013693Y0217408D01*
X0013762Y0217406D01*
X0015289Y0217406D02*
X0015347Y0217408D01*
X0015404Y0217413D01*
X0015461Y0217422D01*
X0015517Y0217435D01*
X0015572Y0217451D01*
X0015627Y0217470D01*
X0015679Y0217493D01*
X0015731Y0217519D01*
X0015780Y0217549D01*
X0015828Y0217581D01*
X0015874Y0217616D01*
X0015917Y0217655D01*
X0015957Y0217695D01*
X0015996Y0217738D01*
X0016031Y0217784D01*
X0016063Y0217832D01*
X0016093Y0217881D01*
X0016119Y0217933D01*
X0016142Y0217985D01*
X0016161Y0218040D01*
X0016177Y0218095D01*
X0016190Y0218151D01*
X0016199Y0218208D01*
X0016204Y0218265D01*
X0016206Y0218323D01*
X0016206Y0219851D01*
X0016206Y0215420D02*
X0016206Y0214197D01*
X0016204Y0214139D01*
X0016199Y0214082D01*
X0016190Y0214025D01*
X0016177Y0213969D01*
X0016161Y0213914D01*
X0016142Y0213859D01*
X0016119Y0213807D01*
X0016093Y0213755D01*
X0016063Y0213706D01*
X0016031Y0213658D01*
X0015996Y0213612D01*
X0015957Y0213569D01*
X0015917Y0213529D01*
X0015874Y0213490D01*
X0015828Y0213455D01*
X0015780Y0213423D01*
X0015731Y0213393D01*
X0015679Y0213367D01*
X0015627Y0213344D01*
X0015572Y0213325D01*
X0015517Y0213309D01*
X0015461Y0213296D01*
X0015404Y0213287D01*
X0015347Y0213282D01*
X0015289Y0213280D01*
X0010706Y0224699D02*
X0016206Y0226532D01*
X0010706Y0228366D01*
X0013151Y0232992D02*
X0013098Y0233044D01*
X0013042Y0233094D01*
X0012984Y0233142D01*
X0012924Y0233186D01*
X0012861Y0233227D01*
X0012797Y0233265D01*
X0012731Y0233299D01*
X0012663Y0233331D01*
X0012593Y0233358D01*
X0012523Y0233382D01*
X0012451Y0233403D01*
X0012378Y0233420D01*
X0012304Y0233433D01*
X0012230Y0233442D01*
X0012156Y0233448D01*
X0012081Y0233450D01*
X0013150Y0232991D02*
X0016206Y0230394D01*
X0016206Y0233449D01*
X0016206Y0235541D02*
X0016206Y0235847D01*
X0015900Y0235847D01*
X0015900Y0235541D01*
X0016206Y0235541D01*
X0014984Y0238244D02*
X0011928Y0240689D01*
X0011470Y0240537D02*
X0011408Y0240513D01*
X0011347Y0240486D01*
X0011287Y0240455D01*
X0011230Y0240421D01*
X0011175Y0240384D01*
X0011122Y0240343D01*
X0011071Y0240299D01*
X0011023Y0240253D01*
X0010978Y0240203D01*
X0010936Y0240151D01*
X0010898Y0240097D01*
X0010862Y0240040D01*
X0010830Y0239982D01*
X0010801Y0239921D01*
X0010776Y0239860D01*
X0010755Y0239796D01*
X0010737Y0239732D01*
X0010724Y0239666D01*
X0010714Y0239600D01*
X0010708Y0239534D01*
X0010706Y0239467D01*
X0010708Y0239400D01*
X0010714Y0239334D01*
X0010724Y0239268D01*
X0010737Y0239202D01*
X0010755Y0239138D01*
X0010776Y0239074D01*
X0010801Y0239013D01*
X0010830Y0238952D01*
X0010862Y0238894D01*
X0010898Y0238837D01*
X0010936Y0238783D01*
X0010978Y0238731D01*
X0011023Y0238681D01*
X0011071Y0238635D01*
X0011122Y0238591D01*
X0011175Y0238550D01*
X0011230Y0238513D01*
X0011287Y0238479D01*
X0011347Y0238448D01*
X0011408Y0238421D01*
X0011470Y0238397D01*
X0011470Y0240536D02*
X0011586Y0240590D01*
X0011704Y0240642D01*
X0011823Y0240690D01*
X0011944Y0240734D01*
X0012066Y0240775D01*
X0012188Y0240813D01*
X0012312Y0240847D01*
X0012437Y0240878D01*
X0012563Y0240905D01*
X0012689Y0240929D01*
X0012816Y0240949D01*
X0012943Y0240965D01*
X0013071Y0240978D01*
X0013199Y0240987D01*
X0013328Y0240992D01*
X0013456Y0240994D01*
X0013456Y0237939D02*
X0013328Y0237941D01*
X0013199Y0237946D01*
X0013071Y0237955D01*
X0012943Y0237968D01*
X0012816Y0237984D01*
X0012689Y0238004D01*
X0012563Y0238028D01*
X0012437Y0238055D01*
X0012312Y0238086D01*
X0012188Y0238120D01*
X0012066Y0238158D01*
X0011944Y0238199D01*
X0011823Y0238243D01*
X0011704Y0238291D01*
X0011586Y0238343D01*
X0011470Y0238397D01*
X0013456Y0240994D02*
X0013584Y0240992D01*
X0013713Y0240987D01*
X0013841Y0240978D01*
X0013969Y0240965D01*
X0014096Y0240949D01*
X0014223Y0240929D01*
X0014349Y0240905D01*
X0014475Y0240878D01*
X0014600Y0240847D01*
X0014724Y0240813D01*
X0014846Y0240775D01*
X0014968Y0240734D01*
X0015089Y0240690D01*
X0015208Y0240642D01*
X0015326Y0240590D01*
X0015442Y0240536D01*
X0015442Y0240537D02*
X0015504Y0240513D01*
X0015565Y0240486D01*
X0015625Y0240455D01*
X0015682Y0240421D01*
X0015737Y0240384D01*
X0015790Y0240343D01*
X0015841Y0240299D01*
X0015889Y0240253D01*
X0015934Y0240203D01*
X0015976Y0240151D01*
X0016014Y0240097D01*
X0016050Y0240040D01*
X0016082Y0239982D01*
X0016111Y0239921D01*
X0016136Y0239860D01*
X0016157Y0239796D01*
X0016175Y0239732D01*
X0016188Y0239666D01*
X0016198Y0239600D01*
X0016204Y0239534D01*
X0016206Y0239467D01*
X0016204Y0239400D01*
X0016198Y0239334D01*
X0016188Y0239268D01*
X0016175Y0239202D01*
X0016157Y0239138D01*
X0016136Y0239074D01*
X0016111Y0239013D01*
X0016082Y0238952D01*
X0016050Y0238894D01*
X0016014Y0238837D01*
X0015976Y0238783D01*
X0015934Y0238731D01*
X0015889Y0238681D01*
X0015841Y0238635D01*
X0015790Y0238591D01*
X0015737Y0238550D01*
X0015682Y0238513D01*
X0015625Y0238479D01*
X0015565Y0238448D01*
X0015504Y0238421D01*
X0015442Y0238397D01*
X0015326Y0238343D01*
X0015208Y0238291D01*
X0015089Y0238243D01*
X0014968Y0238199D01*
X0014846Y0238158D01*
X0014724Y0238120D01*
X0014600Y0238086D01*
X0014475Y0238055D01*
X0014349Y0238028D01*
X0014223Y0238004D01*
X0014096Y0237984D01*
X0013969Y0237968D01*
X0013841Y0237955D01*
X0013713Y0237946D01*
X0013584Y0237941D01*
X0013456Y0237939D01*
X0010706Y0232074D02*
X0010708Y0231992D01*
X0010714Y0231910D01*
X0010723Y0231828D01*
X0010737Y0231747D01*
X0010754Y0231666D01*
X0010775Y0231587D01*
X0010799Y0231508D01*
X0010827Y0231431D01*
X0010859Y0231355D01*
X0010894Y0231281D01*
X0010933Y0231208D01*
X0010975Y0231138D01*
X0011020Y0231069D01*
X0011068Y0231002D01*
X0011120Y0230938D01*
X0011174Y0230876D01*
X0011231Y0230817D01*
X0011291Y0230761D01*
X0011354Y0230707D01*
X0011418Y0230657D01*
X0011486Y0230609D01*
X0011555Y0230565D01*
X0011626Y0230524D01*
X0011699Y0230486D01*
X0011774Y0230452D01*
X0011850Y0230421D01*
X0011928Y0230394D01*
X0010706Y0232074D02*
X0010708Y0232146D01*
X0010714Y0232218D01*
X0010723Y0232289D01*
X0010736Y0232360D01*
X0010753Y0232430D01*
X0010773Y0232499D01*
X0010797Y0232567D01*
X0010825Y0232633D01*
X0010856Y0232698D01*
X0010890Y0232762D01*
X0010928Y0232823D01*
X0010969Y0232882D01*
X0011012Y0232939D01*
X0011059Y0232994D01*
X0011109Y0233046D01*
X0011161Y0233096D01*
X0011216Y0233143D01*
X0011273Y0233186D01*
X0011332Y0233227D01*
X0011394Y0233265D01*
X0011457Y0233299D01*
X0011522Y0233330D01*
X0011588Y0233358D01*
X0011656Y0233382D01*
X0011725Y0233402D01*
X0011795Y0233419D01*
X0011866Y0233432D01*
X0011937Y0233441D01*
X0012009Y0233447D01*
X0012081Y0233449D01*
X0016206Y0194890D02*
X0016206Y0194585D01*
X0016204Y0194527D01*
X0016199Y0194470D01*
X0016190Y0194413D01*
X0016177Y0194357D01*
X0016161Y0194302D01*
X0016142Y0194247D01*
X0016119Y0194195D01*
X0016093Y0194143D01*
X0016063Y0194094D01*
X0016031Y0194046D01*
X0015996Y0194000D01*
X0015957Y0193957D01*
X0015917Y0193917D01*
X0015874Y0193878D01*
X0015828Y0193843D01*
X0015780Y0193811D01*
X0015731Y0193781D01*
X0015679Y0193755D01*
X0015627Y0193732D01*
X0015572Y0193713D01*
X0015517Y0193697D01*
X0015461Y0193684D01*
X0015404Y0193675D01*
X0015347Y0193670D01*
X0015289Y0193668D01*
X0016206Y0150454D02*
X0010706Y0150454D01*
X0013150Y0147628D02*
X0013150Y0145795D01*
X0016206Y0145795D02*
X0016206Y0148239D01*
X0016206Y0140250D02*
X0010706Y0140250D01*
D13*
X0007869Y0250000D02*
X0007871Y0250174D01*
X0007878Y0250348D01*
X0007888Y0250521D01*
X0007903Y0250695D01*
X0007922Y0250868D01*
X0007946Y0251040D01*
X0007973Y0251212D01*
X0008005Y0251383D01*
X0008041Y0251553D01*
X0008081Y0251722D01*
X0008126Y0251890D01*
X0008174Y0252057D01*
X0008227Y0252223D01*
X0008283Y0252388D01*
X0008344Y0252551D01*
X0008408Y0252712D01*
X0008477Y0252872D01*
X0008549Y0253030D01*
X0008626Y0253186D01*
X0008706Y0253341D01*
X0008790Y0253493D01*
X0008877Y0253643D01*
X0008969Y0253792D01*
X0009063Y0253937D01*
X0009162Y0254081D01*
X0009264Y0254222D01*
X0009369Y0254360D01*
X0009478Y0254496D01*
X0009590Y0254629D01*
X0009705Y0254759D01*
X0009823Y0254887D01*
X0009945Y0255011D01*
X0010069Y0255133D01*
X0010197Y0255251D01*
X0010327Y0255366D01*
X0010460Y0255478D01*
X0010596Y0255587D01*
X0010734Y0255692D01*
X0010875Y0255794D01*
X0011019Y0255893D01*
X0011164Y0255987D01*
X0011313Y0256079D01*
X0011463Y0256166D01*
X0011615Y0256250D01*
X0011770Y0256330D01*
X0011926Y0256407D01*
X0012084Y0256479D01*
X0012244Y0256548D01*
X0012405Y0256612D01*
X0012568Y0256673D01*
X0012733Y0256729D01*
X0012899Y0256782D01*
X0013066Y0256830D01*
X0013234Y0256875D01*
X0013403Y0256915D01*
X0013573Y0256951D01*
X0013744Y0256983D01*
X0013916Y0257010D01*
X0014088Y0257034D01*
X0014261Y0257053D01*
X0014435Y0257068D01*
X0014608Y0257078D01*
X0014782Y0257085D01*
X0014956Y0257087D01*
X0015130Y0257085D01*
X0015304Y0257078D01*
X0015477Y0257068D01*
X0015651Y0257053D01*
X0015824Y0257034D01*
X0015996Y0257010D01*
X0016168Y0256983D01*
X0016339Y0256951D01*
X0016509Y0256915D01*
X0016678Y0256875D01*
X0016846Y0256830D01*
X0017013Y0256782D01*
X0017179Y0256729D01*
X0017344Y0256673D01*
X0017507Y0256612D01*
X0017668Y0256548D01*
X0017828Y0256479D01*
X0017986Y0256407D01*
X0018142Y0256330D01*
X0018297Y0256250D01*
X0018449Y0256166D01*
X0018599Y0256079D01*
X0018748Y0255987D01*
X0018893Y0255893D01*
X0019037Y0255794D01*
X0019178Y0255692D01*
X0019316Y0255587D01*
X0019452Y0255478D01*
X0019585Y0255366D01*
X0019715Y0255251D01*
X0019843Y0255133D01*
X0019967Y0255011D01*
X0020089Y0254887D01*
X0020207Y0254759D01*
X0020322Y0254629D01*
X0020434Y0254496D01*
X0020543Y0254360D01*
X0020648Y0254222D01*
X0020750Y0254081D01*
X0020849Y0253937D01*
X0020943Y0253792D01*
X0021035Y0253643D01*
X0021122Y0253493D01*
X0021206Y0253341D01*
X0021286Y0253186D01*
X0021363Y0253030D01*
X0021435Y0252872D01*
X0021504Y0252712D01*
X0021568Y0252551D01*
X0021629Y0252388D01*
X0021685Y0252223D01*
X0021738Y0252057D01*
X0021786Y0251890D01*
X0021831Y0251722D01*
X0021871Y0251553D01*
X0021907Y0251383D01*
X0021939Y0251212D01*
X0021966Y0251040D01*
X0021990Y0250868D01*
X0022009Y0250695D01*
X0022024Y0250521D01*
X0022034Y0250348D01*
X0022041Y0250174D01*
X0022043Y0250000D01*
X0022041Y0249826D01*
X0022034Y0249652D01*
X0022024Y0249479D01*
X0022009Y0249305D01*
X0021990Y0249132D01*
X0021966Y0248960D01*
X0021939Y0248788D01*
X0021907Y0248617D01*
X0021871Y0248447D01*
X0021831Y0248278D01*
X0021786Y0248110D01*
X0021738Y0247943D01*
X0021685Y0247777D01*
X0021629Y0247612D01*
X0021568Y0247449D01*
X0021504Y0247288D01*
X0021435Y0247128D01*
X0021363Y0246970D01*
X0021286Y0246814D01*
X0021206Y0246659D01*
X0021122Y0246507D01*
X0021035Y0246357D01*
X0020943Y0246208D01*
X0020849Y0246063D01*
X0020750Y0245919D01*
X0020648Y0245778D01*
X0020543Y0245640D01*
X0020434Y0245504D01*
X0020322Y0245371D01*
X0020207Y0245241D01*
X0020089Y0245113D01*
X0019967Y0244989D01*
X0019843Y0244867D01*
X0019715Y0244749D01*
X0019585Y0244634D01*
X0019452Y0244522D01*
X0019316Y0244413D01*
X0019178Y0244308D01*
X0019037Y0244206D01*
X0018893Y0244107D01*
X0018748Y0244013D01*
X0018599Y0243921D01*
X0018449Y0243834D01*
X0018297Y0243750D01*
X0018142Y0243670D01*
X0017986Y0243593D01*
X0017828Y0243521D01*
X0017668Y0243452D01*
X0017507Y0243388D01*
X0017344Y0243327D01*
X0017179Y0243271D01*
X0017013Y0243218D01*
X0016846Y0243170D01*
X0016678Y0243125D01*
X0016509Y0243085D01*
X0016339Y0243049D01*
X0016168Y0243017D01*
X0015996Y0242990D01*
X0015824Y0242966D01*
X0015651Y0242947D01*
X0015477Y0242932D01*
X0015304Y0242922D01*
X0015130Y0242915D01*
X0014956Y0242913D01*
X0014782Y0242915D01*
X0014608Y0242922D01*
X0014435Y0242932D01*
X0014261Y0242947D01*
X0014088Y0242966D01*
X0013916Y0242990D01*
X0013744Y0243017D01*
X0013573Y0243049D01*
X0013403Y0243085D01*
X0013234Y0243125D01*
X0013066Y0243170D01*
X0012899Y0243218D01*
X0012733Y0243271D01*
X0012568Y0243327D01*
X0012405Y0243388D01*
X0012244Y0243452D01*
X0012084Y0243521D01*
X0011926Y0243593D01*
X0011770Y0243670D01*
X0011615Y0243750D01*
X0011463Y0243834D01*
X0011313Y0243921D01*
X0011164Y0244013D01*
X0011019Y0244107D01*
X0010875Y0244206D01*
X0010734Y0244308D01*
X0010596Y0244413D01*
X0010460Y0244522D01*
X0010327Y0244634D01*
X0010197Y0244749D01*
X0010069Y0244867D01*
X0009945Y0244989D01*
X0009823Y0245113D01*
X0009705Y0245241D01*
X0009590Y0245371D01*
X0009478Y0245504D01*
X0009369Y0245640D01*
X0009264Y0245778D01*
X0009162Y0245919D01*
X0009063Y0246063D01*
X0008969Y0246208D01*
X0008877Y0246357D01*
X0008790Y0246507D01*
X0008706Y0246659D01*
X0008626Y0246814D01*
X0008549Y0246970D01*
X0008477Y0247128D01*
X0008408Y0247288D01*
X0008344Y0247449D01*
X0008283Y0247612D01*
X0008227Y0247777D01*
X0008174Y0247943D01*
X0008126Y0248110D01*
X0008081Y0248278D01*
X0008041Y0248447D01*
X0008005Y0248617D01*
X0007973Y0248788D01*
X0007946Y0248960D01*
X0007922Y0249132D01*
X0007903Y0249305D01*
X0007888Y0249479D01*
X0007878Y0249652D01*
X0007871Y0249826D01*
X0007869Y0250000D01*
X0120869Y0250000D02*
X0120871Y0250174D01*
X0120878Y0250348D01*
X0120888Y0250521D01*
X0120903Y0250695D01*
X0120922Y0250868D01*
X0120946Y0251040D01*
X0120973Y0251212D01*
X0121005Y0251383D01*
X0121041Y0251553D01*
X0121081Y0251722D01*
X0121126Y0251890D01*
X0121174Y0252057D01*
X0121227Y0252223D01*
X0121283Y0252388D01*
X0121344Y0252551D01*
X0121408Y0252712D01*
X0121477Y0252872D01*
X0121549Y0253030D01*
X0121626Y0253186D01*
X0121706Y0253341D01*
X0121790Y0253493D01*
X0121877Y0253643D01*
X0121969Y0253792D01*
X0122063Y0253937D01*
X0122162Y0254081D01*
X0122264Y0254222D01*
X0122369Y0254360D01*
X0122478Y0254496D01*
X0122590Y0254629D01*
X0122705Y0254759D01*
X0122823Y0254887D01*
X0122945Y0255011D01*
X0123069Y0255133D01*
X0123197Y0255251D01*
X0123327Y0255366D01*
X0123460Y0255478D01*
X0123596Y0255587D01*
X0123734Y0255692D01*
X0123875Y0255794D01*
X0124019Y0255893D01*
X0124164Y0255987D01*
X0124313Y0256079D01*
X0124463Y0256166D01*
X0124615Y0256250D01*
X0124770Y0256330D01*
X0124926Y0256407D01*
X0125084Y0256479D01*
X0125244Y0256548D01*
X0125405Y0256612D01*
X0125568Y0256673D01*
X0125733Y0256729D01*
X0125899Y0256782D01*
X0126066Y0256830D01*
X0126234Y0256875D01*
X0126403Y0256915D01*
X0126573Y0256951D01*
X0126744Y0256983D01*
X0126916Y0257010D01*
X0127088Y0257034D01*
X0127261Y0257053D01*
X0127435Y0257068D01*
X0127608Y0257078D01*
X0127782Y0257085D01*
X0127956Y0257087D01*
X0128130Y0257085D01*
X0128304Y0257078D01*
X0128477Y0257068D01*
X0128651Y0257053D01*
X0128824Y0257034D01*
X0128996Y0257010D01*
X0129168Y0256983D01*
X0129339Y0256951D01*
X0129509Y0256915D01*
X0129678Y0256875D01*
X0129846Y0256830D01*
X0130013Y0256782D01*
X0130179Y0256729D01*
X0130344Y0256673D01*
X0130507Y0256612D01*
X0130668Y0256548D01*
X0130828Y0256479D01*
X0130986Y0256407D01*
X0131142Y0256330D01*
X0131297Y0256250D01*
X0131449Y0256166D01*
X0131599Y0256079D01*
X0131748Y0255987D01*
X0131893Y0255893D01*
X0132037Y0255794D01*
X0132178Y0255692D01*
X0132316Y0255587D01*
X0132452Y0255478D01*
X0132585Y0255366D01*
X0132715Y0255251D01*
X0132843Y0255133D01*
X0132967Y0255011D01*
X0133089Y0254887D01*
X0133207Y0254759D01*
X0133322Y0254629D01*
X0133434Y0254496D01*
X0133543Y0254360D01*
X0133648Y0254222D01*
X0133750Y0254081D01*
X0133849Y0253937D01*
X0133943Y0253792D01*
X0134035Y0253643D01*
X0134122Y0253493D01*
X0134206Y0253341D01*
X0134286Y0253186D01*
X0134363Y0253030D01*
X0134435Y0252872D01*
X0134504Y0252712D01*
X0134568Y0252551D01*
X0134629Y0252388D01*
X0134685Y0252223D01*
X0134738Y0252057D01*
X0134786Y0251890D01*
X0134831Y0251722D01*
X0134871Y0251553D01*
X0134907Y0251383D01*
X0134939Y0251212D01*
X0134966Y0251040D01*
X0134990Y0250868D01*
X0135009Y0250695D01*
X0135024Y0250521D01*
X0135034Y0250348D01*
X0135041Y0250174D01*
X0135043Y0250000D01*
X0135041Y0249826D01*
X0135034Y0249652D01*
X0135024Y0249479D01*
X0135009Y0249305D01*
X0134990Y0249132D01*
X0134966Y0248960D01*
X0134939Y0248788D01*
X0134907Y0248617D01*
X0134871Y0248447D01*
X0134831Y0248278D01*
X0134786Y0248110D01*
X0134738Y0247943D01*
X0134685Y0247777D01*
X0134629Y0247612D01*
X0134568Y0247449D01*
X0134504Y0247288D01*
X0134435Y0247128D01*
X0134363Y0246970D01*
X0134286Y0246814D01*
X0134206Y0246659D01*
X0134122Y0246507D01*
X0134035Y0246357D01*
X0133943Y0246208D01*
X0133849Y0246063D01*
X0133750Y0245919D01*
X0133648Y0245778D01*
X0133543Y0245640D01*
X0133434Y0245504D01*
X0133322Y0245371D01*
X0133207Y0245241D01*
X0133089Y0245113D01*
X0132967Y0244989D01*
X0132843Y0244867D01*
X0132715Y0244749D01*
X0132585Y0244634D01*
X0132452Y0244522D01*
X0132316Y0244413D01*
X0132178Y0244308D01*
X0132037Y0244206D01*
X0131893Y0244107D01*
X0131748Y0244013D01*
X0131599Y0243921D01*
X0131449Y0243834D01*
X0131297Y0243750D01*
X0131142Y0243670D01*
X0130986Y0243593D01*
X0130828Y0243521D01*
X0130668Y0243452D01*
X0130507Y0243388D01*
X0130344Y0243327D01*
X0130179Y0243271D01*
X0130013Y0243218D01*
X0129846Y0243170D01*
X0129678Y0243125D01*
X0129509Y0243085D01*
X0129339Y0243049D01*
X0129168Y0243017D01*
X0128996Y0242990D01*
X0128824Y0242966D01*
X0128651Y0242947D01*
X0128477Y0242932D01*
X0128304Y0242922D01*
X0128130Y0242915D01*
X0127956Y0242913D01*
X0127782Y0242915D01*
X0127608Y0242922D01*
X0127435Y0242932D01*
X0127261Y0242947D01*
X0127088Y0242966D01*
X0126916Y0242990D01*
X0126744Y0243017D01*
X0126573Y0243049D01*
X0126403Y0243085D01*
X0126234Y0243125D01*
X0126066Y0243170D01*
X0125899Y0243218D01*
X0125733Y0243271D01*
X0125568Y0243327D01*
X0125405Y0243388D01*
X0125244Y0243452D01*
X0125084Y0243521D01*
X0124926Y0243593D01*
X0124770Y0243670D01*
X0124615Y0243750D01*
X0124463Y0243834D01*
X0124313Y0243921D01*
X0124164Y0244013D01*
X0124019Y0244107D01*
X0123875Y0244206D01*
X0123734Y0244308D01*
X0123596Y0244413D01*
X0123460Y0244522D01*
X0123327Y0244634D01*
X0123197Y0244749D01*
X0123069Y0244867D01*
X0122945Y0244989D01*
X0122823Y0245113D01*
X0122705Y0245241D01*
X0122590Y0245371D01*
X0122478Y0245504D01*
X0122369Y0245640D01*
X0122264Y0245778D01*
X0122162Y0245919D01*
X0122063Y0246063D01*
X0121969Y0246208D01*
X0121877Y0246357D01*
X0121790Y0246507D01*
X0121706Y0246659D01*
X0121626Y0246814D01*
X0121549Y0246970D01*
X0121477Y0247128D01*
X0121408Y0247288D01*
X0121344Y0247449D01*
X0121283Y0247612D01*
X0121227Y0247777D01*
X0121174Y0247943D01*
X0121126Y0248110D01*
X0121081Y0248278D01*
X0121041Y0248447D01*
X0121005Y0248617D01*
X0120973Y0248788D01*
X0120946Y0248960D01*
X0120922Y0249132D01*
X0120903Y0249305D01*
X0120888Y0249479D01*
X0120878Y0249652D01*
X0120871Y0249826D01*
X0120869Y0250000D01*
X0120869Y0015000D02*
X0120871Y0015174D01*
X0120878Y0015348D01*
X0120888Y0015521D01*
X0120903Y0015695D01*
X0120922Y0015868D01*
X0120946Y0016040D01*
X0120973Y0016212D01*
X0121005Y0016383D01*
X0121041Y0016553D01*
X0121081Y0016722D01*
X0121126Y0016890D01*
X0121174Y0017057D01*
X0121227Y0017223D01*
X0121283Y0017388D01*
X0121344Y0017551D01*
X0121408Y0017712D01*
X0121477Y0017872D01*
X0121549Y0018030D01*
X0121626Y0018186D01*
X0121706Y0018341D01*
X0121790Y0018493D01*
X0121877Y0018643D01*
X0121969Y0018792D01*
X0122063Y0018937D01*
X0122162Y0019081D01*
X0122264Y0019222D01*
X0122369Y0019360D01*
X0122478Y0019496D01*
X0122590Y0019629D01*
X0122705Y0019759D01*
X0122823Y0019887D01*
X0122945Y0020011D01*
X0123069Y0020133D01*
X0123197Y0020251D01*
X0123327Y0020366D01*
X0123460Y0020478D01*
X0123596Y0020587D01*
X0123734Y0020692D01*
X0123875Y0020794D01*
X0124019Y0020893D01*
X0124164Y0020987D01*
X0124313Y0021079D01*
X0124463Y0021166D01*
X0124615Y0021250D01*
X0124770Y0021330D01*
X0124926Y0021407D01*
X0125084Y0021479D01*
X0125244Y0021548D01*
X0125405Y0021612D01*
X0125568Y0021673D01*
X0125733Y0021729D01*
X0125899Y0021782D01*
X0126066Y0021830D01*
X0126234Y0021875D01*
X0126403Y0021915D01*
X0126573Y0021951D01*
X0126744Y0021983D01*
X0126916Y0022010D01*
X0127088Y0022034D01*
X0127261Y0022053D01*
X0127435Y0022068D01*
X0127608Y0022078D01*
X0127782Y0022085D01*
X0127956Y0022087D01*
X0128130Y0022085D01*
X0128304Y0022078D01*
X0128477Y0022068D01*
X0128651Y0022053D01*
X0128824Y0022034D01*
X0128996Y0022010D01*
X0129168Y0021983D01*
X0129339Y0021951D01*
X0129509Y0021915D01*
X0129678Y0021875D01*
X0129846Y0021830D01*
X0130013Y0021782D01*
X0130179Y0021729D01*
X0130344Y0021673D01*
X0130507Y0021612D01*
X0130668Y0021548D01*
X0130828Y0021479D01*
X0130986Y0021407D01*
X0131142Y0021330D01*
X0131297Y0021250D01*
X0131449Y0021166D01*
X0131599Y0021079D01*
X0131748Y0020987D01*
X0131893Y0020893D01*
X0132037Y0020794D01*
X0132178Y0020692D01*
X0132316Y0020587D01*
X0132452Y0020478D01*
X0132585Y0020366D01*
X0132715Y0020251D01*
X0132843Y0020133D01*
X0132967Y0020011D01*
X0133089Y0019887D01*
X0133207Y0019759D01*
X0133322Y0019629D01*
X0133434Y0019496D01*
X0133543Y0019360D01*
X0133648Y0019222D01*
X0133750Y0019081D01*
X0133849Y0018937D01*
X0133943Y0018792D01*
X0134035Y0018643D01*
X0134122Y0018493D01*
X0134206Y0018341D01*
X0134286Y0018186D01*
X0134363Y0018030D01*
X0134435Y0017872D01*
X0134504Y0017712D01*
X0134568Y0017551D01*
X0134629Y0017388D01*
X0134685Y0017223D01*
X0134738Y0017057D01*
X0134786Y0016890D01*
X0134831Y0016722D01*
X0134871Y0016553D01*
X0134907Y0016383D01*
X0134939Y0016212D01*
X0134966Y0016040D01*
X0134990Y0015868D01*
X0135009Y0015695D01*
X0135024Y0015521D01*
X0135034Y0015348D01*
X0135041Y0015174D01*
X0135043Y0015000D01*
X0135041Y0014826D01*
X0135034Y0014652D01*
X0135024Y0014479D01*
X0135009Y0014305D01*
X0134990Y0014132D01*
X0134966Y0013960D01*
X0134939Y0013788D01*
X0134907Y0013617D01*
X0134871Y0013447D01*
X0134831Y0013278D01*
X0134786Y0013110D01*
X0134738Y0012943D01*
X0134685Y0012777D01*
X0134629Y0012612D01*
X0134568Y0012449D01*
X0134504Y0012288D01*
X0134435Y0012128D01*
X0134363Y0011970D01*
X0134286Y0011814D01*
X0134206Y0011659D01*
X0134122Y0011507D01*
X0134035Y0011357D01*
X0133943Y0011208D01*
X0133849Y0011063D01*
X0133750Y0010919D01*
X0133648Y0010778D01*
X0133543Y0010640D01*
X0133434Y0010504D01*
X0133322Y0010371D01*
X0133207Y0010241D01*
X0133089Y0010113D01*
X0132967Y0009989D01*
X0132843Y0009867D01*
X0132715Y0009749D01*
X0132585Y0009634D01*
X0132452Y0009522D01*
X0132316Y0009413D01*
X0132178Y0009308D01*
X0132037Y0009206D01*
X0131893Y0009107D01*
X0131748Y0009013D01*
X0131599Y0008921D01*
X0131449Y0008834D01*
X0131297Y0008750D01*
X0131142Y0008670D01*
X0130986Y0008593D01*
X0130828Y0008521D01*
X0130668Y0008452D01*
X0130507Y0008388D01*
X0130344Y0008327D01*
X0130179Y0008271D01*
X0130013Y0008218D01*
X0129846Y0008170D01*
X0129678Y0008125D01*
X0129509Y0008085D01*
X0129339Y0008049D01*
X0129168Y0008017D01*
X0128996Y0007990D01*
X0128824Y0007966D01*
X0128651Y0007947D01*
X0128477Y0007932D01*
X0128304Y0007922D01*
X0128130Y0007915D01*
X0127956Y0007913D01*
X0127782Y0007915D01*
X0127608Y0007922D01*
X0127435Y0007932D01*
X0127261Y0007947D01*
X0127088Y0007966D01*
X0126916Y0007990D01*
X0126744Y0008017D01*
X0126573Y0008049D01*
X0126403Y0008085D01*
X0126234Y0008125D01*
X0126066Y0008170D01*
X0125899Y0008218D01*
X0125733Y0008271D01*
X0125568Y0008327D01*
X0125405Y0008388D01*
X0125244Y0008452D01*
X0125084Y0008521D01*
X0124926Y0008593D01*
X0124770Y0008670D01*
X0124615Y0008750D01*
X0124463Y0008834D01*
X0124313Y0008921D01*
X0124164Y0009013D01*
X0124019Y0009107D01*
X0123875Y0009206D01*
X0123734Y0009308D01*
X0123596Y0009413D01*
X0123460Y0009522D01*
X0123327Y0009634D01*
X0123197Y0009749D01*
X0123069Y0009867D01*
X0122945Y0009989D01*
X0122823Y0010113D01*
X0122705Y0010241D01*
X0122590Y0010371D01*
X0122478Y0010504D01*
X0122369Y0010640D01*
X0122264Y0010778D01*
X0122162Y0010919D01*
X0122063Y0011063D01*
X0121969Y0011208D01*
X0121877Y0011357D01*
X0121790Y0011507D01*
X0121706Y0011659D01*
X0121626Y0011814D01*
X0121549Y0011970D01*
X0121477Y0012128D01*
X0121408Y0012288D01*
X0121344Y0012449D01*
X0121283Y0012612D01*
X0121227Y0012777D01*
X0121174Y0012943D01*
X0121126Y0013110D01*
X0121081Y0013278D01*
X0121041Y0013447D01*
X0121005Y0013617D01*
X0120973Y0013788D01*
X0120946Y0013960D01*
X0120922Y0014132D01*
X0120903Y0014305D01*
X0120888Y0014479D01*
X0120878Y0014652D01*
X0120871Y0014826D01*
X0120869Y0015000D01*
X0007869Y0015000D02*
X0007871Y0015174D01*
X0007878Y0015348D01*
X0007888Y0015521D01*
X0007903Y0015695D01*
X0007922Y0015868D01*
X0007946Y0016040D01*
X0007973Y0016212D01*
X0008005Y0016383D01*
X0008041Y0016553D01*
X0008081Y0016722D01*
X0008126Y0016890D01*
X0008174Y0017057D01*
X0008227Y0017223D01*
X0008283Y0017388D01*
X0008344Y0017551D01*
X0008408Y0017712D01*
X0008477Y0017872D01*
X0008549Y0018030D01*
X0008626Y0018186D01*
X0008706Y0018341D01*
X0008790Y0018493D01*
X0008877Y0018643D01*
X0008969Y0018792D01*
X0009063Y0018937D01*
X0009162Y0019081D01*
X0009264Y0019222D01*
X0009369Y0019360D01*
X0009478Y0019496D01*
X0009590Y0019629D01*
X0009705Y0019759D01*
X0009823Y0019887D01*
X0009945Y0020011D01*
X0010069Y0020133D01*
X0010197Y0020251D01*
X0010327Y0020366D01*
X0010460Y0020478D01*
X0010596Y0020587D01*
X0010734Y0020692D01*
X0010875Y0020794D01*
X0011019Y0020893D01*
X0011164Y0020987D01*
X0011313Y0021079D01*
X0011463Y0021166D01*
X0011615Y0021250D01*
X0011770Y0021330D01*
X0011926Y0021407D01*
X0012084Y0021479D01*
X0012244Y0021548D01*
X0012405Y0021612D01*
X0012568Y0021673D01*
X0012733Y0021729D01*
X0012899Y0021782D01*
X0013066Y0021830D01*
X0013234Y0021875D01*
X0013403Y0021915D01*
X0013573Y0021951D01*
X0013744Y0021983D01*
X0013916Y0022010D01*
X0014088Y0022034D01*
X0014261Y0022053D01*
X0014435Y0022068D01*
X0014608Y0022078D01*
X0014782Y0022085D01*
X0014956Y0022087D01*
X0015130Y0022085D01*
X0015304Y0022078D01*
X0015477Y0022068D01*
X0015651Y0022053D01*
X0015824Y0022034D01*
X0015996Y0022010D01*
X0016168Y0021983D01*
X0016339Y0021951D01*
X0016509Y0021915D01*
X0016678Y0021875D01*
X0016846Y0021830D01*
X0017013Y0021782D01*
X0017179Y0021729D01*
X0017344Y0021673D01*
X0017507Y0021612D01*
X0017668Y0021548D01*
X0017828Y0021479D01*
X0017986Y0021407D01*
X0018142Y0021330D01*
X0018297Y0021250D01*
X0018449Y0021166D01*
X0018599Y0021079D01*
X0018748Y0020987D01*
X0018893Y0020893D01*
X0019037Y0020794D01*
X0019178Y0020692D01*
X0019316Y0020587D01*
X0019452Y0020478D01*
X0019585Y0020366D01*
X0019715Y0020251D01*
X0019843Y0020133D01*
X0019967Y0020011D01*
X0020089Y0019887D01*
X0020207Y0019759D01*
X0020322Y0019629D01*
X0020434Y0019496D01*
X0020543Y0019360D01*
X0020648Y0019222D01*
X0020750Y0019081D01*
X0020849Y0018937D01*
X0020943Y0018792D01*
X0021035Y0018643D01*
X0021122Y0018493D01*
X0021206Y0018341D01*
X0021286Y0018186D01*
X0021363Y0018030D01*
X0021435Y0017872D01*
X0021504Y0017712D01*
X0021568Y0017551D01*
X0021629Y0017388D01*
X0021685Y0017223D01*
X0021738Y0017057D01*
X0021786Y0016890D01*
X0021831Y0016722D01*
X0021871Y0016553D01*
X0021907Y0016383D01*
X0021939Y0016212D01*
X0021966Y0016040D01*
X0021990Y0015868D01*
X0022009Y0015695D01*
X0022024Y0015521D01*
X0022034Y0015348D01*
X0022041Y0015174D01*
X0022043Y0015000D01*
X0022041Y0014826D01*
X0022034Y0014652D01*
X0022024Y0014479D01*
X0022009Y0014305D01*
X0021990Y0014132D01*
X0021966Y0013960D01*
X0021939Y0013788D01*
X0021907Y0013617D01*
X0021871Y0013447D01*
X0021831Y0013278D01*
X0021786Y0013110D01*
X0021738Y0012943D01*
X0021685Y0012777D01*
X0021629Y0012612D01*
X0021568Y0012449D01*
X0021504Y0012288D01*
X0021435Y0012128D01*
X0021363Y0011970D01*
X0021286Y0011814D01*
X0021206Y0011659D01*
X0021122Y0011507D01*
X0021035Y0011357D01*
X0020943Y0011208D01*
X0020849Y0011063D01*
X0020750Y0010919D01*
X0020648Y0010778D01*
X0020543Y0010640D01*
X0020434Y0010504D01*
X0020322Y0010371D01*
X0020207Y0010241D01*
X0020089Y0010113D01*
X0019967Y0009989D01*
X0019843Y0009867D01*
X0019715Y0009749D01*
X0019585Y0009634D01*
X0019452Y0009522D01*
X0019316Y0009413D01*
X0019178Y0009308D01*
X0019037Y0009206D01*
X0018893Y0009107D01*
X0018748Y0009013D01*
X0018599Y0008921D01*
X0018449Y0008834D01*
X0018297Y0008750D01*
X0018142Y0008670D01*
X0017986Y0008593D01*
X0017828Y0008521D01*
X0017668Y0008452D01*
X0017507Y0008388D01*
X0017344Y0008327D01*
X0017179Y0008271D01*
X0017013Y0008218D01*
X0016846Y0008170D01*
X0016678Y0008125D01*
X0016509Y0008085D01*
X0016339Y0008049D01*
X0016168Y0008017D01*
X0015996Y0007990D01*
X0015824Y0007966D01*
X0015651Y0007947D01*
X0015477Y0007932D01*
X0015304Y0007922D01*
X0015130Y0007915D01*
X0014956Y0007913D01*
X0014782Y0007915D01*
X0014608Y0007922D01*
X0014435Y0007932D01*
X0014261Y0007947D01*
X0014088Y0007966D01*
X0013916Y0007990D01*
X0013744Y0008017D01*
X0013573Y0008049D01*
X0013403Y0008085D01*
X0013234Y0008125D01*
X0013066Y0008170D01*
X0012899Y0008218D01*
X0012733Y0008271D01*
X0012568Y0008327D01*
X0012405Y0008388D01*
X0012244Y0008452D01*
X0012084Y0008521D01*
X0011926Y0008593D01*
X0011770Y0008670D01*
X0011615Y0008750D01*
X0011463Y0008834D01*
X0011313Y0008921D01*
X0011164Y0009013D01*
X0011019Y0009107D01*
X0010875Y0009206D01*
X0010734Y0009308D01*
X0010596Y0009413D01*
X0010460Y0009522D01*
X0010327Y0009634D01*
X0010197Y0009749D01*
X0010069Y0009867D01*
X0009945Y0009989D01*
X0009823Y0010113D01*
X0009705Y0010241D01*
X0009590Y0010371D01*
X0009478Y0010504D01*
X0009369Y0010640D01*
X0009264Y0010778D01*
X0009162Y0010919D01*
X0009063Y0011063D01*
X0008969Y0011208D01*
X0008877Y0011357D01*
X0008790Y0011507D01*
X0008706Y0011659D01*
X0008626Y0011814D01*
X0008549Y0011970D01*
X0008477Y0012128D01*
X0008408Y0012288D01*
X0008344Y0012449D01*
X0008283Y0012612D01*
X0008227Y0012777D01*
X0008174Y0012943D01*
X0008126Y0013110D01*
X0008081Y0013278D01*
X0008041Y0013447D01*
X0008005Y0013617D01*
X0007973Y0013788D01*
X0007946Y0013960D01*
X0007922Y0014132D01*
X0007903Y0014305D01*
X0007888Y0014479D01*
X0007878Y0014652D01*
X0007871Y0014826D01*
X0007869Y0015000D01*
D14*
X0053336Y0084000D02*
X0053576Y0084000D01*
X0079456Y0125880D02*
X0079456Y0126120D01*
X0112456Y0137880D02*
X0112456Y0138120D01*
X0112456Y0147880D02*
X0112456Y0148120D01*
D15*
X0111646Y0144500D02*
X0111090Y0144500D01*
X0111090Y0142500D01*
X0111090Y0143389D02*
X0111646Y0143389D01*
X0111646Y0143388D02*
X0111692Y0143390D01*
X0111738Y0143396D01*
X0111782Y0143405D01*
X0111827Y0143418D01*
X0111869Y0143435D01*
X0111911Y0143455D01*
X0111950Y0143479D01*
X0111988Y0143505D01*
X0112023Y0143535D01*
X0112055Y0143567D01*
X0112085Y0143602D01*
X0112111Y0143640D01*
X0112135Y0143679D01*
X0112155Y0143721D01*
X0112172Y0143763D01*
X0112185Y0143808D01*
X0112194Y0143852D01*
X0112200Y0143898D01*
X0112202Y0143944D01*
X0112200Y0143990D01*
X0112194Y0144036D01*
X0112185Y0144080D01*
X0112172Y0144125D01*
X0112155Y0144167D01*
X0112135Y0144209D01*
X0112111Y0144248D01*
X0112085Y0144286D01*
X0112055Y0144321D01*
X0112023Y0144353D01*
X0111988Y0144383D01*
X0111950Y0144409D01*
X0111911Y0144433D01*
X0111869Y0144453D01*
X0111827Y0144470D01*
X0111782Y0144483D01*
X0111738Y0144492D01*
X0111692Y0144498D01*
X0111646Y0144500D01*
X0110048Y0144500D02*
X0109604Y0144500D01*
X0109563Y0144498D01*
X0109522Y0144492D01*
X0109482Y0144483D01*
X0109444Y0144470D01*
X0109406Y0144453D01*
X0109370Y0144433D01*
X0109336Y0144410D01*
X0109305Y0144384D01*
X0109276Y0144355D01*
X0109250Y0144324D01*
X0109227Y0144290D01*
X0109207Y0144254D01*
X0109190Y0144216D01*
X0109177Y0144178D01*
X0109168Y0144138D01*
X0109162Y0144097D01*
X0109160Y0144056D01*
X0109159Y0144056D02*
X0109159Y0142944D01*
X0109160Y0142944D02*
X0109162Y0142903D01*
X0109168Y0142862D01*
X0109177Y0142822D01*
X0109190Y0142784D01*
X0109207Y0142746D01*
X0109227Y0142710D01*
X0109250Y0142676D01*
X0109276Y0142645D01*
X0109305Y0142616D01*
X0109336Y0142590D01*
X0109370Y0142567D01*
X0109406Y0142547D01*
X0109444Y0142530D01*
X0109482Y0142517D01*
X0109522Y0142508D01*
X0109563Y0142502D01*
X0109604Y0142500D01*
X0110048Y0142500D01*
X0113335Y0143667D02*
X0113946Y0143333D01*
X0113724Y0142500D02*
X0113667Y0142502D01*
X0113610Y0142507D01*
X0113554Y0142516D01*
X0113498Y0142528D01*
X0113443Y0142543D01*
X0113389Y0142562D01*
X0113337Y0142584D01*
X0113285Y0142609D01*
X0113236Y0142637D01*
X0113188Y0142668D01*
X0113142Y0142702D01*
X0113099Y0142739D01*
X0113057Y0142778D01*
X0113946Y0143333D02*
X0113979Y0143311D01*
X0114009Y0143287D01*
X0114038Y0143261D01*
X0114064Y0143232D01*
X0114088Y0143201D01*
X0114109Y0143168D01*
X0114126Y0143133D01*
X0114141Y0143097D01*
X0114153Y0143060D01*
X0114161Y0143022D01*
X0114166Y0142983D01*
X0114168Y0142944D01*
X0114166Y0142903D01*
X0114160Y0142862D01*
X0114151Y0142822D01*
X0114138Y0142784D01*
X0114121Y0142746D01*
X0114101Y0142710D01*
X0114078Y0142676D01*
X0114052Y0142645D01*
X0114023Y0142616D01*
X0113992Y0142590D01*
X0113958Y0142567D01*
X0113922Y0142547D01*
X0113884Y0142530D01*
X0113846Y0142517D01*
X0113806Y0142508D01*
X0113765Y0142502D01*
X0113724Y0142500D01*
X0114057Y0144333D02*
X0114013Y0144364D01*
X0113967Y0144392D01*
X0113920Y0144417D01*
X0113871Y0144439D01*
X0113820Y0144457D01*
X0113769Y0144473D01*
X0113717Y0144485D01*
X0113664Y0144493D01*
X0113611Y0144498D01*
X0113557Y0144500D01*
X0113516Y0144498D01*
X0113475Y0144492D01*
X0113436Y0144483D01*
X0113397Y0144470D01*
X0113359Y0144453D01*
X0113323Y0144434D01*
X0113289Y0144410D01*
X0113258Y0144384D01*
X0113229Y0144355D01*
X0113203Y0144324D01*
X0113180Y0144290D01*
X0113160Y0144254D01*
X0113143Y0144216D01*
X0113130Y0144178D01*
X0113121Y0144138D01*
X0113115Y0144097D01*
X0113113Y0144056D01*
X0113115Y0144017D01*
X0113120Y0143978D01*
X0113128Y0143940D01*
X0113140Y0143903D01*
X0113155Y0143867D01*
X0113172Y0143832D01*
X0113193Y0143799D01*
X0113217Y0143768D01*
X0113243Y0143739D01*
X0113272Y0143713D01*
X0113302Y0143689D01*
X0113335Y0143667D01*
X0115145Y0144278D02*
X0115145Y0144500D01*
X0116256Y0144500D01*
X0115700Y0142500D01*
X0116256Y0133056D02*
X0116258Y0133015D01*
X0116264Y0132974D01*
X0116273Y0132934D01*
X0116286Y0132896D01*
X0116303Y0132858D01*
X0116323Y0132822D01*
X0116346Y0132788D01*
X0116372Y0132757D01*
X0116401Y0132728D01*
X0116432Y0132702D01*
X0116466Y0132679D01*
X0116502Y0132659D01*
X0116540Y0132642D01*
X0116578Y0132629D01*
X0116618Y0132620D01*
X0116659Y0132614D01*
X0116700Y0132612D01*
X0116741Y0132614D01*
X0116782Y0132620D01*
X0116822Y0132629D01*
X0116860Y0132642D01*
X0116898Y0132659D01*
X0116934Y0132679D01*
X0116968Y0132702D01*
X0116999Y0132728D01*
X0117028Y0132757D01*
X0117054Y0132788D01*
X0117077Y0132822D01*
X0117097Y0132858D01*
X0117114Y0132896D01*
X0117127Y0132934D01*
X0117136Y0132974D01*
X0117142Y0133015D01*
X0117144Y0133056D01*
X0117142Y0133097D01*
X0117136Y0133138D01*
X0117127Y0133178D01*
X0117114Y0133216D01*
X0117097Y0133254D01*
X0117077Y0133290D01*
X0117054Y0133324D01*
X0117028Y0133355D01*
X0116999Y0133384D01*
X0116968Y0133410D01*
X0116934Y0133433D01*
X0116898Y0133453D01*
X0116860Y0133470D01*
X0116822Y0133483D01*
X0116782Y0133492D01*
X0116741Y0133498D01*
X0116700Y0133500D01*
X0116659Y0133498D01*
X0116618Y0133492D01*
X0116578Y0133483D01*
X0116540Y0133470D01*
X0116502Y0133453D01*
X0116466Y0133433D01*
X0116432Y0133410D01*
X0116401Y0133384D01*
X0116372Y0133355D01*
X0116346Y0133324D01*
X0116323Y0133290D01*
X0116303Y0133254D01*
X0116286Y0133216D01*
X0116273Y0133178D01*
X0116264Y0133138D01*
X0116258Y0133097D01*
X0116256Y0133056D01*
X0116144Y0132056D02*
X0116146Y0132010D01*
X0116152Y0131964D01*
X0116161Y0131920D01*
X0116174Y0131875D01*
X0116191Y0131833D01*
X0116211Y0131791D01*
X0116235Y0131752D01*
X0116261Y0131714D01*
X0116291Y0131679D01*
X0116323Y0131647D01*
X0116358Y0131617D01*
X0116396Y0131591D01*
X0116435Y0131567D01*
X0116477Y0131547D01*
X0116519Y0131530D01*
X0116564Y0131517D01*
X0116608Y0131508D01*
X0116654Y0131502D01*
X0116700Y0131500D01*
X0116746Y0131502D01*
X0116792Y0131508D01*
X0116836Y0131517D01*
X0116881Y0131530D01*
X0116923Y0131547D01*
X0116965Y0131567D01*
X0117004Y0131591D01*
X0117042Y0131617D01*
X0117077Y0131647D01*
X0117109Y0131679D01*
X0117139Y0131714D01*
X0117165Y0131752D01*
X0117189Y0131791D01*
X0117209Y0131833D01*
X0117226Y0131875D01*
X0117239Y0131920D01*
X0117248Y0131964D01*
X0117254Y0132010D01*
X0117256Y0132056D01*
X0117254Y0132102D01*
X0117248Y0132148D01*
X0117239Y0132192D01*
X0117226Y0132237D01*
X0117209Y0132279D01*
X0117189Y0132321D01*
X0117165Y0132360D01*
X0117139Y0132398D01*
X0117109Y0132433D01*
X0117077Y0132465D01*
X0117042Y0132495D01*
X0117004Y0132521D01*
X0116965Y0132545D01*
X0116923Y0132565D01*
X0116881Y0132582D01*
X0116836Y0132595D01*
X0116792Y0132604D01*
X0116746Y0132610D01*
X0116700Y0132612D01*
X0116654Y0132610D01*
X0116608Y0132604D01*
X0116564Y0132595D01*
X0116519Y0132582D01*
X0116477Y0132565D01*
X0116435Y0132545D01*
X0116396Y0132521D01*
X0116358Y0132495D01*
X0116323Y0132465D01*
X0116291Y0132433D01*
X0116261Y0132398D01*
X0116235Y0132360D01*
X0116211Y0132321D01*
X0116191Y0132279D01*
X0116174Y0132237D01*
X0116161Y0132192D01*
X0116152Y0132148D01*
X0116146Y0132102D01*
X0116144Y0132056D01*
X0114946Y0132333D02*
X0114335Y0132667D01*
X0114557Y0133500D02*
X0114611Y0133498D01*
X0114664Y0133493D01*
X0114717Y0133485D01*
X0114769Y0133473D01*
X0114820Y0133457D01*
X0114871Y0133439D01*
X0114920Y0133417D01*
X0114967Y0133392D01*
X0115013Y0133364D01*
X0115057Y0133333D01*
X0114335Y0132667D02*
X0114302Y0132689D01*
X0114272Y0132713D01*
X0114243Y0132739D01*
X0114217Y0132768D01*
X0114193Y0132799D01*
X0114172Y0132832D01*
X0114155Y0132867D01*
X0114140Y0132903D01*
X0114128Y0132940D01*
X0114120Y0132978D01*
X0114115Y0133017D01*
X0114113Y0133056D01*
X0114115Y0133097D01*
X0114121Y0133138D01*
X0114130Y0133178D01*
X0114143Y0133216D01*
X0114160Y0133254D01*
X0114180Y0133290D01*
X0114203Y0133324D01*
X0114229Y0133355D01*
X0114258Y0133384D01*
X0114289Y0133410D01*
X0114323Y0133434D01*
X0114359Y0133453D01*
X0114397Y0133470D01*
X0114436Y0133483D01*
X0114475Y0133492D01*
X0114516Y0133498D01*
X0114557Y0133500D01*
X0114057Y0131778D02*
X0114099Y0131739D01*
X0114142Y0131702D01*
X0114188Y0131668D01*
X0114236Y0131637D01*
X0114285Y0131609D01*
X0114337Y0131584D01*
X0114389Y0131562D01*
X0114443Y0131543D01*
X0114498Y0131528D01*
X0114554Y0131516D01*
X0114610Y0131507D01*
X0114667Y0131502D01*
X0114724Y0131500D01*
X0114765Y0131502D01*
X0114806Y0131508D01*
X0114846Y0131517D01*
X0114884Y0131530D01*
X0114922Y0131547D01*
X0114958Y0131567D01*
X0114992Y0131590D01*
X0115023Y0131616D01*
X0115052Y0131645D01*
X0115078Y0131676D01*
X0115101Y0131710D01*
X0115121Y0131746D01*
X0115138Y0131784D01*
X0115151Y0131822D01*
X0115160Y0131862D01*
X0115166Y0131903D01*
X0115168Y0131944D01*
X0115166Y0131983D01*
X0115161Y0132022D01*
X0115153Y0132060D01*
X0115141Y0132097D01*
X0115126Y0132133D01*
X0115109Y0132168D01*
X0115088Y0132201D01*
X0115064Y0132232D01*
X0115038Y0132261D01*
X0115009Y0132287D01*
X0114979Y0132311D01*
X0114946Y0132333D01*
X0112646Y0132389D02*
X0112090Y0132389D01*
X0112646Y0132388D02*
X0112692Y0132390D01*
X0112738Y0132396D01*
X0112782Y0132405D01*
X0112827Y0132418D01*
X0112869Y0132435D01*
X0112911Y0132455D01*
X0112950Y0132479D01*
X0112988Y0132505D01*
X0113023Y0132535D01*
X0113055Y0132567D01*
X0113085Y0132602D01*
X0113111Y0132640D01*
X0113135Y0132679D01*
X0113155Y0132721D01*
X0113172Y0132763D01*
X0113185Y0132808D01*
X0113194Y0132852D01*
X0113200Y0132898D01*
X0113202Y0132944D01*
X0113200Y0132990D01*
X0113194Y0133036D01*
X0113185Y0133080D01*
X0113172Y0133125D01*
X0113155Y0133167D01*
X0113135Y0133209D01*
X0113111Y0133248D01*
X0113085Y0133286D01*
X0113055Y0133321D01*
X0113023Y0133353D01*
X0112988Y0133383D01*
X0112950Y0133409D01*
X0112911Y0133433D01*
X0112869Y0133453D01*
X0112827Y0133470D01*
X0112782Y0133483D01*
X0112738Y0133492D01*
X0112692Y0133498D01*
X0112646Y0133500D01*
X0112090Y0133500D01*
X0112090Y0131500D01*
X0111048Y0131500D02*
X0110604Y0131500D01*
X0110563Y0131502D01*
X0110522Y0131508D01*
X0110482Y0131517D01*
X0110444Y0131530D01*
X0110406Y0131547D01*
X0110370Y0131567D01*
X0110336Y0131590D01*
X0110305Y0131616D01*
X0110276Y0131645D01*
X0110250Y0131676D01*
X0110227Y0131710D01*
X0110207Y0131746D01*
X0110190Y0131784D01*
X0110177Y0131822D01*
X0110168Y0131862D01*
X0110162Y0131903D01*
X0110160Y0131944D01*
X0110159Y0131944D02*
X0110159Y0133056D01*
X0110160Y0133056D02*
X0110162Y0133097D01*
X0110168Y0133138D01*
X0110177Y0133178D01*
X0110190Y0133216D01*
X0110207Y0133254D01*
X0110227Y0133290D01*
X0110250Y0133324D01*
X0110276Y0133355D01*
X0110305Y0133384D01*
X0110336Y0133410D01*
X0110370Y0133433D01*
X0110406Y0133453D01*
X0110444Y0133470D01*
X0110482Y0133483D01*
X0110522Y0133492D01*
X0110563Y0133498D01*
X0110604Y0133500D01*
X0111048Y0133500D01*
X0113751Y0161200D02*
X0113751Y0163200D01*
X0114307Y0163200D01*
X0114353Y0163198D01*
X0114399Y0163192D01*
X0114443Y0163183D01*
X0114488Y0163170D01*
X0114530Y0163153D01*
X0114572Y0163133D01*
X0114611Y0163109D01*
X0114649Y0163083D01*
X0114684Y0163053D01*
X0114716Y0163021D01*
X0114746Y0162986D01*
X0114772Y0162948D01*
X0114796Y0162909D01*
X0114816Y0162867D01*
X0114833Y0162825D01*
X0114846Y0162780D01*
X0114855Y0162736D01*
X0114861Y0162690D01*
X0114863Y0162644D01*
X0114861Y0162598D01*
X0114855Y0162552D01*
X0114846Y0162508D01*
X0114833Y0162463D01*
X0114816Y0162421D01*
X0114796Y0162379D01*
X0114772Y0162340D01*
X0114746Y0162302D01*
X0114716Y0162267D01*
X0114684Y0162235D01*
X0114649Y0162205D01*
X0114611Y0162179D01*
X0114572Y0162155D01*
X0114530Y0162135D01*
X0114488Y0162118D01*
X0114443Y0162105D01*
X0114399Y0162096D01*
X0114353Y0162090D01*
X0114307Y0162088D01*
X0114307Y0162089D02*
X0113751Y0162089D01*
X0114418Y0162089D02*
X0114862Y0161200D01*
X0115890Y0161200D02*
X0117001Y0161200D01*
X0116445Y0161200D02*
X0116445Y0163200D01*
X0115890Y0162756D01*
X0118050Y0162756D02*
X0118605Y0163200D01*
X0118605Y0161200D01*
X0118050Y0161200D02*
X0119161Y0161200D01*
X0106756Y0174300D02*
X0105645Y0174300D01*
X0106200Y0174300D02*
X0106200Y0176300D01*
X0105645Y0175856D01*
X0104718Y0175744D02*
X0104718Y0174856D01*
X0104496Y0174744D02*
X0104941Y0174300D01*
X0104719Y0174856D02*
X0104717Y0174810D01*
X0104711Y0174764D01*
X0104702Y0174720D01*
X0104689Y0174675D01*
X0104672Y0174633D01*
X0104652Y0174591D01*
X0104628Y0174552D01*
X0104602Y0174514D01*
X0104572Y0174479D01*
X0104540Y0174447D01*
X0104505Y0174417D01*
X0104467Y0174391D01*
X0104428Y0174367D01*
X0104386Y0174347D01*
X0104344Y0174330D01*
X0104299Y0174317D01*
X0104255Y0174308D01*
X0104209Y0174302D01*
X0104163Y0174300D01*
X0104117Y0174302D01*
X0104071Y0174308D01*
X0104027Y0174317D01*
X0103982Y0174330D01*
X0103940Y0174347D01*
X0103898Y0174367D01*
X0103859Y0174391D01*
X0103821Y0174417D01*
X0103786Y0174447D01*
X0103754Y0174479D01*
X0103724Y0174514D01*
X0103698Y0174552D01*
X0103674Y0174591D01*
X0103654Y0174633D01*
X0103637Y0174675D01*
X0103624Y0174720D01*
X0103615Y0174764D01*
X0103609Y0174810D01*
X0103607Y0174856D01*
X0103607Y0175744D01*
X0103609Y0175790D01*
X0103615Y0175836D01*
X0103624Y0175880D01*
X0103637Y0175925D01*
X0103654Y0175967D01*
X0103674Y0176009D01*
X0103698Y0176048D01*
X0103724Y0176086D01*
X0103754Y0176121D01*
X0103786Y0176153D01*
X0103821Y0176183D01*
X0103859Y0176209D01*
X0103898Y0176233D01*
X0103940Y0176253D01*
X0103982Y0176270D01*
X0104027Y0176283D01*
X0104071Y0176292D01*
X0104117Y0176298D01*
X0104163Y0176300D01*
X0104209Y0176298D01*
X0104255Y0176292D01*
X0104299Y0176283D01*
X0104344Y0176270D01*
X0104386Y0176253D01*
X0104428Y0176233D01*
X0104467Y0176209D01*
X0104505Y0176183D01*
X0104540Y0176153D01*
X0104572Y0176121D01*
X0104602Y0176086D01*
X0104628Y0176048D01*
X0104652Y0176009D01*
X0104672Y0175967D01*
X0104689Y0175925D01*
X0104702Y0175880D01*
X0104711Y0175836D01*
X0104717Y0175790D01*
X0104719Y0175744D01*
X0118656Y0196295D02*
X0118656Y0196851D01*
X0118658Y0196897D01*
X0118664Y0196943D01*
X0118673Y0196987D01*
X0118686Y0197032D01*
X0118703Y0197074D01*
X0118723Y0197116D01*
X0118747Y0197155D01*
X0118773Y0197193D01*
X0118803Y0197228D01*
X0118835Y0197260D01*
X0118870Y0197290D01*
X0118908Y0197316D01*
X0118947Y0197340D01*
X0118989Y0197360D01*
X0119031Y0197377D01*
X0119076Y0197390D01*
X0119120Y0197399D01*
X0119166Y0197405D01*
X0119212Y0197407D01*
X0119258Y0197405D01*
X0119304Y0197399D01*
X0119348Y0197390D01*
X0119393Y0197377D01*
X0119435Y0197360D01*
X0119477Y0197340D01*
X0119516Y0197316D01*
X0119554Y0197290D01*
X0119589Y0197260D01*
X0119621Y0197228D01*
X0119651Y0197193D01*
X0119677Y0197155D01*
X0119701Y0197116D01*
X0119721Y0197074D01*
X0119738Y0197032D01*
X0119751Y0196987D01*
X0119760Y0196943D01*
X0119766Y0196897D01*
X0119768Y0196851D01*
X0119767Y0196851D02*
X0119767Y0196295D01*
X0119767Y0196962D02*
X0120656Y0197406D01*
X0120656Y0198434D02*
X0120656Y0199545D01*
X0120656Y0198989D02*
X0118656Y0198989D01*
X0119100Y0198434D01*
X0118656Y0196295D02*
X0120656Y0196295D01*
X0120656Y0200594D02*
X0119545Y0201538D01*
X0118656Y0201205D02*
X0118658Y0201158D01*
X0118663Y0201110D01*
X0118672Y0201064D01*
X0118684Y0201018D01*
X0118699Y0200973D01*
X0118718Y0200929D01*
X0118740Y0200887D01*
X0118765Y0200847D01*
X0118793Y0200808D01*
X0118824Y0200772D01*
X0118857Y0200738D01*
X0118893Y0200707D01*
X0118931Y0200678D01*
X0118971Y0200653D01*
X0119012Y0200630D01*
X0119056Y0200611D01*
X0119100Y0200594D01*
X0119545Y0201538D02*
X0119514Y0201569D01*
X0119480Y0201596D01*
X0119444Y0201621D01*
X0119407Y0201643D01*
X0119368Y0201662D01*
X0119327Y0201677D01*
X0119285Y0201689D01*
X0119243Y0201698D01*
X0119199Y0201703D01*
X0119156Y0201705D01*
X0119112Y0201703D01*
X0119069Y0201697D01*
X0119027Y0201688D01*
X0118985Y0201675D01*
X0118945Y0201658D01*
X0118906Y0201638D01*
X0118869Y0201615D01*
X0118835Y0201588D01*
X0118802Y0201559D01*
X0118773Y0201526D01*
X0118746Y0201492D01*
X0118723Y0201455D01*
X0118703Y0201416D01*
X0118686Y0201376D01*
X0118673Y0201334D01*
X0118664Y0201292D01*
X0118658Y0201249D01*
X0118656Y0201205D01*
X0120656Y0201705D02*
X0120656Y0200594D01*
X0109256Y0207295D02*
X0107256Y0207295D01*
X0107256Y0207851D01*
X0107258Y0207897D01*
X0107264Y0207943D01*
X0107273Y0207987D01*
X0107286Y0208032D01*
X0107303Y0208074D01*
X0107323Y0208116D01*
X0107347Y0208155D01*
X0107373Y0208193D01*
X0107403Y0208228D01*
X0107435Y0208260D01*
X0107470Y0208290D01*
X0107508Y0208316D01*
X0107547Y0208340D01*
X0107589Y0208360D01*
X0107631Y0208377D01*
X0107676Y0208390D01*
X0107720Y0208399D01*
X0107766Y0208405D01*
X0107812Y0208407D01*
X0107858Y0208405D01*
X0107904Y0208399D01*
X0107948Y0208390D01*
X0107993Y0208377D01*
X0108035Y0208360D01*
X0108077Y0208340D01*
X0108116Y0208316D01*
X0108154Y0208290D01*
X0108189Y0208260D01*
X0108221Y0208228D01*
X0108251Y0208193D01*
X0108277Y0208155D01*
X0108301Y0208116D01*
X0108321Y0208074D01*
X0108338Y0208032D01*
X0108351Y0207987D01*
X0108360Y0207943D01*
X0108366Y0207897D01*
X0108368Y0207851D01*
X0108367Y0207851D02*
X0108367Y0207295D01*
X0108367Y0207962D02*
X0109256Y0208406D01*
X0109256Y0209434D02*
X0109256Y0210545D01*
X0109256Y0209989D02*
X0107256Y0209989D01*
X0107700Y0209434D01*
X0108256Y0212705D02*
X0108331Y0212703D01*
X0108405Y0212698D01*
X0108480Y0212690D01*
X0108553Y0212678D01*
X0108627Y0212663D01*
X0108699Y0212644D01*
X0108771Y0212623D01*
X0108841Y0212598D01*
X0108910Y0212570D01*
X0108978Y0212538D01*
X0109015Y0212523D01*
X0109050Y0212505D01*
X0109083Y0212484D01*
X0109114Y0212460D01*
X0109142Y0212433D01*
X0109168Y0212404D01*
X0109190Y0212372D01*
X0109210Y0212338D01*
X0109226Y0212302D01*
X0109239Y0212265D01*
X0109249Y0212227D01*
X0109254Y0212188D01*
X0109256Y0212149D01*
X0109254Y0212110D01*
X0109249Y0212071D01*
X0109239Y0212033D01*
X0109226Y0211996D01*
X0109210Y0211960D01*
X0109190Y0211926D01*
X0109168Y0211894D01*
X0109142Y0211865D01*
X0109114Y0211838D01*
X0109083Y0211814D01*
X0109050Y0211793D01*
X0109015Y0211775D01*
X0108978Y0211760D01*
X0108812Y0211705D02*
X0107700Y0212594D01*
X0107534Y0212538D02*
X0107497Y0212523D01*
X0107462Y0212505D01*
X0107429Y0212484D01*
X0107398Y0212460D01*
X0107370Y0212433D01*
X0107344Y0212404D01*
X0107322Y0212372D01*
X0107302Y0212338D01*
X0107286Y0212302D01*
X0107273Y0212265D01*
X0107263Y0212227D01*
X0107258Y0212188D01*
X0107256Y0212149D01*
X0107258Y0212110D01*
X0107263Y0212071D01*
X0107273Y0212033D01*
X0107286Y0211996D01*
X0107302Y0211960D01*
X0107322Y0211926D01*
X0107344Y0211894D01*
X0107370Y0211865D01*
X0107398Y0211838D01*
X0107429Y0211814D01*
X0107462Y0211793D01*
X0107497Y0211775D01*
X0107534Y0211760D01*
X0107534Y0212538D02*
X0107602Y0212570D01*
X0107671Y0212598D01*
X0107741Y0212623D01*
X0107813Y0212644D01*
X0107885Y0212663D01*
X0107959Y0212678D01*
X0108032Y0212690D01*
X0108107Y0212698D01*
X0108181Y0212703D01*
X0108256Y0212705D01*
X0108256Y0211594D02*
X0108181Y0211596D01*
X0108107Y0211601D01*
X0108032Y0211609D01*
X0107959Y0211621D01*
X0107885Y0211636D01*
X0107813Y0211655D01*
X0107741Y0211676D01*
X0107671Y0211701D01*
X0107602Y0211729D01*
X0107534Y0211761D01*
X0108256Y0211594D02*
X0108331Y0211596D01*
X0108405Y0211601D01*
X0108480Y0211609D01*
X0108553Y0211621D01*
X0108627Y0211636D01*
X0108699Y0211655D01*
X0108770Y0211676D01*
X0108841Y0211701D01*
X0108910Y0211729D01*
X0108978Y0211761D01*
X0105656Y0211594D02*
X0105656Y0212149D01*
X0105654Y0212195D01*
X0105648Y0212241D01*
X0105639Y0212285D01*
X0105626Y0212330D01*
X0105609Y0212372D01*
X0105589Y0212414D01*
X0105565Y0212453D01*
X0105539Y0212491D01*
X0105509Y0212526D01*
X0105477Y0212558D01*
X0105442Y0212588D01*
X0105404Y0212614D01*
X0105365Y0212638D01*
X0105323Y0212658D01*
X0105281Y0212675D01*
X0105236Y0212688D01*
X0105192Y0212697D01*
X0105146Y0212703D01*
X0105100Y0212705D01*
X0105054Y0212703D01*
X0105008Y0212697D01*
X0104964Y0212688D01*
X0104919Y0212675D01*
X0104877Y0212658D01*
X0104835Y0212638D01*
X0104796Y0212614D01*
X0104758Y0212588D01*
X0104723Y0212558D01*
X0104691Y0212526D01*
X0104661Y0212491D01*
X0104635Y0212453D01*
X0104611Y0212414D01*
X0104591Y0212372D01*
X0104574Y0212330D01*
X0104561Y0212285D01*
X0104552Y0212241D01*
X0104546Y0212195D01*
X0104544Y0212149D01*
X0104545Y0212260D02*
X0104545Y0211816D01*
X0104544Y0212260D02*
X0104542Y0212301D01*
X0104536Y0212342D01*
X0104527Y0212382D01*
X0104514Y0212420D01*
X0104497Y0212458D01*
X0104477Y0212494D01*
X0104454Y0212528D01*
X0104428Y0212559D01*
X0104399Y0212588D01*
X0104368Y0212614D01*
X0104334Y0212637D01*
X0104298Y0212657D01*
X0104260Y0212674D01*
X0104222Y0212687D01*
X0104182Y0212696D01*
X0104141Y0212702D01*
X0104100Y0212704D01*
X0104059Y0212702D01*
X0104018Y0212696D01*
X0103978Y0212687D01*
X0103940Y0212674D01*
X0103902Y0212657D01*
X0103866Y0212637D01*
X0103832Y0212614D01*
X0103801Y0212588D01*
X0103772Y0212559D01*
X0103746Y0212528D01*
X0103723Y0212494D01*
X0103703Y0212458D01*
X0103686Y0212420D01*
X0103673Y0212382D01*
X0103664Y0212342D01*
X0103658Y0212301D01*
X0103656Y0212260D01*
X0103656Y0211594D01*
X0103656Y0209989D02*
X0105656Y0209989D01*
X0105656Y0209434D02*
X0105656Y0210545D01*
X0104100Y0209434D02*
X0103656Y0209989D01*
X0103656Y0207851D02*
X0103656Y0207295D01*
X0105656Y0207295D01*
X0104767Y0207295D02*
X0104767Y0207851D01*
X0104767Y0207962D02*
X0105656Y0208406D01*
X0104768Y0207851D02*
X0104766Y0207897D01*
X0104760Y0207943D01*
X0104751Y0207987D01*
X0104738Y0208032D01*
X0104721Y0208074D01*
X0104701Y0208116D01*
X0104677Y0208155D01*
X0104651Y0208193D01*
X0104621Y0208228D01*
X0104589Y0208260D01*
X0104554Y0208290D01*
X0104516Y0208316D01*
X0104477Y0208340D01*
X0104435Y0208360D01*
X0104393Y0208377D01*
X0104348Y0208390D01*
X0104304Y0208399D01*
X0104258Y0208405D01*
X0104212Y0208407D01*
X0104166Y0208405D01*
X0104120Y0208399D01*
X0104076Y0208390D01*
X0104031Y0208377D01*
X0103989Y0208360D01*
X0103947Y0208340D01*
X0103908Y0208316D01*
X0103870Y0208290D01*
X0103835Y0208260D01*
X0103803Y0208228D01*
X0103773Y0208193D01*
X0103747Y0208155D01*
X0103723Y0208116D01*
X0103703Y0208074D01*
X0103686Y0208032D01*
X0103673Y0207987D01*
X0103664Y0207943D01*
X0103658Y0207897D01*
X0103656Y0207851D01*
X0110256Y0236295D02*
X0110256Y0236851D01*
X0110258Y0236897D01*
X0110264Y0236943D01*
X0110273Y0236987D01*
X0110286Y0237032D01*
X0110303Y0237074D01*
X0110323Y0237116D01*
X0110347Y0237155D01*
X0110373Y0237193D01*
X0110403Y0237228D01*
X0110435Y0237260D01*
X0110470Y0237290D01*
X0110508Y0237316D01*
X0110547Y0237340D01*
X0110589Y0237360D01*
X0110631Y0237377D01*
X0110676Y0237390D01*
X0110720Y0237399D01*
X0110766Y0237405D01*
X0110812Y0237407D01*
X0110858Y0237405D01*
X0110904Y0237399D01*
X0110948Y0237390D01*
X0110993Y0237377D01*
X0111035Y0237360D01*
X0111077Y0237340D01*
X0111116Y0237316D01*
X0111154Y0237290D01*
X0111189Y0237260D01*
X0111221Y0237228D01*
X0111251Y0237193D01*
X0111277Y0237155D01*
X0111301Y0237116D01*
X0111321Y0237074D01*
X0111338Y0237032D01*
X0111351Y0236987D01*
X0111360Y0236943D01*
X0111366Y0236897D01*
X0111368Y0236851D01*
X0111367Y0236851D02*
X0111367Y0236295D01*
X0111367Y0236962D02*
X0112256Y0237406D01*
X0112256Y0238434D02*
X0112256Y0239545D01*
X0112256Y0238989D02*
X0110256Y0238989D01*
X0110700Y0238434D01*
X0110256Y0236295D02*
X0112256Y0236295D01*
X0111812Y0240594D02*
X0110256Y0241038D01*
X0111367Y0241371D02*
X0112256Y0241371D01*
X0111812Y0241705D02*
X0111812Y0240594D01*
X0066525Y0140800D02*
X0065970Y0140356D01*
X0066525Y0140800D02*
X0066525Y0138800D01*
X0065970Y0138800D02*
X0067081Y0138800D01*
X0064942Y0138800D02*
X0064498Y0139689D01*
X0064387Y0139689D02*
X0063831Y0139689D01*
X0064387Y0139688D02*
X0064433Y0139690D01*
X0064479Y0139696D01*
X0064523Y0139705D01*
X0064568Y0139718D01*
X0064610Y0139735D01*
X0064652Y0139755D01*
X0064691Y0139779D01*
X0064729Y0139805D01*
X0064764Y0139835D01*
X0064796Y0139867D01*
X0064826Y0139902D01*
X0064852Y0139940D01*
X0064876Y0139979D01*
X0064896Y0140021D01*
X0064913Y0140063D01*
X0064926Y0140108D01*
X0064935Y0140152D01*
X0064941Y0140198D01*
X0064943Y0140244D01*
X0064941Y0140290D01*
X0064935Y0140336D01*
X0064926Y0140380D01*
X0064913Y0140425D01*
X0064896Y0140467D01*
X0064876Y0140509D01*
X0064852Y0140548D01*
X0064826Y0140586D01*
X0064796Y0140621D01*
X0064764Y0140653D01*
X0064729Y0140683D01*
X0064691Y0140709D01*
X0064652Y0140733D01*
X0064610Y0140753D01*
X0064568Y0140770D01*
X0064523Y0140783D01*
X0064479Y0140792D01*
X0064433Y0140798D01*
X0064387Y0140800D01*
X0063831Y0140800D01*
X0063831Y0138800D01*
X0075256Y0099594D02*
X0075331Y0099596D01*
X0075405Y0099601D01*
X0075480Y0099609D01*
X0075553Y0099621D01*
X0075627Y0099636D01*
X0075699Y0099655D01*
X0075770Y0099676D01*
X0075841Y0099701D01*
X0075910Y0099729D01*
X0075978Y0099761D01*
X0075812Y0099705D02*
X0074700Y0100594D01*
X0074534Y0100538D02*
X0074497Y0100523D01*
X0074462Y0100505D01*
X0074429Y0100484D01*
X0074398Y0100460D01*
X0074370Y0100433D01*
X0074344Y0100404D01*
X0074322Y0100372D01*
X0074302Y0100338D01*
X0074286Y0100302D01*
X0074273Y0100265D01*
X0074263Y0100227D01*
X0074258Y0100188D01*
X0074256Y0100149D01*
X0074258Y0100110D01*
X0074263Y0100071D01*
X0074273Y0100033D01*
X0074286Y0099996D01*
X0074302Y0099960D01*
X0074322Y0099926D01*
X0074344Y0099894D01*
X0074370Y0099865D01*
X0074398Y0099838D01*
X0074429Y0099814D01*
X0074462Y0099793D01*
X0074497Y0099775D01*
X0074534Y0099760D01*
X0074534Y0100538D02*
X0074602Y0100570D01*
X0074671Y0100598D01*
X0074741Y0100623D01*
X0074813Y0100644D01*
X0074885Y0100663D01*
X0074959Y0100678D01*
X0075032Y0100690D01*
X0075107Y0100698D01*
X0075181Y0100703D01*
X0075256Y0100705D01*
X0075256Y0099594D02*
X0075181Y0099596D01*
X0075107Y0099601D01*
X0075032Y0099609D01*
X0074959Y0099621D01*
X0074885Y0099636D01*
X0074813Y0099655D01*
X0074741Y0099676D01*
X0074671Y0099701D01*
X0074602Y0099729D01*
X0074534Y0099761D01*
X0075256Y0100705D02*
X0075331Y0100703D01*
X0075405Y0100698D01*
X0075480Y0100690D01*
X0075553Y0100678D01*
X0075627Y0100663D01*
X0075699Y0100644D01*
X0075771Y0100623D01*
X0075841Y0100598D01*
X0075910Y0100570D01*
X0075978Y0100538D01*
X0076015Y0100523D01*
X0076050Y0100505D01*
X0076083Y0100484D01*
X0076114Y0100460D01*
X0076142Y0100433D01*
X0076168Y0100404D01*
X0076190Y0100372D01*
X0076210Y0100338D01*
X0076226Y0100302D01*
X0076239Y0100265D01*
X0076249Y0100227D01*
X0076254Y0100188D01*
X0076256Y0100149D01*
X0076254Y0100110D01*
X0076249Y0100071D01*
X0076239Y0100033D01*
X0076226Y0099996D01*
X0076210Y0099960D01*
X0076190Y0099926D01*
X0076168Y0099894D01*
X0076142Y0099865D01*
X0076114Y0099838D01*
X0076083Y0099814D01*
X0076050Y0099793D01*
X0076015Y0099775D01*
X0075978Y0099760D01*
X0076256Y0098545D02*
X0076256Y0097434D01*
X0075145Y0098378D01*
X0074256Y0098045D02*
X0074258Y0097998D01*
X0074263Y0097950D01*
X0074272Y0097904D01*
X0074284Y0097858D01*
X0074299Y0097813D01*
X0074318Y0097769D01*
X0074340Y0097727D01*
X0074365Y0097687D01*
X0074393Y0097648D01*
X0074424Y0097612D01*
X0074457Y0097578D01*
X0074493Y0097547D01*
X0074531Y0097518D01*
X0074571Y0097493D01*
X0074612Y0097470D01*
X0074656Y0097451D01*
X0074700Y0097434D01*
X0075145Y0098378D02*
X0075114Y0098409D01*
X0075080Y0098436D01*
X0075044Y0098461D01*
X0075007Y0098483D01*
X0074968Y0098502D01*
X0074927Y0098517D01*
X0074885Y0098529D01*
X0074843Y0098538D01*
X0074799Y0098543D01*
X0074756Y0098545D01*
X0074712Y0098543D01*
X0074669Y0098537D01*
X0074627Y0098528D01*
X0074585Y0098515D01*
X0074545Y0098498D01*
X0074506Y0098478D01*
X0074469Y0098455D01*
X0074435Y0098428D01*
X0074402Y0098399D01*
X0074373Y0098366D01*
X0074346Y0098332D01*
X0074323Y0098295D01*
X0074303Y0098256D01*
X0074286Y0098216D01*
X0074273Y0098174D01*
X0074264Y0098132D01*
X0074258Y0098089D01*
X0074256Y0098045D01*
X0074256Y0095851D02*
X0074256Y0095295D01*
X0076256Y0095295D01*
X0075367Y0095295D02*
X0075367Y0095851D01*
X0075367Y0095962D02*
X0076256Y0096406D01*
X0075368Y0095851D02*
X0075366Y0095897D01*
X0075360Y0095943D01*
X0075351Y0095987D01*
X0075338Y0096032D01*
X0075321Y0096074D01*
X0075301Y0096116D01*
X0075277Y0096155D01*
X0075251Y0096193D01*
X0075221Y0096228D01*
X0075189Y0096260D01*
X0075154Y0096290D01*
X0075116Y0096316D01*
X0075077Y0096340D01*
X0075035Y0096360D01*
X0074993Y0096377D01*
X0074948Y0096390D01*
X0074904Y0096399D01*
X0074858Y0096405D01*
X0074812Y0096407D01*
X0074766Y0096405D01*
X0074720Y0096399D01*
X0074676Y0096390D01*
X0074631Y0096377D01*
X0074589Y0096360D01*
X0074547Y0096340D01*
X0074508Y0096316D01*
X0074470Y0096290D01*
X0074435Y0096260D01*
X0074403Y0096228D01*
X0074373Y0096193D01*
X0074347Y0096155D01*
X0074323Y0096116D01*
X0074303Y0096074D01*
X0074286Y0096032D01*
X0074273Y0095987D01*
X0074264Y0095943D01*
X0074258Y0095897D01*
X0074256Y0095851D01*
X0086604Y0127500D02*
X0087048Y0127500D01*
X0086604Y0127500D02*
X0086563Y0127502D01*
X0086522Y0127508D01*
X0086482Y0127517D01*
X0086444Y0127530D01*
X0086406Y0127547D01*
X0086370Y0127567D01*
X0086336Y0127590D01*
X0086305Y0127616D01*
X0086276Y0127645D01*
X0086250Y0127676D01*
X0086227Y0127710D01*
X0086207Y0127746D01*
X0086190Y0127784D01*
X0086177Y0127822D01*
X0086168Y0127862D01*
X0086162Y0127903D01*
X0086160Y0127944D01*
X0086159Y0127944D02*
X0086159Y0129056D01*
X0086160Y0129056D02*
X0086162Y0129097D01*
X0086168Y0129138D01*
X0086177Y0129178D01*
X0086190Y0129216D01*
X0086207Y0129254D01*
X0086227Y0129290D01*
X0086250Y0129324D01*
X0086276Y0129355D01*
X0086305Y0129384D01*
X0086336Y0129410D01*
X0086370Y0129433D01*
X0086406Y0129453D01*
X0086444Y0129470D01*
X0086482Y0129483D01*
X0086522Y0129492D01*
X0086563Y0129498D01*
X0086604Y0129500D01*
X0087048Y0129500D01*
X0088090Y0129500D02*
X0088090Y0127500D01*
X0088090Y0128389D02*
X0088646Y0128389D01*
X0088646Y0128388D02*
X0088692Y0128390D01*
X0088738Y0128396D01*
X0088782Y0128405D01*
X0088827Y0128418D01*
X0088869Y0128435D01*
X0088911Y0128455D01*
X0088950Y0128479D01*
X0088988Y0128505D01*
X0089023Y0128535D01*
X0089055Y0128567D01*
X0089085Y0128602D01*
X0089111Y0128640D01*
X0089135Y0128679D01*
X0089155Y0128721D01*
X0089172Y0128763D01*
X0089185Y0128808D01*
X0089194Y0128852D01*
X0089200Y0128898D01*
X0089202Y0128944D01*
X0089200Y0128990D01*
X0089194Y0129036D01*
X0089185Y0129080D01*
X0089172Y0129125D01*
X0089155Y0129167D01*
X0089135Y0129209D01*
X0089111Y0129248D01*
X0089085Y0129286D01*
X0089055Y0129321D01*
X0089023Y0129353D01*
X0088988Y0129383D01*
X0088950Y0129409D01*
X0088911Y0129433D01*
X0088869Y0129453D01*
X0088827Y0129470D01*
X0088782Y0129483D01*
X0088738Y0129492D01*
X0088692Y0129498D01*
X0088646Y0129500D01*
X0088090Y0129500D01*
X0090335Y0128667D02*
X0090946Y0128333D01*
X0090724Y0127500D02*
X0090667Y0127502D01*
X0090610Y0127507D01*
X0090554Y0127516D01*
X0090498Y0127528D01*
X0090443Y0127543D01*
X0090389Y0127562D01*
X0090337Y0127584D01*
X0090285Y0127609D01*
X0090236Y0127637D01*
X0090188Y0127668D01*
X0090142Y0127702D01*
X0090099Y0127739D01*
X0090057Y0127778D01*
X0090946Y0128333D02*
X0090979Y0128311D01*
X0091009Y0128287D01*
X0091038Y0128261D01*
X0091064Y0128232D01*
X0091088Y0128201D01*
X0091109Y0128168D01*
X0091126Y0128133D01*
X0091141Y0128097D01*
X0091153Y0128060D01*
X0091161Y0128022D01*
X0091166Y0127983D01*
X0091168Y0127944D01*
X0091166Y0127903D01*
X0091160Y0127862D01*
X0091151Y0127822D01*
X0091138Y0127784D01*
X0091121Y0127746D01*
X0091101Y0127710D01*
X0091078Y0127676D01*
X0091052Y0127645D01*
X0091023Y0127616D01*
X0090992Y0127590D01*
X0090958Y0127567D01*
X0090922Y0127547D01*
X0090884Y0127530D01*
X0090846Y0127517D01*
X0090806Y0127508D01*
X0090765Y0127502D01*
X0090724Y0127500D01*
X0091057Y0129333D02*
X0091013Y0129364D01*
X0090967Y0129392D01*
X0090920Y0129417D01*
X0090871Y0129439D01*
X0090820Y0129457D01*
X0090769Y0129473D01*
X0090717Y0129485D01*
X0090664Y0129493D01*
X0090611Y0129498D01*
X0090557Y0129500D01*
X0090516Y0129498D01*
X0090475Y0129492D01*
X0090436Y0129483D01*
X0090397Y0129470D01*
X0090359Y0129453D01*
X0090323Y0129434D01*
X0090289Y0129410D01*
X0090258Y0129384D01*
X0090229Y0129355D01*
X0090203Y0129324D01*
X0090180Y0129290D01*
X0090160Y0129254D01*
X0090143Y0129216D01*
X0090130Y0129178D01*
X0090121Y0129138D01*
X0090115Y0129097D01*
X0090113Y0129056D01*
X0090115Y0129017D01*
X0090120Y0128978D01*
X0090128Y0128940D01*
X0090140Y0128903D01*
X0090155Y0128867D01*
X0090172Y0128832D01*
X0090193Y0128799D01*
X0090217Y0128768D01*
X0090243Y0128739D01*
X0090272Y0128713D01*
X0090302Y0128689D01*
X0090335Y0128667D01*
X0092145Y0128611D02*
X0092145Y0128056D01*
X0092145Y0128611D02*
X0092812Y0128611D01*
X0092145Y0128611D02*
X0092147Y0128669D01*
X0092153Y0128727D01*
X0092162Y0128784D01*
X0092175Y0128841D01*
X0092192Y0128897D01*
X0092213Y0128951D01*
X0092237Y0129004D01*
X0092264Y0129055D01*
X0092295Y0129105D01*
X0092329Y0129152D01*
X0092366Y0129197D01*
X0092405Y0129240D01*
X0092448Y0129279D01*
X0092493Y0129316D01*
X0092540Y0129350D01*
X0092589Y0129381D01*
X0092641Y0129408D01*
X0092694Y0129432D01*
X0092748Y0129453D01*
X0092804Y0129470D01*
X0092861Y0129483D01*
X0092918Y0129492D01*
X0092976Y0129498D01*
X0093034Y0129500D01*
X0093256Y0128167D02*
X0093256Y0128056D01*
X0093256Y0128167D02*
X0093254Y0128208D01*
X0093248Y0128249D01*
X0093239Y0128289D01*
X0093226Y0128327D01*
X0093209Y0128365D01*
X0093189Y0128401D01*
X0093166Y0128435D01*
X0093140Y0128466D01*
X0093111Y0128495D01*
X0093080Y0128521D01*
X0093046Y0128544D01*
X0093010Y0128564D01*
X0092972Y0128581D01*
X0092934Y0128594D01*
X0092894Y0128603D01*
X0092853Y0128609D01*
X0092812Y0128611D01*
X0093256Y0128056D02*
X0093254Y0128010D01*
X0093248Y0127964D01*
X0093239Y0127920D01*
X0093226Y0127875D01*
X0093209Y0127833D01*
X0093189Y0127791D01*
X0093165Y0127752D01*
X0093139Y0127714D01*
X0093109Y0127679D01*
X0093077Y0127647D01*
X0093042Y0127617D01*
X0093004Y0127591D01*
X0092965Y0127567D01*
X0092923Y0127547D01*
X0092881Y0127530D01*
X0092836Y0127517D01*
X0092792Y0127508D01*
X0092746Y0127502D01*
X0092700Y0127500D01*
X0092654Y0127502D01*
X0092608Y0127508D01*
X0092564Y0127517D01*
X0092519Y0127530D01*
X0092477Y0127547D01*
X0092435Y0127567D01*
X0092396Y0127591D01*
X0092358Y0127617D01*
X0092323Y0127647D01*
X0092291Y0127679D01*
X0092261Y0127714D01*
X0092235Y0127752D01*
X0092211Y0127791D01*
X0092191Y0127833D01*
X0092174Y0127875D01*
X0092161Y0127920D01*
X0092152Y0127964D01*
X0092146Y0128010D01*
X0092144Y0128056D01*
X0094256Y0100705D02*
X0094256Y0099594D01*
X0094256Y0100149D02*
X0092256Y0100149D01*
X0092700Y0099594D01*
X0093145Y0098378D02*
X0094256Y0097434D01*
X0094256Y0098545D01*
X0092700Y0097434D02*
X0092656Y0097451D01*
X0092612Y0097470D01*
X0092571Y0097493D01*
X0092531Y0097518D01*
X0092493Y0097547D01*
X0092457Y0097578D01*
X0092424Y0097612D01*
X0092393Y0097648D01*
X0092365Y0097687D01*
X0092340Y0097727D01*
X0092318Y0097769D01*
X0092299Y0097813D01*
X0092284Y0097858D01*
X0092272Y0097904D01*
X0092263Y0097950D01*
X0092258Y0097998D01*
X0092256Y0098045D01*
X0092258Y0098089D01*
X0092264Y0098132D01*
X0092273Y0098174D01*
X0092286Y0098216D01*
X0092303Y0098256D01*
X0092323Y0098295D01*
X0092346Y0098332D01*
X0092373Y0098366D01*
X0092402Y0098399D01*
X0092435Y0098428D01*
X0092469Y0098455D01*
X0092506Y0098478D01*
X0092545Y0098498D01*
X0092585Y0098515D01*
X0092627Y0098528D01*
X0092669Y0098537D01*
X0092712Y0098543D01*
X0092756Y0098545D01*
X0092799Y0098543D01*
X0092843Y0098538D01*
X0092885Y0098529D01*
X0092927Y0098517D01*
X0092968Y0098502D01*
X0093007Y0098483D01*
X0093044Y0098461D01*
X0093080Y0098436D01*
X0093114Y0098409D01*
X0093145Y0098378D01*
X0094256Y0096406D02*
X0093367Y0095962D01*
X0093367Y0095851D02*
X0093367Y0095295D01*
X0093368Y0095851D02*
X0093366Y0095897D01*
X0093360Y0095943D01*
X0093351Y0095987D01*
X0093338Y0096032D01*
X0093321Y0096074D01*
X0093301Y0096116D01*
X0093277Y0096155D01*
X0093251Y0096193D01*
X0093221Y0096228D01*
X0093189Y0096260D01*
X0093154Y0096290D01*
X0093116Y0096316D01*
X0093077Y0096340D01*
X0093035Y0096360D01*
X0092993Y0096377D01*
X0092948Y0096390D01*
X0092904Y0096399D01*
X0092858Y0096405D01*
X0092812Y0096407D01*
X0092766Y0096405D01*
X0092720Y0096399D01*
X0092676Y0096390D01*
X0092631Y0096377D01*
X0092589Y0096360D01*
X0092547Y0096340D01*
X0092508Y0096316D01*
X0092470Y0096290D01*
X0092435Y0096260D01*
X0092403Y0096228D01*
X0092373Y0096193D01*
X0092347Y0096155D01*
X0092323Y0096116D01*
X0092303Y0096074D01*
X0092286Y0096032D01*
X0092273Y0095987D01*
X0092264Y0095943D01*
X0092258Y0095897D01*
X0092256Y0095851D01*
X0092256Y0095295D01*
X0094256Y0095295D01*
X0109751Y0095200D02*
X0110307Y0095200D01*
X0110353Y0095198D01*
X0110399Y0095192D01*
X0110443Y0095183D01*
X0110488Y0095170D01*
X0110530Y0095153D01*
X0110572Y0095133D01*
X0110611Y0095109D01*
X0110649Y0095083D01*
X0110684Y0095053D01*
X0110716Y0095021D01*
X0110746Y0094986D01*
X0110772Y0094948D01*
X0110796Y0094909D01*
X0110816Y0094867D01*
X0110833Y0094825D01*
X0110846Y0094780D01*
X0110855Y0094736D01*
X0110861Y0094690D01*
X0110863Y0094644D01*
X0110861Y0094598D01*
X0110855Y0094552D01*
X0110846Y0094508D01*
X0110833Y0094463D01*
X0110816Y0094421D01*
X0110796Y0094379D01*
X0110772Y0094340D01*
X0110746Y0094302D01*
X0110716Y0094267D01*
X0110684Y0094235D01*
X0110649Y0094205D01*
X0110611Y0094179D01*
X0110572Y0094155D01*
X0110530Y0094135D01*
X0110488Y0094118D01*
X0110443Y0094105D01*
X0110399Y0094096D01*
X0110353Y0094090D01*
X0110307Y0094088D01*
X0110307Y0094089D02*
X0109751Y0094089D01*
X0110418Y0094089D02*
X0110862Y0093200D01*
X0111890Y0093200D02*
X0113001Y0093200D01*
X0112445Y0093200D02*
X0112445Y0095200D01*
X0111890Y0094756D01*
X0114050Y0094978D02*
X0114050Y0095200D01*
X0115161Y0095200D01*
X0114605Y0093200D01*
X0109751Y0093200D02*
X0109751Y0095200D01*
X0049956Y0084640D02*
X0049956Y0083529D01*
X0048845Y0084473D01*
X0047956Y0084140D02*
X0047958Y0084093D01*
X0047963Y0084045D01*
X0047972Y0083999D01*
X0047984Y0083953D01*
X0047999Y0083908D01*
X0048018Y0083864D01*
X0048040Y0083822D01*
X0048065Y0083782D01*
X0048093Y0083743D01*
X0048124Y0083707D01*
X0048157Y0083673D01*
X0048193Y0083642D01*
X0048231Y0083613D01*
X0048271Y0083588D01*
X0048312Y0083565D01*
X0048356Y0083546D01*
X0048400Y0083529D01*
X0048845Y0084473D02*
X0048814Y0084504D01*
X0048780Y0084531D01*
X0048744Y0084556D01*
X0048707Y0084578D01*
X0048668Y0084597D01*
X0048627Y0084612D01*
X0048585Y0084624D01*
X0048543Y0084633D01*
X0048499Y0084638D01*
X0048456Y0084640D01*
X0048412Y0084638D01*
X0048369Y0084632D01*
X0048327Y0084623D01*
X0048285Y0084610D01*
X0048245Y0084593D01*
X0048206Y0084573D01*
X0048169Y0084550D01*
X0048135Y0084523D01*
X0048102Y0084494D01*
X0048073Y0084461D01*
X0048046Y0084427D01*
X0048023Y0084390D01*
X0048003Y0084351D01*
X0047986Y0084311D01*
X0047973Y0084269D01*
X0047964Y0084227D01*
X0047958Y0084184D01*
X0047956Y0084140D01*
X0048956Y0086800D02*
X0049031Y0086798D01*
X0049105Y0086793D01*
X0049180Y0086785D01*
X0049253Y0086773D01*
X0049327Y0086758D01*
X0049399Y0086739D01*
X0049471Y0086718D01*
X0049541Y0086693D01*
X0049610Y0086665D01*
X0049678Y0086633D01*
X0049715Y0086618D01*
X0049750Y0086600D01*
X0049783Y0086579D01*
X0049814Y0086555D01*
X0049842Y0086528D01*
X0049868Y0086499D01*
X0049890Y0086467D01*
X0049910Y0086433D01*
X0049926Y0086397D01*
X0049939Y0086360D01*
X0049949Y0086322D01*
X0049954Y0086283D01*
X0049956Y0086244D01*
X0049954Y0086205D01*
X0049949Y0086166D01*
X0049939Y0086128D01*
X0049926Y0086091D01*
X0049910Y0086055D01*
X0049890Y0086021D01*
X0049868Y0085989D01*
X0049842Y0085960D01*
X0049814Y0085933D01*
X0049783Y0085909D01*
X0049750Y0085888D01*
X0049715Y0085870D01*
X0049678Y0085855D01*
X0049512Y0085800D02*
X0048400Y0086689D01*
X0048234Y0086633D02*
X0048197Y0086618D01*
X0048162Y0086600D01*
X0048129Y0086579D01*
X0048098Y0086555D01*
X0048070Y0086528D01*
X0048044Y0086499D01*
X0048022Y0086467D01*
X0048002Y0086433D01*
X0047986Y0086397D01*
X0047973Y0086360D01*
X0047963Y0086322D01*
X0047958Y0086283D01*
X0047956Y0086244D01*
X0047958Y0086205D01*
X0047963Y0086166D01*
X0047973Y0086128D01*
X0047986Y0086091D01*
X0048002Y0086055D01*
X0048022Y0086021D01*
X0048044Y0085989D01*
X0048070Y0085960D01*
X0048098Y0085933D01*
X0048129Y0085909D01*
X0048162Y0085888D01*
X0048197Y0085870D01*
X0048234Y0085855D01*
X0048234Y0086633D02*
X0048302Y0086665D01*
X0048371Y0086693D01*
X0048441Y0086718D01*
X0048513Y0086739D01*
X0048585Y0086758D01*
X0048659Y0086773D01*
X0048732Y0086785D01*
X0048807Y0086793D01*
X0048881Y0086798D01*
X0048956Y0086800D01*
X0048956Y0085689D02*
X0048881Y0085691D01*
X0048807Y0085696D01*
X0048732Y0085704D01*
X0048659Y0085716D01*
X0048585Y0085731D01*
X0048513Y0085750D01*
X0048441Y0085771D01*
X0048371Y0085796D01*
X0048302Y0085824D01*
X0048234Y0085856D01*
X0048956Y0085689D02*
X0049031Y0085691D01*
X0049105Y0085696D01*
X0049180Y0085704D01*
X0049253Y0085716D01*
X0049327Y0085731D01*
X0049399Y0085750D01*
X0049470Y0085771D01*
X0049541Y0085796D01*
X0049610Y0085824D01*
X0049678Y0085856D01*
X0049956Y0082608D02*
X0049956Y0082164D01*
X0049954Y0082123D01*
X0049948Y0082082D01*
X0049939Y0082042D01*
X0049926Y0082004D01*
X0049909Y0081966D01*
X0049889Y0081930D01*
X0049866Y0081896D01*
X0049840Y0081865D01*
X0049811Y0081836D01*
X0049780Y0081810D01*
X0049746Y0081787D01*
X0049710Y0081767D01*
X0049672Y0081750D01*
X0049634Y0081737D01*
X0049594Y0081728D01*
X0049553Y0081722D01*
X0049512Y0081720D01*
X0049512Y0081719D02*
X0048400Y0081719D01*
X0048400Y0081720D02*
X0048359Y0081722D01*
X0048318Y0081728D01*
X0048278Y0081737D01*
X0048240Y0081750D01*
X0048202Y0081767D01*
X0048166Y0081786D01*
X0048132Y0081810D01*
X0048101Y0081836D01*
X0048072Y0081865D01*
X0048046Y0081896D01*
X0048023Y0081930D01*
X0048003Y0081966D01*
X0047986Y0082004D01*
X0047973Y0082042D01*
X0047964Y0082082D01*
X0047958Y0082123D01*
X0047956Y0082164D01*
X0047956Y0082608D01*
X0043100Y0145300D02*
X0042545Y0145300D01*
X0043100Y0145300D02*
X0043146Y0145302D01*
X0043192Y0145308D01*
X0043236Y0145317D01*
X0043281Y0145330D01*
X0043323Y0145347D01*
X0043365Y0145367D01*
X0043404Y0145391D01*
X0043442Y0145417D01*
X0043477Y0145447D01*
X0043509Y0145479D01*
X0043539Y0145514D01*
X0043565Y0145552D01*
X0043589Y0145591D01*
X0043609Y0145633D01*
X0043626Y0145675D01*
X0043639Y0145720D01*
X0043648Y0145764D01*
X0043654Y0145810D01*
X0043656Y0145856D01*
X0043654Y0145902D01*
X0043648Y0145948D01*
X0043639Y0145992D01*
X0043626Y0146037D01*
X0043609Y0146079D01*
X0043589Y0146121D01*
X0043565Y0146160D01*
X0043539Y0146198D01*
X0043509Y0146233D01*
X0043477Y0146265D01*
X0043442Y0146295D01*
X0043404Y0146321D01*
X0043365Y0146345D01*
X0043323Y0146365D01*
X0043281Y0146382D01*
X0043236Y0146395D01*
X0043192Y0146404D01*
X0043146Y0146410D01*
X0043100Y0146412D01*
X0043212Y0146411D02*
X0042767Y0146411D01*
X0043212Y0146412D02*
X0043253Y0146414D01*
X0043294Y0146420D01*
X0043334Y0146429D01*
X0043372Y0146442D01*
X0043410Y0146459D01*
X0043446Y0146479D01*
X0043480Y0146502D01*
X0043511Y0146528D01*
X0043540Y0146557D01*
X0043566Y0146588D01*
X0043589Y0146622D01*
X0043609Y0146658D01*
X0043626Y0146696D01*
X0043639Y0146734D01*
X0043648Y0146774D01*
X0043654Y0146815D01*
X0043656Y0146856D01*
X0043654Y0146897D01*
X0043648Y0146938D01*
X0043639Y0146978D01*
X0043626Y0147016D01*
X0043609Y0147054D01*
X0043589Y0147090D01*
X0043566Y0147124D01*
X0043540Y0147155D01*
X0043511Y0147184D01*
X0043480Y0147210D01*
X0043446Y0147233D01*
X0043410Y0147253D01*
X0043372Y0147270D01*
X0043334Y0147283D01*
X0043294Y0147292D01*
X0043253Y0147298D01*
X0043212Y0147300D01*
X0042545Y0147300D01*
X0041346Y0146133D02*
X0040735Y0146467D01*
X0040957Y0147300D02*
X0041011Y0147298D01*
X0041064Y0147293D01*
X0041117Y0147285D01*
X0041169Y0147273D01*
X0041220Y0147257D01*
X0041271Y0147239D01*
X0041320Y0147217D01*
X0041367Y0147192D01*
X0041413Y0147164D01*
X0041457Y0147133D01*
X0040735Y0146467D02*
X0040702Y0146489D01*
X0040672Y0146513D01*
X0040643Y0146539D01*
X0040617Y0146568D01*
X0040593Y0146599D01*
X0040572Y0146632D01*
X0040555Y0146667D01*
X0040540Y0146703D01*
X0040528Y0146740D01*
X0040520Y0146778D01*
X0040515Y0146817D01*
X0040513Y0146856D01*
X0040515Y0146897D01*
X0040521Y0146938D01*
X0040530Y0146978D01*
X0040543Y0147016D01*
X0040560Y0147054D01*
X0040580Y0147090D01*
X0040603Y0147124D01*
X0040629Y0147155D01*
X0040658Y0147184D01*
X0040689Y0147210D01*
X0040723Y0147234D01*
X0040759Y0147253D01*
X0040797Y0147270D01*
X0040836Y0147283D01*
X0040875Y0147292D01*
X0040916Y0147298D01*
X0040957Y0147300D01*
X0040457Y0145578D02*
X0040499Y0145539D01*
X0040542Y0145502D01*
X0040588Y0145468D01*
X0040636Y0145437D01*
X0040685Y0145409D01*
X0040737Y0145384D01*
X0040789Y0145362D01*
X0040843Y0145343D01*
X0040898Y0145328D01*
X0040954Y0145316D01*
X0041010Y0145307D01*
X0041067Y0145302D01*
X0041124Y0145300D01*
X0041165Y0145302D01*
X0041206Y0145308D01*
X0041246Y0145317D01*
X0041284Y0145330D01*
X0041322Y0145347D01*
X0041358Y0145367D01*
X0041392Y0145390D01*
X0041423Y0145416D01*
X0041452Y0145445D01*
X0041478Y0145476D01*
X0041501Y0145510D01*
X0041521Y0145546D01*
X0041538Y0145584D01*
X0041551Y0145622D01*
X0041560Y0145662D01*
X0041566Y0145703D01*
X0041568Y0145744D01*
X0041566Y0145783D01*
X0041561Y0145822D01*
X0041553Y0145860D01*
X0041541Y0145897D01*
X0041526Y0145933D01*
X0041509Y0145968D01*
X0041488Y0146001D01*
X0041464Y0146032D01*
X0041438Y0146061D01*
X0041409Y0146087D01*
X0041379Y0146111D01*
X0041346Y0146133D01*
X0039046Y0146189D02*
X0038490Y0146189D01*
X0039046Y0146188D02*
X0039092Y0146190D01*
X0039138Y0146196D01*
X0039182Y0146205D01*
X0039227Y0146218D01*
X0039269Y0146235D01*
X0039311Y0146255D01*
X0039350Y0146279D01*
X0039388Y0146305D01*
X0039423Y0146335D01*
X0039455Y0146367D01*
X0039485Y0146402D01*
X0039511Y0146440D01*
X0039535Y0146479D01*
X0039555Y0146521D01*
X0039572Y0146563D01*
X0039585Y0146608D01*
X0039594Y0146652D01*
X0039600Y0146698D01*
X0039602Y0146744D01*
X0039600Y0146790D01*
X0039594Y0146836D01*
X0039585Y0146880D01*
X0039572Y0146925D01*
X0039555Y0146967D01*
X0039535Y0147009D01*
X0039511Y0147048D01*
X0039485Y0147086D01*
X0039455Y0147121D01*
X0039423Y0147153D01*
X0039388Y0147183D01*
X0039350Y0147209D01*
X0039311Y0147233D01*
X0039269Y0147253D01*
X0039227Y0147270D01*
X0039182Y0147283D01*
X0039138Y0147292D01*
X0039092Y0147298D01*
X0039046Y0147300D01*
X0038490Y0147300D01*
X0038490Y0145300D01*
X0037248Y0145856D02*
X0037248Y0146744D01*
X0037246Y0146790D01*
X0037240Y0146836D01*
X0037231Y0146880D01*
X0037218Y0146925D01*
X0037201Y0146967D01*
X0037181Y0147009D01*
X0037157Y0147048D01*
X0037131Y0147086D01*
X0037101Y0147121D01*
X0037069Y0147153D01*
X0037034Y0147183D01*
X0036996Y0147209D01*
X0036957Y0147233D01*
X0036915Y0147253D01*
X0036873Y0147270D01*
X0036828Y0147283D01*
X0036784Y0147292D01*
X0036738Y0147298D01*
X0036692Y0147300D01*
X0036137Y0147300D01*
X0036137Y0145300D01*
X0036692Y0145300D01*
X0036738Y0145302D01*
X0036784Y0145308D01*
X0036828Y0145317D01*
X0036873Y0145330D01*
X0036915Y0145347D01*
X0036957Y0145367D01*
X0036996Y0145391D01*
X0037033Y0145417D01*
X0037069Y0145447D01*
X0037101Y0145479D01*
X0037131Y0145514D01*
X0037157Y0145552D01*
X0037181Y0145591D01*
X0037201Y0145633D01*
X0037218Y0145675D01*
X0037231Y0145720D01*
X0037240Y0145764D01*
X0037246Y0145810D01*
X0037248Y0145856D01*
D16*
X0091507Y0147687D02*
X0091507Y0142313D01*
X0105956Y0123100D02*
X0105956Y0119400D01*
X0105956Y0114600D02*
X0105956Y0110900D01*
X0111256Y0110900D01*
X0112956Y0115700D02*
X0112956Y0118300D01*
X0111256Y0123100D02*
X0105956Y0123100D01*
X0103405Y0103687D02*
X0103405Y0098313D01*
D17*
X0102956Y0082000D02*
X0097956Y0082000D01*
X0095456Y0079500D01*
X0092956Y0082000D01*
X0087956Y0082000D01*
X0085456Y0079500D01*
X0082956Y0082000D01*
X0077956Y0082000D01*
X0075456Y0079500D01*
X0072956Y0082000D01*
X0067956Y0082000D01*
X0065456Y0079500D01*
X0065456Y0064500D01*
X0067956Y0062000D01*
X0072956Y0062000D01*
X0075456Y0064500D01*
X0077956Y0062000D01*
X0082956Y0062000D01*
X0085456Y0064500D01*
X0087956Y0062000D01*
X0092956Y0062000D01*
X0095456Y0064500D01*
X0097956Y0062000D01*
X0102956Y0062000D01*
X0105456Y0064500D01*
X0105456Y0079500D01*
X0102956Y0082000D01*
X0072956Y0061000D02*
X0067956Y0061000D01*
X0067956Y0062000D02*
X0065456Y0064500D01*
X0065456Y0079500D01*
X0067956Y0082000D01*
X0045956Y0038000D02*
X0040956Y0038000D01*
X0038456Y0035500D01*
X0035956Y0038000D01*
X0030956Y0038000D01*
X0028456Y0035500D01*
X0028456Y0030500D01*
X0030956Y0028000D01*
X0035956Y0028000D01*
X0038456Y0030500D01*
X0040956Y0028000D01*
X0045956Y0028000D01*
X0048456Y0030500D01*
X0048456Y0035500D01*
X0045956Y0038000D01*
X0043724Y0129992D02*
X0027188Y0129992D01*
X0027188Y0130701D01*
X0033519Y0133063D02*
X0033519Y0140937D01*
X0027188Y0143299D02*
X0027188Y0144008D01*
X0043724Y0144008D01*
X0043724Y0143299D01*
X0043724Y0130701D02*
X0043724Y0129992D01*
M02*
