G75*
%MOIN*%
%OFA0B0*%
%FSLAX25Y25*%
%IPPOS*%
%LPD*%
%AMOC8*
5,1,8,0,0,1.08239X$1,22.5*
%
%ADD10C,0.02000*%
%ADD11C,0.00400*%
%ADD12C,0.00000*%
%ADD13C,0.00500*%
%ADD14C,0.00800*%
D10*
X0002456Y0003000D02*
X0139456Y0002000D01*
X0139456Y0264000D01*
X0002456Y0264000D01*
X0002456Y0003000D01*
D11*
X0041656Y0121700D02*
X0042795Y0121700D01*
X0042846Y0121702D01*
X0042897Y0121708D01*
X0042947Y0121717D01*
X0042996Y0121730D01*
X0043045Y0121747D01*
X0043091Y0121768D01*
X0043137Y0121792D01*
X0043180Y0121819D01*
X0043221Y0121849D01*
X0043260Y0121882D01*
X0043296Y0121918D01*
X0043329Y0121957D01*
X0043359Y0121998D01*
X0043386Y0122042D01*
X0043410Y0122087D01*
X0043431Y0122133D01*
X0043448Y0122182D01*
X0043461Y0122231D01*
X0043470Y0122281D01*
X0043476Y0122332D01*
X0043478Y0122383D01*
X0043478Y0123522D01*
X0043478Y0123067D02*
X0041656Y0123067D01*
X0041656Y0123522D01*
X0041658Y0123582D01*
X0041664Y0123641D01*
X0041674Y0123700D01*
X0041687Y0123758D01*
X0041704Y0123815D01*
X0041725Y0123871D01*
X0041750Y0123925D01*
X0041778Y0123978D01*
X0041810Y0124028D01*
X0041844Y0124077D01*
X0041882Y0124123D01*
X0041923Y0124166D01*
X0041966Y0124207D01*
X0042012Y0124245D01*
X0042061Y0124279D01*
X0042112Y0124311D01*
X0042164Y0124339D01*
X0042218Y0124364D01*
X0042274Y0124385D01*
X0042331Y0124402D01*
X0042389Y0124415D01*
X0042448Y0124425D01*
X0042507Y0124431D01*
X0042567Y0124433D01*
X0042627Y0124431D01*
X0042686Y0124425D01*
X0042745Y0124415D01*
X0042803Y0124402D01*
X0042860Y0124385D01*
X0042916Y0124364D01*
X0042970Y0124339D01*
X0043023Y0124311D01*
X0043073Y0124279D01*
X0043122Y0124245D01*
X0043168Y0124207D01*
X0043211Y0124166D01*
X0043252Y0124123D01*
X0043290Y0124077D01*
X0043324Y0124028D01*
X0043356Y0123978D01*
X0043384Y0123925D01*
X0043409Y0123871D01*
X0043430Y0123815D01*
X0043447Y0123758D01*
X0043460Y0123700D01*
X0043470Y0123641D01*
X0043476Y0123582D01*
X0043478Y0123522D01*
X0044906Y0121700D02*
X0044957Y0121702D01*
X0045008Y0121708D01*
X0045058Y0121717D01*
X0045107Y0121730D01*
X0045156Y0121747D01*
X0045202Y0121768D01*
X0045248Y0121792D01*
X0045291Y0121819D01*
X0045332Y0121849D01*
X0045371Y0121882D01*
X0045407Y0121918D01*
X0045440Y0121957D01*
X0045470Y0121998D01*
X0045497Y0122042D01*
X0045521Y0122087D01*
X0045542Y0122133D01*
X0045559Y0122182D01*
X0045572Y0122231D01*
X0045581Y0122281D01*
X0045587Y0122332D01*
X0045589Y0122383D01*
X0045590Y0122383D02*
X0045590Y0125800D01*
X0046947Y0124433D02*
X0046947Y0123978D01*
X0046947Y0124433D02*
X0048313Y0124433D01*
X0048313Y0121700D01*
X0050161Y0121700D02*
X0051300Y0121700D01*
X0051351Y0121702D01*
X0051402Y0121708D01*
X0051452Y0121717D01*
X0051501Y0121730D01*
X0051550Y0121747D01*
X0051596Y0121768D01*
X0051642Y0121792D01*
X0051685Y0121819D01*
X0051726Y0121849D01*
X0051765Y0121882D01*
X0051801Y0121918D01*
X0051834Y0121957D01*
X0051864Y0121998D01*
X0051891Y0122042D01*
X0051915Y0122087D01*
X0051936Y0122133D01*
X0051953Y0122182D01*
X0051966Y0122231D01*
X0051975Y0122281D01*
X0051981Y0122332D01*
X0051983Y0122383D01*
X0051983Y0123522D01*
X0051983Y0123067D02*
X0050161Y0123067D01*
X0050161Y0123522D01*
X0050163Y0123582D01*
X0050169Y0123641D01*
X0050179Y0123700D01*
X0050192Y0123758D01*
X0050209Y0123815D01*
X0050230Y0123871D01*
X0050255Y0123925D01*
X0050283Y0123978D01*
X0050315Y0124028D01*
X0050349Y0124077D01*
X0050387Y0124123D01*
X0050428Y0124166D01*
X0050471Y0124207D01*
X0050517Y0124245D01*
X0050566Y0124279D01*
X0050617Y0124311D01*
X0050669Y0124339D01*
X0050723Y0124364D01*
X0050779Y0124385D01*
X0050836Y0124402D01*
X0050894Y0124415D01*
X0050953Y0124425D01*
X0051012Y0124431D01*
X0051072Y0124433D01*
X0051132Y0124431D01*
X0051191Y0124425D01*
X0051250Y0124415D01*
X0051308Y0124402D01*
X0051365Y0124385D01*
X0051421Y0124364D01*
X0051475Y0124339D01*
X0051528Y0124311D01*
X0051578Y0124279D01*
X0051627Y0124245D01*
X0051673Y0124207D01*
X0051716Y0124166D01*
X0051757Y0124123D01*
X0051795Y0124077D01*
X0051829Y0124028D01*
X0051861Y0123978D01*
X0051889Y0123925D01*
X0051914Y0123871D01*
X0051935Y0123815D01*
X0051952Y0123758D01*
X0051965Y0123700D01*
X0051975Y0123641D01*
X0051981Y0123582D01*
X0051983Y0123522D01*
X0053649Y0123750D02*
X0053649Y0122383D01*
X0053651Y0122332D01*
X0053657Y0122281D01*
X0053666Y0122231D01*
X0053679Y0122182D01*
X0053696Y0122133D01*
X0053717Y0122087D01*
X0053741Y0122041D01*
X0053768Y0121998D01*
X0053798Y0121957D01*
X0053831Y0121918D01*
X0053867Y0121882D01*
X0053906Y0121849D01*
X0053947Y0121819D01*
X0053991Y0121792D01*
X0054036Y0121768D01*
X0054082Y0121747D01*
X0054131Y0121730D01*
X0054180Y0121717D01*
X0054230Y0121708D01*
X0054281Y0121702D01*
X0054332Y0121700D01*
X0055471Y0121700D01*
X0055471Y0125800D01*
X0055471Y0124433D02*
X0054332Y0124433D01*
X0054281Y0124431D01*
X0054230Y0124425D01*
X0054180Y0124416D01*
X0054131Y0124403D01*
X0054082Y0124386D01*
X0054036Y0124365D01*
X0053991Y0124341D01*
X0053947Y0124314D01*
X0053906Y0124284D01*
X0053867Y0124251D01*
X0053831Y0124215D01*
X0053798Y0124176D01*
X0053768Y0124135D01*
X0053741Y0124092D01*
X0053717Y0124046D01*
X0053696Y0124000D01*
X0053679Y0123951D01*
X0053666Y0123902D01*
X0053657Y0123852D01*
X0053651Y0123801D01*
X0053649Y0123750D01*
X0053693Y0130200D02*
X0052782Y0130200D01*
X0053693Y0130200D02*
X0053744Y0130202D01*
X0053795Y0130208D01*
X0053845Y0130217D01*
X0053894Y0130230D01*
X0053943Y0130247D01*
X0053989Y0130268D01*
X0054035Y0130292D01*
X0054078Y0130319D01*
X0054119Y0130349D01*
X0054158Y0130382D01*
X0054194Y0130418D01*
X0054227Y0130457D01*
X0054257Y0130498D01*
X0054284Y0130542D01*
X0054308Y0130587D01*
X0054329Y0130633D01*
X0054346Y0130682D01*
X0054359Y0130731D01*
X0054368Y0130781D01*
X0054374Y0130832D01*
X0054376Y0130883D01*
X0054376Y0132250D01*
X0054374Y0132301D01*
X0054368Y0132352D01*
X0054359Y0132402D01*
X0054346Y0132451D01*
X0054329Y0132500D01*
X0054308Y0132546D01*
X0054284Y0132592D01*
X0054257Y0132635D01*
X0054227Y0132676D01*
X0054194Y0132715D01*
X0054158Y0132751D01*
X0054119Y0132784D01*
X0054078Y0132814D01*
X0054035Y0132841D01*
X0053989Y0132865D01*
X0053943Y0132886D01*
X0053894Y0132903D01*
X0053845Y0132916D01*
X0053795Y0132925D01*
X0053744Y0132931D01*
X0053693Y0132933D01*
X0052782Y0132933D01*
X0051276Y0132022D02*
X0051276Y0130883D01*
X0051274Y0130832D01*
X0051268Y0130781D01*
X0051259Y0130731D01*
X0051246Y0130682D01*
X0051229Y0130633D01*
X0051208Y0130587D01*
X0051184Y0130542D01*
X0051157Y0130498D01*
X0051127Y0130457D01*
X0051094Y0130418D01*
X0051058Y0130382D01*
X0051019Y0130349D01*
X0050978Y0130319D01*
X0050935Y0130292D01*
X0050889Y0130268D01*
X0050843Y0130247D01*
X0050794Y0130230D01*
X0050745Y0130217D01*
X0050695Y0130208D01*
X0050644Y0130202D01*
X0050593Y0130200D01*
X0049454Y0130200D01*
X0049454Y0131567D02*
X0051276Y0131567D01*
X0051276Y0132022D02*
X0051274Y0132082D01*
X0051268Y0132141D01*
X0051258Y0132200D01*
X0051245Y0132258D01*
X0051228Y0132315D01*
X0051207Y0132371D01*
X0051182Y0132425D01*
X0051154Y0132478D01*
X0051122Y0132528D01*
X0051088Y0132577D01*
X0051050Y0132623D01*
X0051009Y0132666D01*
X0050966Y0132707D01*
X0050920Y0132745D01*
X0050871Y0132779D01*
X0050821Y0132811D01*
X0050768Y0132839D01*
X0050714Y0132864D01*
X0050658Y0132885D01*
X0050601Y0132902D01*
X0050543Y0132915D01*
X0050484Y0132925D01*
X0050425Y0132931D01*
X0050365Y0132933D01*
X0050305Y0132931D01*
X0050246Y0132925D01*
X0050187Y0132915D01*
X0050129Y0132902D01*
X0050072Y0132885D01*
X0050016Y0132864D01*
X0049962Y0132839D01*
X0049910Y0132811D01*
X0049859Y0132779D01*
X0049810Y0132745D01*
X0049764Y0132707D01*
X0049721Y0132666D01*
X0049680Y0132623D01*
X0049642Y0132577D01*
X0049608Y0132528D01*
X0049576Y0132478D01*
X0049548Y0132425D01*
X0049523Y0132371D01*
X0049502Y0132315D01*
X0049485Y0132258D01*
X0049472Y0132200D01*
X0049462Y0132141D01*
X0049456Y0132082D01*
X0049454Y0132022D01*
X0049454Y0131567D01*
X0045792Y0134300D02*
X0044425Y0130200D01*
X0043058Y0134300D01*
X0041514Y0133389D02*
X0040375Y0134300D01*
X0040375Y0130200D01*
X0041514Y0130200D02*
X0039236Y0130200D01*
X0037654Y0130200D02*
X0037654Y0130428D01*
X0037426Y0130428D01*
X0037426Y0130200D01*
X0037654Y0130200D01*
X0033908Y0130769D02*
X0033861Y0130869D01*
X0033818Y0130969D01*
X0033778Y0131071D01*
X0033742Y0131174D01*
X0033709Y0131279D01*
X0033679Y0131384D01*
X0033653Y0131490D01*
X0033630Y0131597D01*
X0033610Y0131705D01*
X0033594Y0131813D01*
X0033582Y0131922D01*
X0033573Y0132031D01*
X0033568Y0132141D01*
X0033566Y0132250D01*
X0035844Y0132250D02*
X0035842Y0132359D01*
X0035837Y0132469D01*
X0035828Y0132578D01*
X0035816Y0132687D01*
X0035800Y0132795D01*
X0035780Y0132903D01*
X0035757Y0133010D01*
X0035731Y0133116D01*
X0035701Y0133221D01*
X0035668Y0133326D01*
X0035632Y0133429D01*
X0035592Y0133531D01*
X0035549Y0133632D01*
X0035502Y0133731D01*
X0035502Y0133730D02*
X0035483Y0133782D01*
X0035460Y0133832D01*
X0035434Y0133880D01*
X0035405Y0133927D01*
X0035373Y0133972D01*
X0035338Y0134014D01*
X0035300Y0134054D01*
X0035260Y0134092D01*
X0035217Y0134127D01*
X0035172Y0134159D01*
X0035126Y0134188D01*
X0035077Y0134213D01*
X0035027Y0134236D01*
X0034975Y0134255D01*
X0034923Y0134271D01*
X0034869Y0134284D01*
X0034815Y0134293D01*
X0034760Y0134298D01*
X0034705Y0134300D01*
X0034650Y0134298D01*
X0034595Y0134293D01*
X0034541Y0134284D01*
X0034487Y0134271D01*
X0034435Y0134255D01*
X0034383Y0134236D01*
X0034333Y0134213D01*
X0034284Y0134188D01*
X0034238Y0134159D01*
X0034193Y0134127D01*
X0034150Y0134092D01*
X0034110Y0134054D01*
X0034072Y0134014D01*
X0034037Y0133972D01*
X0034005Y0133927D01*
X0033976Y0133880D01*
X0033950Y0133832D01*
X0033927Y0133782D01*
X0033908Y0133730D01*
X0033794Y0133389D02*
X0035616Y0131111D01*
X0034705Y0130200D02*
X0034650Y0130202D01*
X0034595Y0130207D01*
X0034541Y0130216D01*
X0034487Y0130229D01*
X0034435Y0130245D01*
X0034383Y0130264D01*
X0034333Y0130287D01*
X0034284Y0130312D01*
X0034238Y0130341D01*
X0034193Y0130373D01*
X0034150Y0130408D01*
X0034110Y0130446D01*
X0034072Y0130486D01*
X0034037Y0130528D01*
X0034005Y0130573D01*
X0033976Y0130620D01*
X0033950Y0130668D01*
X0033927Y0130718D01*
X0033908Y0130770D01*
X0034705Y0130200D02*
X0034760Y0130202D01*
X0034815Y0130207D01*
X0034869Y0130216D01*
X0034923Y0130229D01*
X0034975Y0130245D01*
X0035027Y0130264D01*
X0035077Y0130287D01*
X0035126Y0130312D01*
X0035172Y0130341D01*
X0035217Y0130373D01*
X0035260Y0130408D01*
X0035300Y0130446D01*
X0035338Y0130486D01*
X0035373Y0130528D01*
X0035405Y0130573D01*
X0035434Y0130620D01*
X0035460Y0130668D01*
X0035483Y0130718D01*
X0035502Y0130770D01*
X0033566Y0132250D02*
X0033568Y0132359D01*
X0033573Y0132469D01*
X0033582Y0132578D01*
X0033594Y0132687D01*
X0033610Y0132795D01*
X0033630Y0132903D01*
X0033653Y0133010D01*
X0033679Y0133116D01*
X0033709Y0133221D01*
X0033742Y0133326D01*
X0033778Y0133429D01*
X0033818Y0133531D01*
X0033861Y0133632D01*
X0033908Y0133731D01*
X0035844Y0132250D02*
X0035842Y0132141D01*
X0035837Y0132031D01*
X0035828Y0131922D01*
X0035816Y0131813D01*
X0035800Y0131705D01*
X0035780Y0131597D01*
X0035757Y0131490D01*
X0035731Y0131384D01*
X0035701Y0131279D01*
X0035668Y0131174D01*
X0035632Y0131071D01*
X0035592Y0130969D01*
X0035549Y0130869D01*
X0035502Y0130769D01*
X0056226Y0130200D02*
X0056226Y0132250D01*
X0056226Y0131794D02*
X0057251Y0131794D01*
X0056226Y0132250D02*
X0056228Y0132301D01*
X0056234Y0132352D01*
X0056243Y0132402D01*
X0056256Y0132451D01*
X0056273Y0132500D01*
X0056294Y0132546D01*
X0056318Y0132592D01*
X0056345Y0132635D01*
X0056375Y0132676D01*
X0056408Y0132715D01*
X0056444Y0132751D01*
X0056483Y0132784D01*
X0056524Y0132814D01*
X0056568Y0132841D01*
X0056613Y0132865D01*
X0056659Y0132886D01*
X0056708Y0132903D01*
X0056757Y0132916D01*
X0056807Y0132925D01*
X0056858Y0132931D01*
X0056909Y0132933D01*
X0057820Y0132933D01*
X0059191Y0132933D02*
X0060557Y0132933D01*
X0060102Y0133617D02*
X0060102Y0130200D01*
X0061629Y0132478D02*
X0061629Y0132933D01*
X0062996Y0132933D01*
X0062996Y0130200D01*
X0064844Y0130200D02*
X0065983Y0130200D01*
X0066034Y0130202D01*
X0066085Y0130208D01*
X0066135Y0130217D01*
X0066184Y0130230D01*
X0066233Y0130247D01*
X0066279Y0130268D01*
X0066325Y0130292D01*
X0066368Y0130319D01*
X0066409Y0130349D01*
X0066448Y0130382D01*
X0066484Y0130418D01*
X0066517Y0130457D01*
X0066547Y0130498D01*
X0066574Y0130542D01*
X0066598Y0130587D01*
X0066619Y0130633D01*
X0066636Y0130682D01*
X0066649Y0130731D01*
X0066658Y0130781D01*
X0066664Y0130832D01*
X0066666Y0130883D01*
X0066666Y0132022D01*
X0066666Y0131567D02*
X0064844Y0131567D01*
X0064844Y0132022D01*
X0064846Y0132082D01*
X0064852Y0132141D01*
X0064862Y0132200D01*
X0064875Y0132258D01*
X0064892Y0132315D01*
X0064913Y0132371D01*
X0064938Y0132425D01*
X0064966Y0132478D01*
X0064998Y0132528D01*
X0065032Y0132577D01*
X0065070Y0132623D01*
X0065111Y0132666D01*
X0065154Y0132707D01*
X0065200Y0132745D01*
X0065249Y0132779D01*
X0065300Y0132811D01*
X0065352Y0132839D01*
X0065406Y0132864D01*
X0065462Y0132885D01*
X0065519Y0132902D01*
X0065577Y0132915D01*
X0065636Y0132925D01*
X0065695Y0132931D01*
X0065755Y0132933D01*
X0065815Y0132931D01*
X0065874Y0132925D01*
X0065933Y0132915D01*
X0065991Y0132902D01*
X0066048Y0132885D01*
X0066104Y0132864D01*
X0066158Y0132839D01*
X0066211Y0132811D01*
X0066261Y0132779D01*
X0066310Y0132745D01*
X0066356Y0132707D01*
X0066399Y0132666D01*
X0066440Y0132623D01*
X0066478Y0132577D01*
X0066512Y0132528D01*
X0066544Y0132478D01*
X0066572Y0132425D01*
X0066597Y0132371D01*
X0066618Y0132315D01*
X0066635Y0132258D01*
X0066648Y0132200D01*
X0066658Y0132141D01*
X0066664Y0132082D01*
X0066666Y0132022D01*
X0068211Y0132933D02*
X0069578Y0132933D01*
X0069122Y0134300D02*
X0069122Y0130883D01*
X0069120Y0130832D01*
X0069114Y0130781D01*
X0069105Y0130731D01*
X0069092Y0130682D01*
X0069075Y0130633D01*
X0069054Y0130587D01*
X0069030Y0130542D01*
X0069003Y0130498D01*
X0068973Y0130457D01*
X0068940Y0130418D01*
X0068904Y0130382D01*
X0068865Y0130349D01*
X0068824Y0130319D01*
X0068781Y0130292D01*
X0068735Y0130268D01*
X0068689Y0130247D01*
X0068640Y0130230D01*
X0068591Y0130217D01*
X0068541Y0130208D01*
X0068490Y0130202D01*
X0068439Y0130200D01*
X0068211Y0130200D01*
X0068723Y0125800D02*
X0068723Y0121700D01*
X0066901Y0121700D02*
X0066901Y0123750D01*
X0066903Y0123801D01*
X0066909Y0123852D01*
X0066918Y0123902D01*
X0066931Y0123951D01*
X0066948Y0124000D01*
X0066969Y0124046D01*
X0066993Y0124092D01*
X0067020Y0124135D01*
X0067050Y0124176D01*
X0067083Y0124215D01*
X0067119Y0124251D01*
X0067158Y0124284D01*
X0067199Y0124314D01*
X0067243Y0124341D01*
X0067288Y0124365D01*
X0067334Y0124386D01*
X0067383Y0124403D01*
X0067432Y0124416D01*
X0067482Y0124425D01*
X0067533Y0124431D01*
X0067584Y0124433D01*
X0068723Y0124433D01*
X0070546Y0123522D02*
X0070546Y0122611D01*
X0070548Y0122551D01*
X0070554Y0122492D01*
X0070564Y0122433D01*
X0070577Y0122375D01*
X0070594Y0122318D01*
X0070615Y0122262D01*
X0070640Y0122208D01*
X0070668Y0122156D01*
X0070700Y0122105D01*
X0070734Y0122056D01*
X0070772Y0122010D01*
X0070813Y0121967D01*
X0070856Y0121926D01*
X0070902Y0121888D01*
X0070951Y0121854D01*
X0071002Y0121822D01*
X0071054Y0121794D01*
X0071108Y0121769D01*
X0071164Y0121748D01*
X0071221Y0121731D01*
X0071279Y0121718D01*
X0071338Y0121708D01*
X0071397Y0121702D01*
X0071457Y0121700D01*
X0071517Y0121702D01*
X0071576Y0121708D01*
X0071635Y0121718D01*
X0071693Y0121731D01*
X0071750Y0121748D01*
X0071806Y0121769D01*
X0071860Y0121794D01*
X0071913Y0121822D01*
X0071963Y0121854D01*
X0072012Y0121888D01*
X0072058Y0121926D01*
X0072101Y0121967D01*
X0072142Y0122010D01*
X0072180Y0122056D01*
X0072214Y0122105D01*
X0072246Y0122156D01*
X0072274Y0122208D01*
X0072299Y0122262D01*
X0072320Y0122318D01*
X0072337Y0122375D01*
X0072350Y0122433D01*
X0072360Y0122492D01*
X0072366Y0122551D01*
X0072368Y0122611D01*
X0072368Y0123522D01*
X0072366Y0123582D01*
X0072360Y0123641D01*
X0072350Y0123700D01*
X0072337Y0123758D01*
X0072320Y0123815D01*
X0072299Y0123871D01*
X0072274Y0123925D01*
X0072246Y0123978D01*
X0072214Y0124028D01*
X0072180Y0124077D01*
X0072142Y0124123D01*
X0072101Y0124166D01*
X0072058Y0124207D01*
X0072012Y0124245D01*
X0071963Y0124279D01*
X0071913Y0124311D01*
X0071860Y0124339D01*
X0071806Y0124364D01*
X0071750Y0124385D01*
X0071693Y0124402D01*
X0071635Y0124415D01*
X0071576Y0124425D01*
X0071517Y0124431D01*
X0071457Y0124433D01*
X0071397Y0124431D01*
X0071338Y0124425D01*
X0071279Y0124415D01*
X0071221Y0124402D01*
X0071164Y0124385D01*
X0071108Y0124364D01*
X0071054Y0124339D01*
X0071002Y0124311D01*
X0070951Y0124279D01*
X0070902Y0124245D01*
X0070856Y0124207D01*
X0070813Y0124166D01*
X0070772Y0124123D01*
X0070734Y0124077D01*
X0070700Y0124028D01*
X0070668Y0123978D01*
X0070640Y0123925D01*
X0070615Y0123871D01*
X0070594Y0123815D01*
X0070577Y0123758D01*
X0070564Y0123700D01*
X0070554Y0123641D01*
X0070548Y0123582D01*
X0070546Y0123522D01*
X0071054Y0130200D02*
X0071054Y0132250D01*
X0071056Y0132301D01*
X0071062Y0132352D01*
X0071071Y0132402D01*
X0071084Y0132451D01*
X0071101Y0132500D01*
X0071122Y0132546D01*
X0071146Y0132592D01*
X0071173Y0132635D01*
X0071203Y0132676D01*
X0071236Y0132715D01*
X0071272Y0132751D01*
X0071311Y0132784D01*
X0071352Y0132814D01*
X0071396Y0132841D01*
X0071441Y0132865D01*
X0071487Y0132886D01*
X0071536Y0132903D01*
X0071585Y0132916D01*
X0071635Y0132925D01*
X0071686Y0132931D01*
X0071737Y0132933D01*
X0072876Y0132933D01*
X0072876Y0130200D01*
X0074614Y0130200D02*
X0075525Y0130200D01*
X0075070Y0130200D02*
X0075070Y0134300D01*
X0075525Y0134300D02*
X0074614Y0134300D01*
X0074216Y0125800D02*
X0074216Y0122611D01*
X0074218Y0122551D01*
X0074224Y0122492D01*
X0074234Y0122433D01*
X0074247Y0122375D01*
X0074264Y0122318D01*
X0074285Y0122262D01*
X0074310Y0122208D01*
X0074338Y0122156D01*
X0074370Y0122105D01*
X0074404Y0122056D01*
X0074442Y0122010D01*
X0074483Y0121967D01*
X0074526Y0121926D01*
X0074572Y0121888D01*
X0074621Y0121854D01*
X0074672Y0121822D01*
X0074724Y0121794D01*
X0074778Y0121769D01*
X0074834Y0121748D01*
X0074891Y0121731D01*
X0074949Y0121718D01*
X0075008Y0121708D01*
X0075067Y0121702D01*
X0075127Y0121700D01*
X0075582Y0121700D01*
X0079093Y0122839D02*
X0079095Y0122773D01*
X0079101Y0122707D01*
X0079110Y0122641D01*
X0079124Y0122576D01*
X0079141Y0122512D01*
X0079162Y0122449D01*
X0079186Y0122388D01*
X0079214Y0122328D01*
X0079246Y0122270D01*
X0079280Y0122213D01*
X0079318Y0122159D01*
X0079359Y0122107D01*
X0079404Y0122057D01*
X0079450Y0122011D01*
X0079500Y0121966D01*
X0079552Y0121925D01*
X0079606Y0121887D01*
X0079663Y0121853D01*
X0079721Y0121821D01*
X0079781Y0121793D01*
X0079842Y0121769D01*
X0079905Y0121748D01*
X0079969Y0121731D01*
X0080034Y0121717D01*
X0080100Y0121708D01*
X0080166Y0121702D01*
X0080232Y0121700D01*
X0080298Y0121702D01*
X0080364Y0121708D01*
X0080430Y0121717D01*
X0080495Y0121731D01*
X0080559Y0121748D01*
X0080622Y0121769D01*
X0080683Y0121793D01*
X0080743Y0121821D01*
X0080802Y0121853D01*
X0080858Y0121887D01*
X0080912Y0121925D01*
X0080964Y0121966D01*
X0081014Y0122011D01*
X0081060Y0122057D01*
X0081105Y0122107D01*
X0081146Y0122159D01*
X0081184Y0122213D01*
X0081218Y0122270D01*
X0081250Y0122328D01*
X0081278Y0122388D01*
X0081302Y0122449D01*
X0081323Y0122512D01*
X0081340Y0122576D01*
X0081354Y0122641D01*
X0081363Y0122707D01*
X0081369Y0122773D01*
X0081371Y0122839D01*
X0081369Y0122905D01*
X0081363Y0122971D01*
X0081354Y0123037D01*
X0081340Y0123102D01*
X0081323Y0123166D01*
X0081302Y0123229D01*
X0081278Y0123290D01*
X0081250Y0123350D01*
X0081218Y0123409D01*
X0081184Y0123465D01*
X0081146Y0123519D01*
X0081105Y0123571D01*
X0081060Y0123621D01*
X0081014Y0123667D01*
X0080964Y0123712D01*
X0080912Y0123753D01*
X0080858Y0123791D01*
X0080802Y0123825D01*
X0080743Y0123857D01*
X0080683Y0123885D01*
X0080622Y0123909D01*
X0080559Y0123930D01*
X0080495Y0123947D01*
X0080430Y0123961D01*
X0080364Y0123970D01*
X0080298Y0123976D01*
X0080232Y0123978D01*
X0080166Y0123976D01*
X0080100Y0123970D01*
X0080034Y0123961D01*
X0079969Y0123947D01*
X0079905Y0123930D01*
X0079842Y0123909D01*
X0079781Y0123885D01*
X0079721Y0123857D01*
X0079663Y0123825D01*
X0079606Y0123791D01*
X0079552Y0123753D01*
X0079500Y0123712D01*
X0079450Y0123667D01*
X0079404Y0123621D01*
X0079359Y0123571D01*
X0079318Y0123519D01*
X0079280Y0123465D01*
X0079246Y0123409D01*
X0079214Y0123350D01*
X0079186Y0123290D01*
X0079162Y0123229D01*
X0079141Y0123166D01*
X0079124Y0123102D01*
X0079110Y0123037D01*
X0079101Y0122971D01*
X0079095Y0122905D01*
X0079093Y0122839D01*
X0079321Y0124889D02*
X0079323Y0124829D01*
X0079329Y0124770D01*
X0079339Y0124711D01*
X0079352Y0124653D01*
X0079369Y0124596D01*
X0079390Y0124540D01*
X0079415Y0124486D01*
X0079443Y0124434D01*
X0079475Y0124383D01*
X0079509Y0124334D01*
X0079547Y0124288D01*
X0079588Y0124245D01*
X0079631Y0124204D01*
X0079677Y0124166D01*
X0079726Y0124132D01*
X0079777Y0124100D01*
X0079829Y0124072D01*
X0079883Y0124047D01*
X0079939Y0124026D01*
X0079996Y0124009D01*
X0080054Y0123996D01*
X0080113Y0123986D01*
X0080172Y0123980D01*
X0080232Y0123978D01*
X0080292Y0123980D01*
X0080351Y0123986D01*
X0080410Y0123996D01*
X0080468Y0124009D01*
X0080525Y0124026D01*
X0080581Y0124047D01*
X0080635Y0124072D01*
X0080688Y0124100D01*
X0080738Y0124132D01*
X0080787Y0124166D01*
X0080833Y0124204D01*
X0080876Y0124245D01*
X0080917Y0124288D01*
X0080955Y0124334D01*
X0080989Y0124383D01*
X0081021Y0124434D01*
X0081049Y0124486D01*
X0081074Y0124540D01*
X0081095Y0124596D01*
X0081112Y0124653D01*
X0081125Y0124711D01*
X0081135Y0124770D01*
X0081141Y0124829D01*
X0081143Y0124889D01*
X0081141Y0124949D01*
X0081135Y0125008D01*
X0081125Y0125067D01*
X0081112Y0125125D01*
X0081095Y0125182D01*
X0081074Y0125238D01*
X0081049Y0125292D01*
X0081021Y0125345D01*
X0080989Y0125395D01*
X0080955Y0125444D01*
X0080917Y0125490D01*
X0080876Y0125533D01*
X0080833Y0125574D01*
X0080787Y0125612D01*
X0080738Y0125646D01*
X0080688Y0125678D01*
X0080635Y0125706D01*
X0080581Y0125731D01*
X0080525Y0125752D01*
X0080468Y0125769D01*
X0080410Y0125782D01*
X0080351Y0125792D01*
X0080292Y0125798D01*
X0080232Y0125800D01*
X0080172Y0125798D01*
X0080113Y0125792D01*
X0080054Y0125782D01*
X0079996Y0125769D01*
X0079939Y0125752D01*
X0079883Y0125731D01*
X0079829Y0125706D01*
X0079777Y0125678D01*
X0079726Y0125646D01*
X0079677Y0125612D01*
X0079631Y0125574D01*
X0079588Y0125533D01*
X0079547Y0125490D01*
X0079509Y0125444D01*
X0079475Y0125395D01*
X0079443Y0125345D01*
X0079415Y0125292D01*
X0079390Y0125238D01*
X0079369Y0125182D01*
X0079352Y0125125D01*
X0079339Y0125067D01*
X0079329Y0125008D01*
X0079323Y0124949D01*
X0079321Y0124889D01*
X0083143Y0121700D02*
X0085421Y0121700D01*
X0084282Y0121700D02*
X0084282Y0125800D01*
X0085421Y0124889D01*
X0089471Y0123750D02*
X0089469Y0123641D01*
X0089464Y0123531D01*
X0089455Y0123422D01*
X0089443Y0123313D01*
X0089427Y0123205D01*
X0089407Y0123097D01*
X0089384Y0122990D01*
X0089358Y0122884D01*
X0089328Y0122779D01*
X0089295Y0122674D01*
X0089259Y0122571D01*
X0089219Y0122469D01*
X0089176Y0122369D01*
X0089129Y0122269D01*
X0089243Y0122611D02*
X0087421Y0124889D01*
X0087535Y0125230D02*
X0087554Y0125282D01*
X0087577Y0125332D01*
X0087603Y0125380D01*
X0087632Y0125427D01*
X0087664Y0125472D01*
X0087699Y0125514D01*
X0087737Y0125554D01*
X0087777Y0125592D01*
X0087820Y0125627D01*
X0087865Y0125659D01*
X0087911Y0125688D01*
X0087960Y0125713D01*
X0088010Y0125736D01*
X0088062Y0125755D01*
X0088114Y0125771D01*
X0088168Y0125784D01*
X0088222Y0125793D01*
X0088277Y0125798D01*
X0088332Y0125800D01*
X0088387Y0125798D01*
X0088442Y0125793D01*
X0088496Y0125784D01*
X0088550Y0125771D01*
X0088602Y0125755D01*
X0088654Y0125736D01*
X0088704Y0125713D01*
X0088753Y0125688D01*
X0088799Y0125659D01*
X0088844Y0125627D01*
X0088887Y0125592D01*
X0088927Y0125554D01*
X0088965Y0125514D01*
X0089000Y0125472D01*
X0089032Y0125427D01*
X0089061Y0125380D01*
X0089087Y0125332D01*
X0089110Y0125282D01*
X0089129Y0125230D01*
X0087535Y0125231D02*
X0087488Y0125132D01*
X0087445Y0125031D01*
X0087405Y0124929D01*
X0087369Y0124826D01*
X0087336Y0124721D01*
X0087306Y0124616D01*
X0087280Y0124510D01*
X0087257Y0124403D01*
X0087237Y0124295D01*
X0087221Y0124187D01*
X0087209Y0124078D01*
X0087200Y0123969D01*
X0087195Y0123859D01*
X0087193Y0123750D01*
X0089471Y0123750D02*
X0089469Y0123859D01*
X0089464Y0123969D01*
X0089455Y0124078D01*
X0089443Y0124187D01*
X0089427Y0124295D01*
X0089407Y0124403D01*
X0089384Y0124510D01*
X0089358Y0124616D01*
X0089328Y0124721D01*
X0089295Y0124826D01*
X0089259Y0124929D01*
X0089219Y0125031D01*
X0089176Y0125132D01*
X0089129Y0125231D01*
X0087193Y0123750D02*
X0087195Y0123641D01*
X0087200Y0123531D01*
X0087209Y0123422D01*
X0087221Y0123313D01*
X0087237Y0123205D01*
X0087257Y0123097D01*
X0087280Y0122990D01*
X0087306Y0122884D01*
X0087336Y0122779D01*
X0087369Y0122674D01*
X0087405Y0122571D01*
X0087445Y0122469D01*
X0087488Y0122369D01*
X0087535Y0122269D01*
X0087535Y0122270D02*
X0087554Y0122218D01*
X0087577Y0122168D01*
X0087603Y0122120D01*
X0087632Y0122073D01*
X0087664Y0122028D01*
X0087699Y0121986D01*
X0087737Y0121946D01*
X0087777Y0121908D01*
X0087820Y0121873D01*
X0087865Y0121841D01*
X0087911Y0121812D01*
X0087960Y0121787D01*
X0088010Y0121764D01*
X0088062Y0121745D01*
X0088114Y0121729D01*
X0088168Y0121716D01*
X0088222Y0121707D01*
X0088277Y0121702D01*
X0088332Y0121700D01*
X0088387Y0121702D01*
X0088442Y0121707D01*
X0088496Y0121716D01*
X0088550Y0121729D01*
X0088602Y0121745D01*
X0088654Y0121764D01*
X0088704Y0121787D01*
X0088753Y0121812D01*
X0088799Y0121841D01*
X0088844Y0121873D01*
X0088887Y0121908D01*
X0088927Y0121946D01*
X0088965Y0121986D01*
X0089000Y0122028D01*
X0089032Y0122073D01*
X0089061Y0122120D01*
X0089087Y0122168D01*
X0089110Y0122218D01*
X0089129Y0122270D01*
X0091243Y0121700D02*
X0093521Y0121700D01*
X0091585Y0123978D01*
X0092268Y0125800D02*
X0092337Y0125798D01*
X0092406Y0125793D01*
X0092474Y0125784D01*
X0092542Y0125771D01*
X0092609Y0125755D01*
X0092675Y0125735D01*
X0092740Y0125712D01*
X0092804Y0125686D01*
X0092866Y0125656D01*
X0092927Y0125623D01*
X0092986Y0125587D01*
X0093043Y0125548D01*
X0093097Y0125506D01*
X0093150Y0125461D01*
X0093200Y0125414D01*
X0093247Y0125364D01*
X0093292Y0125311D01*
X0093334Y0125256D01*
X0093373Y0125199D01*
X0093409Y0125141D01*
X0093442Y0125080D01*
X0093472Y0125018D01*
X0093498Y0124954D01*
X0093521Y0124889D01*
X0091585Y0123978D02*
X0091540Y0124023D01*
X0091498Y0124071D01*
X0091458Y0124121D01*
X0091422Y0124173D01*
X0091389Y0124227D01*
X0091359Y0124284D01*
X0091332Y0124341D01*
X0091309Y0124401D01*
X0091289Y0124461D01*
X0091272Y0124523D01*
X0091260Y0124585D01*
X0091250Y0124648D01*
X0091245Y0124711D01*
X0091243Y0124775D01*
X0091245Y0124837D01*
X0091250Y0124899D01*
X0091260Y0124960D01*
X0091273Y0125020D01*
X0091289Y0125080D01*
X0091310Y0125138D01*
X0091333Y0125196D01*
X0091360Y0125251D01*
X0091391Y0125305D01*
X0091424Y0125357D01*
X0091461Y0125407D01*
X0091501Y0125455D01*
X0091543Y0125500D01*
X0091588Y0125542D01*
X0091636Y0125582D01*
X0091686Y0125619D01*
X0091738Y0125652D01*
X0091792Y0125683D01*
X0091847Y0125710D01*
X0091905Y0125733D01*
X0091963Y0125754D01*
X0092023Y0125770D01*
X0092083Y0125783D01*
X0092144Y0125793D01*
X0092206Y0125798D01*
X0092268Y0125800D01*
X0092468Y0130200D02*
X0095201Y0134300D01*
X0096619Y0134300D02*
X0097530Y0134300D01*
X0097075Y0134300D02*
X0097075Y0130200D01*
X0097530Y0130200D02*
X0096619Y0130200D01*
X0095201Y0130200D02*
X0092468Y0134300D01*
X0088620Y0134300D02*
X0088620Y0130200D01*
X0086798Y0130200D01*
X0085266Y0131111D02*
X0085266Y0133389D01*
X0085264Y0133449D01*
X0085258Y0133508D01*
X0085248Y0133567D01*
X0085235Y0133625D01*
X0085218Y0133682D01*
X0085197Y0133738D01*
X0085172Y0133792D01*
X0085144Y0133844D01*
X0085112Y0133895D01*
X0085078Y0133944D01*
X0085040Y0133990D01*
X0084999Y0134033D01*
X0084956Y0134074D01*
X0084910Y0134112D01*
X0084861Y0134146D01*
X0084811Y0134178D01*
X0084758Y0134206D01*
X0084704Y0134231D01*
X0084648Y0134252D01*
X0084591Y0134269D01*
X0084533Y0134282D01*
X0084474Y0134292D01*
X0084415Y0134298D01*
X0084355Y0134300D01*
X0083444Y0134300D01*
X0081744Y0134300D02*
X0081744Y0131339D01*
X0081742Y0131273D01*
X0081736Y0131207D01*
X0081727Y0131141D01*
X0081713Y0131076D01*
X0081696Y0131012D01*
X0081675Y0130949D01*
X0081651Y0130888D01*
X0081623Y0130828D01*
X0081591Y0130770D01*
X0081557Y0130713D01*
X0081519Y0130659D01*
X0081478Y0130607D01*
X0081433Y0130557D01*
X0081387Y0130511D01*
X0081337Y0130466D01*
X0081285Y0130425D01*
X0081231Y0130387D01*
X0081175Y0130353D01*
X0081116Y0130321D01*
X0081056Y0130293D01*
X0080995Y0130269D01*
X0080932Y0130248D01*
X0080868Y0130231D01*
X0080803Y0130217D01*
X0080737Y0130208D01*
X0080671Y0130202D01*
X0080605Y0130200D01*
X0080539Y0130202D01*
X0080473Y0130208D01*
X0080407Y0130217D01*
X0080342Y0130231D01*
X0080278Y0130248D01*
X0080215Y0130269D01*
X0080154Y0130293D01*
X0080094Y0130321D01*
X0080036Y0130353D01*
X0079979Y0130387D01*
X0079925Y0130425D01*
X0079873Y0130466D01*
X0079823Y0130511D01*
X0079777Y0130557D01*
X0079732Y0130607D01*
X0079691Y0130659D01*
X0079653Y0130713D01*
X0079619Y0130770D01*
X0079587Y0130828D01*
X0079559Y0130888D01*
X0079535Y0130949D01*
X0079514Y0131012D01*
X0079497Y0131076D01*
X0079483Y0131141D01*
X0079474Y0131207D01*
X0079468Y0131273D01*
X0079466Y0131339D01*
X0079466Y0134300D01*
X0083444Y0130200D02*
X0084355Y0130200D01*
X0084415Y0130202D01*
X0084474Y0130208D01*
X0084533Y0130218D01*
X0084591Y0130231D01*
X0084648Y0130248D01*
X0084704Y0130269D01*
X0084758Y0130294D01*
X0084811Y0130322D01*
X0084861Y0130354D01*
X0084910Y0130388D01*
X0084956Y0130426D01*
X0084999Y0130467D01*
X0085040Y0130510D01*
X0085078Y0130556D01*
X0085112Y0130605D01*
X0085144Y0130656D01*
X0085172Y0130708D01*
X0085197Y0130762D01*
X0085218Y0130818D01*
X0085235Y0130875D01*
X0085248Y0130933D01*
X0085258Y0130992D01*
X0085264Y0131051D01*
X0085266Y0131111D01*
X0087254Y0132478D02*
X0088620Y0132478D01*
X0088620Y0134300D02*
X0086798Y0134300D01*
X0099311Y0134300D02*
X0099311Y0130200D01*
X0101589Y0134300D01*
X0101589Y0130200D01*
X0103268Y0130200D02*
X0105090Y0130200D01*
X0105090Y0134300D01*
X0103268Y0134300D01*
X0103723Y0132478D02*
X0105090Y0132478D01*
X0107889Y0132022D02*
X0106978Y0130200D01*
X0108117Y0132022D02*
X0109256Y0132022D01*
X0108117Y0132022D02*
X0108051Y0132024D01*
X0107985Y0132030D01*
X0107919Y0132039D01*
X0107854Y0132053D01*
X0107790Y0132070D01*
X0107727Y0132091D01*
X0107666Y0132115D01*
X0107606Y0132143D01*
X0107548Y0132175D01*
X0107491Y0132209D01*
X0107437Y0132247D01*
X0107385Y0132288D01*
X0107335Y0132333D01*
X0107289Y0132379D01*
X0107244Y0132429D01*
X0107203Y0132481D01*
X0107165Y0132535D01*
X0107131Y0132592D01*
X0107099Y0132650D01*
X0107071Y0132710D01*
X0107047Y0132771D01*
X0107026Y0132834D01*
X0107009Y0132898D01*
X0106995Y0132963D01*
X0106986Y0133029D01*
X0106980Y0133095D01*
X0106978Y0133161D01*
X0106980Y0133227D01*
X0106986Y0133293D01*
X0106995Y0133359D01*
X0107009Y0133424D01*
X0107026Y0133488D01*
X0107047Y0133551D01*
X0107071Y0133612D01*
X0107099Y0133672D01*
X0107131Y0133731D01*
X0107165Y0133787D01*
X0107203Y0133841D01*
X0107244Y0133893D01*
X0107289Y0133943D01*
X0107335Y0133989D01*
X0107385Y0134034D01*
X0107437Y0134075D01*
X0107491Y0134113D01*
X0107548Y0134147D01*
X0107606Y0134179D01*
X0107666Y0134207D01*
X0107727Y0134231D01*
X0107790Y0134252D01*
X0107854Y0134269D01*
X0107919Y0134283D01*
X0107985Y0134292D01*
X0108051Y0134298D01*
X0108117Y0134300D01*
X0109256Y0134300D01*
X0109256Y0130200D01*
X0101388Y0123750D02*
X0101388Y0122383D01*
X0101386Y0122332D01*
X0101380Y0122281D01*
X0101371Y0122231D01*
X0101358Y0122182D01*
X0101341Y0122133D01*
X0101320Y0122087D01*
X0101296Y0122042D01*
X0101269Y0121998D01*
X0101239Y0121957D01*
X0101206Y0121918D01*
X0101170Y0121882D01*
X0101131Y0121849D01*
X0101090Y0121819D01*
X0101047Y0121792D01*
X0101001Y0121768D01*
X0100955Y0121747D01*
X0100906Y0121730D01*
X0100857Y0121717D01*
X0100807Y0121708D01*
X0100756Y0121702D01*
X0100705Y0121700D01*
X0099794Y0121700D01*
X0102986Y0121244D02*
X0103064Y0121340D01*
X0103139Y0121439D01*
X0103210Y0121540D01*
X0103279Y0121643D01*
X0103344Y0121748D01*
X0103406Y0121855D01*
X0103464Y0121964D01*
X0103519Y0122075D01*
X0103570Y0122187D01*
X0103618Y0122301D01*
X0103662Y0122417D01*
X0103703Y0122534D01*
X0103739Y0122652D01*
X0103772Y0122771D01*
X0103801Y0122891D01*
X0103827Y0123012D01*
X0103848Y0123134D01*
X0103866Y0123257D01*
X0103879Y0123380D01*
X0103889Y0123503D01*
X0103895Y0123626D01*
X0103897Y0123750D01*
X0098383Y0121244D02*
X0098305Y0121340D01*
X0098230Y0121439D01*
X0098159Y0121540D01*
X0098090Y0121643D01*
X0098025Y0121748D01*
X0097963Y0121855D01*
X0097905Y0121964D01*
X0097850Y0122075D01*
X0097799Y0122187D01*
X0097751Y0122301D01*
X0097707Y0122417D01*
X0097666Y0122534D01*
X0097630Y0122652D01*
X0097597Y0122771D01*
X0097568Y0122891D01*
X0097542Y0123012D01*
X0097521Y0123134D01*
X0097503Y0123257D01*
X0097490Y0123379D01*
X0097480Y0123503D01*
X0097474Y0123626D01*
X0097472Y0123750D01*
X0099794Y0124433D02*
X0100705Y0124433D01*
X0100756Y0124431D01*
X0100807Y0124425D01*
X0100857Y0124416D01*
X0100906Y0124403D01*
X0100955Y0124386D01*
X0101001Y0124365D01*
X0101047Y0124341D01*
X0101090Y0124314D01*
X0101131Y0124284D01*
X0101170Y0124251D01*
X0101206Y0124215D01*
X0101239Y0124176D01*
X0101269Y0124135D01*
X0101296Y0124092D01*
X0101320Y0124046D01*
X0101341Y0124000D01*
X0101358Y0123951D01*
X0101371Y0123902D01*
X0101380Y0123852D01*
X0101386Y0123801D01*
X0101388Y0123750D01*
X0098383Y0126256D02*
X0098305Y0126160D01*
X0098230Y0126061D01*
X0098159Y0125960D01*
X0098090Y0125857D01*
X0098025Y0125752D01*
X0097963Y0125645D01*
X0097905Y0125536D01*
X0097850Y0125425D01*
X0097799Y0125313D01*
X0097751Y0125199D01*
X0097707Y0125083D01*
X0097666Y0124966D01*
X0097630Y0124848D01*
X0097597Y0124729D01*
X0097568Y0124609D01*
X0097542Y0124488D01*
X0097521Y0124366D01*
X0097503Y0124243D01*
X0097490Y0124121D01*
X0097480Y0123997D01*
X0097474Y0123874D01*
X0097472Y0123750D01*
X0102986Y0126256D02*
X0103064Y0126160D01*
X0103139Y0126061D01*
X0103210Y0125960D01*
X0103279Y0125857D01*
X0103344Y0125752D01*
X0103406Y0125645D01*
X0103464Y0125536D01*
X0103519Y0125425D01*
X0103570Y0125313D01*
X0103618Y0125199D01*
X0103662Y0125083D01*
X0103703Y0124966D01*
X0103739Y0124848D01*
X0103772Y0124729D01*
X0103801Y0124609D01*
X0103827Y0124488D01*
X0103848Y0124366D01*
X0103866Y0124243D01*
X0103879Y0124121D01*
X0103889Y0123997D01*
X0103895Y0123874D01*
X0103897Y0123750D01*
X0064943Y0124433D02*
X0064943Y0121700D01*
X0063121Y0121700D02*
X0063121Y0123750D01*
X0063123Y0123801D01*
X0063129Y0123852D01*
X0063138Y0123902D01*
X0063151Y0123951D01*
X0063168Y0124000D01*
X0063189Y0124046D01*
X0063213Y0124092D01*
X0063240Y0124135D01*
X0063270Y0124176D01*
X0063303Y0124215D01*
X0063339Y0124251D01*
X0063378Y0124284D01*
X0063419Y0124314D01*
X0063463Y0124341D01*
X0063508Y0124365D01*
X0063554Y0124386D01*
X0063603Y0124403D01*
X0063652Y0124416D01*
X0063702Y0124425D01*
X0063753Y0124431D01*
X0063804Y0124433D01*
X0064943Y0124433D01*
X0058952Y0123978D02*
X0057586Y0123978D01*
X0057130Y0125800D02*
X0058952Y0125800D01*
X0058952Y0121700D01*
X0057130Y0121700D01*
X0057251Y0130200D02*
X0056226Y0130200D01*
X0057251Y0130200D02*
X0057307Y0130202D01*
X0057362Y0130208D01*
X0057417Y0130217D01*
X0057471Y0130231D01*
X0057524Y0130248D01*
X0057575Y0130269D01*
X0057625Y0130293D01*
X0057673Y0130321D01*
X0057719Y0130352D01*
X0057763Y0130386D01*
X0057805Y0130424D01*
X0057843Y0130464D01*
X0057879Y0130506D01*
X0057912Y0130551D01*
X0057941Y0130599D01*
X0057967Y0130648D01*
X0057990Y0130698D01*
X0058009Y0130751D01*
X0058024Y0130804D01*
X0058036Y0130859D01*
X0058044Y0130914D01*
X0058048Y0130969D01*
X0058048Y0131025D01*
X0058044Y0131080D01*
X0058036Y0131135D01*
X0058024Y0131190D01*
X0058009Y0131243D01*
X0057990Y0131296D01*
X0057967Y0131346D01*
X0057941Y0131396D01*
X0057912Y0131443D01*
X0057879Y0131488D01*
X0057843Y0131530D01*
X0057805Y0131570D01*
X0057763Y0131608D01*
X0057719Y0131642D01*
X0057673Y0131673D01*
X0057625Y0131701D01*
X0057575Y0131725D01*
X0057524Y0131746D01*
X0057471Y0131763D01*
X0057417Y0131777D01*
X0057362Y0131786D01*
X0057307Y0131792D01*
X0057251Y0131794D01*
X0059191Y0134300D02*
X0059418Y0134300D01*
X0059469Y0134298D01*
X0059520Y0134292D01*
X0059570Y0134283D01*
X0059619Y0134270D01*
X0059668Y0134253D01*
X0059714Y0134232D01*
X0059760Y0134208D01*
X0059803Y0134181D01*
X0059844Y0134151D01*
X0059883Y0134118D01*
X0059919Y0134082D01*
X0059952Y0134043D01*
X0059982Y0134002D01*
X0060009Y0133958D01*
X0060033Y0133913D01*
X0060054Y0133867D01*
X0060071Y0133818D01*
X0060084Y0133769D01*
X0060093Y0133719D01*
X0060099Y0133668D01*
X0060101Y0133617D01*
D12*
X0007869Y0250000D02*
X0007871Y0250174D01*
X0007878Y0250348D01*
X0007888Y0250521D01*
X0007903Y0250695D01*
X0007922Y0250868D01*
X0007946Y0251040D01*
X0007973Y0251212D01*
X0008005Y0251383D01*
X0008041Y0251553D01*
X0008081Y0251722D01*
X0008126Y0251890D01*
X0008174Y0252057D01*
X0008227Y0252223D01*
X0008283Y0252388D01*
X0008344Y0252551D01*
X0008408Y0252712D01*
X0008477Y0252872D01*
X0008549Y0253030D01*
X0008626Y0253186D01*
X0008706Y0253341D01*
X0008790Y0253493D01*
X0008877Y0253643D01*
X0008969Y0253792D01*
X0009063Y0253937D01*
X0009162Y0254081D01*
X0009264Y0254222D01*
X0009369Y0254360D01*
X0009478Y0254496D01*
X0009590Y0254629D01*
X0009705Y0254759D01*
X0009823Y0254887D01*
X0009945Y0255011D01*
X0010069Y0255133D01*
X0010197Y0255251D01*
X0010327Y0255366D01*
X0010460Y0255478D01*
X0010596Y0255587D01*
X0010734Y0255692D01*
X0010875Y0255794D01*
X0011019Y0255893D01*
X0011164Y0255987D01*
X0011313Y0256079D01*
X0011463Y0256166D01*
X0011615Y0256250D01*
X0011770Y0256330D01*
X0011926Y0256407D01*
X0012084Y0256479D01*
X0012244Y0256548D01*
X0012405Y0256612D01*
X0012568Y0256673D01*
X0012733Y0256729D01*
X0012899Y0256782D01*
X0013066Y0256830D01*
X0013234Y0256875D01*
X0013403Y0256915D01*
X0013573Y0256951D01*
X0013744Y0256983D01*
X0013916Y0257010D01*
X0014088Y0257034D01*
X0014261Y0257053D01*
X0014435Y0257068D01*
X0014608Y0257078D01*
X0014782Y0257085D01*
X0014956Y0257087D01*
X0015130Y0257085D01*
X0015304Y0257078D01*
X0015477Y0257068D01*
X0015651Y0257053D01*
X0015824Y0257034D01*
X0015996Y0257010D01*
X0016168Y0256983D01*
X0016339Y0256951D01*
X0016509Y0256915D01*
X0016678Y0256875D01*
X0016846Y0256830D01*
X0017013Y0256782D01*
X0017179Y0256729D01*
X0017344Y0256673D01*
X0017507Y0256612D01*
X0017668Y0256548D01*
X0017828Y0256479D01*
X0017986Y0256407D01*
X0018142Y0256330D01*
X0018297Y0256250D01*
X0018449Y0256166D01*
X0018599Y0256079D01*
X0018748Y0255987D01*
X0018893Y0255893D01*
X0019037Y0255794D01*
X0019178Y0255692D01*
X0019316Y0255587D01*
X0019452Y0255478D01*
X0019585Y0255366D01*
X0019715Y0255251D01*
X0019843Y0255133D01*
X0019967Y0255011D01*
X0020089Y0254887D01*
X0020207Y0254759D01*
X0020322Y0254629D01*
X0020434Y0254496D01*
X0020543Y0254360D01*
X0020648Y0254222D01*
X0020750Y0254081D01*
X0020849Y0253937D01*
X0020943Y0253792D01*
X0021035Y0253643D01*
X0021122Y0253493D01*
X0021206Y0253341D01*
X0021286Y0253186D01*
X0021363Y0253030D01*
X0021435Y0252872D01*
X0021504Y0252712D01*
X0021568Y0252551D01*
X0021629Y0252388D01*
X0021685Y0252223D01*
X0021738Y0252057D01*
X0021786Y0251890D01*
X0021831Y0251722D01*
X0021871Y0251553D01*
X0021907Y0251383D01*
X0021939Y0251212D01*
X0021966Y0251040D01*
X0021990Y0250868D01*
X0022009Y0250695D01*
X0022024Y0250521D01*
X0022034Y0250348D01*
X0022041Y0250174D01*
X0022043Y0250000D01*
X0022041Y0249826D01*
X0022034Y0249652D01*
X0022024Y0249479D01*
X0022009Y0249305D01*
X0021990Y0249132D01*
X0021966Y0248960D01*
X0021939Y0248788D01*
X0021907Y0248617D01*
X0021871Y0248447D01*
X0021831Y0248278D01*
X0021786Y0248110D01*
X0021738Y0247943D01*
X0021685Y0247777D01*
X0021629Y0247612D01*
X0021568Y0247449D01*
X0021504Y0247288D01*
X0021435Y0247128D01*
X0021363Y0246970D01*
X0021286Y0246814D01*
X0021206Y0246659D01*
X0021122Y0246507D01*
X0021035Y0246357D01*
X0020943Y0246208D01*
X0020849Y0246063D01*
X0020750Y0245919D01*
X0020648Y0245778D01*
X0020543Y0245640D01*
X0020434Y0245504D01*
X0020322Y0245371D01*
X0020207Y0245241D01*
X0020089Y0245113D01*
X0019967Y0244989D01*
X0019843Y0244867D01*
X0019715Y0244749D01*
X0019585Y0244634D01*
X0019452Y0244522D01*
X0019316Y0244413D01*
X0019178Y0244308D01*
X0019037Y0244206D01*
X0018893Y0244107D01*
X0018748Y0244013D01*
X0018599Y0243921D01*
X0018449Y0243834D01*
X0018297Y0243750D01*
X0018142Y0243670D01*
X0017986Y0243593D01*
X0017828Y0243521D01*
X0017668Y0243452D01*
X0017507Y0243388D01*
X0017344Y0243327D01*
X0017179Y0243271D01*
X0017013Y0243218D01*
X0016846Y0243170D01*
X0016678Y0243125D01*
X0016509Y0243085D01*
X0016339Y0243049D01*
X0016168Y0243017D01*
X0015996Y0242990D01*
X0015824Y0242966D01*
X0015651Y0242947D01*
X0015477Y0242932D01*
X0015304Y0242922D01*
X0015130Y0242915D01*
X0014956Y0242913D01*
X0014782Y0242915D01*
X0014608Y0242922D01*
X0014435Y0242932D01*
X0014261Y0242947D01*
X0014088Y0242966D01*
X0013916Y0242990D01*
X0013744Y0243017D01*
X0013573Y0243049D01*
X0013403Y0243085D01*
X0013234Y0243125D01*
X0013066Y0243170D01*
X0012899Y0243218D01*
X0012733Y0243271D01*
X0012568Y0243327D01*
X0012405Y0243388D01*
X0012244Y0243452D01*
X0012084Y0243521D01*
X0011926Y0243593D01*
X0011770Y0243670D01*
X0011615Y0243750D01*
X0011463Y0243834D01*
X0011313Y0243921D01*
X0011164Y0244013D01*
X0011019Y0244107D01*
X0010875Y0244206D01*
X0010734Y0244308D01*
X0010596Y0244413D01*
X0010460Y0244522D01*
X0010327Y0244634D01*
X0010197Y0244749D01*
X0010069Y0244867D01*
X0009945Y0244989D01*
X0009823Y0245113D01*
X0009705Y0245241D01*
X0009590Y0245371D01*
X0009478Y0245504D01*
X0009369Y0245640D01*
X0009264Y0245778D01*
X0009162Y0245919D01*
X0009063Y0246063D01*
X0008969Y0246208D01*
X0008877Y0246357D01*
X0008790Y0246507D01*
X0008706Y0246659D01*
X0008626Y0246814D01*
X0008549Y0246970D01*
X0008477Y0247128D01*
X0008408Y0247288D01*
X0008344Y0247449D01*
X0008283Y0247612D01*
X0008227Y0247777D01*
X0008174Y0247943D01*
X0008126Y0248110D01*
X0008081Y0248278D01*
X0008041Y0248447D01*
X0008005Y0248617D01*
X0007973Y0248788D01*
X0007946Y0248960D01*
X0007922Y0249132D01*
X0007903Y0249305D01*
X0007888Y0249479D01*
X0007878Y0249652D01*
X0007871Y0249826D01*
X0007869Y0250000D01*
X0120869Y0250000D02*
X0120871Y0250174D01*
X0120878Y0250348D01*
X0120888Y0250521D01*
X0120903Y0250695D01*
X0120922Y0250868D01*
X0120946Y0251040D01*
X0120973Y0251212D01*
X0121005Y0251383D01*
X0121041Y0251553D01*
X0121081Y0251722D01*
X0121126Y0251890D01*
X0121174Y0252057D01*
X0121227Y0252223D01*
X0121283Y0252388D01*
X0121344Y0252551D01*
X0121408Y0252712D01*
X0121477Y0252872D01*
X0121549Y0253030D01*
X0121626Y0253186D01*
X0121706Y0253341D01*
X0121790Y0253493D01*
X0121877Y0253643D01*
X0121969Y0253792D01*
X0122063Y0253937D01*
X0122162Y0254081D01*
X0122264Y0254222D01*
X0122369Y0254360D01*
X0122478Y0254496D01*
X0122590Y0254629D01*
X0122705Y0254759D01*
X0122823Y0254887D01*
X0122945Y0255011D01*
X0123069Y0255133D01*
X0123197Y0255251D01*
X0123327Y0255366D01*
X0123460Y0255478D01*
X0123596Y0255587D01*
X0123734Y0255692D01*
X0123875Y0255794D01*
X0124019Y0255893D01*
X0124164Y0255987D01*
X0124313Y0256079D01*
X0124463Y0256166D01*
X0124615Y0256250D01*
X0124770Y0256330D01*
X0124926Y0256407D01*
X0125084Y0256479D01*
X0125244Y0256548D01*
X0125405Y0256612D01*
X0125568Y0256673D01*
X0125733Y0256729D01*
X0125899Y0256782D01*
X0126066Y0256830D01*
X0126234Y0256875D01*
X0126403Y0256915D01*
X0126573Y0256951D01*
X0126744Y0256983D01*
X0126916Y0257010D01*
X0127088Y0257034D01*
X0127261Y0257053D01*
X0127435Y0257068D01*
X0127608Y0257078D01*
X0127782Y0257085D01*
X0127956Y0257087D01*
X0128130Y0257085D01*
X0128304Y0257078D01*
X0128477Y0257068D01*
X0128651Y0257053D01*
X0128824Y0257034D01*
X0128996Y0257010D01*
X0129168Y0256983D01*
X0129339Y0256951D01*
X0129509Y0256915D01*
X0129678Y0256875D01*
X0129846Y0256830D01*
X0130013Y0256782D01*
X0130179Y0256729D01*
X0130344Y0256673D01*
X0130507Y0256612D01*
X0130668Y0256548D01*
X0130828Y0256479D01*
X0130986Y0256407D01*
X0131142Y0256330D01*
X0131297Y0256250D01*
X0131449Y0256166D01*
X0131599Y0256079D01*
X0131748Y0255987D01*
X0131893Y0255893D01*
X0132037Y0255794D01*
X0132178Y0255692D01*
X0132316Y0255587D01*
X0132452Y0255478D01*
X0132585Y0255366D01*
X0132715Y0255251D01*
X0132843Y0255133D01*
X0132967Y0255011D01*
X0133089Y0254887D01*
X0133207Y0254759D01*
X0133322Y0254629D01*
X0133434Y0254496D01*
X0133543Y0254360D01*
X0133648Y0254222D01*
X0133750Y0254081D01*
X0133849Y0253937D01*
X0133943Y0253792D01*
X0134035Y0253643D01*
X0134122Y0253493D01*
X0134206Y0253341D01*
X0134286Y0253186D01*
X0134363Y0253030D01*
X0134435Y0252872D01*
X0134504Y0252712D01*
X0134568Y0252551D01*
X0134629Y0252388D01*
X0134685Y0252223D01*
X0134738Y0252057D01*
X0134786Y0251890D01*
X0134831Y0251722D01*
X0134871Y0251553D01*
X0134907Y0251383D01*
X0134939Y0251212D01*
X0134966Y0251040D01*
X0134990Y0250868D01*
X0135009Y0250695D01*
X0135024Y0250521D01*
X0135034Y0250348D01*
X0135041Y0250174D01*
X0135043Y0250000D01*
X0135041Y0249826D01*
X0135034Y0249652D01*
X0135024Y0249479D01*
X0135009Y0249305D01*
X0134990Y0249132D01*
X0134966Y0248960D01*
X0134939Y0248788D01*
X0134907Y0248617D01*
X0134871Y0248447D01*
X0134831Y0248278D01*
X0134786Y0248110D01*
X0134738Y0247943D01*
X0134685Y0247777D01*
X0134629Y0247612D01*
X0134568Y0247449D01*
X0134504Y0247288D01*
X0134435Y0247128D01*
X0134363Y0246970D01*
X0134286Y0246814D01*
X0134206Y0246659D01*
X0134122Y0246507D01*
X0134035Y0246357D01*
X0133943Y0246208D01*
X0133849Y0246063D01*
X0133750Y0245919D01*
X0133648Y0245778D01*
X0133543Y0245640D01*
X0133434Y0245504D01*
X0133322Y0245371D01*
X0133207Y0245241D01*
X0133089Y0245113D01*
X0132967Y0244989D01*
X0132843Y0244867D01*
X0132715Y0244749D01*
X0132585Y0244634D01*
X0132452Y0244522D01*
X0132316Y0244413D01*
X0132178Y0244308D01*
X0132037Y0244206D01*
X0131893Y0244107D01*
X0131748Y0244013D01*
X0131599Y0243921D01*
X0131449Y0243834D01*
X0131297Y0243750D01*
X0131142Y0243670D01*
X0130986Y0243593D01*
X0130828Y0243521D01*
X0130668Y0243452D01*
X0130507Y0243388D01*
X0130344Y0243327D01*
X0130179Y0243271D01*
X0130013Y0243218D01*
X0129846Y0243170D01*
X0129678Y0243125D01*
X0129509Y0243085D01*
X0129339Y0243049D01*
X0129168Y0243017D01*
X0128996Y0242990D01*
X0128824Y0242966D01*
X0128651Y0242947D01*
X0128477Y0242932D01*
X0128304Y0242922D01*
X0128130Y0242915D01*
X0127956Y0242913D01*
X0127782Y0242915D01*
X0127608Y0242922D01*
X0127435Y0242932D01*
X0127261Y0242947D01*
X0127088Y0242966D01*
X0126916Y0242990D01*
X0126744Y0243017D01*
X0126573Y0243049D01*
X0126403Y0243085D01*
X0126234Y0243125D01*
X0126066Y0243170D01*
X0125899Y0243218D01*
X0125733Y0243271D01*
X0125568Y0243327D01*
X0125405Y0243388D01*
X0125244Y0243452D01*
X0125084Y0243521D01*
X0124926Y0243593D01*
X0124770Y0243670D01*
X0124615Y0243750D01*
X0124463Y0243834D01*
X0124313Y0243921D01*
X0124164Y0244013D01*
X0124019Y0244107D01*
X0123875Y0244206D01*
X0123734Y0244308D01*
X0123596Y0244413D01*
X0123460Y0244522D01*
X0123327Y0244634D01*
X0123197Y0244749D01*
X0123069Y0244867D01*
X0122945Y0244989D01*
X0122823Y0245113D01*
X0122705Y0245241D01*
X0122590Y0245371D01*
X0122478Y0245504D01*
X0122369Y0245640D01*
X0122264Y0245778D01*
X0122162Y0245919D01*
X0122063Y0246063D01*
X0121969Y0246208D01*
X0121877Y0246357D01*
X0121790Y0246507D01*
X0121706Y0246659D01*
X0121626Y0246814D01*
X0121549Y0246970D01*
X0121477Y0247128D01*
X0121408Y0247288D01*
X0121344Y0247449D01*
X0121283Y0247612D01*
X0121227Y0247777D01*
X0121174Y0247943D01*
X0121126Y0248110D01*
X0121081Y0248278D01*
X0121041Y0248447D01*
X0121005Y0248617D01*
X0120973Y0248788D01*
X0120946Y0248960D01*
X0120922Y0249132D01*
X0120903Y0249305D01*
X0120888Y0249479D01*
X0120878Y0249652D01*
X0120871Y0249826D01*
X0120869Y0250000D01*
X0120869Y0015000D02*
X0120871Y0015174D01*
X0120878Y0015348D01*
X0120888Y0015521D01*
X0120903Y0015695D01*
X0120922Y0015868D01*
X0120946Y0016040D01*
X0120973Y0016212D01*
X0121005Y0016383D01*
X0121041Y0016553D01*
X0121081Y0016722D01*
X0121126Y0016890D01*
X0121174Y0017057D01*
X0121227Y0017223D01*
X0121283Y0017388D01*
X0121344Y0017551D01*
X0121408Y0017712D01*
X0121477Y0017872D01*
X0121549Y0018030D01*
X0121626Y0018186D01*
X0121706Y0018341D01*
X0121790Y0018493D01*
X0121877Y0018643D01*
X0121969Y0018792D01*
X0122063Y0018937D01*
X0122162Y0019081D01*
X0122264Y0019222D01*
X0122369Y0019360D01*
X0122478Y0019496D01*
X0122590Y0019629D01*
X0122705Y0019759D01*
X0122823Y0019887D01*
X0122945Y0020011D01*
X0123069Y0020133D01*
X0123197Y0020251D01*
X0123327Y0020366D01*
X0123460Y0020478D01*
X0123596Y0020587D01*
X0123734Y0020692D01*
X0123875Y0020794D01*
X0124019Y0020893D01*
X0124164Y0020987D01*
X0124313Y0021079D01*
X0124463Y0021166D01*
X0124615Y0021250D01*
X0124770Y0021330D01*
X0124926Y0021407D01*
X0125084Y0021479D01*
X0125244Y0021548D01*
X0125405Y0021612D01*
X0125568Y0021673D01*
X0125733Y0021729D01*
X0125899Y0021782D01*
X0126066Y0021830D01*
X0126234Y0021875D01*
X0126403Y0021915D01*
X0126573Y0021951D01*
X0126744Y0021983D01*
X0126916Y0022010D01*
X0127088Y0022034D01*
X0127261Y0022053D01*
X0127435Y0022068D01*
X0127608Y0022078D01*
X0127782Y0022085D01*
X0127956Y0022087D01*
X0128130Y0022085D01*
X0128304Y0022078D01*
X0128477Y0022068D01*
X0128651Y0022053D01*
X0128824Y0022034D01*
X0128996Y0022010D01*
X0129168Y0021983D01*
X0129339Y0021951D01*
X0129509Y0021915D01*
X0129678Y0021875D01*
X0129846Y0021830D01*
X0130013Y0021782D01*
X0130179Y0021729D01*
X0130344Y0021673D01*
X0130507Y0021612D01*
X0130668Y0021548D01*
X0130828Y0021479D01*
X0130986Y0021407D01*
X0131142Y0021330D01*
X0131297Y0021250D01*
X0131449Y0021166D01*
X0131599Y0021079D01*
X0131748Y0020987D01*
X0131893Y0020893D01*
X0132037Y0020794D01*
X0132178Y0020692D01*
X0132316Y0020587D01*
X0132452Y0020478D01*
X0132585Y0020366D01*
X0132715Y0020251D01*
X0132843Y0020133D01*
X0132967Y0020011D01*
X0133089Y0019887D01*
X0133207Y0019759D01*
X0133322Y0019629D01*
X0133434Y0019496D01*
X0133543Y0019360D01*
X0133648Y0019222D01*
X0133750Y0019081D01*
X0133849Y0018937D01*
X0133943Y0018792D01*
X0134035Y0018643D01*
X0134122Y0018493D01*
X0134206Y0018341D01*
X0134286Y0018186D01*
X0134363Y0018030D01*
X0134435Y0017872D01*
X0134504Y0017712D01*
X0134568Y0017551D01*
X0134629Y0017388D01*
X0134685Y0017223D01*
X0134738Y0017057D01*
X0134786Y0016890D01*
X0134831Y0016722D01*
X0134871Y0016553D01*
X0134907Y0016383D01*
X0134939Y0016212D01*
X0134966Y0016040D01*
X0134990Y0015868D01*
X0135009Y0015695D01*
X0135024Y0015521D01*
X0135034Y0015348D01*
X0135041Y0015174D01*
X0135043Y0015000D01*
X0135041Y0014826D01*
X0135034Y0014652D01*
X0135024Y0014479D01*
X0135009Y0014305D01*
X0134990Y0014132D01*
X0134966Y0013960D01*
X0134939Y0013788D01*
X0134907Y0013617D01*
X0134871Y0013447D01*
X0134831Y0013278D01*
X0134786Y0013110D01*
X0134738Y0012943D01*
X0134685Y0012777D01*
X0134629Y0012612D01*
X0134568Y0012449D01*
X0134504Y0012288D01*
X0134435Y0012128D01*
X0134363Y0011970D01*
X0134286Y0011814D01*
X0134206Y0011659D01*
X0134122Y0011507D01*
X0134035Y0011357D01*
X0133943Y0011208D01*
X0133849Y0011063D01*
X0133750Y0010919D01*
X0133648Y0010778D01*
X0133543Y0010640D01*
X0133434Y0010504D01*
X0133322Y0010371D01*
X0133207Y0010241D01*
X0133089Y0010113D01*
X0132967Y0009989D01*
X0132843Y0009867D01*
X0132715Y0009749D01*
X0132585Y0009634D01*
X0132452Y0009522D01*
X0132316Y0009413D01*
X0132178Y0009308D01*
X0132037Y0009206D01*
X0131893Y0009107D01*
X0131748Y0009013D01*
X0131599Y0008921D01*
X0131449Y0008834D01*
X0131297Y0008750D01*
X0131142Y0008670D01*
X0130986Y0008593D01*
X0130828Y0008521D01*
X0130668Y0008452D01*
X0130507Y0008388D01*
X0130344Y0008327D01*
X0130179Y0008271D01*
X0130013Y0008218D01*
X0129846Y0008170D01*
X0129678Y0008125D01*
X0129509Y0008085D01*
X0129339Y0008049D01*
X0129168Y0008017D01*
X0128996Y0007990D01*
X0128824Y0007966D01*
X0128651Y0007947D01*
X0128477Y0007932D01*
X0128304Y0007922D01*
X0128130Y0007915D01*
X0127956Y0007913D01*
X0127782Y0007915D01*
X0127608Y0007922D01*
X0127435Y0007932D01*
X0127261Y0007947D01*
X0127088Y0007966D01*
X0126916Y0007990D01*
X0126744Y0008017D01*
X0126573Y0008049D01*
X0126403Y0008085D01*
X0126234Y0008125D01*
X0126066Y0008170D01*
X0125899Y0008218D01*
X0125733Y0008271D01*
X0125568Y0008327D01*
X0125405Y0008388D01*
X0125244Y0008452D01*
X0125084Y0008521D01*
X0124926Y0008593D01*
X0124770Y0008670D01*
X0124615Y0008750D01*
X0124463Y0008834D01*
X0124313Y0008921D01*
X0124164Y0009013D01*
X0124019Y0009107D01*
X0123875Y0009206D01*
X0123734Y0009308D01*
X0123596Y0009413D01*
X0123460Y0009522D01*
X0123327Y0009634D01*
X0123197Y0009749D01*
X0123069Y0009867D01*
X0122945Y0009989D01*
X0122823Y0010113D01*
X0122705Y0010241D01*
X0122590Y0010371D01*
X0122478Y0010504D01*
X0122369Y0010640D01*
X0122264Y0010778D01*
X0122162Y0010919D01*
X0122063Y0011063D01*
X0121969Y0011208D01*
X0121877Y0011357D01*
X0121790Y0011507D01*
X0121706Y0011659D01*
X0121626Y0011814D01*
X0121549Y0011970D01*
X0121477Y0012128D01*
X0121408Y0012288D01*
X0121344Y0012449D01*
X0121283Y0012612D01*
X0121227Y0012777D01*
X0121174Y0012943D01*
X0121126Y0013110D01*
X0121081Y0013278D01*
X0121041Y0013447D01*
X0121005Y0013617D01*
X0120973Y0013788D01*
X0120946Y0013960D01*
X0120922Y0014132D01*
X0120903Y0014305D01*
X0120888Y0014479D01*
X0120878Y0014652D01*
X0120871Y0014826D01*
X0120869Y0015000D01*
X0007869Y0015000D02*
X0007871Y0015174D01*
X0007878Y0015348D01*
X0007888Y0015521D01*
X0007903Y0015695D01*
X0007922Y0015868D01*
X0007946Y0016040D01*
X0007973Y0016212D01*
X0008005Y0016383D01*
X0008041Y0016553D01*
X0008081Y0016722D01*
X0008126Y0016890D01*
X0008174Y0017057D01*
X0008227Y0017223D01*
X0008283Y0017388D01*
X0008344Y0017551D01*
X0008408Y0017712D01*
X0008477Y0017872D01*
X0008549Y0018030D01*
X0008626Y0018186D01*
X0008706Y0018341D01*
X0008790Y0018493D01*
X0008877Y0018643D01*
X0008969Y0018792D01*
X0009063Y0018937D01*
X0009162Y0019081D01*
X0009264Y0019222D01*
X0009369Y0019360D01*
X0009478Y0019496D01*
X0009590Y0019629D01*
X0009705Y0019759D01*
X0009823Y0019887D01*
X0009945Y0020011D01*
X0010069Y0020133D01*
X0010197Y0020251D01*
X0010327Y0020366D01*
X0010460Y0020478D01*
X0010596Y0020587D01*
X0010734Y0020692D01*
X0010875Y0020794D01*
X0011019Y0020893D01*
X0011164Y0020987D01*
X0011313Y0021079D01*
X0011463Y0021166D01*
X0011615Y0021250D01*
X0011770Y0021330D01*
X0011926Y0021407D01*
X0012084Y0021479D01*
X0012244Y0021548D01*
X0012405Y0021612D01*
X0012568Y0021673D01*
X0012733Y0021729D01*
X0012899Y0021782D01*
X0013066Y0021830D01*
X0013234Y0021875D01*
X0013403Y0021915D01*
X0013573Y0021951D01*
X0013744Y0021983D01*
X0013916Y0022010D01*
X0014088Y0022034D01*
X0014261Y0022053D01*
X0014435Y0022068D01*
X0014608Y0022078D01*
X0014782Y0022085D01*
X0014956Y0022087D01*
X0015130Y0022085D01*
X0015304Y0022078D01*
X0015477Y0022068D01*
X0015651Y0022053D01*
X0015824Y0022034D01*
X0015996Y0022010D01*
X0016168Y0021983D01*
X0016339Y0021951D01*
X0016509Y0021915D01*
X0016678Y0021875D01*
X0016846Y0021830D01*
X0017013Y0021782D01*
X0017179Y0021729D01*
X0017344Y0021673D01*
X0017507Y0021612D01*
X0017668Y0021548D01*
X0017828Y0021479D01*
X0017986Y0021407D01*
X0018142Y0021330D01*
X0018297Y0021250D01*
X0018449Y0021166D01*
X0018599Y0021079D01*
X0018748Y0020987D01*
X0018893Y0020893D01*
X0019037Y0020794D01*
X0019178Y0020692D01*
X0019316Y0020587D01*
X0019452Y0020478D01*
X0019585Y0020366D01*
X0019715Y0020251D01*
X0019843Y0020133D01*
X0019967Y0020011D01*
X0020089Y0019887D01*
X0020207Y0019759D01*
X0020322Y0019629D01*
X0020434Y0019496D01*
X0020543Y0019360D01*
X0020648Y0019222D01*
X0020750Y0019081D01*
X0020849Y0018937D01*
X0020943Y0018792D01*
X0021035Y0018643D01*
X0021122Y0018493D01*
X0021206Y0018341D01*
X0021286Y0018186D01*
X0021363Y0018030D01*
X0021435Y0017872D01*
X0021504Y0017712D01*
X0021568Y0017551D01*
X0021629Y0017388D01*
X0021685Y0017223D01*
X0021738Y0017057D01*
X0021786Y0016890D01*
X0021831Y0016722D01*
X0021871Y0016553D01*
X0021907Y0016383D01*
X0021939Y0016212D01*
X0021966Y0016040D01*
X0021990Y0015868D01*
X0022009Y0015695D01*
X0022024Y0015521D01*
X0022034Y0015348D01*
X0022041Y0015174D01*
X0022043Y0015000D01*
X0022041Y0014826D01*
X0022034Y0014652D01*
X0022024Y0014479D01*
X0022009Y0014305D01*
X0021990Y0014132D01*
X0021966Y0013960D01*
X0021939Y0013788D01*
X0021907Y0013617D01*
X0021871Y0013447D01*
X0021831Y0013278D01*
X0021786Y0013110D01*
X0021738Y0012943D01*
X0021685Y0012777D01*
X0021629Y0012612D01*
X0021568Y0012449D01*
X0021504Y0012288D01*
X0021435Y0012128D01*
X0021363Y0011970D01*
X0021286Y0011814D01*
X0021206Y0011659D01*
X0021122Y0011507D01*
X0021035Y0011357D01*
X0020943Y0011208D01*
X0020849Y0011063D01*
X0020750Y0010919D01*
X0020648Y0010778D01*
X0020543Y0010640D01*
X0020434Y0010504D01*
X0020322Y0010371D01*
X0020207Y0010241D01*
X0020089Y0010113D01*
X0019967Y0009989D01*
X0019843Y0009867D01*
X0019715Y0009749D01*
X0019585Y0009634D01*
X0019452Y0009522D01*
X0019316Y0009413D01*
X0019178Y0009308D01*
X0019037Y0009206D01*
X0018893Y0009107D01*
X0018748Y0009013D01*
X0018599Y0008921D01*
X0018449Y0008834D01*
X0018297Y0008750D01*
X0018142Y0008670D01*
X0017986Y0008593D01*
X0017828Y0008521D01*
X0017668Y0008452D01*
X0017507Y0008388D01*
X0017344Y0008327D01*
X0017179Y0008271D01*
X0017013Y0008218D01*
X0016846Y0008170D01*
X0016678Y0008125D01*
X0016509Y0008085D01*
X0016339Y0008049D01*
X0016168Y0008017D01*
X0015996Y0007990D01*
X0015824Y0007966D01*
X0015651Y0007947D01*
X0015477Y0007932D01*
X0015304Y0007922D01*
X0015130Y0007915D01*
X0014956Y0007913D01*
X0014782Y0007915D01*
X0014608Y0007922D01*
X0014435Y0007932D01*
X0014261Y0007947D01*
X0014088Y0007966D01*
X0013916Y0007990D01*
X0013744Y0008017D01*
X0013573Y0008049D01*
X0013403Y0008085D01*
X0013234Y0008125D01*
X0013066Y0008170D01*
X0012899Y0008218D01*
X0012733Y0008271D01*
X0012568Y0008327D01*
X0012405Y0008388D01*
X0012244Y0008452D01*
X0012084Y0008521D01*
X0011926Y0008593D01*
X0011770Y0008670D01*
X0011615Y0008750D01*
X0011463Y0008834D01*
X0011313Y0008921D01*
X0011164Y0009013D01*
X0011019Y0009107D01*
X0010875Y0009206D01*
X0010734Y0009308D01*
X0010596Y0009413D01*
X0010460Y0009522D01*
X0010327Y0009634D01*
X0010197Y0009749D01*
X0010069Y0009867D01*
X0009945Y0009989D01*
X0009823Y0010113D01*
X0009705Y0010241D01*
X0009590Y0010371D01*
X0009478Y0010504D01*
X0009369Y0010640D01*
X0009264Y0010778D01*
X0009162Y0010919D01*
X0009063Y0011063D01*
X0008969Y0011208D01*
X0008877Y0011357D01*
X0008790Y0011507D01*
X0008706Y0011659D01*
X0008626Y0011814D01*
X0008549Y0011970D01*
X0008477Y0012128D01*
X0008408Y0012288D01*
X0008344Y0012449D01*
X0008283Y0012612D01*
X0008227Y0012777D01*
X0008174Y0012943D01*
X0008126Y0013110D01*
X0008081Y0013278D01*
X0008041Y0013447D01*
X0008005Y0013617D01*
X0007973Y0013788D01*
X0007946Y0013960D01*
X0007922Y0014132D01*
X0007903Y0014305D01*
X0007888Y0014479D01*
X0007878Y0014652D01*
X0007871Y0014826D01*
X0007869Y0015000D01*
D13*
X0027456Y0139000D02*
X0101456Y0139000D01*
X0101456Y0255000D01*
X0027456Y0255000D01*
X0027456Y0139000D01*
X0029456Y0246000D02*
X0039456Y0246000D01*
X0044456Y0251000D01*
X0049456Y0246000D01*
X0059456Y0246000D01*
X0064456Y0251000D01*
X0069456Y0246000D01*
X0079456Y0246000D01*
X0084456Y0251000D01*
X0089456Y0246000D01*
X0099456Y0246000D01*
D14*
X0072956Y0061000D02*
X0067956Y0061000D01*
M02*
