G75*
%MOIN*%
%OFA0B0*%
%FSLAX25Y25*%
%IPPOS*%
%LPD*%
%AMOC8*
5,1,8,0,0,1.08239X$1,22.5*
%
%ADD10C,0.02000*%
%ADD11C,0.00000*%
%ADD12R,0.09300X0.09300*%
%ADD13C,0.07400*%
%ADD14R,0.05543X0.05543*%
%ADD15C,0.03000*%
%ADD16C,0.02578*%
%ADD17C,0.03200*%
D10*
X0002456Y0003000D02*
X0139456Y0002000D01*
X0139456Y0264000D01*
X0002456Y0264000D01*
X0002456Y0003000D01*
X0005956Y0018323D02*
X0005956Y0246677D01*
X0006829Y0244570D01*
X0009526Y0241873D01*
X0013049Y0240413D01*
X0016863Y0240413D01*
X0020386Y0241873D01*
X0023083Y0244570D01*
X0024543Y0248093D01*
X0024543Y0251907D01*
X0023083Y0255430D01*
X0020386Y0258127D01*
X0016863Y0259587D01*
X0013049Y0259587D01*
X0009526Y0258127D01*
X0006829Y0255430D01*
X0005956Y0253323D01*
X0005956Y0260500D01*
X0135956Y0260500D01*
X0135956Y0255557D01*
X0133386Y0258127D01*
X0129863Y0259587D01*
X0126049Y0259587D01*
X0122526Y0258127D01*
X0119829Y0255430D01*
X0118369Y0251907D01*
X0118369Y0248093D01*
X0119829Y0244570D01*
X0122526Y0241873D01*
X0126049Y0240413D01*
X0129863Y0240413D01*
X0133386Y0241873D01*
X0135956Y0244442D01*
X0135956Y0020557D01*
X0133386Y0023127D01*
X0129863Y0024587D01*
X0126049Y0024587D01*
X0122526Y0023127D01*
X0119829Y0020430D01*
X0118369Y0016907D01*
X0118369Y0013093D01*
X0119829Y0009570D01*
X0122526Y0006873D01*
X0125596Y0005601D01*
X0115931Y0005672D01*
X0115456Y0009000D01*
X0110456Y0056000D01*
X0058456Y0056000D01*
X0054691Y0006119D01*
X0019191Y0006378D01*
X0020386Y0006873D01*
X0023083Y0009570D01*
X0024543Y0013093D01*
X0024543Y0016907D01*
X0023083Y0020430D01*
X0020386Y0023127D01*
X0016863Y0024587D01*
X0013049Y0024587D01*
X0009526Y0023127D01*
X0006829Y0020430D01*
X0005956Y0018323D01*
X0005956Y0019987D02*
X0006645Y0019987D01*
X0005956Y0021985D02*
X0008384Y0021985D01*
X0005956Y0023984D02*
X0011593Y0023984D01*
X0005956Y0025982D02*
X0056190Y0025982D01*
X0056040Y0023984D02*
X0018319Y0023984D01*
X0021528Y0021985D02*
X0055889Y0021985D01*
X0055738Y0019987D02*
X0023267Y0019987D01*
X0024095Y0017988D02*
X0055587Y0017988D01*
X0055436Y0015990D02*
X0024543Y0015990D01*
X0024543Y0013991D02*
X0055286Y0013991D01*
X0055135Y0011993D02*
X0024087Y0011993D01*
X0023259Y0009994D02*
X0054984Y0009994D01*
X0054833Y0007996D02*
X0021509Y0007996D01*
X0031268Y0027718D02*
X0030469Y0028125D01*
X0029743Y0028652D01*
X0029108Y0029287D01*
X0028581Y0030013D01*
X0028174Y0030812D01*
X0027896Y0031665D01*
X0027756Y0032551D01*
X0027756Y0033000D01*
X0033456Y0033000D01*
X0033456Y0044000D01*
X0031456Y0046000D01*
X0030456Y0046000D01*
X0030456Y0054000D01*
X0041456Y0070000D01*
X0053456Y0070000D01*
X0054956Y0069949D02*
X0005956Y0069949D01*
X0005956Y0067951D02*
X0054956Y0067951D01*
X0054956Y0065952D02*
X0005956Y0065952D01*
X0005956Y0063954D02*
X0054460Y0063954D01*
X0054956Y0064450D02*
X0041473Y0050967D01*
X0040489Y0049983D01*
X0039956Y0048696D01*
X0039956Y0038261D01*
X0039944Y0038256D01*
X0038200Y0036512D01*
X0038109Y0036293D01*
X0037804Y0036713D01*
X0037169Y0037348D01*
X0036443Y0037875D01*
X0035644Y0038282D01*
X0034791Y0038560D01*
X0033905Y0038700D01*
X0033456Y0038700D01*
X0033456Y0033000D01*
X0033456Y0033000D01*
X0033456Y0027300D01*
X0033905Y0027300D01*
X0034791Y0027440D01*
X0035644Y0027718D01*
X0036443Y0028125D01*
X0037169Y0028652D01*
X0037804Y0029287D01*
X0038109Y0029707D01*
X0038200Y0029488D01*
X0039944Y0027744D01*
X0042223Y0026800D01*
X0044689Y0026800D01*
X0046968Y0027744D01*
X0048712Y0029488D01*
X0049656Y0031767D01*
X0049656Y0034233D01*
X0048712Y0036512D01*
X0046968Y0038256D01*
X0046956Y0038261D01*
X0046956Y0046550D01*
X0061423Y0061017D01*
X0061956Y0062304D01*
X0061956Y0078550D01*
X0064906Y0081500D01*
X0066188Y0081500D01*
X0065200Y0080512D01*
X0064256Y0078233D01*
X0064256Y0075767D01*
X0065200Y0073488D01*
X0066688Y0072000D01*
X0065200Y0070512D01*
X0064256Y0068233D01*
X0064256Y0065767D01*
X0065200Y0063488D01*
X0066944Y0061744D01*
X0069223Y0060800D01*
X0071689Y0060800D01*
X0073968Y0061744D01*
X0075456Y0063232D01*
X0076944Y0061744D01*
X0079223Y0060800D01*
X0081689Y0060800D01*
X0083968Y0061744D01*
X0085456Y0063232D01*
X0086944Y0061744D01*
X0089223Y0060800D01*
X0091689Y0060800D01*
X0093968Y0061744D01*
X0095712Y0063488D01*
X0095803Y0063707D01*
X0096108Y0063287D01*
X0096743Y0062652D01*
X0097469Y0062125D01*
X0098268Y0061718D01*
X0099121Y0061440D01*
X0100007Y0061300D01*
X0100456Y0061300D01*
X0100905Y0061300D01*
X0101791Y0061440D01*
X0102644Y0061718D01*
X0103443Y0062125D01*
X0104169Y0062652D01*
X0104804Y0063287D01*
X0105331Y0064013D01*
X0105738Y0064812D01*
X0106016Y0065665D01*
X0106156Y0066551D01*
X0106156Y0067000D01*
X0106156Y0067449D01*
X0106016Y0068335D01*
X0105738Y0069188D01*
X0105331Y0069987D01*
X0104804Y0070713D01*
X0104169Y0071348D01*
X0103749Y0071653D01*
X0103968Y0071744D01*
X0105712Y0073488D01*
X0106656Y0075767D01*
X0106656Y0078233D01*
X0105712Y0080512D01*
X0103968Y0082256D01*
X0103956Y0082261D01*
X0103956Y0082696D01*
X0103423Y0083983D01*
X0100423Y0086983D01*
X0099439Y0087967D01*
X0098152Y0088500D01*
X0062760Y0088500D01*
X0061473Y0087967D01*
X0056473Y0082967D01*
X0055489Y0081983D01*
X0054956Y0080696D01*
X0054956Y0064450D01*
X0052462Y0061955D02*
X0005956Y0061955D01*
X0005956Y0059957D02*
X0050463Y0059957D01*
X0048465Y0057958D02*
X0005956Y0057958D01*
X0005956Y0055960D02*
X0046466Y0055960D01*
X0044468Y0053961D02*
X0005956Y0053961D01*
X0005956Y0051963D02*
X0042469Y0051963D01*
X0043456Y0048000D02*
X0043456Y0033000D01*
X0039661Y0037973D02*
X0036251Y0037973D01*
X0033456Y0037973D02*
X0033456Y0037973D01*
X0033456Y0038700D02*
X0033007Y0038700D01*
X0032121Y0038560D01*
X0031268Y0038282D01*
X0030469Y0037875D01*
X0029743Y0037348D01*
X0029108Y0036713D01*
X0028581Y0035987D01*
X0028174Y0035188D01*
X0027896Y0034335D01*
X0027756Y0033449D01*
X0027756Y0033000D01*
X0033456Y0033000D01*
X0033456Y0033000D01*
X0033456Y0033000D01*
X0033456Y0038700D01*
X0033456Y0035975D02*
X0033456Y0035975D01*
X0033456Y0033976D02*
X0033456Y0033976D01*
X0033456Y0033000D02*
X0033456Y0027300D01*
X0033007Y0027300D01*
X0032121Y0027440D01*
X0031268Y0027718D01*
X0030752Y0027981D02*
X0005956Y0027981D01*
X0005956Y0029979D02*
X0028605Y0029979D01*
X0027847Y0031978D02*
X0005956Y0031978D01*
X0005956Y0033976D02*
X0027840Y0033976D01*
X0028574Y0035975D02*
X0005956Y0035975D01*
X0005956Y0037973D02*
X0030661Y0037973D01*
X0033456Y0031978D02*
X0033456Y0031978D01*
X0033456Y0029979D02*
X0033456Y0029979D01*
X0033456Y0027981D02*
X0033456Y0027981D01*
X0036160Y0027981D02*
X0039707Y0027981D01*
X0047205Y0027981D02*
X0056341Y0027981D01*
X0056492Y0029979D02*
X0048916Y0029979D01*
X0049656Y0031978D02*
X0056643Y0031978D01*
X0056794Y0033976D02*
X0049656Y0033976D01*
X0048935Y0035975D02*
X0056945Y0035975D01*
X0057095Y0037973D02*
X0047251Y0037973D01*
X0046956Y0039972D02*
X0057246Y0039972D01*
X0057397Y0041970D02*
X0046956Y0041970D01*
X0046956Y0043969D02*
X0057548Y0043969D01*
X0057699Y0045967D02*
X0046956Y0045967D01*
X0048371Y0047966D02*
X0057850Y0047966D01*
X0058000Y0049964D02*
X0050370Y0049964D01*
X0052369Y0051963D02*
X0058151Y0051963D01*
X0058302Y0053961D02*
X0054367Y0053961D01*
X0056366Y0055960D02*
X0058453Y0055960D01*
X0058364Y0057958D02*
X0135956Y0057958D01*
X0135956Y0055960D02*
X0110460Y0055960D01*
X0110673Y0053961D02*
X0135956Y0053961D01*
X0135956Y0051963D02*
X0110885Y0051963D01*
X0111098Y0049964D02*
X0135956Y0049964D01*
X0135956Y0047966D02*
X0111311Y0047966D01*
X0111523Y0045967D02*
X0135956Y0045967D01*
X0135956Y0043969D02*
X0111736Y0043969D01*
X0111949Y0041970D02*
X0135956Y0041970D01*
X0135956Y0039972D02*
X0112161Y0039972D01*
X0112374Y0037973D02*
X0135956Y0037973D01*
X0135956Y0035975D02*
X0112586Y0035975D01*
X0112799Y0033976D02*
X0135956Y0033976D01*
X0135956Y0031978D02*
X0113012Y0031978D01*
X0113224Y0029979D02*
X0135956Y0029979D01*
X0135956Y0027981D02*
X0113437Y0027981D01*
X0113649Y0025982D02*
X0135956Y0025982D01*
X0135956Y0023984D02*
X0131319Y0023984D01*
X0134528Y0021985D02*
X0135956Y0021985D01*
X0124593Y0023984D02*
X0113862Y0023984D01*
X0114075Y0021985D02*
X0121384Y0021985D01*
X0119645Y0019987D02*
X0114287Y0019987D01*
X0114500Y0017988D02*
X0118817Y0017988D01*
X0118369Y0015990D02*
X0114712Y0015990D01*
X0114925Y0013991D02*
X0118369Y0013991D01*
X0118825Y0011993D02*
X0115138Y0011993D01*
X0115350Y0009994D02*
X0119653Y0009994D01*
X0121403Y0007996D02*
X0115599Y0007996D01*
X0115885Y0005997D02*
X0124640Y0005997D01*
X0135956Y0059957D02*
X0060363Y0059957D01*
X0061812Y0061955D02*
X0066733Y0061955D01*
X0065007Y0063954D02*
X0061956Y0063954D01*
X0061956Y0065952D02*
X0064256Y0065952D01*
X0064256Y0067951D02*
X0061956Y0067951D01*
X0061956Y0069949D02*
X0064967Y0069949D01*
X0065010Y0073946D02*
X0061956Y0073946D01*
X0061956Y0071948D02*
X0066636Y0071948D01*
X0064256Y0075945D02*
X0061956Y0075945D01*
X0061956Y0077943D02*
X0064256Y0077943D01*
X0064964Y0079942D02*
X0063348Y0079942D01*
X0058456Y0080000D02*
X0063456Y0085000D01*
X0097456Y0085000D01*
X0100456Y0082000D01*
X0100456Y0077000D01*
X0104284Y0081940D02*
X0135956Y0081940D01*
X0135956Y0079942D02*
X0105948Y0079942D01*
X0106656Y0077943D02*
X0135956Y0077943D01*
X0135956Y0075945D02*
X0106656Y0075945D01*
X0105902Y0073946D02*
X0135956Y0073946D01*
X0135956Y0071948D02*
X0104172Y0071948D01*
X0105350Y0069949D02*
X0135956Y0069949D01*
X0135956Y0067951D02*
X0106076Y0067951D01*
X0106156Y0067000D02*
X0100456Y0067000D01*
X0100456Y0067000D01*
X0106156Y0067000D01*
X0106061Y0065952D02*
X0135956Y0065952D01*
X0135956Y0063954D02*
X0105288Y0063954D01*
X0103111Y0061955D02*
X0135956Y0061955D01*
X0135956Y0083939D02*
X0103441Y0083939D01*
X0101468Y0085937D02*
X0135956Y0085937D01*
X0135956Y0087936D02*
X0099470Y0087936D01*
X0100456Y0108000D02*
X0101456Y0108000D01*
X0101456Y0127000D02*
X0109456Y0127000D01*
X0101456Y0127000D02*
X0101456Y0141000D01*
X0100456Y0142000D01*
X0100456Y0145000D02*
X0094456Y0166000D01*
X0090825Y0162866D02*
X0091206Y0161947D01*
X0091206Y0151653D01*
X0090825Y0150734D01*
X0090122Y0150031D01*
X0089203Y0149650D01*
X0078909Y0149650D01*
X0077990Y0150031D01*
X0077287Y0150734D01*
X0076906Y0151653D01*
X0076906Y0161947D01*
X0077287Y0162866D01*
X0077990Y0163569D01*
X0078909Y0163950D01*
X0089203Y0163950D01*
X0090122Y0163569D01*
X0090825Y0162866D01*
X0091206Y0161881D02*
X0135956Y0161881D01*
X0135956Y0163879D02*
X0089374Y0163879D01*
X0091206Y0159882D02*
X0135956Y0159882D01*
X0135956Y0157884D02*
X0091206Y0157884D01*
X0091206Y0155885D02*
X0135956Y0155885D01*
X0135956Y0153887D02*
X0091206Y0153887D01*
X0091206Y0151888D02*
X0135956Y0151888D01*
X0135956Y0149890D02*
X0089782Y0149890D01*
X0089203Y0169450D02*
X0090122Y0169831D01*
X0090825Y0170534D01*
X0091206Y0171453D01*
X0091206Y0181747D01*
X0090825Y0182666D01*
X0090122Y0183369D01*
X0089203Y0183750D01*
X0078909Y0183750D01*
X0077990Y0183369D01*
X0077287Y0182666D01*
X0076906Y0181747D01*
X0076906Y0171453D01*
X0077287Y0170534D01*
X0077990Y0169831D01*
X0078909Y0169450D01*
X0089203Y0169450D01*
X0090166Y0169875D02*
X0135956Y0169875D01*
X0135956Y0171873D02*
X0091206Y0171873D01*
X0091206Y0173872D02*
X0135956Y0173872D01*
X0135956Y0175870D02*
X0091206Y0175870D01*
X0091206Y0177869D02*
X0135956Y0177869D01*
X0135956Y0179868D02*
X0091206Y0179868D01*
X0091157Y0181866D02*
X0135956Y0181866D01*
X0135956Y0183865D02*
X0005956Y0183865D01*
X0005956Y0185863D02*
X0135956Y0185863D01*
X0135956Y0187862D02*
X0005956Y0187862D01*
X0005956Y0189860D02*
X0039132Y0189860D01*
X0039034Y0189886D02*
X0039543Y0189750D01*
X0043906Y0189750D01*
X0043906Y0195850D01*
X0045006Y0195850D01*
X0045006Y0196950D01*
X0051106Y0196950D01*
X0051106Y0201313D01*
X0050970Y0201822D01*
X0050706Y0202278D01*
X0050334Y0202650D01*
X0049878Y0202914D01*
X0049369Y0203050D01*
X0045006Y0203050D01*
X0045006Y0196950D01*
X0043906Y0196950D01*
X0043906Y0203050D01*
X0039543Y0203050D01*
X0039034Y0202914D01*
X0038578Y0202650D01*
X0038206Y0202278D01*
X0037942Y0201822D01*
X0037806Y0201313D01*
X0037806Y0196950D01*
X0043906Y0196950D01*
X0043906Y0195850D01*
X0037806Y0195850D01*
X0037806Y0191487D01*
X0037942Y0190978D01*
X0038206Y0190522D01*
X0038578Y0190150D01*
X0039034Y0189886D01*
X0037806Y0191859D02*
X0005956Y0191859D01*
X0005956Y0193857D02*
X0037806Y0193857D01*
X0037806Y0197854D02*
X0005956Y0197854D01*
X0005956Y0195856D02*
X0043906Y0195856D01*
X0045006Y0195850D02*
X0045006Y0189750D01*
X0049369Y0189750D01*
X0049878Y0189886D01*
X0050334Y0190150D01*
X0050706Y0190522D01*
X0050970Y0190978D01*
X0051106Y0191487D01*
X0051106Y0195850D01*
X0045006Y0195850D01*
X0045006Y0195856D02*
X0057106Y0195856D01*
X0057106Y0197854D02*
X0051106Y0197854D01*
X0051106Y0199853D02*
X0057106Y0199853D01*
X0057106Y0201547D02*
X0057106Y0191253D01*
X0057487Y0190334D01*
X0058190Y0189631D01*
X0059109Y0189250D01*
X0069403Y0189250D01*
X0070322Y0189631D01*
X0071025Y0190334D01*
X0071406Y0191253D01*
X0071406Y0201547D01*
X0071025Y0202466D01*
X0070322Y0203169D01*
X0069403Y0203550D01*
X0059109Y0203550D01*
X0058190Y0203169D01*
X0057487Y0202466D01*
X0057106Y0201547D01*
X0057232Y0201851D02*
X0050953Y0201851D01*
X0049603Y0209050D02*
X0050522Y0209431D01*
X0051225Y0210134D01*
X0051606Y0211053D01*
X0051606Y0221347D01*
X0051225Y0222266D01*
X0050522Y0222969D01*
X0049603Y0223350D01*
X0039309Y0223350D01*
X0038390Y0222969D01*
X0037687Y0222266D01*
X0037306Y0221347D01*
X0037306Y0211053D01*
X0037687Y0210134D01*
X0038390Y0209431D01*
X0039309Y0209050D01*
X0049603Y0209050D01*
X0050937Y0209845D02*
X0057775Y0209845D01*
X0057487Y0210134D02*
X0058190Y0209431D01*
X0059109Y0209050D01*
X0069403Y0209050D01*
X0070322Y0209431D01*
X0071025Y0210134D01*
X0071406Y0211053D01*
X0071406Y0221347D01*
X0071025Y0222266D01*
X0070322Y0222969D01*
X0069403Y0223350D01*
X0059109Y0223350D01*
X0058190Y0222969D01*
X0057487Y0222266D01*
X0057106Y0221347D01*
X0057106Y0211053D01*
X0057487Y0210134D01*
X0057106Y0211844D02*
X0051606Y0211844D01*
X0051606Y0213842D02*
X0057106Y0213842D01*
X0057106Y0215841D02*
X0051606Y0215841D01*
X0051606Y0217839D02*
X0057106Y0217839D01*
X0057106Y0219838D02*
X0051606Y0219838D01*
X0051403Y0221836D02*
X0057309Y0221836D01*
X0059109Y0228850D02*
X0069403Y0228850D01*
X0070322Y0229231D01*
X0071025Y0229934D01*
X0071406Y0230853D01*
X0071406Y0241147D01*
X0071025Y0242066D01*
X0070322Y0242769D01*
X0069403Y0243150D01*
X0059109Y0243150D01*
X0058190Y0242769D01*
X0057487Y0242066D01*
X0057106Y0241147D01*
X0057106Y0230853D01*
X0057487Y0229934D01*
X0058190Y0229231D01*
X0059109Y0228850D01*
X0057590Y0229830D02*
X0051122Y0229830D01*
X0051225Y0229934D02*
X0051606Y0230853D01*
X0051606Y0241147D01*
X0051225Y0242066D01*
X0050522Y0242769D01*
X0049603Y0243150D01*
X0039309Y0243150D01*
X0038390Y0242769D01*
X0037687Y0242066D01*
X0037306Y0241147D01*
X0037306Y0230853D01*
X0037687Y0229934D01*
X0038390Y0229231D01*
X0039309Y0228850D01*
X0049603Y0228850D01*
X0050522Y0229231D01*
X0051225Y0229934D01*
X0051606Y0231829D02*
X0057106Y0231829D01*
X0057106Y0233827D02*
X0051606Y0233827D01*
X0051606Y0235826D02*
X0057106Y0235826D01*
X0057106Y0237824D02*
X0051606Y0237824D01*
X0051606Y0239823D02*
X0057106Y0239823D01*
X0057385Y0241821D02*
X0051327Y0241821D01*
X0037585Y0241821D02*
X0020262Y0241821D01*
X0022333Y0243820D02*
X0120579Y0243820D01*
X0119312Y0245818D02*
X0023600Y0245818D01*
X0024428Y0247817D02*
X0118484Y0247817D01*
X0118369Y0249815D02*
X0024543Y0249815D01*
X0024543Y0251814D02*
X0118369Y0251814D01*
X0119159Y0253812D02*
X0023753Y0253812D01*
X0022703Y0255811D02*
X0120209Y0255811D01*
X0122208Y0257809D02*
X0020704Y0257809D01*
X0009208Y0257809D02*
X0005956Y0257809D01*
X0005956Y0255811D02*
X0007209Y0255811D01*
X0006159Y0253812D02*
X0005956Y0253812D01*
X0005956Y0259808D02*
X0135956Y0259808D01*
X0135956Y0257809D02*
X0133704Y0257809D01*
X0135703Y0255811D02*
X0135956Y0255811D01*
X0135956Y0243820D02*
X0135333Y0243820D01*
X0135956Y0241821D02*
X0133262Y0241821D01*
X0135956Y0239823D02*
X0091206Y0239823D01*
X0091206Y0241147D02*
X0090825Y0242066D01*
X0090122Y0242769D01*
X0089203Y0243150D01*
X0078909Y0243150D01*
X0077990Y0242769D01*
X0077287Y0242066D01*
X0076906Y0241147D01*
X0076906Y0230853D01*
X0077287Y0229934D01*
X0077990Y0229231D01*
X0078909Y0228850D01*
X0089203Y0228850D01*
X0090122Y0229231D01*
X0090825Y0229934D01*
X0091206Y0230853D01*
X0091206Y0241147D01*
X0090927Y0241821D02*
X0122650Y0241821D01*
X0135956Y0237824D02*
X0091206Y0237824D01*
X0091206Y0235826D02*
X0135956Y0235826D01*
X0135956Y0233827D02*
X0091206Y0233827D01*
X0091206Y0231829D02*
X0135956Y0231829D01*
X0135956Y0229830D02*
X0090722Y0229830D01*
X0089203Y0223350D02*
X0078909Y0223350D01*
X0077990Y0222969D01*
X0077287Y0222266D01*
X0076906Y0221347D01*
X0076906Y0211053D01*
X0077287Y0210134D01*
X0077990Y0209431D01*
X0078909Y0209050D01*
X0089203Y0209050D01*
X0090122Y0209431D01*
X0090825Y0210134D01*
X0091206Y0211053D01*
X0091206Y0221347D01*
X0090825Y0222266D01*
X0090122Y0222969D01*
X0089203Y0223350D01*
X0091003Y0221836D02*
X0135956Y0221836D01*
X0135956Y0219838D02*
X0091206Y0219838D01*
X0091206Y0217839D02*
X0135956Y0217839D01*
X0135956Y0215841D02*
X0091206Y0215841D01*
X0091206Y0213842D02*
X0135956Y0213842D01*
X0135956Y0211844D02*
X0091206Y0211844D01*
X0090537Y0209845D02*
X0135956Y0209845D01*
X0135956Y0207847D02*
X0005956Y0207847D01*
X0005956Y0209845D02*
X0037975Y0209845D01*
X0037306Y0211844D02*
X0005956Y0211844D01*
X0005956Y0213842D02*
X0037306Y0213842D01*
X0037306Y0215841D02*
X0005956Y0215841D01*
X0005956Y0217839D02*
X0037306Y0217839D01*
X0037306Y0219838D02*
X0005956Y0219838D01*
X0005956Y0221836D02*
X0037509Y0221836D01*
X0037790Y0229830D02*
X0005956Y0229830D01*
X0005956Y0227832D02*
X0135956Y0227832D01*
X0135956Y0225833D02*
X0005956Y0225833D01*
X0005956Y0223835D02*
X0135956Y0223835D01*
X0135956Y0205848D02*
X0005956Y0205848D01*
X0005956Y0203850D02*
X0135956Y0203850D01*
X0135956Y0201851D02*
X0091080Y0201851D01*
X0091206Y0201547D02*
X0090825Y0202466D01*
X0090122Y0203169D01*
X0089203Y0203550D01*
X0078909Y0203550D01*
X0077990Y0203169D01*
X0077287Y0202466D01*
X0076906Y0201547D01*
X0076906Y0191253D01*
X0077287Y0190334D01*
X0077990Y0189631D01*
X0078909Y0189250D01*
X0089203Y0189250D01*
X0090122Y0189631D01*
X0090825Y0190334D01*
X0091206Y0191253D01*
X0091206Y0201547D01*
X0091206Y0199853D02*
X0135956Y0199853D01*
X0135956Y0197854D02*
X0091206Y0197854D01*
X0091206Y0195856D02*
X0135956Y0195856D01*
X0135956Y0193857D02*
X0091206Y0193857D01*
X0091206Y0191859D02*
X0135956Y0191859D01*
X0135956Y0189860D02*
X0090352Y0189860D01*
X0077945Y0169875D02*
X0070366Y0169875D01*
X0070322Y0169831D02*
X0071025Y0170534D01*
X0071406Y0171453D01*
X0071406Y0181747D01*
X0071025Y0182666D01*
X0070322Y0183369D01*
X0069403Y0183750D01*
X0059109Y0183750D01*
X0058190Y0183369D01*
X0057487Y0182666D01*
X0057106Y0181747D01*
X0057106Y0171453D01*
X0057487Y0170534D01*
X0058190Y0169831D01*
X0059109Y0169450D01*
X0069403Y0169450D01*
X0070322Y0169831D01*
X0071406Y0171873D02*
X0076906Y0171873D01*
X0076906Y0173872D02*
X0071406Y0173872D01*
X0071406Y0175870D02*
X0076906Y0175870D01*
X0076906Y0177869D02*
X0071406Y0177869D01*
X0071406Y0179868D02*
X0076906Y0179868D01*
X0076955Y0181866D02*
X0071357Y0181866D01*
X0070552Y0189860D02*
X0077760Y0189860D01*
X0076906Y0191859D02*
X0071406Y0191859D01*
X0071406Y0193857D02*
X0076906Y0193857D01*
X0076906Y0195856D02*
X0071406Y0195856D01*
X0071406Y0197854D02*
X0076906Y0197854D01*
X0076906Y0199853D02*
X0071406Y0199853D01*
X0071280Y0201851D02*
X0077032Y0201851D01*
X0077575Y0209845D02*
X0070737Y0209845D01*
X0071406Y0211844D02*
X0076906Y0211844D01*
X0076906Y0213842D02*
X0071406Y0213842D01*
X0071406Y0215841D02*
X0076906Y0215841D01*
X0076906Y0217839D02*
X0071406Y0217839D01*
X0071406Y0219838D02*
X0076906Y0219838D01*
X0077109Y0221836D02*
X0071203Y0221836D01*
X0070922Y0229830D02*
X0077390Y0229830D01*
X0076906Y0231829D02*
X0071406Y0231829D01*
X0071406Y0233827D02*
X0076906Y0233827D01*
X0076906Y0235826D02*
X0071406Y0235826D01*
X0071406Y0237824D02*
X0076906Y0237824D01*
X0076906Y0239823D02*
X0071406Y0239823D01*
X0071127Y0241821D02*
X0077185Y0241821D01*
X0057106Y0193857D02*
X0051106Y0193857D01*
X0051106Y0191859D02*
X0057106Y0191859D01*
X0057960Y0189860D02*
X0049780Y0189860D01*
X0049603Y0183750D02*
X0039309Y0183750D01*
X0038390Y0183369D01*
X0037687Y0182666D01*
X0037306Y0181747D01*
X0037306Y0171453D01*
X0037687Y0170534D01*
X0038390Y0169831D01*
X0039309Y0169450D01*
X0049603Y0169450D01*
X0050522Y0169831D01*
X0051225Y0170534D01*
X0051606Y0171453D01*
X0051606Y0181747D01*
X0051225Y0182666D01*
X0050522Y0183369D01*
X0049603Y0183750D01*
X0051557Y0181866D02*
X0057155Y0181866D01*
X0057106Y0179868D02*
X0051606Y0179868D01*
X0051606Y0177869D02*
X0057106Y0177869D01*
X0057106Y0175870D02*
X0051606Y0175870D01*
X0051606Y0173872D02*
X0057106Y0173872D01*
X0057106Y0171873D02*
X0051606Y0171873D01*
X0050566Y0169875D02*
X0058145Y0169875D01*
X0059109Y0163950D02*
X0058190Y0163569D01*
X0057487Y0162866D01*
X0057106Y0161947D01*
X0057106Y0151653D01*
X0057487Y0150734D01*
X0058190Y0150031D01*
X0059109Y0149650D01*
X0069403Y0149650D01*
X0070322Y0150031D01*
X0071025Y0150734D01*
X0071406Y0151653D01*
X0071406Y0161947D01*
X0071025Y0162866D01*
X0070322Y0163569D01*
X0069403Y0163950D01*
X0059109Y0163950D01*
X0058938Y0163879D02*
X0049774Y0163879D01*
X0049603Y0163950D02*
X0039309Y0163950D01*
X0038390Y0163569D01*
X0037687Y0162866D01*
X0037306Y0161947D01*
X0037306Y0151653D01*
X0037687Y0150734D01*
X0038390Y0150031D01*
X0039309Y0149650D01*
X0049603Y0149650D01*
X0050522Y0150031D01*
X0051225Y0150734D01*
X0051606Y0151653D01*
X0051606Y0161947D01*
X0051225Y0162866D01*
X0050522Y0163569D01*
X0049603Y0163950D01*
X0051606Y0161881D02*
X0057106Y0161881D01*
X0057106Y0159882D02*
X0051606Y0159882D01*
X0051606Y0157884D02*
X0057106Y0157884D01*
X0057106Y0155885D02*
X0051606Y0155885D01*
X0051606Y0153887D02*
X0057106Y0153887D01*
X0057106Y0151888D02*
X0051606Y0151888D01*
X0050182Y0149890D02*
X0058530Y0149890D01*
X0069982Y0149890D02*
X0078330Y0149890D01*
X0076906Y0151888D02*
X0071406Y0151888D01*
X0071406Y0153887D02*
X0076906Y0153887D01*
X0076906Y0155885D02*
X0071406Y0155885D01*
X0071406Y0157884D02*
X0076906Y0157884D01*
X0076906Y0159882D02*
X0071406Y0159882D01*
X0071406Y0161881D02*
X0076906Y0161881D01*
X0078738Y0163879D02*
X0069574Y0163879D01*
X0074252Y0118000D02*
X0057660Y0118000D01*
X0056190Y0117391D01*
X0055065Y0116266D01*
X0050065Y0111266D01*
X0049456Y0109796D01*
X0049456Y0105969D01*
X0049268Y0105891D01*
X0048565Y0105188D01*
X0048184Y0104269D01*
X0048184Y0104196D01*
X0048091Y0104544D01*
X0047828Y0105000D01*
X0047456Y0105372D01*
X0047000Y0105635D01*
X0046491Y0105772D01*
X0043456Y0105772D01*
X0040421Y0105772D01*
X0039912Y0105635D01*
X0039456Y0105372D01*
X0039084Y0105000D01*
X0038821Y0104544D01*
X0038728Y0104196D01*
X0038728Y0104269D01*
X0038347Y0105188D01*
X0037644Y0105891D01*
X0036725Y0106272D01*
X0030187Y0106272D01*
X0029268Y0105891D01*
X0028565Y0105188D01*
X0028487Y0105000D01*
X0019660Y0105000D01*
X0018190Y0104391D01*
X0011190Y0097391D01*
X0010065Y0096266D01*
X0009456Y0094796D01*
X0009456Y0091204D01*
X0010065Y0089734D01*
X0011190Y0088609D01*
X0012660Y0088000D01*
X0014252Y0088000D01*
X0015722Y0088609D01*
X0016847Y0089734D01*
X0017456Y0091204D01*
X0017456Y0092343D01*
X0022113Y0097000D01*
X0028487Y0097000D01*
X0028565Y0096812D01*
X0029268Y0096109D01*
X0030187Y0095728D01*
X0036725Y0095728D01*
X0037644Y0096109D01*
X0038347Y0096812D01*
X0038728Y0097731D01*
X0038728Y0097803D01*
X0038821Y0097456D01*
X0039084Y0097000D01*
X0039456Y0096628D01*
X0039912Y0096365D01*
X0040421Y0096228D01*
X0043456Y0096228D01*
X0046491Y0096228D01*
X0047000Y0096365D01*
X0047456Y0096628D01*
X0047828Y0097000D01*
X0048091Y0097456D01*
X0048184Y0097803D01*
X0048184Y0097731D01*
X0048565Y0096812D01*
X0049268Y0096109D01*
X0050187Y0095728D01*
X0056725Y0095728D01*
X0057644Y0096109D01*
X0058347Y0096812D01*
X0058728Y0097731D01*
X0058728Y0104269D01*
X0058347Y0105188D01*
X0057644Y0105891D01*
X0057456Y0105969D01*
X0057456Y0107343D01*
X0060113Y0110000D01*
X0074252Y0110000D01*
X0075722Y0110609D01*
X0076847Y0111734D01*
X0077456Y0113204D01*
X0077456Y0114796D01*
X0076847Y0116266D01*
X0075722Y0117391D01*
X0074252Y0118000D01*
X0074460Y0117914D02*
X0135956Y0117914D01*
X0135956Y0119912D02*
X0005956Y0119912D01*
X0005956Y0117914D02*
X0057452Y0117914D01*
X0054714Y0115915D02*
X0005956Y0115915D01*
X0005956Y0113917D02*
X0052716Y0113917D01*
X0050717Y0111918D02*
X0005956Y0111918D01*
X0005956Y0109920D02*
X0049507Y0109920D01*
X0049456Y0107921D02*
X0005956Y0107921D01*
X0005956Y0105923D02*
X0029344Y0105923D01*
X0029700Y0095930D02*
X0021043Y0095930D01*
X0019044Y0093932D02*
X0135956Y0093932D01*
X0135956Y0095930D02*
X0057212Y0095930D01*
X0058728Y0097929D02*
X0135956Y0097929D01*
X0135956Y0099927D02*
X0058728Y0099927D01*
X0058728Y0101926D02*
X0135956Y0101926D01*
X0135956Y0103924D02*
X0058728Y0103924D01*
X0057568Y0105923D02*
X0135956Y0105923D01*
X0135956Y0107921D02*
X0058034Y0107921D01*
X0060032Y0109920D02*
X0135956Y0109920D01*
X0135956Y0111918D02*
X0076923Y0111918D01*
X0077456Y0113917D02*
X0135956Y0113917D01*
X0135956Y0115915D02*
X0076992Y0115915D01*
X0061442Y0087936D02*
X0005956Y0087936D01*
X0005956Y0089934D02*
X0009982Y0089934D01*
X0009456Y0091933D02*
X0005956Y0091933D01*
X0005956Y0093932D02*
X0009456Y0093932D01*
X0009926Y0095930D02*
X0005956Y0095930D01*
X0005956Y0097929D02*
X0011728Y0097929D01*
X0013726Y0099927D02*
X0005956Y0099927D01*
X0005956Y0101926D02*
X0015725Y0101926D01*
X0017723Y0103924D02*
X0005956Y0103924D01*
X0005956Y0121911D02*
X0135956Y0121911D01*
X0135956Y0123909D02*
X0005956Y0123909D01*
X0005956Y0125908D02*
X0135956Y0125908D01*
X0135956Y0127906D02*
X0005956Y0127906D01*
X0005956Y0129905D02*
X0135956Y0129905D01*
X0135956Y0131903D02*
X0005956Y0131903D01*
X0005956Y0133902D02*
X0135956Y0133902D01*
X0135956Y0135900D02*
X0005956Y0135900D01*
X0005956Y0137899D02*
X0135956Y0137899D01*
X0135956Y0139897D02*
X0005956Y0139897D01*
X0005956Y0141896D02*
X0135956Y0141896D01*
X0135956Y0143894D02*
X0005956Y0143894D01*
X0005956Y0145893D02*
X0135956Y0145893D01*
X0135956Y0147891D02*
X0005956Y0147891D01*
X0005956Y0149890D02*
X0038730Y0149890D01*
X0037306Y0151888D02*
X0005956Y0151888D01*
X0005956Y0153887D02*
X0037306Y0153887D01*
X0037306Y0155885D02*
X0005956Y0155885D01*
X0005956Y0157884D02*
X0037306Y0157884D01*
X0037306Y0159882D02*
X0005956Y0159882D01*
X0005956Y0161881D02*
X0037306Y0161881D01*
X0039138Y0163879D02*
X0005956Y0163879D01*
X0005956Y0165878D02*
X0135956Y0165878D01*
X0135956Y0167876D02*
X0005956Y0167876D01*
X0005956Y0169875D02*
X0038345Y0169875D01*
X0037306Y0171873D02*
X0005956Y0171873D01*
X0005956Y0173872D02*
X0037306Y0173872D01*
X0037306Y0175870D02*
X0005956Y0175870D01*
X0005956Y0177869D02*
X0037306Y0177869D01*
X0037306Y0179868D02*
X0005956Y0179868D01*
X0005956Y0181866D02*
X0037355Y0181866D01*
X0043906Y0189860D02*
X0045006Y0189860D01*
X0045006Y0191859D02*
X0043906Y0191859D01*
X0043906Y0193857D02*
X0045006Y0193857D01*
X0045006Y0197854D02*
X0043906Y0197854D01*
X0043906Y0199853D02*
X0045006Y0199853D01*
X0045006Y0201851D02*
X0043906Y0201851D01*
X0037959Y0201851D02*
X0005956Y0201851D01*
X0005956Y0199853D02*
X0037806Y0199853D01*
X0037306Y0231829D02*
X0005956Y0231829D01*
X0005956Y0233827D02*
X0037306Y0233827D01*
X0037306Y0235826D02*
X0005956Y0235826D01*
X0005956Y0237824D02*
X0037306Y0237824D01*
X0037306Y0239823D02*
X0005956Y0239823D01*
X0005956Y0241821D02*
X0009650Y0241821D01*
X0007579Y0243820D02*
X0005956Y0243820D01*
X0005956Y0245818D02*
X0006312Y0245818D01*
X0037568Y0105923D02*
X0049344Y0105923D01*
X0049700Y0095930D02*
X0037212Y0095930D01*
X0043456Y0096228D02*
X0043456Y0101000D01*
X0043456Y0101000D01*
X0043456Y0105772D01*
X0043456Y0101000D01*
X0043456Y0096228D01*
X0043456Y0097929D02*
X0043456Y0097929D01*
X0043456Y0099927D02*
X0043456Y0099927D01*
X0043456Y0101000D02*
X0043456Y0101000D01*
X0043456Y0101926D02*
X0043456Y0101926D01*
X0043456Y0103924D02*
X0043456Y0103924D01*
X0055471Y0081940D02*
X0005956Y0081940D01*
X0005956Y0079942D02*
X0054956Y0079942D01*
X0054956Y0077943D02*
X0005956Y0077943D01*
X0005956Y0075945D02*
X0054956Y0075945D01*
X0054956Y0073946D02*
X0005956Y0073946D01*
X0005956Y0071948D02*
X0054956Y0071948D01*
X0058456Y0080000D02*
X0058456Y0063000D01*
X0043456Y0048000D01*
X0039956Y0047966D02*
X0005956Y0047966D01*
X0005956Y0049964D02*
X0040481Y0049964D01*
X0039956Y0045967D02*
X0005956Y0045967D01*
X0005956Y0043969D02*
X0039956Y0043969D01*
X0039956Y0041970D02*
X0005956Y0041970D01*
X0005956Y0039972D02*
X0039956Y0039972D01*
X0057445Y0083939D02*
X0005956Y0083939D01*
X0005956Y0085937D02*
X0059444Y0085937D01*
X0074179Y0061955D02*
X0076733Y0061955D01*
X0084179Y0061955D02*
X0086733Y0061955D01*
X0094179Y0061955D02*
X0097801Y0061955D01*
X0100456Y0061955D02*
X0100456Y0061955D01*
X0100456Y0061300D02*
X0100456Y0067000D01*
X0100456Y0067000D01*
X0100456Y0061300D01*
X0100456Y0063954D02*
X0100456Y0063954D01*
X0100456Y0065952D02*
X0100456Y0065952D01*
X0135956Y0089934D02*
X0016930Y0089934D01*
X0017456Y0091933D02*
X0135956Y0091933D01*
X0129456Y0164000D02*
X0100456Y0164000D01*
D11*
X0120869Y0250000D02*
X0120871Y0250174D01*
X0120878Y0250348D01*
X0120888Y0250521D01*
X0120903Y0250695D01*
X0120922Y0250868D01*
X0120946Y0251040D01*
X0120973Y0251212D01*
X0121005Y0251383D01*
X0121041Y0251553D01*
X0121081Y0251722D01*
X0121126Y0251890D01*
X0121174Y0252057D01*
X0121227Y0252223D01*
X0121283Y0252388D01*
X0121344Y0252551D01*
X0121408Y0252712D01*
X0121477Y0252872D01*
X0121549Y0253030D01*
X0121626Y0253186D01*
X0121706Y0253341D01*
X0121790Y0253493D01*
X0121877Y0253643D01*
X0121969Y0253792D01*
X0122063Y0253937D01*
X0122162Y0254081D01*
X0122264Y0254222D01*
X0122369Y0254360D01*
X0122478Y0254496D01*
X0122590Y0254629D01*
X0122705Y0254759D01*
X0122823Y0254887D01*
X0122945Y0255011D01*
X0123069Y0255133D01*
X0123197Y0255251D01*
X0123327Y0255366D01*
X0123460Y0255478D01*
X0123596Y0255587D01*
X0123734Y0255692D01*
X0123875Y0255794D01*
X0124019Y0255893D01*
X0124164Y0255987D01*
X0124313Y0256079D01*
X0124463Y0256166D01*
X0124615Y0256250D01*
X0124770Y0256330D01*
X0124926Y0256407D01*
X0125084Y0256479D01*
X0125244Y0256548D01*
X0125405Y0256612D01*
X0125568Y0256673D01*
X0125733Y0256729D01*
X0125899Y0256782D01*
X0126066Y0256830D01*
X0126234Y0256875D01*
X0126403Y0256915D01*
X0126573Y0256951D01*
X0126744Y0256983D01*
X0126916Y0257010D01*
X0127088Y0257034D01*
X0127261Y0257053D01*
X0127435Y0257068D01*
X0127608Y0257078D01*
X0127782Y0257085D01*
X0127956Y0257087D01*
X0128130Y0257085D01*
X0128304Y0257078D01*
X0128477Y0257068D01*
X0128651Y0257053D01*
X0128824Y0257034D01*
X0128996Y0257010D01*
X0129168Y0256983D01*
X0129339Y0256951D01*
X0129509Y0256915D01*
X0129678Y0256875D01*
X0129846Y0256830D01*
X0130013Y0256782D01*
X0130179Y0256729D01*
X0130344Y0256673D01*
X0130507Y0256612D01*
X0130668Y0256548D01*
X0130828Y0256479D01*
X0130986Y0256407D01*
X0131142Y0256330D01*
X0131297Y0256250D01*
X0131449Y0256166D01*
X0131599Y0256079D01*
X0131748Y0255987D01*
X0131893Y0255893D01*
X0132037Y0255794D01*
X0132178Y0255692D01*
X0132316Y0255587D01*
X0132452Y0255478D01*
X0132585Y0255366D01*
X0132715Y0255251D01*
X0132843Y0255133D01*
X0132967Y0255011D01*
X0133089Y0254887D01*
X0133207Y0254759D01*
X0133322Y0254629D01*
X0133434Y0254496D01*
X0133543Y0254360D01*
X0133648Y0254222D01*
X0133750Y0254081D01*
X0133849Y0253937D01*
X0133943Y0253792D01*
X0134035Y0253643D01*
X0134122Y0253493D01*
X0134206Y0253341D01*
X0134286Y0253186D01*
X0134363Y0253030D01*
X0134435Y0252872D01*
X0134504Y0252712D01*
X0134568Y0252551D01*
X0134629Y0252388D01*
X0134685Y0252223D01*
X0134738Y0252057D01*
X0134786Y0251890D01*
X0134831Y0251722D01*
X0134871Y0251553D01*
X0134907Y0251383D01*
X0134939Y0251212D01*
X0134966Y0251040D01*
X0134990Y0250868D01*
X0135009Y0250695D01*
X0135024Y0250521D01*
X0135034Y0250348D01*
X0135041Y0250174D01*
X0135043Y0250000D01*
X0135041Y0249826D01*
X0135034Y0249652D01*
X0135024Y0249479D01*
X0135009Y0249305D01*
X0134990Y0249132D01*
X0134966Y0248960D01*
X0134939Y0248788D01*
X0134907Y0248617D01*
X0134871Y0248447D01*
X0134831Y0248278D01*
X0134786Y0248110D01*
X0134738Y0247943D01*
X0134685Y0247777D01*
X0134629Y0247612D01*
X0134568Y0247449D01*
X0134504Y0247288D01*
X0134435Y0247128D01*
X0134363Y0246970D01*
X0134286Y0246814D01*
X0134206Y0246659D01*
X0134122Y0246507D01*
X0134035Y0246357D01*
X0133943Y0246208D01*
X0133849Y0246063D01*
X0133750Y0245919D01*
X0133648Y0245778D01*
X0133543Y0245640D01*
X0133434Y0245504D01*
X0133322Y0245371D01*
X0133207Y0245241D01*
X0133089Y0245113D01*
X0132967Y0244989D01*
X0132843Y0244867D01*
X0132715Y0244749D01*
X0132585Y0244634D01*
X0132452Y0244522D01*
X0132316Y0244413D01*
X0132178Y0244308D01*
X0132037Y0244206D01*
X0131893Y0244107D01*
X0131748Y0244013D01*
X0131599Y0243921D01*
X0131449Y0243834D01*
X0131297Y0243750D01*
X0131142Y0243670D01*
X0130986Y0243593D01*
X0130828Y0243521D01*
X0130668Y0243452D01*
X0130507Y0243388D01*
X0130344Y0243327D01*
X0130179Y0243271D01*
X0130013Y0243218D01*
X0129846Y0243170D01*
X0129678Y0243125D01*
X0129509Y0243085D01*
X0129339Y0243049D01*
X0129168Y0243017D01*
X0128996Y0242990D01*
X0128824Y0242966D01*
X0128651Y0242947D01*
X0128477Y0242932D01*
X0128304Y0242922D01*
X0128130Y0242915D01*
X0127956Y0242913D01*
X0127782Y0242915D01*
X0127608Y0242922D01*
X0127435Y0242932D01*
X0127261Y0242947D01*
X0127088Y0242966D01*
X0126916Y0242990D01*
X0126744Y0243017D01*
X0126573Y0243049D01*
X0126403Y0243085D01*
X0126234Y0243125D01*
X0126066Y0243170D01*
X0125899Y0243218D01*
X0125733Y0243271D01*
X0125568Y0243327D01*
X0125405Y0243388D01*
X0125244Y0243452D01*
X0125084Y0243521D01*
X0124926Y0243593D01*
X0124770Y0243670D01*
X0124615Y0243750D01*
X0124463Y0243834D01*
X0124313Y0243921D01*
X0124164Y0244013D01*
X0124019Y0244107D01*
X0123875Y0244206D01*
X0123734Y0244308D01*
X0123596Y0244413D01*
X0123460Y0244522D01*
X0123327Y0244634D01*
X0123197Y0244749D01*
X0123069Y0244867D01*
X0122945Y0244989D01*
X0122823Y0245113D01*
X0122705Y0245241D01*
X0122590Y0245371D01*
X0122478Y0245504D01*
X0122369Y0245640D01*
X0122264Y0245778D01*
X0122162Y0245919D01*
X0122063Y0246063D01*
X0121969Y0246208D01*
X0121877Y0246357D01*
X0121790Y0246507D01*
X0121706Y0246659D01*
X0121626Y0246814D01*
X0121549Y0246970D01*
X0121477Y0247128D01*
X0121408Y0247288D01*
X0121344Y0247449D01*
X0121283Y0247612D01*
X0121227Y0247777D01*
X0121174Y0247943D01*
X0121126Y0248110D01*
X0121081Y0248278D01*
X0121041Y0248447D01*
X0121005Y0248617D01*
X0120973Y0248788D01*
X0120946Y0248960D01*
X0120922Y0249132D01*
X0120903Y0249305D01*
X0120888Y0249479D01*
X0120878Y0249652D01*
X0120871Y0249826D01*
X0120869Y0250000D01*
X0007869Y0250000D02*
X0007871Y0250174D01*
X0007878Y0250348D01*
X0007888Y0250521D01*
X0007903Y0250695D01*
X0007922Y0250868D01*
X0007946Y0251040D01*
X0007973Y0251212D01*
X0008005Y0251383D01*
X0008041Y0251553D01*
X0008081Y0251722D01*
X0008126Y0251890D01*
X0008174Y0252057D01*
X0008227Y0252223D01*
X0008283Y0252388D01*
X0008344Y0252551D01*
X0008408Y0252712D01*
X0008477Y0252872D01*
X0008549Y0253030D01*
X0008626Y0253186D01*
X0008706Y0253341D01*
X0008790Y0253493D01*
X0008877Y0253643D01*
X0008969Y0253792D01*
X0009063Y0253937D01*
X0009162Y0254081D01*
X0009264Y0254222D01*
X0009369Y0254360D01*
X0009478Y0254496D01*
X0009590Y0254629D01*
X0009705Y0254759D01*
X0009823Y0254887D01*
X0009945Y0255011D01*
X0010069Y0255133D01*
X0010197Y0255251D01*
X0010327Y0255366D01*
X0010460Y0255478D01*
X0010596Y0255587D01*
X0010734Y0255692D01*
X0010875Y0255794D01*
X0011019Y0255893D01*
X0011164Y0255987D01*
X0011313Y0256079D01*
X0011463Y0256166D01*
X0011615Y0256250D01*
X0011770Y0256330D01*
X0011926Y0256407D01*
X0012084Y0256479D01*
X0012244Y0256548D01*
X0012405Y0256612D01*
X0012568Y0256673D01*
X0012733Y0256729D01*
X0012899Y0256782D01*
X0013066Y0256830D01*
X0013234Y0256875D01*
X0013403Y0256915D01*
X0013573Y0256951D01*
X0013744Y0256983D01*
X0013916Y0257010D01*
X0014088Y0257034D01*
X0014261Y0257053D01*
X0014435Y0257068D01*
X0014608Y0257078D01*
X0014782Y0257085D01*
X0014956Y0257087D01*
X0015130Y0257085D01*
X0015304Y0257078D01*
X0015477Y0257068D01*
X0015651Y0257053D01*
X0015824Y0257034D01*
X0015996Y0257010D01*
X0016168Y0256983D01*
X0016339Y0256951D01*
X0016509Y0256915D01*
X0016678Y0256875D01*
X0016846Y0256830D01*
X0017013Y0256782D01*
X0017179Y0256729D01*
X0017344Y0256673D01*
X0017507Y0256612D01*
X0017668Y0256548D01*
X0017828Y0256479D01*
X0017986Y0256407D01*
X0018142Y0256330D01*
X0018297Y0256250D01*
X0018449Y0256166D01*
X0018599Y0256079D01*
X0018748Y0255987D01*
X0018893Y0255893D01*
X0019037Y0255794D01*
X0019178Y0255692D01*
X0019316Y0255587D01*
X0019452Y0255478D01*
X0019585Y0255366D01*
X0019715Y0255251D01*
X0019843Y0255133D01*
X0019967Y0255011D01*
X0020089Y0254887D01*
X0020207Y0254759D01*
X0020322Y0254629D01*
X0020434Y0254496D01*
X0020543Y0254360D01*
X0020648Y0254222D01*
X0020750Y0254081D01*
X0020849Y0253937D01*
X0020943Y0253792D01*
X0021035Y0253643D01*
X0021122Y0253493D01*
X0021206Y0253341D01*
X0021286Y0253186D01*
X0021363Y0253030D01*
X0021435Y0252872D01*
X0021504Y0252712D01*
X0021568Y0252551D01*
X0021629Y0252388D01*
X0021685Y0252223D01*
X0021738Y0252057D01*
X0021786Y0251890D01*
X0021831Y0251722D01*
X0021871Y0251553D01*
X0021907Y0251383D01*
X0021939Y0251212D01*
X0021966Y0251040D01*
X0021990Y0250868D01*
X0022009Y0250695D01*
X0022024Y0250521D01*
X0022034Y0250348D01*
X0022041Y0250174D01*
X0022043Y0250000D01*
X0022041Y0249826D01*
X0022034Y0249652D01*
X0022024Y0249479D01*
X0022009Y0249305D01*
X0021990Y0249132D01*
X0021966Y0248960D01*
X0021939Y0248788D01*
X0021907Y0248617D01*
X0021871Y0248447D01*
X0021831Y0248278D01*
X0021786Y0248110D01*
X0021738Y0247943D01*
X0021685Y0247777D01*
X0021629Y0247612D01*
X0021568Y0247449D01*
X0021504Y0247288D01*
X0021435Y0247128D01*
X0021363Y0246970D01*
X0021286Y0246814D01*
X0021206Y0246659D01*
X0021122Y0246507D01*
X0021035Y0246357D01*
X0020943Y0246208D01*
X0020849Y0246063D01*
X0020750Y0245919D01*
X0020648Y0245778D01*
X0020543Y0245640D01*
X0020434Y0245504D01*
X0020322Y0245371D01*
X0020207Y0245241D01*
X0020089Y0245113D01*
X0019967Y0244989D01*
X0019843Y0244867D01*
X0019715Y0244749D01*
X0019585Y0244634D01*
X0019452Y0244522D01*
X0019316Y0244413D01*
X0019178Y0244308D01*
X0019037Y0244206D01*
X0018893Y0244107D01*
X0018748Y0244013D01*
X0018599Y0243921D01*
X0018449Y0243834D01*
X0018297Y0243750D01*
X0018142Y0243670D01*
X0017986Y0243593D01*
X0017828Y0243521D01*
X0017668Y0243452D01*
X0017507Y0243388D01*
X0017344Y0243327D01*
X0017179Y0243271D01*
X0017013Y0243218D01*
X0016846Y0243170D01*
X0016678Y0243125D01*
X0016509Y0243085D01*
X0016339Y0243049D01*
X0016168Y0243017D01*
X0015996Y0242990D01*
X0015824Y0242966D01*
X0015651Y0242947D01*
X0015477Y0242932D01*
X0015304Y0242922D01*
X0015130Y0242915D01*
X0014956Y0242913D01*
X0014782Y0242915D01*
X0014608Y0242922D01*
X0014435Y0242932D01*
X0014261Y0242947D01*
X0014088Y0242966D01*
X0013916Y0242990D01*
X0013744Y0243017D01*
X0013573Y0243049D01*
X0013403Y0243085D01*
X0013234Y0243125D01*
X0013066Y0243170D01*
X0012899Y0243218D01*
X0012733Y0243271D01*
X0012568Y0243327D01*
X0012405Y0243388D01*
X0012244Y0243452D01*
X0012084Y0243521D01*
X0011926Y0243593D01*
X0011770Y0243670D01*
X0011615Y0243750D01*
X0011463Y0243834D01*
X0011313Y0243921D01*
X0011164Y0244013D01*
X0011019Y0244107D01*
X0010875Y0244206D01*
X0010734Y0244308D01*
X0010596Y0244413D01*
X0010460Y0244522D01*
X0010327Y0244634D01*
X0010197Y0244749D01*
X0010069Y0244867D01*
X0009945Y0244989D01*
X0009823Y0245113D01*
X0009705Y0245241D01*
X0009590Y0245371D01*
X0009478Y0245504D01*
X0009369Y0245640D01*
X0009264Y0245778D01*
X0009162Y0245919D01*
X0009063Y0246063D01*
X0008969Y0246208D01*
X0008877Y0246357D01*
X0008790Y0246507D01*
X0008706Y0246659D01*
X0008626Y0246814D01*
X0008549Y0246970D01*
X0008477Y0247128D01*
X0008408Y0247288D01*
X0008344Y0247449D01*
X0008283Y0247612D01*
X0008227Y0247777D01*
X0008174Y0247943D01*
X0008126Y0248110D01*
X0008081Y0248278D01*
X0008041Y0248447D01*
X0008005Y0248617D01*
X0007973Y0248788D01*
X0007946Y0248960D01*
X0007922Y0249132D01*
X0007903Y0249305D01*
X0007888Y0249479D01*
X0007878Y0249652D01*
X0007871Y0249826D01*
X0007869Y0250000D01*
X0007869Y0015000D02*
X0007871Y0015174D01*
X0007878Y0015348D01*
X0007888Y0015521D01*
X0007903Y0015695D01*
X0007922Y0015868D01*
X0007946Y0016040D01*
X0007973Y0016212D01*
X0008005Y0016383D01*
X0008041Y0016553D01*
X0008081Y0016722D01*
X0008126Y0016890D01*
X0008174Y0017057D01*
X0008227Y0017223D01*
X0008283Y0017388D01*
X0008344Y0017551D01*
X0008408Y0017712D01*
X0008477Y0017872D01*
X0008549Y0018030D01*
X0008626Y0018186D01*
X0008706Y0018341D01*
X0008790Y0018493D01*
X0008877Y0018643D01*
X0008969Y0018792D01*
X0009063Y0018937D01*
X0009162Y0019081D01*
X0009264Y0019222D01*
X0009369Y0019360D01*
X0009478Y0019496D01*
X0009590Y0019629D01*
X0009705Y0019759D01*
X0009823Y0019887D01*
X0009945Y0020011D01*
X0010069Y0020133D01*
X0010197Y0020251D01*
X0010327Y0020366D01*
X0010460Y0020478D01*
X0010596Y0020587D01*
X0010734Y0020692D01*
X0010875Y0020794D01*
X0011019Y0020893D01*
X0011164Y0020987D01*
X0011313Y0021079D01*
X0011463Y0021166D01*
X0011615Y0021250D01*
X0011770Y0021330D01*
X0011926Y0021407D01*
X0012084Y0021479D01*
X0012244Y0021548D01*
X0012405Y0021612D01*
X0012568Y0021673D01*
X0012733Y0021729D01*
X0012899Y0021782D01*
X0013066Y0021830D01*
X0013234Y0021875D01*
X0013403Y0021915D01*
X0013573Y0021951D01*
X0013744Y0021983D01*
X0013916Y0022010D01*
X0014088Y0022034D01*
X0014261Y0022053D01*
X0014435Y0022068D01*
X0014608Y0022078D01*
X0014782Y0022085D01*
X0014956Y0022087D01*
X0015130Y0022085D01*
X0015304Y0022078D01*
X0015477Y0022068D01*
X0015651Y0022053D01*
X0015824Y0022034D01*
X0015996Y0022010D01*
X0016168Y0021983D01*
X0016339Y0021951D01*
X0016509Y0021915D01*
X0016678Y0021875D01*
X0016846Y0021830D01*
X0017013Y0021782D01*
X0017179Y0021729D01*
X0017344Y0021673D01*
X0017507Y0021612D01*
X0017668Y0021548D01*
X0017828Y0021479D01*
X0017986Y0021407D01*
X0018142Y0021330D01*
X0018297Y0021250D01*
X0018449Y0021166D01*
X0018599Y0021079D01*
X0018748Y0020987D01*
X0018893Y0020893D01*
X0019037Y0020794D01*
X0019178Y0020692D01*
X0019316Y0020587D01*
X0019452Y0020478D01*
X0019585Y0020366D01*
X0019715Y0020251D01*
X0019843Y0020133D01*
X0019967Y0020011D01*
X0020089Y0019887D01*
X0020207Y0019759D01*
X0020322Y0019629D01*
X0020434Y0019496D01*
X0020543Y0019360D01*
X0020648Y0019222D01*
X0020750Y0019081D01*
X0020849Y0018937D01*
X0020943Y0018792D01*
X0021035Y0018643D01*
X0021122Y0018493D01*
X0021206Y0018341D01*
X0021286Y0018186D01*
X0021363Y0018030D01*
X0021435Y0017872D01*
X0021504Y0017712D01*
X0021568Y0017551D01*
X0021629Y0017388D01*
X0021685Y0017223D01*
X0021738Y0017057D01*
X0021786Y0016890D01*
X0021831Y0016722D01*
X0021871Y0016553D01*
X0021907Y0016383D01*
X0021939Y0016212D01*
X0021966Y0016040D01*
X0021990Y0015868D01*
X0022009Y0015695D01*
X0022024Y0015521D01*
X0022034Y0015348D01*
X0022041Y0015174D01*
X0022043Y0015000D01*
X0022041Y0014826D01*
X0022034Y0014652D01*
X0022024Y0014479D01*
X0022009Y0014305D01*
X0021990Y0014132D01*
X0021966Y0013960D01*
X0021939Y0013788D01*
X0021907Y0013617D01*
X0021871Y0013447D01*
X0021831Y0013278D01*
X0021786Y0013110D01*
X0021738Y0012943D01*
X0021685Y0012777D01*
X0021629Y0012612D01*
X0021568Y0012449D01*
X0021504Y0012288D01*
X0021435Y0012128D01*
X0021363Y0011970D01*
X0021286Y0011814D01*
X0021206Y0011659D01*
X0021122Y0011507D01*
X0021035Y0011357D01*
X0020943Y0011208D01*
X0020849Y0011063D01*
X0020750Y0010919D01*
X0020648Y0010778D01*
X0020543Y0010640D01*
X0020434Y0010504D01*
X0020322Y0010371D01*
X0020207Y0010241D01*
X0020089Y0010113D01*
X0019967Y0009989D01*
X0019843Y0009867D01*
X0019715Y0009749D01*
X0019585Y0009634D01*
X0019452Y0009522D01*
X0019316Y0009413D01*
X0019178Y0009308D01*
X0019037Y0009206D01*
X0018893Y0009107D01*
X0018748Y0009013D01*
X0018599Y0008921D01*
X0018449Y0008834D01*
X0018297Y0008750D01*
X0018142Y0008670D01*
X0017986Y0008593D01*
X0017828Y0008521D01*
X0017668Y0008452D01*
X0017507Y0008388D01*
X0017344Y0008327D01*
X0017179Y0008271D01*
X0017013Y0008218D01*
X0016846Y0008170D01*
X0016678Y0008125D01*
X0016509Y0008085D01*
X0016339Y0008049D01*
X0016168Y0008017D01*
X0015996Y0007990D01*
X0015824Y0007966D01*
X0015651Y0007947D01*
X0015477Y0007932D01*
X0015304Y0007922D01*
X0015130Y0007915D01*
X0014956Y0007913D01*
X0014782Y0007915D01*
X0014608Y0007922D01*
X0014435Y0007932D01*
X0014261Y0007947D01*
X0014088Y0007966D01*
X0013916Y0007990D01*
X0013744Y0008017D01*
X0013573Y0008049D01*
X0013403Y0008085D01*
X0013234Y0008125D01*
X0013066Y0008170D01*
X0012899Y0008218D01*
X0012733Y0008271D01*
X0012568Y0008327D01*
X0012405Y0008388D01*
X0012244Y0008452D01*
X0012084Y0008521D01*
X0011926Y0008593D01*
X0011770Y0008670D01*
X0011615Y0008750D01*
X0011463Y0008834D01*
X0011313Y0008921D01*
X0011164Y0009013D01*
X0011019Y0009107D01*
X0010875Y0009206D01*
X0010734Y0009308D01*
X0010596Y0009413D01*
X0010460Y0009522D01*
X0010327Y0009634D01*
X0010197Y0009749D01*
X0010069Y0009867D01*
X0009945Y0009989D01*
X0009823Y0010113D01*
X0009705Y0010241D01*
X0009590Y0010371D01*
X0009478Y0010504D01*
X0009369Y0010640D01*
X0009264Y0010778D01*
X0009162Y0010919D01*
X0009063Y0011063D01*
X0008969Y0011208D01*
X0008877Y0011357D01*
X0008790Y0011507D01*
X0008706Y0011659D01*
X0008626Y0011814D01*
X0008549Y0011970D01*
X0008477Y0012128D01*
X0008408Y0012288D01*
X0008344Y0012449D01*
X0008283Y0012612D01*
X0008227Y0012777D01*
X0008174Y0012943D01*
X0008126Y0013110D01*
X0008081Y0013278D01*
X0008041Y0013447D01*
X0008005Y0013617D01*
X0007973Y0013788D01*
X0007946Y0013960D01*
X0007922Y0014132D01*
X0007903Y0014305D01*
X0007888Y0014479D01*
X0007878Y0014652D01*
X0007871Y0014826D01*
X0007869Y0015000D01*
X0120869Y0015000D02*
X0120871Y0015174D01*
X0120878Y0015348D01*
X0120888Y0015521D01*
X0120903Y0015695D01*
X0120922Y0015868D01*
X0120946Y0016040D01*
X0120973Y0016212D01*
X0121005Y0016383D01*
X0121041Y0016553D01*
X0121081Y0016722D01*
X0121126Y0016890D01*
X0121174Y0017057D01*
X0121227Y0017223D01*
X0121283Y0017388D01*
X0121344Y0017551D01*
X0121408Y0017712D01*
X0121477Y0017872D01*
X0121549Y0018030D01*
X0121626Y0018186D01*
X0121706Y0018341D01*
X0121790Y0018493D01*
X0121877Y0018643D01*
X0121969Y0018792D01*
X0122063Y0018937D01*
X0122162Y0019081D01*
X0122264Y0019222D01*
X0122369Y0019360D01*
X0122478Y0019496D01*
X0122590Y0019629D01*
X0122705Y0019759D01*
X0122823Y0019887D01*
X0122945Y0020011D01*
X0123069Y0020133D01*
X0123197Y0020251D01*
X0123327Y0020366D01*
X0123460Y0020478D01*
X0123596Y0020587D01*
X0123734Y0020692D01*
X0123875Y0020794D01*
X0124019Y0020893D01*
X0124164Y0020987D01*
X0124313Y0021079D01*
X0124463Y0021166D01*
X0124615Y0021250D01*
X0124770Y0021330D01*
X0124926Y0021407D01*
X0125084Y0021479D01*
X0125244Y0021548D01*
X0125405Y0021612D01*
X0125568Y0021673D01*
X0125733Y0021729D01*
X0125899Y0021782D01*
X0126066Y0021830D01*
X0126234Y0021875D01*
X0126403Y0021915D01*
X0126573Y0021951D01*
X0126744Y0021983D01*
X0126916Y0022010D01*
X0127088Y0022034D01*
X0127261Y0022053D01*
X0127435Y0022068D01*
X0127608Y0022078D01*
X0127782Y0022085D01*
X0127956Y0022087D01*
X0128130Y0022085D01*
X0128304Y0022078D01*
X0128477Y0022068D01*
X0128651Y0022053D01*
X0128824Y0022034D01*
X0128996Y0022010D01*
X0129168Y0021983D01*
X0129339Y0021951D01*
X0129509Y0021915D01*
X0129678Y0021875D01*
X0129846Y0021830D01*
X0130013Y0021782D01*
X0130179Y0021729D01*
X0130344Y0021673D01*
X0130507Y0021612D01*
X0130668Y0021548D01*
X0130828Y0021479D01*
X0130986Y0021407D01*
X0131142Y0021330D01*
X0131297Y0021250D01*
X0131449Y0021166D01*
X0131599Y0021079D01*
X0131748Y0020987D01*
X0131893Y0020893D01*
X0132037Y0020794D01*
X0132178Y0020692D01*
X0132316Y0020587D01*
X0132452Y0020478D01*
X0132585Y0020366D01*
X0132715Y0020251D01*
X0132843Y0020133D01*
X0132967Y0020011D01*
X0133089Y0019887D01*
X0133207Y0019759D01*
X0133322Y0019629D01*
X0133434Y0019496D01*
X0133543Y0019360D01*
X0133648Y0019222D01*
X0133750Y0019081D01*
X0133849Y0018937D01*
X0133943Y0018792D01*
X0134035Y0018643D01*
X0134122Y0018493D01*
X0134206Y0018341D01*
X0134286Y0018186D01*
X0134363Y0018030D01*
X0134435Y0017872D01*
X0134504Y0017712D01*
X0134568Y0017551D01*
X0134629Y0017388D01*
X0134685Y0017223D01*
X0134738Y0017057D01*
X0134786Y0016890D01*
X0134831Y0016722D01*
X0134871Y0016553D01*
X0134907Y0016383D01*
X0134939Y0016212D01*
X0134966Y0016040D01*
X0134990Y0015868D01*
X0135009Y0015695D01*
X0135024Y0015521D01*
X0135034Y0015348D01*
X0135041Y0015174D01*
X0135043Y0015000D01*
X0135041Y0014826D01*
X0135034Y0014652D01*
X0135024Y0014479D01*
X0135009Y0014305D01*
X0134990Y0014132D01*
X0134966Y0013960D01*
X0134939Y0013788D01*
X0134907Y0013617D01*
X0134871Y0013447D01*
X0134831Y0013278D01*
X0134786Y0013110D01*
X0134738Y0012943D01*
X0134685Y0012777D01*
X0134629Y0012612D01*
X0134568Y0012449D01*
X0134504Y0012288D01*
X0134435Y0012128D01*
X0134363Y0011970D01*
X0134286Y0011814D01*
X0134206Y0011659D01*
X0134122Y0011507D01*
X0134035Y0011357D01*
X0133943Y0011208D01*
X0133849Y0011063D01*
X0133750Y0010919D01*
X0133648Y0010778D01*
X0133543Y0010640D01*
X0133434Y0010504D01*
X0133322Y0010371D01*
X0133207Y0010241D01*
X0133089Y0010113D01*
X0132967Y0009989D01*
X0132843Y0009867D01*
X0132715Y0009749D01*
X0132585Y0009634D01*
X0132452Y0009522D01*
X0132316Y0009413D01*
X0132178Y0009308D01*
X0132037Y0009206D01*
X0131893Y0009107D01*
X0131748Y0009013D01*
X0131599Y0008921D01*
X0131449Y0008834D01*
X0131297Y0008750D01*
X0131142Y0008670D01*
X0130986Y0008593D01*
X0130828Y0008521D01*
X0130668Y0008452D01*
X0130507Y0008388D01*
X0130344Y0008327D01*
X0130179Y0008271D01*
X0130013Y0008218D01*
X0129846Y0008170D01*
X0129678Y0008125D01*
X0129509Y0008085D01*
X0129339Y0008049D01*
X0129168Y0008017D01*
X0128996Y0007990D01*
X0128824Y0007966D01*
X0128651Y0007947D01*
X0128477Y0007932D01*
X0128304Y0007922D01*
X0128130Y0007915D01*
X0127956Y0007913D01*
X0127782Y0007915D01*
X0127608Y0007922D01*
X0127435Y0007932D01*
X0127261Y0007947D01*
X0127088Y0007966D01*
X0126916Y0007990D01*
X0126744Y0008017D01*
X0126573Y0008049D01*
X0126403Y0008085D01*
X0126234Y0008125D01*
X0126066Y0008170D01*
X0125899Y0008218D01*
X0125733Y0008271D01*
X0125568Y0008327D01*
X0125405Y0008388D01*
X0125244Y0008452D01*
X0125084Y0008521D01*
X0124926Y0008593D01*
X0124770Y0008670D01*
X0124615Y0008750D01*
X0124463Y0008834D01*
X0124313Y0008921D01*
X0124164Y0009013D01*
X0124019Y0009107D01*
X0123875Y0009206D01*
X0123734Y0009308D01*
X0123596Y0009413D01*
X0123460Y0009522D01*
X0123327Y0009634D01*
X0123197Y0009749D01*
X0123069Y0009867D01*
X0122945Y0009989D01*
X0122823Y0010113D01*
X0122705Y0010241D01*
X0122590Y0010371D01*
X0122478Y0010504D01*
X0122369Y0010640D01*
X0122264Y0010778D01*
X0122162Y0010919D01*
X0122063Y0011063D01*
X0121969Y0011208D01*
X0121877Y0011357D01*
X0121790Y0011507D01*
X0121706Y0011659D01*
X0121626Y0011814D01*
X0121549Y0011970D01*
X0121477Y0012128D01*
X0121408Y0012288D01*
X0121344Y0012449D01*
X0121283Y0012612D01*
X0121227Y0012777D01*
X0121174Y0012943D01*
X0121126Y0013110D01*
X0121081Y0013278D01*
X0121041Y0013447D01*
X0121005Y0013617D01*
X0120973Y0013788D01*
X0120946Y0013960D01*
X0120922Y0014132D01*
X0120903Y0014305D01*
X0120888Y0014479D01*
X0120878Y0014652D01*
X0120871Y0014826D01*
X0120869Y0015000D01*
D12*
X0084056Y0156800D03*
X0084056Y0176600D03*
X0084056Y0196400D03*
X0084056Y0216200D03*
X0084056Y0236000D03*
X0064256Y0236000D03*
X0064256Y0216200D03*
X0064256Y0196400D03*
X0064256Y0176600D03*
X0064256Y0156800D03*
X0044456Y0156800D03*
X0044456Y0176600D03*
X0044456Y0196400D03*
X0044456Y0216200D03*
X0044456Y0236000D03*
D13*
X0070456Y0077000D03*
X0070456Y0067000D03*
X0080456Y0067000D03*
X0080456Y0077000D03*
X0090456Y0077000D03*
X0090456Y0067000D03*
X0100456Y0067000D03*
X0100456Y0077000D03*
X0043456Y0033000D03*
X0033456Y0033000D03*
D14*
X0033456Y0101000D03*
X0043456Y0101000D03*
X0053456Y0101000D03*
D15*
X0053456Y0109000D01*
X0058456Y0114000D01*
X0073456Y0114000D01*
X0077456Y0142000D02*
X0100456Y0142000D01*
X0100456Y0108000D01*
X0100456Y0107000D01*
X0101456Y0108000D02*
X0111456Y0098000D01*
X0124456Y0098000D01*
X0124456Y0073000D01*
X0117456Y0067000D01*
X0100456Y0067000D01*
X0100456Y0142000D02*
X0100456Y0145000D01*
X0100456Y0164000D01*
X0100456Y0170000D01*
X0106456Y0174000D01*
X0106456Y0192000D01*
X0116456Y0192000D01*
X0122456Y0192000D01*
X0124456Y0208000D01*
X0116456Y0192000D02*
X0116456Y0228000D01*
X0106456Y0228000D01*
X0116456Y0228000D02*
X0116456Y0247000D01*
X0105456Y0251000D01*
X0032456Y0251000D01*
X0027456Y0238000D01*
X0027456Y0198000D01*
X0030056Y0196400D01*
X0044456Y0196400D01*
X0043456Y0101000D02*
X0043456Y0088000D01*
X0053456Y0078000D01*
X0053456Y0070000D01*
X0033456Y0101000D02*
X0020456Y0101000D01*
X0013456Y0094000D01*
X0013456Y0092000D01*
D16*
X0013456Y0092000D03*
X0030456Y0046000D03*
X0053456Y0070000D03*
X0073456Y0114000D03*
X0061456Y0131000D03*
X0094456Y0166000D03*
X0106456Y0192000D03*
X0124456Y0208000D03*
X0106456Y0228000D03*
X0129456Y0164000D03*
X0109456Y0127000D03*
X0101456Y0108000D03*
D17*
X0077456Y0142000D02*
X0066456Y0131000D01*
X0061456Y0131000D01*
X0043456Y0113000D01*
X0043456Y0101000D01*
M02*
