G75*
%MOIN*%
%OFA0B0*%
%FSLAX25Y25*%
%IPPOS*%
%LPD*%
%AMOC8*
5,1,8,0,0,1.08239X$1,22.5*
%
%ADD10C,0.02000*%
%ADD11C,0.00000*%
%ADD12C,0.14573*%
%ADD13R,0.09700X0.09700*%
%ADD14C,0.07800*%
%ADD15R,0.05943X0.05943*%
D10*
X0002456Y0003000D02*
X0139456Y0002000D01*
X0139456Y0264000D01*
X0002456Y0264000D01*
X0002456Y0003000D01*
D11*
X0007869Y0015000D02*
X0007871Y0015174D01*
X0007878Y0015348D01*
X0007888Y0015521D01*
X0007903Y0015695D01*
X0007922Y0015868D01*
X0007946Y0016040D01*
X0007973Y0016212D01*
X0008005Y0016383D01*
X0008041Y0016553D01*
X0008081Y0016722D01*
X0008126Y0016890D01*
X0008174Y0017057D01*
X0008227Y0017223D01*
X0008283Y0017388D01*
X0008344Y0017551D01*
X0008408Y0017712D01*
X0008477Y0017872D01*
X0008549Y0018030D01*
X0008626Y0018186D01*
X0008706Y0018341D01*
X0008790Y0018493D01*
X0008877Y0018643D01*
X0008969Y0018792D01*
X0009063Y0018937D01*
X0009162Y0019081D01*
X0009264Y0019222D01*
X0009369Y0019360D01*
X0009478Y0019496D01*
X0009590Y0019629D01*
X0009705Y0019759D01*
X0009823Y0019887D01*
X0009945Y0020011D01*
X0010069Y0020133D01*
X0010197Y0020251D01*
X0010327Y0020366D01*
X0010460Y0020478D01*
X0010596Y0020587D01*
X0010734Y0020692D01*
X0010875Y0020794D01*
X0011019Y0020893D01*
X0011164Y0020987D01*
X0011313Y0021079D01*
X0011463Y0021166D01*
X0011615Y0021250D01*
X0011770Y0021330D01*
X0011926Y0021407D01*
X0012084Y0021479D01*
X0012244Y0021548D01*
X0012405Y0021612D01*
X0012568Y0021673D01*
X0012733Y0021729D01*
X0012899Y0021782D01*
X0013066Y0021830D01*
X0013234Y0021875D01*
X0013403Y0021915D01*
X0013573Y0021951D01*
X0013744Y0021983D01*
X0013916Y0022010D01*
X0014088Y0022034D01*
X0014261Y0022053D01*
X0014435Y0022068D01*
X0014608Y0022078D01*
X0014782Y0022085D01*
X0014956Y0022087D01*
X0015130Y0022085D01*
X0015304Y0022078D01*
X0015477Y0022068D01*
X0015651Y0022053D01*
X0015824Y0022034D01*
X0015996Y0022010D01*
X0016168Y0021983D01*
X0016339Y0021951D01*
X0016509Y0021915D01*
X0016678Y0021875D01*
X0016846Y0021830D01*
X0017013Y0021782D01*
X0017179Y0021729D01*
X0017344Y0021673D01*
X0017507Y0021612D01*
X0017668Y0021548D01*
X0017828Y0021479D01*
X0017986Y0021407D01*
X0018142Y0021330D01*
X0018297Y0021250D01*
X0018449Y0021166D01*
X0018599Y0021079D01*
X0018748Y0020987D01*
X0018893Y0020893D01*
X0019037Y0020794D01*
X0019178Y0020692D01*
X0019316Y0020587D01*
X0019452Y0020478D01*
X0019585Y0020366D01*
X0019715Y0020251D01*
X0019843Y0020133D01*
X0019967Y0020011D01*
X0020089Y0019887D01*
X0020207Y0019759D01*
X0020322Y0019629D01*
X0020434Y0019496D01*
X0020543Y0019360D01*
X0020648Y0019222D01*
X0020750Y0019081D01*
X0020849Y0018937D01*
X0020943Y0018792D01*
X0021035Y0018643D01*
X0021122Y0018493D01*
X0021206Y0018341D01*
X0021286Y0018186D01*
X0021363Y0018030D01*
X0021435Y0017872D01*
X0021504Y0017712D01*
X0021568Y0017551D01*
X0021629Y0017388D01*
X0021685Y0017223D01*
X0021738Y0017057D01*
X0021786Y0016890D01*
X0021831Y0016722D01*
X0021871Y0016553D01*
X0021907Y0016383D01*
X0021939Y0016212D01*
X0021966Y0016040D01*
X0021990Y0015868D01*
X0022009Y0015695D01*
X0022024Y0015521D01*
X0022034Y0015348D01*
X0022041Y0015174D01*
X0022043Y0015000D01*
X0022041Y0014826D01*
X0022034Y0014652D01*
X0022024Y0014479D01*
X0022009Y0014305D01*
X0021990Y0014132D01*
X0021966Y0013960D01*
X0021939Y0013788D01*
X0021907Y0013617D01*
X0021871Y0013447D01*
X0021831Y0013278D01*
X0021786Y0013110D01*
X0021738Y0012943D01*
X0021685Y0012777D01*
X0021629Y0012612D01*
X0021568Y0012449D01*
X0021504Y0012288D01*
X0021435Y0012128D01*
X0021363Y0011970D01*
X0021286Y0011814D01*
X0021206Y0011659D01*
X0021122Y0011507D01*
X0021035Y0011357D01*
X0020943Y0011208D01*
X0020849Y0011063D01*
X0020750Y0010919D01*
X0020648Y0010778D01*
X0020543Y0010640D01*
X0020434Y0010504D01*
X0020322Y0010371D01*
X0020207Y0010241D01*
X0020089Y0010113D01*
X0019967Y0009989D01*
X0019843Y0009867D01*
X0019715Y0009749D01*
X0019585Y0009634D01*
X0019452Y0009522D01*
X0019316Y0009413D01*
X0019178Y0009308D01*
X0019037Y0009206D01*
X0018893Y0009107D01*
X0018748Y0009013D01*
X0018599Y0008921D01*
X0018449Y0008834D01*
X0018297Y0008750D01*
X0018142Y0008670D01*
X0017986Y0008593D01*
X0017828Y0008521D01*
X0017668Y0008452D01*
X0017507Y0008388D01*
X0017344Y0008327D01*
X0017179Y0008271D01*
X0017013Y0008218D01*
X0016846Y0008170D01*
X0016678Y0008125D01*
X0016509Y0008085D01*
X0016339Y0008049D01*
X0016168Y0008017D01*
X0015996Y0007990D01*
X0015824Y0007966D01*
X0015651Y0007947D01*
X0015477Y0007932D01*
X0015304Y0007922D01*
X0015130Y0007915D01*
X0014956Y0007913D01*
X0014782Y0007915D01*
X0014608Y0007922D01*
X0014435Y0007932D01*
X0014261Y0007947D01*
X0014088Y0007966D01*
X0013916Y0007990D01*
X0013744Y0008017D01*
X0013573Y0008049D01*
X0013403Y0008085D01*
X0013234Y0008125D01*
X0013066Y0008170D01*
X0012899Y0008218D01*
X0012733Y0008271D01*
X0012568Y0008327D01*
X0012405Y0008388D01*
X0012244Y0008452D01*
X0012084Y0008521D01*
X0011926Y0008593D01*
X0011770Y0008670D01*
X0011615Y0008750D01*
X0011463Y0008834D01*
X0011313Y0008921D01*
X0011164Y0009013D01*
X0011019Y0009107D01*
X0010875Y0009206D01*
X0010734Y0009308D01*
X0010596Y0009413D01*
X0010460Y0009522D01*
X0010327Y0009634D01*
X0010197Y0009749D01*
X0010069Y0009867D01*
X0009945Y0009989D01*
X0009823Y0010113D01*
X0009705Y0010241D01*
X0009590Y0010371D01*
X0009478Y0010504D01*
X0009369Y0010640D01*
X0009264Y0010778D01*
X0009162Y0010919D01*
X0009063Y0011063D01*
X0008969Y0011208D01*
X0008877Y0011357D01*
X0008790Y0011507D01*
X0008706Y0011659D01*
X0008626Y0011814D01*
X0008549Y0011970D01*
X0008477Y0012128D01*
X0008408Y0012288D01*
X0008344Y0012449D01*
X0008283Y0012612D01*
X0008227Y0012777D01*
X0008174Y0012943D01*
X0008126Y0013110D01*
X0008081Y0013278D01*
X0008041Y0013447D01*
X0008005Y0013617D01*
X0007973Y0013788D01*
X0007946Y0013960D01*
X0007922Y0014132D01*
X0007903Y0014305D01*
X0007888Y0014479D01*
X0007878Y0014652D01*
X0007871Y0014826D01*
X0007869Y0015000D01*
X0120869Y0015000D02*
X0120871Y0015174D01*
X0120878Y0015348D01*
X0120888Y0015521D01*
X0120903Y0015695D01*
X0120922Y0015868D01*
X0120946Y0016040D01*
X0120973Y0016212D01*
X0121005Y0016383D01*
X0121041Y0016553D01*
X0121081Y0016722D01*
X0121126Y0016890D01*
X0121174Y0017057D01*
X0121227Y0017223D01*
X0121283Y0017388D01*
X0121344Y0017551D01*
X0121408Y0017712D01*
X0121477Y0017872D01*
X0121549Y0018030D01*
X0121626Y0018186D01*
X0121706Y0018341D01*
X0121790Y0018493D01*
X0121877Y0018643D01*
X0121969Y0018792D01*
X0122063Y0018937D01*
X0122162Y0019081D01*
X0122264Y0019222D01*
X0122369Y0019360D01*
X0122478Y0019496D01*
X0122590Y0019629D01*
X0122705Y0019759D01*
X0122823Y0019887D01*
X0122945Y0020011D01*
X0123069Y0020133D01*
X0123197Y0020251D01*
X0123327Y0020366D01*
X0123460Y0020478D01*
X0123596Y0020587D01*
X0123734Y0020692D01*
X0123875Y0020794D01*
X0124019Y0020893D01*
X0124164Y0020987D01*
X0124313Y0021079D01*
X0124463Y0021166D01*
X0124615Y0021250D01*
X0124770Y0021330D01*
X0124926Y0021407D01*
X0125084Y0021479D01*
X0125244Y0021548D01*
X0125405Y0021612D01*
X0125568Y0021673D01*
X0125733Y0021729D01*
X0125899Y0021782D01*
X0126066Y0021830D01*
X0126234Y0021875D01*
X0126403Y0021915D01*
X0126573Y0021951D01*
X0126744Y0021983D01*
X0126916Y0022010D01*
X0127088Y0022034D01*
X0127261Y0022053D01*
X0127435Y0022068D01*
X0127608Y0022078D01*
X0127782Y0022085D01*
X0127956Y0022087D01*
X0128130Y0022085D01*
X0128304Y0022078D01*
X0128477Y0022068D01*
X0128651Y0022053D01*
X0128824Y0022034D01*
X0128996Y0022010D01*
X0129168Y0021983D01*
X0129339Y0021951D01*
X0129509Y0021915D01*
X0129678Y0021875D01*
X0129846Y0021830D01*
X0130013Y0021782D01*
X0130179Y0021729D01*
X0130344Y0021673D01*
X0130507Y0021612D01*
X0130668Y0021548D01*
X0130828Y0021479D01*
X0130986Y0021407D01*
X0131142Y0021330D01*
X0131297Y0021250D01*
X0131449Y0021166D01*
X0131599Y0021079D01*
X0131748Y0020987D01*
X0131893Y0020893D01*
X0132037Y0020794D01*
X0132178Y0020692D01*
X0132316Y0020587D01*
X0132452Y0020478D01*
X0132585Y0020366D01*
X0132715Y0020251D01*
X0132843Y0020133D01*
X0132967Y0020011D01*
X0133089Y0019887D01*
X0133207Y0019759D01*
X0133322Y0019629D01*
X0133434Y0019496D01*
X0133543Y0019360D01*
X0133648Y0019222D01*
X0133750Y0019081D01*
X0133849Y0018937D01*
X0133943Y0018792D01*
X0134035Y0018643D01*
X0134122Y0018493D01*
X0134206Y0018341D01*
X0134286Y0018186D01*
X0134363Y0018030D01*
X0134435Y0017872D01*
X0134504Y0017712D01*
X0134568Y0017551D01*
X0134629Y0017388D01*
X0134685Y0017223D01*
X0134738Y0017057D01*
X0134786Y0016890D01*
X0134831Y0016722D01*
X0134871Y0016553D01*
X0134907Y0016383D01*
X0134939Y0016212D01*
X0134966Y0016040D01*
X0134990Y0015868D01*
X0135009Y0015695D01*
X0135024Y0015521D01*
X0135034Y0015348D01*
X0135041Y0015174D01*
X0135043Y0015000D01*
X0135041Y0014826D01*
X0135034Y0014652D01*
X0135024Y0014479D01*
X0135009Y0014305D01*
X0134990Y0014132D01*
X0134966Y0013960D01*
X0134939Y0013788D01*
X0134907Y0013617D01*
X0134871Y0013447D01*
X0134831Y0013278D01*
X0134786Y0013110D01*
X0134738Y0012943D01*
X0134685Y0012777D01*
X0134629Y0012612D01*
X0134568Y0012449D01*
X0134504Y0012288D01*
X0134435Y0012128D01*
X0134363Y0011970D01*
X0134286Y0011814D01*
X0134206Y0011659D01*
X0134122Y0011507D01*
X0134035Y0011357D01*
X0133943Y0011208D01*
X0133849Y0011063D01*
X0133750Y0010919D01*
X0133648Y0010778D01*
X0133543Y0010640D01*
X0133434Y0010504D01*
X0133322Y0010371D01*
X0133207Y0010241D01*
X0133089Y0010113D01*
X0132967Y0009989D01*
X0132843Y0009867D01*
X0132715Y0009749D01*
X0132585Y0009634D01*
X0132452Y0009522D01*
X0132316Y0009413D01*
X0132178Y0009308D01*
X0132037Y0009206D01*
X0131893Y0009107D01*
X0131748Y0009013D01*
X0131599Y0008921D01*
X0131449Y0008834D01*
X0131297Y0008750D01*
X0131142Y0008670D01*
X0130986Y0008593D01*
X0130828Y0008521D01*
X0130668Y0008452D01*
X0130507Y0008388D01*
X0130344Y0008327D01*
X0130179Y0008271D01*
X0130013Y0008218D01*
X0129846Y0008170D01*
X0129678Y0008125D01*
X0129509Y0008085D01*
X0129339Y0008049D01*
X0129168Y0008017D01*
X0128996Y0007990D01*
X0128824Y0007966D01*
X0128651Y0007947D01*
X0128477Y0007932D01*
X0128304Y0007922D01*
X0128130Y0007915D01*
X0127956Y0007913D01*
X0127782Y0007915D01*
X0127608Y0007922D01*
X0127435Y0007932D01*
X0127261Y0007947D01*
X0127088Y0007966D01*
X0126916Y0007990D01*
X0126744Y0008017D01*
X0126573Y0008049D01*
X0126403Y0008085D01*
X0126234Y0008125D01*
X0126066Y0008170D01*
X0125899Y0008218D01*
X0125733Y0008271D01*
X0125568Y0008327D01*
X0125405Y0008388D01*
X0125244Y0008452D01*
X0125084Y0008521D01*
X0124926Y0008593D01*
X0124770Y0008670D01*
X0124615Y0008750D01*
X0124463Y0008834D01*
X0124313Y0008921D01*
X0124164Y0009013D01*
X0124019Y0009107D01*
X0123875Y0009206D01*
X0123734Y0009308D01*
X0123596Y0009413D01*
X0123460Y0009522D01*
X0123327Y0009634D01*
X0123197Y0009749D01*
X0123069Y0009867D01*
X0122945Y0009989D01*
X0122823Y0010113D01*
X0122705Y0010241D01*
X0122590Y0010371D01*
X0122478Y0010504D01*
X0122369Y0010640D01*
X0122264Y0010778D01*
X0122162Y0010919D01*
X0122063Y0011063D01*
X0121969Y0011208D01*
X0121877Y0011357D01*
X0121790Y0011507D01*
X0121706Y0011659D01*
X0121626Y0011814D01*
X0121549Y0011970D01*
X0121477Y0012128D01*
X0121408Y0012288D01*
X0121344Y0012449D01*
X0121283Y0012612D01*
X0121227Y0012777D01*
X0121174Y0012943D01*
X0121126Y0013110D01*
X0121081Y0013278D01*
X0121041Y0013447D01*
X0121005Y0013617D01*
X0120973Y0013788D01*
X0120946Y0013960D01*
X0120922Y0014132D01*
X0120903Y0014305D01*
X0120888Y0014479D01*
X0120878Y0014652D01*
X0120871Y0014826D01*
X0120869Y0015000D01*
X0120869Y0250000D02*
X0120871Y0250174D01*
X0120878Y0250348D01*
X0120888Y0250521D01*
X0120903Y0250695D01*
X0120922Y0250868D01*
X0120946Y0251040D01*
X0120973Y0251212D01*
X0121005Y0251383D01*
X0121041Y0251553D01*
X0121081Y0251722D01*
X0121126Y0251890D01*
X0121174Y0252057D01*
X0121227Y0252223D01*
X0121283Y0252388D01*
X0121344Y0252551D01*
X0121408Y0252712D01*
X0121477Y0252872D01*
X0121549Y0253030D01*
X0121626Y0253186D01*
X0121706Y0253341D01*
X0121790Y0253493D01*
X0121877Y0253643D01*
X0121969Y0253792D01*
X0122063Y0253937D01*
X0122162Y0254081D01*
X0122264Y0254222D01*
X0122369Y0254360D01*
X0122478Y0254496D01*
X0122590Y0254629D01*
X0122705Y0254759D01*
X0122823Y0254887D01*
X0122945Y0255011D01*
X0123069Y0255133D01*
X0123197Y0255251D01*
X0123327Y0255366D01*
X0123460Y0255478D01*
X0123596Y0255587D01*
X0123734Y0255692D01*
X0123875Y0255794D01*
X0124019Y0255893D01*
X0124164Y0255987D01*
X0124313Y0256079D01*
X0124463Y0256166D01*
X0124615Y0256250D01*
X0124770Y0256330D01*
X0124926Y0256407D01*
X0125084Y0256479D01*
X0125244Y0256548D01*
X0125405Y0256612D01*
X0125568Y0256673D01*
X0125733Y0256729D01*
X0125899Y0256782D01*
X0126066Y0256830D01*
X0126234Y0256875D01*
X0126403Y0256915D01*
X0126573Y0256951D01*
X0126744Y0256983D01*
X0126916Y0257010D01*
X0127088Y0257034D01*
X0127261Y0257053D01*
X0127435Y0257068D01*
X0127608Y0257078D01*
X0127782Y0257085D01*
X0127956Y0257087D01*
X0128130Y0257085D01*
X0128304Y0257078D01*
X0128477Y0257068D01*
X0128651Y0257053D01*
X0128824Y0257034D01*
X0128996Y0257010D01*
X0129168Y0256983D01*
X0129339Y0256951D01*
X0129509Y0256915D01*
X0129678Y0256875D01*
X0129846Y0256830D01*
X0130013Y0256782D01*
X0130179Y0256729D01*
X0130344Y0256673D01*
X0130507Y0256612D01*
X0130668Y0256548D01*
X0130828Y0256479D01*
X0130986Y0256407D01*
X0131142Y0256330D01*
X0131297Y0256250D01*
X0131449Y0256166D01*
X0131599Y0256079D01*
X0131748Y0255987D01*
X0131893Y0255893D01*
X0132037Y0255794D01*
X0132178Y0255692D01*
X0132316Y0255587D01*
X0132452Y0255478D01*
X0132585Y0255366D01*
X0132715Y0255251D01*
X0132843Y0255133D01*
X0132967Y0255011D01*
X0133089Y0254887D01*
X0133207Y0254759D01*
X0133322Y0254629D01*
X0133434Y0254496D01*
X0133543Y0254360D01*
X0133648Y0254222D01*
X0133750Y0254081D01*
X0133849Y0253937D01*
X0133943Y0253792D01*
X0134035Y0253643D01*
X0134122Y0253493D01*
X0134206Y0253341D01*
X0134286Y0253186D01*
X0134363Y0253030D01*
X0134435Y0252872D01*
X0134504Y0252712D01*
X0134568Y0252551D01*
X0134629Y0252388D01*
X0134685Y0252223D01*
X0134738Y0252057D01*
X0134786Y0251890D01*
X0134831Y0251722D01*
X0134871Y0251553D01*
X0134907Y0251383D01*
X0134939Y0251212D01*
X0134966Y0251040D01*
X0134990Y0250868D01*
X0135009Y0250695D01*
X0135024Y0250521D01*
X0135034Y0250348D01*
X0135041Y0250174D01*
X0135043Y0250000D01*
X0135041Y0249826D01*
X0135034Y0249652D01*
X0135024Y0249479D01*
X0135009Y0249305D01*
X0134990Y0249132D01*
X0134966Y0248960D01*
X0134939Y0248788D01*
X0134907Y0248617D01*
X0134871Y0248447D01*
X0134831Y0248278D01*
X0134786Y0248110D01*
X0134738Y0247943D01*
X0134685Y0247777D01*
X0134629Y0247612D01*
X0134568Y0247449D01*
X0134504Y0247288D01*
X0134435Y0247128D01*
X0134363Y0246970D01*
X0134286Y0246814D01*
X0134206Y0246659D01*
X0134122Y0246507D01*
X0134035Y0246357D01*
X0133943Y0246208D01*
X0133849Y0246063D01*
X0133750Y0245919D01*
X0133648Y0245778D01*
X0133543Y0245640D01*
X0133434Y0245504D01*
X0133322Y0245371D01*
X0133207Y0245241D01*
X0133089Y0245113D01*
X0132967Y0244989D01*
X0132843Y0244867D01*
X0132715Y0244749D01*
X0132585Y0244634D01*
X0132452Y0244522D01*
X0132316Y0244413D01*
X0132178Y0244308D01*
X0132037Y0244206D01*
X0131893Y0244107D01*
X0131748Y0244013D01*
X0131599Y0243921D01*
X0131449Y0243834D01*
X0131297Y0243750D01*
X0131142Y0243670D01*
X0130986Y0243593D01*
X0130828Y0243521D01*
X0130668Y0243452D01*
X0130507Y0243388D01*
X0130344Y0243327D01*
X0130179Y0243271D01*
X0130013Y0243218D01*
X0129846Y0243170D01*
X0129678Y0243125D01*
X0129509Y0243085D01*
X0129339Y0243049D01*
X0129168Y0243017D01*
X0128996Y0242990D01*
X0128824Y0242966D01*
X0128651Y0242947D01*
X0128477Y0242932D01*
X0128304Y0242922D01*
X0128130Y0242915D01*
X0127956Y0242913D01*
X0127782Y0242915D01*
X0127608Y0242922D01*
X0127435Y0242932D01*
X0127261Y0242947D01*
X0127088Y0242966D01*
X0126916Y0242990D01*
X0126744Y0243017D01*
X0126573Y0243049D01*
X0126403Y0243085D01*
X0126234Y0243125D01*
X0126066Y0243170D01*
X0125899Y0243218D01*
X0125733Y0243271D01*
X0125568Y0243327D01*
X0125405Y0243388D01*
X0125244Y0243452D01*
X0125084Y0243521D01*
X0124926Y0243593D01*
X0124770Y0243670D01*
X0124615Y0243750D01*
X0124463Y0243834D01*
X0124313Y0243921D01*
X0124164Y0244013D01*
X0124019Y0244107D01*
X0123875Y0244206D01*
X0123734Y0244308D01*
X0123596Y0244413D01*
X0123460Y0244522D01*
X0123327Y0244634D01*
X0123197Y0244749D01*
X0123069Y0244867D01*
X0122945Y0244989D01*
X0122823Y0245113D01*
X0122705Y0245241D01*
X0122590Y0245371D01*
X0122478Y0245504D01*
X0122369Y0245640D01*
X0122264Y0245778D01*
X0122162Y0245919D01*
X0122063Y0246063D01*
X0121969Y0246208D01*
X0121877Y0246357D01*
X0121790Y0246507D01*
X0121706Y0246659D01*
X0121626Y0246814D01*
X0121549Y0246970D01*
X0121477Y0247128D01*
X0121408Y0247288D01*
X0121344Y0247449D01*
X0121283Y0247612D01*
X0121227Y0247777D01*
X0121174Y0247943D01*
X0121126Y0248110D01*
X0121081Y0248278D01*
X0121041Y0248447D01*
X0121005Y0248617D01*
X0120973Y0248788D01*
X0120946Y0248960D01*
X0120922Y0249132D01*
X0120903Y0249305D01*
X0120888Y0249479D01*
X0120878Y0249652D01*
X0120871Y0249826D01*
X0120869Y0250000D01*
X0007869Y0250000D02*
X0007871Y0250174D01*
X0007878Y0250348D01*
X0007888Y0250521D01*
X0007903Y0250695D01*
X0007922Y0250868D01*
X0007946Y0251040D01*
X0007973Y0251212D01*
X0008005Y0251383D01*
X0008041Y0251553D01*
X0008081Y0251722D01*
X0008126Y0251890D01*
X0008174Y0252057D01*
X0008227Y0252223D01*
X0008283Y0252388D01*
X0008344Y0252551D01*
X0008408Y0252712D01*
X0008477Y0252872D01*
X0008549Y0253030D01*
X0008626Y0253186D01*
X0008706Y0253341D01*
X0008790Y0253493D01*
X0008877Y0253643D01*
X0008969Y0253792D01*
X0009063Y0253937D01*
X0009162Y0254081D01*
X0009264Y0254222D01*
X0009369Y0254360D01*
X0009478Y0254496D01*
X0009590Y0254629D01*
X0009705Y0254759D01*
X0009823Y0254887D01*
X0009945Y0255011D01*
X0010069Y0255133D01*
X0010197Y0255251D01*
X0010327Y0255366D01*
X0010460Y0255478D01*
X0010596Y0255587D01*
X0010734Y0255692D01*
X0010875Y0255794D01*
X0011019Y0255893D01*
X0011164Y0255987D01*
X0011313Y0256079D01*
X0011463Y0256166D01*
X0011615Y0256250D01*
X0011770Y0256330D01*
X0011926Y0256407D01*
X0012084Y0256479D01*
X0012244Y0256548D01*
X0012405Y0256612D01*
X0012568Y0256673D01*
X0012733Y0256729D01*
X0012899Y0256782D01*
X0013066Y0256830D01*
X0013234Y0256875D01*
X0013403Y0256915D01*
X0013573Y0256951D01*
X0013744Y0256983D01*
X0013916Y0257010D01*
X0014088Y0257034D01*
X0014261Y0257053D01*
X0014435Y0257068D01*
X0014608Y0257078D01*
X0014782Y0257085D01*
X0014956Y0257087D01*
X0015130Y0257085D01*
X0015304Y0257078D01*
X0015477Y0257068D01*
X0015651Y0257053D01*
X0015824Y0257034D01*
X0015996Y0257010D01*
X0016168Y0256983D01*
X0016339Y0256951D01*
X0016509Y0256915D01*
X0016678Y0256875D01*
X0016846Y0256830D01*
X0017013Y0256782D01*
X0017179Y0256729D01*
X0017344Y0256673D01*
X0017507Y0256612D01*
X0017668Y0256548D01*
X0017828Y0256479D01*
X0017986Y0256407D01*
X0018142Y0256330D01*
X0018297Y0256250D01*
X0018449Y0256166D01*
X0018599Y0256079D01*
X0018748Y0255987D01*
X0018893Y0255893D01*
X0019037Y0255794D01*
X0019178Y0255692D01*
X0019316Y0255587D01*
X0019452Y0255478D01*
X0019585Y0255366D01*
X0019715Y0255251D01*
X0019843Y0255133D01*
X0019967Y0255011D01*
X0020089Y0254887D01*
X0020207Y0254759D01*
X0020322Y0254629D01*
X0020434Y0254496D01*
X0020543Y0254360D01*
X0020648Y0254222D01*
X0020750Y0254081D01*
X0020849Y0253937D01*
X0020943Y0253792D01*
X0021035Y0253643D01*
X0021122Y0253493D01*
X0021206Y0253341D01*
X0021286Y0253186D01*
X0021363Y0253030D01*
X0021435Y0252872D01*
X0021504Y0252712D01*
X0021568Y0252551D01*
X0021629Y0252388D01*
X0021685Y0252223D01*
X0021738Y0252057D01*
X0021786Y0251890D01*
X0021831Y0251722D01*
X0021871Y0251553D01*
X0021907Y0251383D01*
X0021939Y0251212D01*
X0021966Y0251040D01*
X0021990Y0250868D01*
X0022009Y0250695D01*
X0022024Y0250521D01*
X0022034Y0250348D01*
X0022041Y0250174D01*
X0022043Y0250000D01*
X0022041Y0249826D01*
X0022034Y0249652D01*
X0022024Y0249479D01*
X0022009Y0249305D01*
X0021990Y0249132D01*
X0021966Y0248960D01*
X0021939Y0248788D01*
X0021907Y0248617D01*
X0021871Y0248447D01*
X0021831Y0248278D01*
X0021786Y0248110D01*
X0021738Y0247943D01*
X0021685Y0247777D01*
X0021629Y0247612D01*
X0021568Y0247449D01*
X0021504Y0247288D01*
X0021435Y0247128D01*
X0021363Y0246970D01*
X0021286Y0246814D01*
X0021206Y0246659D01*
X0021122Y0246507D01*
X0021035Y0246357D01*
X0020943Y0246208D01*
X0020849Y0246063D01*
X0020750Y0245919D01*
X0020648Y0245778D01*
X0020543Y0245640D01*
X0020434Y0245504D01*
X0020322Y0245371D01*
X0020207Y0245241D01*
X0020089Y0245113D01*
X0019967Y0244989D01*
X0019843Y0244867D01*
X0019715Y0244749D01*
X0019585Y0244634D01*
X0019452Y0244522D01*
X0019316Y0244413D01*
X0019178Y0244308D01*
X0019037Y0244206D01*
X0018893Y0244107D01*
X0018748Y0244013D01*
X0018599Y0243921D01*
X0018449Y0243834D01*
X0018297Y0243750D01*
X0018142Y0243670D01*
X0017986Y0243593D01*
X0017828Y0243521D01*
X0017668Y0243452D01*
X0017507Y0243388D01*
X0017344Y0243327D01*
X0017179Y0243271D01*
X0017013Y0243218D01*
X0016846Y0243170D01*
X0016678Y0243125D01*
X0016509Y0243085D01*
X0016339Y0243049D01*
X0016168Y0243017D01*
X0015996Y0242990D01*
X0015824Y0242966D01*
X0015651Y0242947D01*
X0015477Y0242932D01*
X0015304Y0242922D01*
X0015130Y0242915D01*
X0014956Y0242913D01*
X0014782Y0242915D01*
X0014608Y0242922D01*
X0014435Y0242932D01*
X0014261Y0242947D01*
X0014088Y0242966D01*
X0013916Y0242990D01*
X0013744Y0243017D01*
X0013573Y0243049D01*
X0013403Y0243085D01*
X0013234Y0243125D01*
X0013066Y0243170D01*
X0012899Y0243218D01*
X0012733Y0243271D01*
X0012568Y0243327D01*
X0012405Y0243388D01*
X0012244Y0243452D01*
X0012084Y0243521D01*
X0011926Y0243593D01*
X0011770Y0243670D01*
X0011615Y0243750D01*
X0011463Y0243834D01*
X0011313Y0243921D01*
X0011164Y0244013D01*
X0011019Y0244107D01*
X0010875Y0244206D01*
X0010734Y0244308D01*
X0010596Y0244413D01*
X0010460Y0244522D01*
X0010327Y0244634D01*
X0010197Y0244749D01*
X0010069Y0244867D01*
X0009945Y0244989D01*
X0009823Y0245113D01*
X0009705Y0245241D01*
X0009590Y0245371D01*
X0009478Y0245504D01*
X0009369Y0245640D01*
X0009264Y0245778D01*
X0009162Y0245919D01*
X0009063Y0246063D01*
X0008969Y0246208D01*
X0008877Y0246357D01*
X0008790Y0246507D01*
X0008706Y0246659D01*
X0008626Y0246814D01*
X0008549Y0246970D01*
X0008477Y0247128D01*
X0008408Y0247288D01*
X0008344Y0247449D01*
X0008283Y0247612D01*
X0008227Y0247777D01*
X0008174Y0247943D01*
X0008126Y0248110D01*
X0008081Y0248278D01*
X0008041Y0248447D01*
X0008005Y0248617D01*
X0007973Y0248788D01*
X0007946Y0248960D01*
X0007922Y0249132D01*
X0007903Y0249305D01*
X0007888Y0249479D01*
X0007878Y0249652D01*
X0007871Y0249826D01*
X0007869Y0250000D01*
D12*
X0014956Y0250000D03*
X0127956Y0250000D03*
X0127956Y0015000D03*
X0014956Y0015000D03*
D13*
X0044456Y0156800D03*
X0044456Y0176600D03*
X0044456Y0196400D03*
X0044456Y0216200D03*
X0044456Y0236000D03*
X0064256Y0236000D03*
X0064256Y0216200D03*
X0064256Y0196400D03*
X0064256Y0176600D03*
X0064256Y0156800D03*
X0084056Y0156800D03*
X0084056Y0176600D03*
X0084056Y0196400D03*
X0084056Y0216200D03*
X0084056Y0236000D03*
D14*
X0080456Y0077000D03*
X0080456Y0067000D03*
X0090456Y0067000D03*
X0090456Y0077000D03*
X0100456Y0077000D03*
X0100456Y0067000D03*
X0070456Y0067000D03*
X0070456Y0077000D03*
X0043456Y0033000D03*
X0033456Y0033000D03*
D15*
X0033456Y0101000D03*
X0043456Y0101000D03*
X0053456Y0101000D03*
M02*
