%
M48
M72
T01C0.01378
T02C0.03543
T03C0.04000
T04C0.06200
T05C0.14173
%
T01
X101456Y108000
X109456Y127000
X129456Y164000
X106456Y192000
X94456Y166000
X73456Y114000
X61456Y131000
X53456Y70000
X30456Y46000
X13456Y92000
X106456Y228000
X124456Y208000
T02
X53456Y101000
X43456Y101000
X33456Y101000
T03
X100456Y67000
X100456Y77000
X90456Y77000
X90456Y67000
X80456Y67000
X80456Y77000
X70456Y77000
X70456Y67000
X43456Y33000
X33456Y33000
T04
X84056Y156800
X84056Y176600
X84056Y196400
X84056Y216200
X84056Y236000
X64256Y236000
X64256Y216200
X64256Y196400
X64256Y176600
X64256Y156800
X44456Y156800
X44456Y176600
X44456Y196400
X44456Y216200
X44456Y236000
T05
X127956Y15000
X14956Y15000
X14956Y250000
X127956Y250000
M30
