G75*
%MOIN*%
%OFA0B0*%
%FSLAX25Y25*%
%IPPOS*%
%LPD*%
%AMOC8*
5,1,8,0,0,1.08239X$1,22.5*
%
%ADD10C,0.02000*%
%ADD11C,0.00400*%
%ADD12C,0.00000*%
%ADD13C,0.00800*%
D10*
X0002000Y0037211D02*
X0139000Y0036211D01*
X0139000Y0298211D01*
X0002000Y0298211D01*
X0002000Y0037211D01*
D11*
X0032970Y0107411D02*
X0033198Y0107411D01*
X0033198Y0107638D01*
X0032970Y0107638D01*
X0032970Y0107411D01*
X0034780Y0107411D02*
X0037058Y0107411D01*
X0035919Y0107411D02*
X0035919Y0111511D01*
X0037058Y0110600D01*
X0038602Y0111511D02*
X0039969Y0107411D01*
X0041336Y0111511D01*
X0044998Y0109233D02*
X0044998Y0108777D01*
X0046820Y0108777D01*
X0046820Y0109233D02*
X0046820Y0108094D01*
X0046818Y0108043D01*
X0046812Y0107992D01*
X0046803Y0107942D01*
X0046790Y0107893D01*
X0046773Y0107844D01*
X0046752Y0107798D01*
X0046728Y0107753D01*
X0046701Y0107709D01*
X0046671Y0107668D01*
X0046638Y0107629D01*
X0046602Y0107593D01*
X0046563Y0107560D01*
X0046522Y0107530D01*
X0046479Y0107503D01*
X0046433Y0107479D01*
X0046387Y0107458D01*
X0046338Y0107441D01*
X0046289Y0107428D01*
X0046239Y0107419D01*
X0046188Y0107413D01*
X0046137Y0107411D01*
X0044998Y0107411D01*
X0044998Y0109233D02*
X0045000Y0109293D01*
X0045006Y0109352D01*
X0045016Y0109411D01*
X0045029Y0109469D01*
X0045046Y0109526D01*
X0045067Y0109582D01*
X0045092Y0109636D01*
X0045120Y0109689D01*
X0045152Y0109739D01*
X0045186Y0109788D01*
X0045224Y0109834D01*
X0045265Y0109877D01*
X0045308Y0109918D01*
X0045354Y0109956D01*
X0045403Y0109990D01*
X0045454Y0110022D01*
X0045506Y0110050D01*
X0045560Y0110075D01*
X0045616Y0110096D01*
X0045673Y0110113D01*
X0045731Y0110126D01*
X0045790Y0110136D01*
X0045849Y0110142D01*
X0045909Y0110144D01*
X0045969Y0110142D01*
X0046028Y0110136D01*
X0046087Y0110126D01*
X0046145Y0110113D01*
X0046202Y0110096D01*
X0046258Y0110075D01*
X0046312Y0110050D01*
X0046365Y0110022D01*
X0046415Y0109990D01*
X0046464Y0109956D01*
X0046510Y0109918D01*
X0046553Y0109877D01*
X0046594Y0109834D01*
X0046632Y0109788D01*
X0046666Y0109739D01*
X0046698Y0109689D01*
X0046726Y0109636D01*
X0046751Y0109582D01*
X0046772Y0109526D01*
X0046789Y0109469D01*
X0046802Y0109411D01*
X0046812Y0109352D01*
X0046818Y0109293D01*
X0046820Y0109233D01*
X0048326Y0110144D02*
X0049237Y0110144D01*
X0049288Y0110142D01*
X0049339Y0110136D01*
X0049389Y0110127D01*
X0049438Y0110114D01*
X0049487Y0110097D01*
X0049533Y0110076D01*
X0049579Y0110052D01*
X0049622Y0110025D01*
X0049663Y0109995D01*
X0049702Y0109962D01*
X0049738Y0109926D01*
X0049771Y0109887D01*
X0049801Y0109846D01*
X0049828Y0109803D01*
X0049852Y0109757D01*
X0049873Y0109711D01*
X0049890Y0109662D01*
X0049903Y0109613D01*
X0049912Y0109563D01*
X0049918Y0109512D01*
X0049920Y0109461D01*
X0049920Y0108094D01*
X0049918Y0108043D01*
X0049912Y0107992D01*
X0049903Y0107942D01*
X0049890Y0107893D01*
X0049873Y0107844D01*
X0049852Y0107798D01*
X0049828Y0107753D01*
X0049801Y0107709D01*
X0049771Y0107668D01*
X0049738Y0107629D01*
X0049702Y0107593D01*
X0049663Y0107560D01*
X0049622Y0107530D01*
X0049579Y0107503D01*
X0049533Y0107479D01*
X0049487Y0107458D01*
X0049438Y0107441D01*
X0049389Y0107428D01*
X0049339Y0107419D01*
X0049288Y0107413D01*
X0049237Y0107411D01*
X0048326Y0107411D01*
X0051770Y0107411D02*
X0051770Y0109461D01*
X0051770Y0109005D02*
X0052795Y0109005D01*
X0051770Y0109461D02*
X0051772Y0109512D01*
X0051778Y0109563D01*
X0051787Y0109613D01*
X0051800Y0109662D01*
X0051817Y0109711D01*
X0051838Y0109757D01*
X0051862Y0109803D01*
X0051889Y0109846D01*
X0051919Y0109887D01*
X0051952Y0109926D01*
X0051988Y0109962D01*
X0052027Y0109995D01*
X0052068Y0110025D01*
X0052112Y0110052D01*
X0052157Y0110076D01*
X0052203Y0110097D01*
X0052252Y0110114D01*
X0052301Y0110127D01*
X0052351Y0110136D01*
X0052402Y0110142D01*
X0052453Y0110144D01*
X0053364Y0110144D01*
X0054735Y0110144D02*
X0056101Y0110144D01*
X0055646Y0110827D02*
X0055646Y0107411D01*
X0057173Y0109688D02*
X0057173Y0110144D01*
X0058540Y0110144D01*
X0058540Y0107411D01*
X0060388Y0107411D02*
X0061527Y0107411D01*
X0061578Y0107413D01*
X0061629Y0107419D01*
X0061679Y0107428D01*
X0061728Y0107441D01*
X0061777Y0107458D01*
X0061823Y0107479D01*
X0061869Y0107503D01*
X0061912Y0107530D01*
X0061953Y0107560D01*
X0061992Y0107593D01*
X0062028Y0107629D01*
X0062061Y0107668D01*
X0062091Y0107709D01*
X0062118Y0107753D01*
X0062142Y0107798D01*
X0062163Y0107844D01*
X0062180Y0107893D01*
X0062193Y0107942D01*
X0062202Y0107992D01*
X0062208Y0108043D01*
X0062210Y0108094D01*
X0062210Y0109233D01*
X0062210Y0108777D02*
X0060388Y0108777D01*
X0060388Y0109233D01*
X0060390Y0109293D01*
X0060396Y0109352D01*
X0060406Y0109411D01*
X0060419Y0109469D01*
X0060436Y0109526D01*
X0060457Y0109582D01*
X0060482Y0109636D01*
X0060510Y0109689D01*
X0060542Y0109739D01*
X0060576Y0109788D01*
X0060614Y0109834D01*
X0060655Y0109877D01*
X0060698Y0109918D01*
X0060744Y0109956D01*
X0060793Y0109990D01*
X0060844Y0110022D01*
X0060896Y0110050D01*
X0060950Y0110075D01*
X0061006Y0110096D01*
X0061063Y0110113D01*
X0061121Y0110126D01*
X0061180Y0110136D01*
X0061239Y0110142D01*
X0061299Y0110144D01*
X0061359Y0110142D01*
X0061418Y0110136D01*
X0061477Y0110126D01*
X0061535Y0110113D01*
X0061592Y0110096D01*
X0061648Y0110075D01*
X0061702Y0110050D01*
X0061755Y0110022D01*
X0061805Y0109990D01*
X0061854Y0109956D01*
X0061900Y0109918D01*
X0061943Y0109877D01*
X0061984Y0109834D01*
X0062022Y0109788D01*
X0062056Y0109739D01*
X0062088Y0109689D01*
X0062116Y0109636D01*
X0062141Y0109582D01*
X0062162Y0109526D01*
X0062179Y0109469D01*
X0062192Y0109411D01*
X0062202Y0109352D01*
X0062208Y0109293D01*
X0062210Y0109233D01*
X0063755Y0110144D02*
X0065122Y0110144D01*
X0064666Y0111511D02*
X0064666Y0108094D01*
X0064664Y0108043D01*
X0064658Y0107992D01*
X0064649Y0107942D01*
X0064636Y0107893D01*
X0064619Y0107844D01*
X0064598Y0107798D01*
X0064574Y0107753D01*
X0064547Y0107709D01*
X0064517Y0107668D01*
X0064484Y0107629D01*
X0064448Y0107593D01*
X0064409Y0107560D01*
X0064368Y0107530D01*
X0064325Y0107503D01*
X0064279Y0107479D01*
X0064233Y0107458D01*
X0064184Y0107441D01*
X0064135Y0107428D01*
X0064085Y0107419D01*
X0064034Y0107413D01*
X0063983Y0107411D01*
X0063755Y0107411D01*
X0066598Y0107411D02*
X0066598Y0109461D01*
X0066600Y0109512D01*
X0066606Y0109563D01*
X0066615Y0109613D01*
X0066628Y0109662D01*
X0066645Y0109711D01*
X0066666Y0109757D01*
X0066690Y0109803D01*
X0066717Y0109846D01*
X0066747Y0109887D01*
X0066780Y0109926D01*
X0066816Y0109962D01*
X0066855Y0109995D01*
X0066896Y0110025D01*
X0066940Y0110052D01*
X0066985Y0110076D01*
X0067031Y0110097D01*
X0067080Y0110114D01*
X0067129Y0110127D01*
X0067179Y0110136D01*
X0067230Y0110142D01*
X0067281Y0110144D01*
X0068420Y0110144D01*
X0068420Y0107411D01*
X0070158Y0107411D02*
X0071069Y0107411D01*
X0070614Y0107411D02*
X0070614Y0111511D01*
X0071069Y0111511D02*
X0070158Y0111511D01*
X0075010Y0111511D02*
X0075010Y0108550D01*
X0075012Y0108484D01*
X0075018Y0108418D01*
X0075027Y0108352D01*
X0075041Y0108287D01*
X0075058Y0108223D01*
X0075079Y0108160D01*
X0075103Y0108099D01*
X0075131Y0108039D01*
X0075163Y0107981D01*
X0075197Y0107924D01*
X0075235Y0107870D01*
X0075276Y0107818D01*
X0075321Y0107768D01*
X0075367Y0107722D01*
X0075417Y0107677D01*
X0075469Y0107636D01*
X0075523Y0107598D01*
X0075580Y0107564D01*
X0075638Y0107532D01*
X0075698Y0107504D01*
X0075759Y0107480D01*
X0075822Y0107459D01*
X0075886Y0107442D01*
X0075951Y0107428D01*
X0076017Y0107419D01*
X0076083Y0107413D01*
X0076149Y0107411D01*
X0076215Y0107413D01*
X0076281Y0107419D01*
X0076347Y0107428D01*
X0076412Y0107442D01*
X0076476Y0107459D01*
X0076539Y0107480D01*
X0076600Y0107504D01*
X0076660Y0107532D01*
X0076719Y0107564D01*
X0076775Y0107598D01*
X0076829Y0107636D01*
X0076881Y0107677D01*
X0076931Y0107722D01*
X0076977Y0107768D01*
X0077022Y0107818D01*
X0077063Y0107870D01*
X0077101Y0107924D01*
X0077135Y0107981D01*
X0077167Y0108039D01*
X0077195Y0108099D01*
X0077219Y0108160D01*
X0077240Y0108223D01*
X0077257Y0108287D01*
X0077271Y0108352D01*
X0077280Y0108418D01*
X0077286Y0108484D01*
X0077288Y0108550D01*
X0077288Y0111511D01*
X0078988Y0111511D02*
X0079899Y0111511D01*
X0079959Y0111509D01*
X0080018Y0111503D01*
X0080077Y0111493D01*
X0080135Y0111480D01*
X0080192Y0111463D01*
X0080248Y0111442D01*
X0080302Y0111417D01*
X0080355Y0111389D01*
X0080405Y0111357D01*
X0080454Y0111323D01*
X0080500Y0111285D01*
X0080543Y0111244D01*
X0080584Y0111201D01*
X0080622Y0111155D01*
X0080656Y0111106D01*
X0080688Y0111055D01*
X0080716Y0111003D01*
X0080741Y0110949D01*
X0080762Y0110893D01*
X0080779Y0110836D01*
X0080792Y0110778D01*
X0080802Y0110719D01*
X0080808Y0110660D01*
X0080810Y0110600D01*
X0080810Y0108322D01*
X0080808Y0108262D01*
X0080802Y0108203D01*
X0080792Y0108144D01*
X0080779Y0108086D01*
X0080762Y0108029D01*
X0080741Y0107973D01*
X0080716Y0107919D01*
X0080688Y0107867D01*
X0080656Y0107816D01*
X0080622Y0107767D01*
X0080584Y0107721D01*
X0080543Y0107678D01*
X0080500Y0107637D01*
X0080454Y0107599D01*
X0080405Y0107565D01*
X0080355Y0107533D01*
X0080302Y0107505D01*
X0080248Y0107480D01*
X0080192Y0107459D01*
X0080135Y0107442D01*
X0080077Y0107429D01*
X0080018Y0107419D01*
X0079959Y0107413D01*
X0079899Y0107411D01*
X0078988Y0107411D01*
X0082342Y0107411D02*
X0084164Y0107411D01*
X0084164Y0111511D01*
X0082342Y0111511D01*
X0082798Y0109688D02*
X0084164Y0109688D01*
X0088012Y0111511D02*
X0090745Y0107411D01*
X0092163Y0107411D02*
X0093074Y0107411D01*
X0092619Y0107411D02*
X0092619Y0111511D01*
X0093074Y0111511D02*
X0092163Y0111511D01*
X0090745Y0111511D02*
X0088012Y0107411D01*
X0086826Y0102011D02*
X0086826Y0097911D01*
X0087965Y0097911D02*
X0085687Y0097911D01*
X0087965Y0101100D02*
X0086826Y0102011D01*
X0092015Y0099961D02*
X0092013Y0099852D01*
X0092008Y0099742D01*
X0091999Y0099633D01*
X0091987Y0099524D01*
X0091971Y0099416D01*
X0091951Y0099308D01*
X0091928Y0099201D01*
X0091902Y0099095D01*
X0091872Y0098990D01*
X0091839Y0098885D01*
X0091803Y0098782D01*
X0091763Y0098680D01*
X0091720Y0098580D01*
X0091673Y0098480D01*
X0091787Y0098822D02*
X0089965Y0101100D01*
X0090079Y0101441D02*
X0090098Y0101493D01*
X0090121Y0101543D01*
X0090147Y0101591D01*
X0090176Y0101638D01*
X0090208Y0101683D01*
X0090243Y0101725D01*
X0090281Y0101765D01*
X0090321Y0101803D01*
X0090364Y0101838D01*
X0090409Y0101870D01*
X0090455Y0101899D01*
X0090504Y0101924D01*
X0090554Y0101947D01*
X0090606Y0101966D01*
X0090658Y0101982D01*
X0090712Y0101995D01*
X0090766Y0102004D01*
X0090821Y0102009D01*
X0090876Y0102011D01*
X0090931Y0102009D01*
X0090986Y0102004D01*
X0091040Y0101995D01*
X0091094Y0101982D01*
X0091146Y0101966D01*
X0091198Y0101947D01*
X0091248Y0101924D01*
X0091297Y0101899D01*
X0091343Y0101870D01*
X0091388Y0101838D01*
X0091431Y0101803D01*
X0091471Y0101765D01*
X0091509Y0101725D01*
X0091544Y0101683D01*
X0091576Y0101638D01*
X0091605Y0101591D01*
X0091631Y0101543D01*
X0091654Y0101493D01*
X0091673Y0101441D01*
X0090079Y0101442D02*
X0090032Y0101343D01*
X0089989Y0101242D01*
X0089949Y0101140D01*
X0089913Y0101037D01*
X0089880Y0100932D01*
X0089850Y0100827D01*
X0089824Y0100721D01*
X0089801Y0100614D01*
X0089781Y0100506D01*
X0089765Y0100398D01*
X0089753Y0100289D01*
X0089744Y0100180D01*
X0089739Y0100070D01*
X0089737Y0099961D01*
X0092015Y0099961D02*
X0092013Y0100070D01*
X0092008Y0100180D01*
X0091999Y0100289D01*
X0091987Y0100398D01*
X0091971Y0100506D01*
X0091951Y0100614D01*
X0091928Y0100721D01*
X0091902Y0100827D01*
X0091872Y0100932D01*
X0091839Y0101037D01*
X0091803Y0101140D01*
X0091763Y0101242D01*
X0091720Y0101343D01*
X0091673Y0101442D01*
X0089737Y0099961D02*
X0089739Y0099852D01*
X0089744Y0099742D01*
X0089753Y0099633D01*
X0089765Y0099524D01*
X0089781Y0099416D01*
X0089801Y0099308D01*
X0089824Y0099201D01*
X0089850Y0099095D01*
X0089880Y0098990D01*
X0089913Y0098885D01*
X0089949Y0098782D01*
X0089989Y0098680D01*
X0090032Y0098580D01*
X0090079Y0098480D01*
X0090876Y0097910D02*
X0090931Y0097912D01*
X0090986Y0097917D01*
X0091040Y0097926D01*
X0091094Y0097939D01*
X0091146Y0097955D01*
X0091198Y0097974D01*
X0091248Y0097997D01*
X0091297Y0098022D01*
X0091343Y0098051D01*
X0091388Y0098083D01*
X0091431Y0098118D01*
X0091471Y0098156D01*
X0091509Y0098196D01*
X0091544Y0098238D01*
X0091576Y0098283D01*
X0091605Y0098330D01*
X0091631Y0098378D01*
X0091654Y0098428D01*
X0091673Y0098480D01*
X0090876Y0097910D02*
X0090821Y0097912D01*
X0090766Y0097917D01*
X0090712Y0097926D01*
X0090658Y0097939D01*
X0090606Y0097955D01*
X0090554Y0097974D01*
X0090504Y0097997D01*
X0090455Y0098022D01*
X0090409Y0098051D01*
X0090364Y0098083D01*
X0090321Y0098118D01*
X0090281Y0098156D01*
X0090243Y0098196D01*
X0090208Y0098238D01*
X0090176Y0098283D01*
X0090147Y0098330D01*
X0090121Y0098378D01*
X0090098Y0098428D01*
X0090079Y0098480D01*
X0093787Y0097911D02*
X0096065Y0097911D01*
X0094129Y0100188D01*
X0094812Y0102011D02*
X0094881Y0102009D01*
X0094950Y0102004D01*
X0095018Y0101995D01*
X0095086Y0101982D01*
X0095153Y0101966D01*
X0095219Y0101946D01*
X0095284Y0101923D01*
X0095348Y0101897D01*
X0095410Y0101867D01*
X0095471Y0101834D01*
X0095530Y0101798D01*
X0095587Y0101759D01*
X0095641Y0101717D01*
X0095694Y0101672D01*
X0095744Y0101625D01*
X0095791Y0101575D01*
X0095836Y0101522D01*
X0095878Y0101467D01*
X0095917Y0101410D01*
X0095953Y0101352D01*
X0095986Y0101291D01*
X0096016Y0101229D01*
X0096042Y0101165D01*
X0096065Y0101100D01*
X0094129Y0100189D02*
X0094084Y0100234D01*
X0094042Y0100282D01*
X0094002Y0100332D01*
X0093966Y0100384D01*
X0093933Y0100438D01*
X0093903Y0100495D01*
X0093876Y0100552D01*
X0093853Y0100612D01*
X0093833Y0100672D01*
X0093816Y0100734D01*
X0093804Y0100796D01*
X0093794Y0100859D01*
X0093789Y0100922D01*
X0093787Y0100986D01*
X0093789Y0101048D01*
X0093794Y0101110D01*
X0093804Y0101171D01*
X0093817Y0101231D01*
X0093833Y0101291D01*
X0093854Y0101349D01*
X0093877Y0101407D01*
X0093904Y0101462D01*
X0093935Y0101516D01*
X0093968Y0101568D01*
X0094005Y0101618D01*
X0094045Y0101666D01*
X0094087Y0101711D01*
X0094132Y0101753D01*
X0094180Y0101793D01*
X0094230Y0101830D01*
X0094282Y0101863D01*
X0094336Y0101894D01*
X0094391Y0101921D01*
X0094449Y0101944D01*
X0094507Y0101965D01*
X0094567Y0101981D01*
X0094627Y0101994D01*
X0094688Y0102004D01*
X0094750Y0102009D01*
X0094812Y0102011D01*
X0094855Y0107411D02*
X0094855Y0111511D01*
X0097133Y0111511D02*
X0094855Y0107411D01*
X0097133Y0107411D02*
X0097133Y0111511D01*
X0098812Y0111511D02*
X0100634Y0111511D01*
X0100634Y0107411D01*
X0098812Y0107411D01*
X0099267Y0109688D02*
X0100634Y0109688D01*
X0103433Y0109233D02*
X0102522Y0107411D01*
X0103661Y0109233D02*
X0104800Y0109233D01*
X0103661Y0109233D02*
X0103595Y0109235D01*
X0103529Y0109241D01*
X0103463Y0109250D01*
X0103398Y0109264D01*
X0103334Y0109281D01*
X0103271Y0109302D01*
X0103210Y0109326D01*
X0103150Y0109354D01*
X0103092Y0109386D01*
X0103035Y0109420D01*
X0102981Y0109458D01*
X0102929Y0109499D01*
X0102879Y0109544D01*
X0102833Y0109590D01*
X0102788Y0109640D01*
X0102747Y0109692D01*
X0102709Y0109746D01*
X0102675Y0109803D01*
X0102643Y0109861D01*
X0102615Y0109921D01*
X0102591Y0109982D01*
X0102570Y0110045D01*
X0102553Y0110109D01*
X0102539Y0110174D01*
X0102530Y0110240D01*
X0102524Y0110306D01*
X0102522Y0110372D01*
X0102524Y0110438D01*
X0102530Y0110504D01*
X0102539Y0110570D01*
X0102553Y0110635D01*
X0102570Y0110699D01*
X0102591Y0110762D01*
X0102615Y0110823D01*
X0102643Y0110883D01*
X0102675Y0110942D01*
X0102709Y0110998D01*
X0102747Y0111052D01*
X0102788Y0111104D01*
X0102833Y0111154D01*
X0102879Y0111200D01*
X0102929Y0111245D01*
X0102981Y0111286D01*
X0103035Y0111324D01*
X0103092Y0111358D01*
X0103150Y0111390D01*
X0103210Y0111418D01*
X0103271Y0111442D01*
X0103334Y0111463D01*
X0103398Y0111480D01*
X0103463Y0111494D01*
X0103529Y0111503D01*
X0103595Y0111509D01*
X0103661Y0111511D01*
X0104800Y0111511D01*
X0104800Y0107411D01*
X0103249Y0100644D02*
X0102338Y0100644D01*
X0106441Y0099961D02*
X0106439Y0099837D01*
X0106433Y0099714D01*
X0106423Y0099591D01*
X0106410Y0099468D01*
X0106392Y0099345D01*
X0106371Y0099223D01*
X0106345Y0099102D01*
X0106316Y0098982D01*
X0106283Y0098863D01*
X0106247Y0098745D01*
X0106206Y0098628D01*
X0106162Y0098512D01*
X0106114Y0098398D01*
X0106063Y0098286D01*
X0106008Y0098175D01*
X0105950Y0098066D01*
X0105888Y0097959D01*
X0105823Y0097854D01*
X0105754Y0097751D01*
X0105683Y0097650D01*
X0105608Y0097551D01*
X0105530Y0097455D01*
X0103932Y0098594D02*
X0103932Y0099961D01*
X0100927Y0097455D02*
X0100849Y0097551D01*
X0100774Y0097650D01*
X0100703Y0097751D01*
X0100634Y0097854D01*
X0100569Y0097959D01*
X0100507Y0098066D01*
X0100449Y0098175D01*
X0100394Y0098286D01*
X0100343Y0098398D01*
X0100295Y0098512D01*
X0100251Y0098628D01*
X0100210Y0098745D01*
X0100174Y0098863D01*
X0100141Y0098982D01*
X0100112Y0099102D01*
X0100086Y0099223D01*
X0100065Y0099345D01*
X0100047Y0099468D01*
X0100034Y0099590D01*
X0100024Y0099714D01*
X0100018Y0099837D01*
X0100016Y0099961D01*
X0105530Y0102467D02*
X0105608Y0102371D01*
X0105683Y0102272D01*
X0105754Y0102171D01*
X0105823Y0102068D01*
X0105888Y0101963D01*
X0105950Y0101856D01*
X0106008Y0101747D01*
X0106063Y0101636D01*
X0106114Y0101524D01*
X0106162Y0101410D01*
X0106206Y0101294D01*
X0106247Y0101177D01*
X0106283Y0101059D01*
X0106316Y0100940D01*
X0106345Y0100820D01*
X0106371Y0100699D01*
X0106392Y0100577D01*
X0106410Y0100454D01*
X0106423Y0100332D01*
X0106433Y0100208D01*
X0106439Y0100085D01*
X0106441Y0099961D01*
X0100927Y0102467D02*
X0100849Y0102371D01*
X0100774Y0102272D01*
X0100703Y0102171D01*
X0100634Y0102068D01*
X0100569Y0101963D01*
X0100507Y0101856D01*
X0100449Y0101747D01*
X0100394Y0101636D01*
X0100343Y0101524D01*
X0100295Y0101410D01*
X0100251Y0101294D01*
X0100210Y0101177D01*
X0100174Y0101059D01*
X0100141Y0100940D01*
X0100112Y0100820D01*
X0100086Y0100699D01*
X0100065Y0100577D01*
X0100047Y0100454D01*
X0100034Y0100332D01*
X0100024Y0100208D01*
X0100018Y0100085D01*
X0100016Y0099961D01*
X0102338Y0097911D02*
X0103249Y0097911D01*
X0103300Y0097913D01*
X0103351Y0097919D01*
X0103401Y0097928D01*
X0103450Y0097941D01*
X0103499Y0097958D01*
X0103545Y0097979D01*
X0103591Y0098003D01*
X0103634Y0098030D01*
X0103675Y0098060D01*
X0103714Y0098093D01*
X0103750Y0098129D01*
X0103783Y0098168D01*
X0103813Y0098209D01*
X0103840Y0098253D01*
X0103864Y0098298D01*
X0103885Y0098344D01*
X0103902Y0098393D01*
X0103915Y0098442D01*
X0103924Y0098492D01*
X0103930Y0098543D01*
X0103932Y0098594D01*
X0103932Y0099961D02*
X0103930Y0100012D01*
X0103924Y0100063D01*
X0103915Y0100113D01*
X0103902Y0100162D01*
X0103885Y0100211D01*
X0103864Y0100257D01*
X0103840Y0100303D01*
X0103813Y0100346D01*
X0103783Y0100387D01*
X0103750Y0100426D01*
X0103714Y0100462D01*
X0103675Y0100495D01*
X0103634Y0100525D01*
X0103591Y0100552D01*
X0103545Y0100576D01*
X0103499Y0100597D01*
X0103450Y0100614D01*
X0103401Y0100627D01*
X0103351Y0100636D01*
X0103300Y0100642D01*
X0103249Y0100644D01*
X0083687Y0101100D02*
X0083685Y0101040D01*
X0083679Y0100981D01*
X0083669Y0100922D01*
X0083656Y0100864D01*
X0083639Y0100807D01*
X0083618Y0100751D01*
X0083593Y0100697D01*
X0083565Y0100645D01*
X0083533Y0100594D01*
X0083499Y0100545D01*
X0083461Y0100499D01*
X0083420Y0100456D01*
X0083377Y0100415D01*
X0083331Y0100377D01*
X0083282Y0100343D01*
X0083232Y0100311D01*
X0083179Y0100283D01*
X0083125Y0100258D01*
X0083069Y0100237D01*
X0083012Y0100220D01*
X0082954Y0100207D01*
X0082895Y0100197D01*
X0082836Y0100191D01*
X0082776Y0100189D01*
X0082716Y0100191D01*
X0082657Y0100197D01*
X0082598Y0100207D01*
X0082540Y0100220D01*
X0082483Y0100237D01*
X0082427Y0100258D01*
X0082373Y0100283D01*
X0082321Y0100311D01*
X0082270Y0100343D01*
X0082221Y0100377D01*
X0082175Y0100415D01*
X0082132Y0100456D01*
X0082091Y0100499D01*
X0082053Y0100545D01*
X0082019Y0100594D01*
X0081987Y0100645D01*
X0081959Y0100697D01*
X0081934Y0100751D01*
X0081913Y0100807D01*
X0081896Y0100864D01*
X0081883Y0100922D01*
X0081873Y0100981D01*
X0081867Y0101040D01*
X0081865Y0101100D01*
X0081867Y0101160D01*
X0081873Y0101219D01*
X0081883Y0101278D01*
X0081896Y0101336D01*
X0081913Y0101393D01*
X0081934Y0101449D01*
X0081959Y0101503D01*
X0081987Y0101556D01*
X0082019Y0101606D01*
X0082053Y0101655D01*
X0082091Y0101701D01*
X0082132Y0101744D01*
X0082175Y0101785D01*
X0082221Y0101823D01*
X0082270Y0101857D01*
X0082321Y0101889D01*
X0082373Y0101917D01*
X0082427Y0101942D01*
X0082483Y0101963D01*
X0082540Y0101980D01*
X0082598Y0101993D01*
X0082657Y0102003D01*
X0082716Y0102009D01*
X0082776Y0102011D01*
X0082836Y0102009D01*
X0082895Y0102003D01*
X0082954Y0101993D01*
X0083012Y0101980D01*
X0083069Y0101963D01*
X0083125Y0101942D01*
X0083179Y0101917D01*
X0083232Y0101889D01*
X0083282Y0101857D01*
X0083331Y0101823D01*
X0083377Y0101785D01*
X0083420Y0101744D01*
X0083461Y0101701D01*
X0083499Y0101655D01*
X0083533Y0101606D01*
X0083565Y0101556D01*
X0083593Y0101503D01*
X0083618Y0101449D01*
X0083639Y0101393D01*
X0083656Y0101336D01*
X0083669Y0101278D01*
X0083679Y0101219D01*
X0083685Y0101160D01*
X0083687Y0101100D01*
X0083915Y0099050D02*
X0083913Y0098984D01*
X0083907Y0098918D01*
X0083898Y0098852D01*
X0083884Y0098787D01*
X0083867Y0098723D01*
X0083846Y0098660D01*
X0083822Y0098599D01*
X0083794Y0098539D01*
X0083762Y0098481D01*
X0083728Y0098424D01*
X0083690Y0098370D01*
X0083649Y0098318D01*
X0083604Y0098268D01*
X0083558Y0098222D01*
X0083508Y0098177D01*
X0083456Y0098136D01*
X0083402Y0098098D01*
X0083346Y0098064D01*
X0083287Y0098032D01*
X0083227Y0098004D01*
X0083166Y0097980D01*
X0083103Y0097959D01*
X0083039Y0097942D01*
X0082974Y0097928D01*
X0082908Y0097919D01*
X0082842Y0097913D01*
X0082776Y0097911D01*
X0082710Y0097913D01*
X0082644Y0097919D01*
X0082578Y0097928D01*
X0082513Y0097942D01*
X0082449Y0097959D01*
X0082386Y0097980D01*
X0082325Y0098004D01*
X0082265Y0098032D01*
X0082207Y0098064D01*
X0082150Y0098098D01*
X0082096Y0098136D01*
X0082044Y0098177D01*
X0081994Y0098222D01*
X0081948Y0098268D01*
X0081903Y0098318D01*
X0081862Y0098370D01*
X0081824Y0098424D01*
X0081790Y0098481D01*
X0081758Y0098539D01*
X0081730Y0098599D01*
X0081706Y0098660D01*
X0081685Y0098723D01*
X0081668Y0098787D01*
X0081654Y0098852D01*
X0081645Y0098918D01*
X0081639Y0098984D01*
X0081637Y0099050D01*
X0081639Y0099116D01*
X0081645Y0099182D01*
X0081654Y0099248D01*
X0081668Y0099313D01*
X0081685Y0099377D01*
X0081706Y0099440D01*
X0081730Y0099501D01*
X0081758Y0099561D01*
X0081790Y0099620D01*
X0081824Y0099676D01*
X0081862Y0099730D01*
X0081903Y0099782D01*
X0081948Y0099832D01*
X0081994Y0099878D01*
X0082044Y0099923D01*
X0082096Y0099964D01*
X0082150Y0100002D01*
X0082207Y0100036D01*
X0082265Y0100068D01*
X0082325Y0100096D01*
X0082386Y0100120D01*
X0082449Y0100141D01*
X0082513Y0100158D01*
X0082578Y0100172D01*
X0082644Y0100181D01*
X0082710Y0100187D01*
X0082776Y0100189D01*
X0082842Y0100187D01*
X0082908Y0100181D01*
X0082974Y0100172D01*
X0083039Y0100158D01*
X0083103Y0100141D01*
X0083166Y0100120D01*
X0083227Y0100096D01*
X0083287Y0100068D01*
X0083346Y0100036D01*
X0083402Y0100002D01*
X0083456Y0099964D01*
X0083508Y0099923D01*
X0083558Y0099878D01*
X0083604Y0099832D01*
X0083649Y0099782D01*
X0083690Y0099730D01*
X0083728Y0099676D01*
X0083762Y0099620D01*
X0083794Y0099561D01*
X0083822Y0099501D01*
X0083846Y0099440D01*
X0083867Y0099377D01*
X0083884Y0099313D01*
X0083898Y0099248D01*
X0083907Y0099182D01*
X0083913Y0099116D01*
X0083915Y0099050D01*
X0078126Y0097911D02*
X0077671Y0097911D01*
X0077611Y0097913D01*
X0077552Y0097919D01*
X0077493Y0097929D01*
X0077435Y0097942D01*
X0077378Y0097959D01*
X0077322Y0097980D01*
X0077268Y0098005D01*
X0077216Y0098033D01*
X0077165Y0098065D01*
X0077116Y0098099D01*
X0077070Y0098137D01*
X0077027Y0098178D01*
X0076986Y0098221D01*
X0076948Y0098267D01*
X0076914Y0098316D01*
X0076882Y0098367D01*
X0076854Y0098419D01*
X0076829Y0098473D01*
X0076808Y0098529D01*
X0076791Y0098586D01*
X0076778Y0098644D01*
X0076768Y0098703D01*
X0076762Y0098762D01*
X0076760Y0098822D01*
X0076760Y0102011D01*
X0074912Y0099733D02*
X0074912Y0098822D01*
X0074910Y0098762D01*
X0074904Y0098703D01*
X0074894Y0098644D01*
X0074881Y0098586D01*
X0074864Y0098529D01*
X0074843Y0098473D01*
X0074818Y0098419D01*
X0074790Y0098367D01*
X0074758Y0098316D01*
X0074724Y0098267D01*
X0074686Y0098221D01*
X0074645Y0098178D01*
X0074602Y0098137D01*
X0074556Y0098099D01*
X0074507Y0098065D01*
X0074457Y0098033D01*
X0074404Y0098005D01*
X0074350Y0097980D01*
X0074294Y0097959D01*
X0074237Y0097942D01*
X0074179Y0097929D01*
X0074120Y0097919D01*
X0074061Y0097913D01*
X0074001Y0097911D01*
X0073941Y0097913D01*
X0073882Y0097919D01*
X0073823Y0097929D01*
X0073765Y0097942D01*
X0073708Y0097959D01*
X0073652Y0097980D01*
X0073598Y0098005D01*
X0073546Y0098033D01*
X0073495Y0098065D01*
X0073446Y0098099D01*
X0073400Y0098137D01*
X0073357Y0098178D01*
X0073316Y0098221D01*
X0073278Y0098267D01*
X0073244Y0098316D01*
X0073212Y0098367D01*
X0073184Y0098419D01*
X0073159Y0098473D01*
X0073138Y0098529D01*
X0073121Y0098586D01*
X0073108Y0098644D01*
X0073098Y0098703D01*
X0073092Y0098762D01*
X0073090Y0098822D01*
X0073090Y0099733D01*
X0073092Y0099793D01*
X0073098Y0099852D01*
X0073108Y0099911D01*
X0073121Y0099969D01*
X0073138Y0100026D01*
X0073159Y0100082D01*
X0073184Y0100136D01*
X0073212Y0100189D01*
X0073244Y0100239D01*
X0073278Y0100288D01*
X0073316Y0100334D01*
X0073357Y0100377D01*
X0073400Y0100418D01*
X0073446Y0100456D01*
X0073495Y0100490D01*
X0073546Y0100522D01*
X0073598Y0100550D01*
X0073652Y0100575D01*
X0073708Y0100596D01*
X0073765Y0100613D01*
X0073823Y0100626D01*
X0073882Y0100636D01*
X0073941Y0100642D01*
X0074001Y0100644D01*
X0074061Y0100642D01*
X0074120Y0100636D01*
X0074179Y0100626D01*
X0074237Y0100613D01*
X0074294Y0100596D01*
X0074350Y0100575D01*
X0074404Y0100550D01*
X0074457Y0100522D01*
X0074507Y0100490D01*
X0074556Y0100456D01*
X0074602Y0100418D01*
X0074645Y0100377D01*
X0074686Y0100334D01*
X0074724Y0100288D01*
X0074758Y0100239D01*
X0074790Y0100189D01*
X0074818Y0100136D01*
X0074843Y0100082D01*
X0074864Y0100026D01*
X0074881Y0099969D01*
X0074894Y0099911D01*
X0074904Y0099852D01*
X0074910Y0099793D01*
X0074912Y0099733D01*
X0071267Y0100644D02*
X0070128Y0100644D01*
X0070077Y0100642D01*
X0070026Y0100636D01*
X0069976Y0100627D01*
X0069927Y0100614D01*
X0069878Y0100597D01*
X0069832Y0100576D01*
X0069787Y0100552D01*
X0069743Y0100525D01*
X0069702Y0100495D01*
X0069663Y0100462D01*
X0069627Y0100426D01*
X0069594Y0100387D01*
X0069564Y0100346D01*
X0069537Y0100303D01*
X0069513Y0100257D01*
X0069492Y0100211D01*
X0069475Y0100162D01*
X0069462Y0100113D01*
X0069453Y0100063D01*
X0069447Y0100012D01*
X0069445Y0099961D01*
X0069445Y0097911D01*
X0071267Y0097911D02*
X0071267Y0102011D01*
X0067487Y0100644D02*
X0067487Y0097911D01*
X0065665Y0097911D02*
X0065665Y0099961D01*
X0065667Y0100012D01*
X0065673Y0100063D01*
X0065682Y0100113D01*
X0065695Y0100162D01*
X0065712Y0100211D01*
X0065733Y0100257D01*
X0065757Y0100303D01*
X0065784Y0100346D01*
X0065814Y0100387D01*
X0065847Y0100426D01*
X0065883Y0100462D01*
X0065922Y0100495D01*
X0065963Y0100525D01*
X0066007Y0100552D01*
X0066052Y0100576D01*
X0066098Y0100597D01*
X0066147Y0100614D01*
X0066196Y0100627D01*
X0066246Y0100636D01*
X0066297Y0100642D01*
X0066348Y0100644D01*
X0067487Y0100644D01*
X0061496Y0100188D02*
X0060130Y0100188D01*
X0059674Y0102011D02*
X0061496Y0102011D01*
X0061496Y0097911D01*
X0059674Y0097911D01*
X0058015Y0097911D02*
X0058015Y0102011D01*
X0058015Y0100644D02*
X0056876Y0100644D01*
X0056825Y0100642D01*
X0056774Y0100636D01*
X0056724Y0100627D01*
X0056675Y0100614D01*
X0056626Y0100597D01*
X0056580Y0100576D01*
X0056535Y0100552D01*
X0056491Y0100525D01*
X0056450Y0100495D01*
X0056411Y0100462D01*
X0056375Y0100426D01*
X0056342Y0100387D01*
X0056312Y0100346D01*
X0056285Y0100303D01*
X0056261Y0100257D01*
X0056240Y0100211D01*
X0056223Y0100162D01*
X0056210Y0100113D01*
X0056201Y0100063D01*
X0056195Y0100012D01*
X0056193Y0099961D01*
X0056193Y0098594D01*
X0056195Y0098543D01*
X0056201Y0098492D01*
X0056210Y0098442D01*
X0056223Y0098393D01*
X0056240Y0098344D01*
X0056261Y0098298D01*
X0056285Y0098252D01*
X0056312Y0098209D01*
X0056342Y0098168D01*
X0056375Y0098129D01*
X0056411Y0098093D01*
X0056450Y0098060D01*
X0056491Y0098030D01*
X0056535Y0098003D01*
X0056580Y0097979D01*
X0056626Y0097958D01*
X0056675Y0097941D01*
X0056724Y0097928D01*
X0056774Y0097919D01*
X0056825Y0097913D01*
X0056876Y0097911D01*
X0058015Y0097911D01*
X0054527Y0098594D02*
X0054527Y0099733D01*
X0054527Y0099277D02*
X0052705Y0099277D01*
X0052705Y0099733D01*
X0052707Y0099793D01*
X0052713Y0099852D01*
X0052723Y0099911D01*
X0052736Y0099969D01*
X0052753Y0100026D01*
X0052774Y0100082D01*
X0052799Y0100136D01*
X0052827Y0100189D01*
X0052859Y0100239D01*
X0052893Y0100288D01*
X0052931Y0100334D01*
X0052972Y0100377D01*
X0053015Y0100418D01*
X0053061Y0100456D01*
X0053110Y0100490D01*
X0053161Y0100522D01*
X0053213Y0100550D01*
X0053267Y0100575D01*
X0053323Y0100596D01*
X0053380Y0100613D01*
X0053438Y0100626D01*
X0053497Y0100636D01*
X0053556Y0100642D01*
X0053616Y0100644D01*
X0053676Y0100642D01*
X0053735Y0100636D01*
X0053794Y0100626D01*
X0053852Y0100613D01*
X0053909Y0100596D01*
X0053965Y0100575D01*
X0054019Y0100550D01*
X0054072Y0100522D01*
X0054122Y0100490D01*
X0054171Y0100456D01*
X0054217Y0100418D01*
X0054260Y0100377D01*
X0054301Y0100334D01*
X0054339Y0100288D01*
X0054373Y0100239D01*
X0054405Y0100189D01*
X0054433Y0100136D01*
X0054458Y0100082D01*
X0054479Y0100026D01*
X0054496Y0099969D01*
X0054509Y0099911D01*
X0054519Y0099852D01*
X0054525Y0099793D01*
X0054527Y0099733D01*
X0054527Y0098594D02*
X0054525Y0098543D01*
X0054519Y0098492D01*
X0054510Y0098442D01*
X0054497Y0098393D01*
X0054480Y0098344D01*
X0054459Y0098298D01*
X0054435Y0098253D01*
X0054408Y0098209D01*
X0054378Y0098168D01*
X0054345Y0098129D01*
X0054309Y0098093D01*
X0054270Y0098060D01*
X0054229Y0098030D01*
X0054186Y0098003D01*
X0054140Y0097979D01*
X0054094Y0097958D01*
X0054045Y0097941D01*
X0053996Y0097928D01*
X0053946Y0097919D01*
X0053895Y0097913D01*
X0053844Y0097911D01*
X0052705Y0097911D01*
X0050857Y0097911D02*
X0050857Y0100644D01*
X0049491Y0100644D01*
X0049491Y0100188D01*
X0048134Y0098594D02*
X0048134Y0102011D01*
X0048133Y0098594D02*
X0048131Y0098543D01*
X0048125Y0098492D01*
X0048116Y0098442D01*
X0048103Y0098393D01*
X0048086Y0098344D01*
X0048065Y0098298D01*
X0048041Y0098253D01*
X0048014Y0098209D01*
X0047984Y0098168D01*
X0047951Y0098129D01*
X0047915Y0098093D01*
X0047876Y0098060D01*
X0047835Y0098030D01*
X0047792Y0098003D01*
X0047746Y0097979D01*
X0047700Y0097958D01*
X0047651Y0097941D01*
X0047602Y0097928D01*
X0047552Y0097919D01*
X0047501Y0097913D01*
X0047450Y0097911D01*
X0046022Y0098594D02*
X0046022Y0099733D01*
X0046022Y0099277D02*
X0044200Y0099277D01*
X0044200Y0099733D01*
X0044202Y0099793D01*
X0044208Y0099852D01*
X0044218Y0099911D01*
X0044231Y0099969D01*
X0044248Y0100026D01*
X0044269Y0100082D01*
X0044294Y0100136D01*
X0044322Y0100189D01*
X0044354Y0100239D01*
X0044388Y0100288D01*
X0044426Y0100334D01*
X0044467Y0100377D01*
X0044510Y0100418D01*
X0044556Y0100456D01*
X0044605Y0100490D01*
X0044656Y0100522D01*
X0044708Y0100550D01*
X0044762Y0100575D01*
X0044818Y0100596D01*
X0044875Y0100613D01*
X0044933Y0100626D01*
X0044992Y0100636D01*
X0045051Y0100642D01*
X0045111Y0100644D01*
X0045171Y0100642D01*
X0045230Y0100636D01*
X0045289Y0100626D01*
X0045347Y0100613D01*
X0045404Y0100596D01*
X0045460Y0100575D01*
X0045514Y0100550D01*
X0045567Y0100522D01*
X0045617Y0100490D01*
X0045666Y0100456D01*
X0045712Y0100418D01*
X0045755Y0100377D01*
X0045796Y0100334D01*
X0045834Y0100288D01*
X0045868Y0100239D01*
X0045900Y0100189D01*
X0045928Y0100136D01*
X0045953Y0100082D01*
X0045974Y0100026D01*
X0045991Y0099969D01*
X0046004Y0099911D01*
X0046014Y0099852D01*
X0046020Y0099793D01*
X0046022Y0099733D01*
X0046022Y0098594D02*
X0046020Y0098543D01*
X0046014Y0098492D01*
X0046005Y0098442D01*
X0045992Y0098393D01*
X0045975Y0098344D01*
X0045954Y0098298D01*
X0045930Y0098253D01*
X0045903Y0098209D01*
X0045873Y0098168D01*
X0045840Y0098129D01*
X0045804Y0098093D01*
X0045765Y0098060D01*
X0045724Y0098030D01*
X0045681Y0098003D01*
X0045635Y0097979D01*
X0045589Y0097958D01*
X0045540Y0097941D01*
X0045491Y0097928D01*
X0045441Y0097919D01*
X0045390Y0097913D01*
X0045339Y0097911D01*
X0044200Y0097911D01*
X0051770Y0107411D02*
X0052795Y0107411D01*
X0052851Y0107413D01*
X0052906Y0107419D01*
X0052961Y0107428D01*
X0053015Y0107442D01*
X0053068Y0107459D01*
X0053119Y0107480D01*
X0053169Y0107504D01*
X0053217Y0107532D01*
X0053263Y0107563D01*
X0053307Y0107597D01*
X0053349Y0107635D01*
X0053387Y0107675D01*
X0053423Y0107717D01*
X0053456Y0107762D01*
X0053485Y0107810D01*
X0053511Y0107859D01*
X0053534Y0107909D01*
X0053553Y0107962D01*
X0053568Y0108015D01*
X0053580Y0108070D01*
X0053588Y0108125D01*
X0053592Y0108180D01*
X0053592Y0108236D01*
X0053588Y0108291D01*
X0053580Y0108346D01*
X0053568Y0108401D01*
X0053553Y0108454D01*
X0053534Y0108507D01*
X0053511Y0108557D01*
X0053485Y0108607D01*
X0053456Y0108654D01*
X0053423Y0108699D01*
X0053387Y0108741D01*
X0053349Y0108781D01*
X0053307Y0108819D01*
X0053263Y0108853D01*
X0053217Y0108884D01*
X0053169Y0108912D01*
X0053119Y0108936D01*
X0053068Y0108957D01*
X0053015Y0108974D01*
X0052961Y0108988D01*
X0052906Y0108997D01*
X0052851Y0109003D01*
X0052795Y0109005D01*
X0054962Y0111510D02*
X0055013Y0111508D01*
X0055064Y0111502D01*
X0055114Y0111493D01*
X0055163Y0111480D01*
X0055212Y0111463D01*
X0055258Y0111442D01*
X0055304Y0111418D01*
X0055347Y0111391D01*
X0055388Y0111361D01*
X0055427Y0111328D01*
X0055463Y0111292D01*
X0055496Y0111253D01*
X0055526Y0111212D01*
X0055553Y0111168D01*
X0055577Y0111123D01*
X0055598Y0111077D01*
X0055615Y0111028D01*
X0055628Y0110979D01*
X0055637Y0110929D01*
X0055643Y0110878D01*
X0055645Y0110827D01*
X0054962Y0111511D02*
X0054735Y0111511D01*
X0029452Y0107980D02*
X0029405Y0108080D01*
X0029362Y0108180D01*
X0029322Y0108282D01*
X0029286Y0108385D01*
X0029253Y0108490D01*
X0029223Y0108595D01*
X0029197Y0108701D01*
X0029174Y0108808D01*
X0029154Y0108916D01*
X0029138Y0109024D01*
X0029126Y0109133D01*
X0029117Y0109242D01*
X0029112Y0109352D01*
X0029110Y0109461D01*
X0031388Y0109461D02*
X0031386Y0109570D01*
X0031381Y0109680D01*
X0031372Y0109789D01*
X0031360Y0109898D01*
X0031344Y0110006D01*
X0031324Y0110114D01*
X0031301Y0110221D01*
X0031275Y0110327D01*
X0031245Y0110432D01*
X0031212Y0110537D01*
X0031176Y0110640D01*
X0031136Y0110742D01*
X0031093Y0110843D01*
X0031046Y0110942D01*
X0031046Y0110941D02*
X0031027Y0110993D01*
X0031004Y0111043D01*
X0030978Y0111091D01*
X0030949Y0111138D01*
X0030917Y0111183D01*
X0030882Y0111225D01*
X0030844Y0111265D01*
X0030804Y0111303D01*
X0030761Y0111338D01*
X0030716Y0111370D01*
X0030670Y0111399D01*
X0030621Y0111424D01*
X0030571Y0111447D01*
X0030519Y0111466D01*
X0030467Y0111482D01*
X0030413Y0111495D01*
X0030359Y0111504D01*
X0030304Y0111509D01*
X0030249Y0111511D01*
X0030194Y0111509D01*
X0030139Y0111504D01*
X0030085Y0111495D01*
X0030031Y0111482D01*
X0029979Y0111466D01*
X0029927Y0111447D01*
X0029877Y0111424D01*
X0029828Y0111399D01*
X0029782Y0111370D01*
X0029737Y0111338D01*
X0029694Y0111303D01*
X0029654Y0111265D01*
X0029616Y0111225D01*
X0029581Y0111183D01*
X0029549Y0111138D01*
X0029520Y0111091D01*
X0029494Y0111043D01*
X0029471Y0110993D01*
X0029452Y0110941D01*
X0029338Y0110600D02*
X0031160Y0108322D01*
X0030249Y0107410D02*
X0030194Y0107412D01*
X0030139Y0107417D01*
X0030085Y0107426D01*
X0030031Y0107439D01*
X0029979Y0107455D01*
X0029927Y0107474D01*
X0029877Y0107497D01*
X0029828Y0107522D01*
X0029782Y0107551D01*
X0029737Y0107583D01*
X0029694Y0107618D01*
X0029654Y0107656D01*
X0029616Y0107696D01*
X0029581Y0107738D01*
X0029549Y0107783D01*
X0029520Y0107830D01*
X0029494Y0107878D01*
X0029471Y0107928D01*
X0029452Y0107980D01*
X0030249Y0107410D02*
X0030304Y0107412D01*
X0030359Y0107417D01*
X0030413Y0107426D01*
X0030467Y0107439D01*
X0030519Y0107455D01*
X0030571Y0107474D01*
X0030621Y0107497D01*
X0030670Y0107522D01*
X0030716Y0107551D01*
X0030761Y0107583D01*
X0030804Y0107618D01*
X0030844Y0107656D01*
X0030882Y0107696D01*
X0030917Y0107738D01*
X0030949Y0107783D01*
X0030978Y0107830D01*
X0031004Y0107878D01*
X0031027Y0107928D01*
X0031046Y0107980D01*
X0029110Y0109461D02*
X0029112Y0109570D01*
X0029117Y0109680D01*
X0029126Y0109789D01*
X0029138Y0109898D01*
X0029154Y0110006D01*
X0029174Y0110114D01*
X0029197Y0110221D01*
X0029223Y0110327D01*
X0029253Y0110432D01*
X0029286Y0110537D01*
X0029322Y0110640D01*
X0029362Y0110742D01*
X0029405Y0110843D01*
X0029452Y0110942D01*
X0031388Y0109461D02*
X0031386Y0109352D01*
X0031381Y0109242D01*
X0031372Y0109133D01*
X0031360Y0109024D01*
X0031344Y0108916D01*
X0031324Y0108808D01*
X0031301Y0108701D01*
X0031275Y0108595D01*
X0031245Y0108490D01*
X0031212Y0108385D01*
X0031176Y0108282D01*
X0031136Y0108180D01*
X0031093Y0108080D01*
X0031046Y0107980D01*
D12*
X0007413Y0049211D02*
X0007415Y0049385D01*
X0007422Y0049559D01*
X0007432Y0049732D01*
X0007447Y0049906D01*
X0007466Y0050079D01*
X0007490Y0050251D01*
X0007517Y0050423D01*
X0007549Y0050594D01*
X0007585Y0050764D01*
X0007625Y0050933D01*
X0007670Y0051101D01*
X0007718Y0051268D01*
X0007771Y0051434D01*
X0007827Y0051599D01*
X0007888Y0051762D01*
X0007952Y0051923D01*
X0008021Y0052083D01*
X0008093Y0052241D01*
X0008170Y0052397D01*
X0008250Y0052552D01*
X0008334Y0052704D01*
X0008421Y0052854D01*
X0008513Y0053003D01*
X0008607Y0053148D01*
X0008706Y0053292D01*
X0008808Y0053433D01*
X0008913Y0053571D01*
X0009022Y0053707D01*
X0009134Y0053840D01*
X0009249Y0053970D01*
X0009367Y0054098D01*
X0009489Y0054222D01*
X0009613Y0054344D01*
X0009741Y0054462D01*
X0009871Y0054577D01*
X0010004Y0054689D01*
X0010140Y0054798D01*
X0010278Y0054903D01*
X0010419Y0055005D01*
X0010563Y0055104D01*
X0010708Y0055198D01*
X0010857Y0055290D01*
X0011007Y0055377D01*
X0011159Y0055461D01*
X0011314Y0055541D01*
X0011470Y0055618D01*
X0011628Y0055690D01*
X0011788Y0055759D01*
X0011949Y0055823D01*
X0012112Y0055884D01*
X0012277Y0055940D01*
X0012443Y0055993D01*
X0012610Y0056041D01*
X0012778Y0056086D01*
X0012947Y0056126D01*
X0013117Y0056162D01*
X0013288Y0056194D01*
X0013460Y0056221D01*
X0013632Y0056245D01*
X0013805Y0056264D01*
X0013979Y0056279D01*
X0014152Y0056289D01*
X0014326Y0056296D01*
X0014500Y0056298D01*
X0014674Y0056296D01*
X0014848Y0056289D01*
X0015021Y0056279D01*
X0015195Y0056264D01*
X0015368Y0056245D01*
X0015540Y0056221D01*
X0015712Y0056194D01*
X0015883Y0056162D01*
X0016053Y0056126D01*
X0016222Y0056086D01*
X0016390Y0056041D01*
X0016557Y0055993D01*
X0016723Y0055940D01*
X0016888Y0055884D01*
X0017051Y0055823D01*
X0017212Y0055759D01*
X0017372Y0055690D01*
X0017530Y0055618D01*
X0017686Y0055541D01*
X0017841Y0055461D01*
X0017993Y0055377D01*
X0018143Y0055290D01*
X0018292Y0055198D01*
X0018437Y0055104D01*
X0018581Y0055005D01*
X0018722Y0054903D01*
X0018860Y0054798D01*
X0018996Y0054689D01*
X0019129Y0054577D01*
X0019259Y0054462D01*
X0019387Y0054344D01*
X0019511Y0054222D01*
X0019633Y0054098D01*
X0019751Y0053970D01*
X0019866Y0053840D01*
X0019978Y0053707D01*
X0020087Y0053571D01*
X0020192Y0053433D01*
X0020294Y0053292D01*
X0020393Y0053148D01*
X0020487Y0053003D01*
X0020579Y0052854D01*
X0020666Y0052704D01*
X0020750Y0052552D01*
X0020830Y0052397D01*
X0020907Y0052241D01*
X0020979Y0052083D01*
X0021048Y0051923D01*
X0021112Y0051762D01*
X0021173Y0051599D01*
X0021229Y0051434D01*
X0021282Y0051268D01*
X0021330Y0051101D01*
X0021375Y0050933D01*
X0021415Y0050764D01*
X0021451Y0050594D01*
X0021483Y0050423D01*
X0021510Y0050251D01*
X0021534Y0050079D01*
X0021553Y0049906D01*
X0021568Y0049732D01*
X0021578Y0049559D01*
X0021585Y0049385D01*
X0021587Y0049211D01*
X0021585Y0049037D01*
X0021578Y0048863D01*
X0021568Y0048690D01*
X0021553Y0048516D01*
X0021534Y0048343D01*
X0021510Y0048171D01*
X0021483Y0047999D01*
X0021451Y0047828D01*
X0021415Y0047658D01*
X0021375Y0047489D01*
X0021330Y0047321D01*
X0021282Y0047154D01*
X0021229Y0046988D01*
X0021173Y0046823D01*
X0021112Y0046660D01*
X0021048Y0046499D01*
X0020979Y0046339D01*
X0020907Y0046181D01*
X0020830Y0046025D01*
X0020750Y0045870D01*
X0020666Y0045718D01*
X0020579Y0045568D01*
X0020487Y0045419D01*
X0020393Y0045274D01*
X0020294Y0045130D01*
X0020192Y0044989D01*
X0020087Y0044851D01*
X0019978Y0044715D01*
X0019866Y0044582D01*
X0019751Y0044452D01*
X0019633Y0044324D01*
X0019511Y0044200D01*
X0019387Y0044078D01*
X0019259Y0043960D01*
X0019129Y0043845D01*
X0018996Y0043733D01*
X0018860Y0043624D01*
X0018722Y0043519D01*
X0018581Y0043417D01*
X0018437Y0043318D01*
X0018292Y0043224D01*
X0018143Y0043132D01*
X0017993Y0043045D01*
X0017841Y0042961D01*
X0017686Y0042881D01*
X0017530Y0042804D01*
X0017372Y0042732D01*
X0017212Y0042663D01*
X0017051Y0042599D01*
X0016888Y0042538D01*
X0016723Y0042482D01*
X0016557Y0042429D01*
X0016390Y0042381D01*
X0016222Y0042336D01*
X0016053Y0042296D01*
X0015883Y0042260D01*
X0015712Y0042228D01*
X0015540Y0042201D01*
X0015368Y0042177D01*
X0015195Y0042158D01*
X0015021Y0042143D01*
X0014848Y0042133D01*
X0014674Y0042126D01*
X0014500Y0042124D01*
X0014326Y0042126D01*
X0014152Y0042133D01*
X0013979Y0042143D01*
X0013805Y0042158D01*
X0013632Y0042177D01*
X0013460Y0042201D01*
X0013288Y0042228D01*
X0013117Y0042260D01*
X0012947Y0042296D01*
X0012778Y0042336D01*
X0012610Y0042381D01*
X0012443Y0042429D01*
X0012277Y0042482D01*
X0012112Y0042538D01*
X0011949Y0042599D01*
X0011788Y0042663D01*
X0011628Y0042732D01*
X0011470Y0042804D01*
X0011314Y0042881D01*
X0011159Y0042961D01*
X0011007Y0043045D01*
X0010857Y0043132D01*
X0010708Y0043224D01*
X0010563Y0043318D01*
X0010419Y0043417D01*
X0010278Y0043519D01*
X0010140Y0043624D01*
X0010004Y0043733D01*
X0009871Y0043845D01*
X0009741Y0043960D01*
X0009613Y0044078D01*
X0009489Y0044200D01*
X0009367Y0044324D01*
X0009249Y0044452D01*
X0009134Y0044582D01*
X0009022Y0044715D01*
X0008913Y0044851D01*
X0008808Y0044989D01*
X0008706Y0045130D01*
X0008607Y0045274D01*
X0008513Y0045419D01*
X0008421Y0045568D01*
X0008334Y0045718D01*
X0008250Y0045870D01*
X0008170Y0046025D01*
X0008093Y0046181D01*
X0008021Y0046339D01*
X0007952Y0046499D01*
X0007888Y0046660D01*
X0007827Y0046823D01*
X0007771Y0046988D01*
X0007718Y0047154D01*
X0007670Y0047321D01*
X0007625Y0047489D01*
X0007585Y0047658D01*
X0007549Y0047828D01*
X0007517Y0047999D01*
X0007490Y0048171D01*
X0007466Y0048343D01*
X0007447Y0048516D01*
X0007432Y0048690D01*
X0007422Y0048863D01*
X0007415Y0049037D01*
X0007413Y0049211D01*
X0007413Y0284211D02*
X0007415Y0284385D01*
X0007422Y0284559D01*
X0007432Y0284732D01*
X0007447Y0284906D01*
X0007466Y0285079D01*
X0007490Y0285251D01*
X0007517Y0285423D01*
X0007549Y0285594D01*
X0007585Y0285764D01*
X0007625Y0285933D01*
X0007670Y0286101D01*
X0007718Y0286268D01*
X0007771Y0286434D01*
X0007827Y0286599D01*
X0007888Y0286762D01*
X0007952Y0286923D01*
X0008021Y0287083D01*
X0008093Y0287241D01*
X0008170Y0287397D01*
X0008250Y0287552D01*
X0008334Y0287704D01*
X0008421Y0287854D01*
X0008513Y0288003D01*
X0008607Y0288148D01*
X0008706Y0288292D01*
X0008808Y0288433D01*
X0008913Y0288571D01*
X0009022Y0288707D01*
X0009134Y0288840D01*
X0009249Y0288970D01*
X0009367Y0289098D01*
X0009489Y0289222D01*
X0009613Y0289344D01*
X0009741Y0289462D01*
X0009871Y0289577D01*
X0010004Y0289689D01*
X0010140Y0289798D01*
X0010278Y0289903D01*
X0010419Y0290005D01*
X0010563Y0290104D01*
X0010708Y0290198D01*
X0010857Y0290290D01*
X0011007Y0290377D01*
X0011159Y0290461D01*
X0011314Y0290541D01*
X0011470Y0290618D01*
X0011628Y0290690D01*
X0011788Y0290759D01*
X0011949Y0290823D01*
X0012112Y0290884D01*
X0012277Y0290940D01*
X0012443Y0290993D01*
X0012610Y0291041D01*
X0012778Y0291086D01*
X0012947Y0291126D01*
X0013117Y0291162D01*
X0013288Y0291194D01*
X0013460Y0291221D01*
X0013632Y0291245D01*
X0013805Y0291264D01*
X0013979Y0291279D01*
X0014152Y0291289D01*
X0014326Y0291296D01*
X0014500Y0291298D01*
X0014674Y0291296D01*
X0014848Y0291289D01*
X0015021Y0291279D01*
X0015195Y0291264D01*
X0015368Y0291245D01*
X0015540Y0291221D01*
X0015712Y0291194D01*
X0015883Y0291162D01*
X0016053Y0291126D01*
X0016222Y0291086D01*
X0016390Y0291041D01*
X0016557Y0290993D01*
X0016723Y0290940D01*
X0016888Y0290884D01*
X0017051Y0290823D01*
X0017212Y0290759D01*
X0017372Y0290690D01*
X0017530Y0290618D01*
X0017686Y0290541D01*
X0017841Y0290461D01*
X0017993Y0290377D01*
X0018143Y0290290D01*
X0018292Y0290198D01*
X0018437Y0290104D01*
X0018581Y0290005D01*
X0018722Y0289903D01*
X0018860Y0289798D01*
X0018996Y0289689D01*
X0019129Y0289577D01*
X0019259Y0289462D01*
X0019387Y0289344D01*
X0019511Y0289222D01*
X0019633Y0289098D01*
X0019751Y0288970D01*
X0019866Y0288840D01*
X0019978Y0288707D01*
X0020087Y0288571D01*
X0020192Y0288433D01*
X0020294Y0288292D01*
X0020393Y0288148D01*
X0020487Y0288003D01*
X0020579Y0287854D01*
X0020666Y0287704D01*
X0020750Y0287552D01*
X0020830Y0287397D01*
X0020907Y0287241D01*
X0020979Y0287083D01*
X0021048Y0286923D01*
X0021112Y0286762D01*
X0021173Y0286599D01*
X0021229Y0286434D01*
X0021282Y0286268D01*
X0021330Y0286101D01*
X0021375Y0285933D01*
X0021415Y0285764D01*
X0021451Y0285594D01*
X0021483Y0285423D01*
X0021510Y0285251D01*
X0021534Y0285079D01*
X0021553Y0284906D01*
X0021568Y0284732D01*
X0021578Y0284559D01*
X0021585Y0284385D01*
X0021587Y0284211D01*
X0021585Y0284037D01*
X0021578Y0283863D01*
X0021568Y0283690D01*
X0021553Y0283516D01*
X0021534Y0283343D01*
X0021510Y0283171D01*
X0021483Y0282999D01*
X0021451Y0282828D01*
X0021415Y0282658D01*
X0021375Y0282489D01*
X0021330Y0282321D01*
X0021282Y0282154D01*
X0021229Y0281988D01*
X0021173Y0281823D01*
X0021112Y0281660D01*
X0021048Y0281499D01*
X0020979Y0281339D01*
X0020907Y0281181D01*
X0020830Y0281025D01*
X0020750Y0280870D01*
X0020666Y0280718D01*
X0020579Y0280568D01*
X0020487Y0280419D01*
X0020393Y0280274D01*
X0020294Y0280130D01*
X0020192Y0279989D01*
X0020087Y0279851D01*
X0019978Y0279715D01*
X0019866Y0279582D01*
X0019751Y0279452D01*
X0019633Y0279324D01*
X0019511Y0279200D01*
X0019387Y0279078D01*
X0019259Y0278960D01*
X0019129Y0278845D01*
X0018996Y0278733D01*
X0018860Y0278624D01*
X0018722Y0278519D01*
X0018581Y0278417D01*
X0018437Y0278318D01*
X0018292Y0278224D01*
X0018143Y0278132D01*
X0017993Y0278045D01*
X0017841Y0277961D01*
X0017686Y0277881D01*
X0017530Y0277804D01*
X0017372Y0277732D01*
X0017212Y0277663D01*
X0017051Y0277599D01*
X0016888Y0277538D01*
X0016723Y0277482D01*
X0016557Y0277429D01*
X0016390Y0277381D01*
X0016222Y0277336D01*
X0016053Y0277296D01*
X0015883Y0277260D01*
X0015712Y0277228D01*
X0015540Y0277201D01*
X0015368Y0277177D01*
X0015195Y0277158D01*
X0015021Y0277143D01*
X0014848Y0277133D01*
X0014674Y0277126D01*
X0014500Y0277124D01*
X0014326Y0277126D01*
X0014152Y0277133D01*
X0013979Y0277143D01*
X0013805Y0277158D01*
X0013632Y0277177D01*
X0013460Y0277201D01*
X0013288Y0277228D01*
X0013117Y0277260D01*
X0012947Y0277296D01*
X0012778Y0277336D01*
X0012610Y0277381D01*
X0012443Y0277429D01*
X0012277Y0277482D01*
X0012112Y0277538D01*
X0011949Y0277599D01*
X0011788Y0277663D01*
X0011628Y0277732D01*
X0011470Y0277804D01*
X0011314Y0277881D01*
X0011159Y0277961D01*
X0011007Y0278045D01*
X0010857Y0278132D01*
X0010708Y0278224D01*
X0010563Y0278318D01*
X0010419Y0278417D01*
X0010278Y0278519D01*
X0010140Y0278624D01*
X0010004Y0278733D01*
X0009871Y0278845D01*
X0009741Y0278960D01*
X0009613Y0279078D01*
X0009489Y0279200D01*
X0009367Y0279324D01*
X0009249Y0279452D01*
X0009134Y0279582D01*
X0009022Y0279715D01*
X0008913Y0279851D01*
X0008808Y0279989D01*
X0008706Y0280130D01*
X0008607Y0280274D01*
X0008513Y0280419D01*
X0008421Y0280568D01*
X0008334Y0280718D01*
X0008250Y0280870D01*
X0008170Y0281025D01*
X0008093Y0281181D01*
X0008021Y0281339D01*
X0007952Y0281499D01*
X0007888Y0281660D01*
X0007827Y0281823D01*
X0007771Y0281988D01*
X0007718Y0282154D01*
X0007670Y0282321D01*
X0007625Y0282489D01*
X0007585Y0282658D01*
X0007549Y0282828D01*
X0007517Y0282999D01*
X0007490Y0283171D01*
X0007466Y0283343D01*
X0007447Y0283516D01*
X0007432Y0283690D01*
X0007422Y0283863D01*
X0007415Y0284037D01*
X0007413Y0284211D01*
X0120413Y0284211D02*
X0120415Y0284385D01*
X0120422Y0284559D01*
X0120432Y0284732D01*
X0120447Y0284906D01*
X0120466Y0285079D01*
X0120490Y0285251D01*
X0120517Y0285423D01*
X0120549Y0285594D01*
X0120585Y0285764D01*
X0120625Y0285933D01*
X0120670Y0286101D01*
X0120718Y0286268D01*
X0120771Y0286434D01*
X0120827Y0286599D01*
X0120888Y0286762D01*
X0120952Y0286923D01*
X0121021Y0287083D01*
X0121093Y0287241D01*
X0121170Y0287397D01*
X0121250Y0287552D01*
X0121334Y0287704D01*
X0121421Y0287854D01*
X0121513Y0288003D01*
X0121607Y0288148D01*
X0121706Y0288292D01*
X0121808Y0288433D01*
X0121913Y0288571D01*
X0122022Y0288707D01*
X0122134Y0288840D01*
X0122249Y0288970D01*
X0122367Y0289098D01*
X0122489Y0289222D01*
X0122613Y0289344D01*
X0122741Y0289462D01*
X0122871Y0289577D01*
X0123004Y0289689D01*
X0123140Y0289798D01*
X0123278Y0289903D01*
X0123419Y0290005D01*
X0123563Y0290104D01*
X0123708Y0290198D01*
X0123857Y0290290D01*
X0124007Y0290377D01*
X0124159Y0290461D01*
X0124314Y0290541D01*
X0124470Y0290618D01*
X0124628Y0290690D01*
X0124788Y0290759D01*
X0124949Y0290823D01*
X0125112Y0290884D01*
X0125277Y0290940D01*
X0125443Y0290993D01*
X0125610Y0291041D01*
X0125778Y0291086D01*
X0125947Y0291126D01*
X0126117Y0291162D01*
X0126288Y0291194D01*
X0126460Y0291221D01*
X0126632Y0291245D01*
X0126805Y0291264D01*
X0126979Y0291279D01*
X0127152Y0291289D01*
X0127326Y0291296D01*
X0127500Y0291298D01*
X0127674Y0291296D01*
X0127848Y0291289D01*
X0128021Y0291279D01*
X0128195Y0291264D01*
X0128368Y0291245D01*
X0128540Y0291221D01*
X0128712Y0291194D01*
X0128883Y0291162D01*
X0129053Y0291126D01*
X0129222Y0291086D01*
X0129390Y0291041D01*
X0129557Y0290993D01*
X0129723Y0290940D01*
X0129888Y0290884D01*
X0130051Y0290823D01*
X0130212Y0290759D01*
X0130372Y0290690D01*
X0130530Y0290618D01*
X0130686Y0290541D01*
X0130841Y0290461D01*
X0130993Y0290377D01*
X0131143Y0290290D01*
X0131292Y0290198D01*
X0131437Y0290104D01*
X0131581Y0290005D01*
X0131722Y0289903D01*
X0131860Y0289798D01*
X0131996Y0289689D01*
X0132129Y0289577D01*
X0132259Y0289462D01*
X0132387Y0289344D01*
X0132511Y0289222D01*
X0132633Y0289098D01*
X0132751Y0288970D01*
X0132866Y0288840D01*
X0132978Y0288707D01*
X0133087Y0288571D01*
X0133192Y0288433D01*
X0133294Y0288292D01*
X0133393Y0288148D01*
X0133487Y0288003D01*
X0133579Y0287854D01*
X0133666Y0287704D01*
X0133750Y0287552D01*
X0133830Y0287397D01*
X0133907Y0287241D01*
X0133979Y0287083D01*
X0134048Y0286923D01*
X0134112Y0286762D01*
X0134173Y0286599D01*
X0134229Y0286434D01*
X0134282Y0286268D01*
X0134330Y0286101D01*
X0134375Y0285933D01*
X0134415Y0285764D01*
X0134451Y0285594D01*
X0134483Y0285423D01*
X0134510Y0285251D01*
X0134534Y0285079D01*
X0134553Y0284906D01*
X0134568Y0284732D01*
X0134578Y0284559D01*
X0134585Y0284385D01*
X0134587Y0284211D01*
X0134585Y0284037D01*
X0134578Y0283863D01*
X0134568Y0283690D01*
X0134553Y0283516D01*
X0134534Y0283343D01*
X0134510Y0283171D01*
X0134483Y0282999D01*
X0134451Y0282828D01*
X0134415Y0282658D01*
X0134375Y0282489D01*
X0134330Y0282321D01*
X0134282Y0282154D01*
X0134229Y0281988D01*
X0134173Y0281823D01*
X0134112Y0281660D01*
X0134048Y0281499D01*
X0133979Y0281339D01*
X0133907Y0281181D01*
X0133830Y0281025D01*
X0133750Y0280870D01*
X0133666Y0280718D01*
X0133579Y0280568D01*
X0133487Y0280419D01*
X0133393Y0280274D01*
X0133294Y0280130D01*
X0133192Y0279989D01*
X0133087Y0279851D01*
X0132978Y0279715D01*
X0132866Y0279582D01*
X0132751Y0279452D01*
X0132633Y0279324D01*
X0132511Y0279200D01*
X0132387Y0279078D01*
X0132259Y0278960D01*
X0132129Y0278845D01*
X0131996Y0278733D01*
X0131860Y0278624D01*
X0131722Y0278519D01*
X0131581Y0278417D01*
X0131437Y0278318D01*
X0131292Y0278224D01*
X0131143Y0278132D01*
X0130993Y0278045D01*
X0130841Y0277961D01*
X0130686Y0277881D01*
X0130530Y0277804D01*
X0130372Y0277732D01*
X0130212Y0277663D01*
X0130051Y0277599D01*
X0129888Y0277538D01*
X0129723Y0277482D01*
X0129557Y0277429D01*
X0129390Y0277381D01*
X0129222Y0277336D01*
X0129053Y0277296D01*
X0128883Y0277260D01*
X0128712Y0277228D01*
X0128540Y0277201D01*
X0128368Y0277177D01*
X0128195Y0277158D01*
X0128021Y0277143D01*
X0127848Y0277133D01*
X0127674Y0277126D01*
X0127500Y0277124D01*
X0127326Y0277126D01*
X0127152Y0277133D01*
X0126979Y0277143D01*
X0126805Y0277158D01*
X0126632Y0277177D01*
X0126460Y0277201D01*
X0126288Y0277228D01*
X0126117Y0277260D01*
X0125947Y0277296D01*
X0125778Y0277336D01*
X0125610Y0277381D01*
X0125443Y0277429D01*
X0125277Y0277482D01*
X0125112Y0277538D01*
X0124949Y0277599D01*
X0124788Y0277663D01*
X0124628Y0277732D01*
X0124470Y0277804D01*
X0124314Y0277881D01*
X0124159Y0277961D01*
X0124007Y0278045D01*
X0123857Y0278132D01*
X0123708Y0278224D01*
X0123563Y0278318D01*
X0123419Y0278417D01*
X0123278Y0278519D01*
X0123140Y0278624D01*
X0123004Y0278733D01*
X0122871Y0278845D01*
X0122741Y0278960D01*
X0122613Y0279078D01*
X0122489Y0279200D01*
X0122367Y0279324D01*
X0122249Y0279452D01*
X0122134Y0279582D01*
X0122022Y0279715D01*
X0121913Y0279851D01*
X0121808Y0279989D01*
X0121706Y0280130D01*
X0121607Y0280274D01*
X0121513Y0280419D01*
X0121421Y0280568D01*
X0121334Y0280718D01*
X0121250Y0280870D01*
X0121170Y0281025D01*
X0121093Y0281181D01*
X0121021Y0281339D01*
X0120952Y0281499D01*
X0120888Y0281660D01*
X0120827Y0281823D01*
X0120771Y0281988D01*
X0120718Y0282154D01*
X0120670Y0282321D01*
X0120625Y0282489D01*
X0120585Y0282658D01*
X0120549Y0282828D01*
X0120517Y0282999D01*
X0120490Y0283171D01*
X0120466Y0283343D01*
X0120447Y0283516D01*
X0120432Y0283690D01*
X0120422Y0283863D01*
X0120415Y0284037D01*
X0120413Y0284211D01*
X0120413Y0049211D02*
X0120415Y0049385D01*
X0120422Y0049559D01*
X0120432Y0049732D01*
X0120447Y0049906D01*
X0120466Y0050079D01*
X0120490Y0050251D01*
X0120517Y0050423D01*
X0120549Y0050594D01*
X0120585Y0050764D01*
X0120625Y0050933D01*
X0120670Y0051101D01*
X0120718Y0051268D01*
X0120771Y0051434D01*
X0120827Y0051599D01*
X0120888Y0051762D01*
X0120952Y0051923D01*
X0121021Y0052083D01*
X0121093Y0052241D01*
X0121170Y0052397D01*
X0121250Y0052552D01*
X0121334Y0052704D01*
X0121421Y0052854D01*
X0121513Y0053003D01*
X0121607Y0053148D01*
X0121706Y0053292D01*
X0121808Y0053433D01*
X0121913Y0053571D01*
X0122022Y0053707D01*
X0122134Y0053840D01*
X0122249Y0053970D01*
X0122367Y0054098D01*
X0122489Y0054222D01*
X0122613Y0054344D01*
X0122741Y0054462D01*
X0122871Y0054577D01*
X0123004Y0054689D01*
X0123140Y0054798D01*
X0123278Y0054903D01*
X0123419Y0055005D01*
X0123563Y0055104D01*
X0123708Y0055198D01*
X0123857Y0055290D01*
X0124007Y0055377D01*
X0124159Y0055461D01*
X0124314Y0055541D01*
X0124470Y0055618D01*
X0124628Y0055690D01*
X0124788Y0055759D01*
X0124949Y0055823D01*
X0125112Y0055884D01*
X0125277Y0055940D01*
X0125443Y0055993D01*
X0125610Y0056041D01*
X0125778Y0056086D01*
X0125947Y0056126D01*
X0126117Y0056162D01*
X0126288Y0056194D01*
X0126460Y0056221D01*
X0126632Y0056245D01*
X0126805Y0056264D01*
X0126979Y0056279D01*
X0127152Y0056289D01*
X0127326Y0056296D01*
X0127500Y0056298D01*
X0127674Y0056296D01*
X0127848Y0056289D01*
X0128021Y0056279D01*
X0128195Y0056264D01*
X0128368Y0056245D01*
X0128540Y0056221D01*
X0128712Y0056194D01*
X0128883Y0056162D01*
X0129053Y0056126D01*
X0129222Y0056086D01*
X0129390Y0056041D01*
X0129557Y0055993D01*
X0129723Y0055940D01*
X0129888Y0055884D01*
X0130051Y0055823D01*
X0130212Y0055759D01*
X0130372Y0055690D01*
X0130530Y0055618D01*
X0130686Y0055541D01*
X0130841Y0055461D01*
X0130993Y0055377D01*
X0131143Y0055290D01*
X0131292Y0055198D01*
X0131437Y0055104D01*
X0131581Y0055005D01*
X0131722Y0054903D01*
X0131860Y0054798D01*
X0131996Y0054689D01*
X0132129Y0054577D01*
X0132259Y0054462D01*
X0132387Y0054344D01*
X0132511Y0054222D01*
X0132633Y0054098D01*
X0132751Y0053970D01*
X0132866Y0053840D01*
X0132978Y0053707D01*
X0133087Y0053571D01*
X0133192Y0053433D01*
X0133294Y0053292D01*
X0133393Y0053148D01*
X0133487Y0053003D01*
X0133579Y0052854D01*
X0133666Y0052704D01*
X0133750Y0052552D01*
X0133830Y0052397D01*
X0133907Y0052241D01*
X0133979Y0052083D01*
X0134048Y0051923D01*
X0134112Y0051762D01*
X0134173Y0051599D01*
X0134229Y0051434D01*
X0134282Y0051268D01*
X0134330Y0051101D01*
X0134375Y0050933D01*
X0134415Y0050764D01*
X0134451Y0050594D01*
X0134483Y0050423D01*
X0134510Y0050251D01*
X0134534Y0050079D01*
X0134553Y0049906D01*
X0134568Y0049732D01*
X0134578Y0049559D01*
X0134585Y0049385D01*
X0134587Y0049211D01*
X0134585Y0049037D01*
X0134578Y0048863D01*
X0134568Y0048690D01*
X0134553Y0048516D01*
X0134534Y0048343D01*
X0134510Y0048171D01*
X0134483Y0047999D01*
X0134451Y0047828D01*
X0134415Y0047658D01*
X0134375Y0047489D01*
X0134330Y0047321D01*
X0134282Y0047154D01*
X0134229Y0046988D01*
X0134173Y0046823D01*
X0134112Y0046660D01*
X0134048Y0046499D01*
X0133979Y0046339D01*
X0133907Y0046181D01*
X0133830Y0046025D01*
X0133750Y0045870D01*
X0133666Y0045718D01*
X0133579Y0045568D01*
X0133487Y0045419D01*
X0133393Y0045274D01*
X0133294Y0045130D01*
X0133192Y0044989D01*
X0133087Y0044851D01*
X0132978Y0044715D01*
X0132866Y0044582D01*
X0132751Y0044452D01*
X0132633Y0044324D01*
X0132511Y0044200D01*
X0132387Y0044078D01*
X0132259Y0043960D01*
X0132129Y0043845D01*
X0131996Y0043733D01*
X0131860Y0043624D01*
X0131722Y0043519D01*
X0131581Y0043417D01*
X0131437Y0043318D01*
X0131292Y0043224D01*
X0131143Y0043132D01*
X0130993Y0043045D01*
X0130841Y0042961D01*
X0130686Y0042881D01*
X0130530Y0042804D01*
X0130372Y0042732D01*
X0130212Y0042663D01*
X0130051Y0042599D01*
X0129888Y0042538D01*
X0129723Y0042482D01*
X0129557Y0042429D01*
X0129390Y0042381D01*
X0129222Y0042336D01*
X0129053Y0042296D01*
X0128883Y0042260D01*
X0128712Y0042228D01*
X0128540Y0042201D01*
X0128368Y0042177D01*
X0128195Y0042158D01*
X0128021Y0042143D01*
X0127848Y0042133D01*
X0127674Y0042126D01*
X0127500Y0042124D01*
X0127326Y0042126D01*
X0127152Y0042133D01*
X0126979Y0042143D01*
X0126805Y0042158D01*
X0126632Y0042177D01*
X0126460Y0042201D01*
X0126288Y0042228D01*
X0126117Y0042260D01*
X0125947Y0042296D01*
X0125778Y0042336D01*
X0125610Y0042381D01*
X0125443Y0042429D01*
X0125277Y0042482D01*
X0125112Y0042538D01*
X0124949Y0042599D01*
X0124788Y0042663D01*
X0124628Y0042732D01*
X0124470Y0042804D01*
X0124314Y0042881D01*
X0124159Y0042961D01*
X0124007Y0043045D01*
X0123857Y0043132D01*
X0123708Y0043224D01*
X0123563Y0043318D01*
X0123419Y0043417D01*
X0123278Y0043519D01*
X0123140Y0043624D01*
X0123004Y0043733D01*
X0122871Y0043845D01*
X0122741Y0043960D01*
X0122613Y0044078D01*
X0122489Y0044200D01*
X0122367Y0044324D01*
X0122249Y0044452D01*
X0122134Y0044582D01*
X0122022Y0044715D01*
X0121913Y0044851D01*
X0121808Y0044989D01*
X0121706Y0045130D01*
X0121607Y0045274D01*
X0121513Y0045419D01*
X0121421Y0045568D01*
X0121334Y0045718D01*
X0121250Y0045870D01*
X0121170Y0046025D01*
X0121093Y0046181D01*
X0121021Y0046339D01*
X0120952Y0046499D01*
X0120888Y0046660D01*
X0120827Y0046823D01*
X0120771Y0046988D01*
X0120718Y0047154D01*
X0120670Y0047321D01*
X0120625Y0047489D01*
X0120585Y0047658D01*
X0120549Y0047828D01*
X0120517Y0047999D01*
X0120490Y0048171D01*
X0120466Y0048343D01*
X0120447Y0048516D01*
X0120432Y0048690D01*
X0120422Y0048863D01*
X0120415Y0049037D01*
X0120413Y0049211D01*
D13*
X0073500Y0055211D02*
X0068500Y0055211D01*
M02*
