G75*
%MOIN*%
%OFA0B0*%
%FSLAX25Y25*%
%IPPOS*%
%LPD*%
%AMOC8*
5,1,8,0,0,1.08239X$1,22.5*
%
%ADD10C,0.02000*%
%ADD11C,0.00000*%
%ADD12C,0.14573*%
%ADD13R,0.13900X0.13900*%
%ADD14C,0.07800*%
D10*
X0002000Y0037211D02*
X0139000Y0036211D01*
X0139000Y0298211D01*
X0002000Y0298211D01*
X0002000Y0037211D01*
D11*
X0007413Y0049211D02*
X0007415Y0049385D01*
X0007422Y0049559D01*
X0007432Y0049732D01*
X0007447Y0049906D01*
X0007466Y0050079D01*
X0007490Y0050251D01*
X0007517Y0050423D01*
X0007549Y0050594D01*
X0007585Y0050764D01*
X0007625Y0050933D01*
X0007670Y0051101D01*
X0007718Y0051268D01*
X0007771Y0051434D01*
X0007827Y0051599D01*
X0007888Y0051762D01*
X0007952Y0051923D01*
X0008021Y0052083D01*
X0008093Y0052241D01*
X0008170Y0052397D01*
X0008250Y0052552D01*
X0008334Y0052704D01*
X0008421Y0052854D01*
X0008513Y0053003D01*
X0008607Y0053148D01*
X0008706Y0053292D01*
X0008808Y0053433D01*
X0008913Y0053571D01*
X0009022Y0053707D01*
X0009134Y0053840D01*
X0009249Y0053970D01*
X0009367Y0054098D01*
X0009489Y0054222D01*
X0009613Y0054344D01*
X0009741Y0054462D01*
X0009871Y0054577D01*
X0010004Y0054689D01*
X0010140Y0054798D01*
X0010278Y0054903D01*
X0010419Y0055005D01*
X0010563Y0055104D01*
X0010708Y0055198D01*
X0010857Y0055290D01*
X0011007Y0055377D01*
X0011159Y0055461D01*
X0011314Y0055541D01*
X0011470Y0055618D01*
X0011628Y0055690D01*
X0011788Y0055759D01*
X0011949Y0055823D01*
X0012112Y0055884D01*
X0012277Y0055940D01*
X0012443Y0055993D01*
X0012610Y0056041D01*
X0012778Y0056086D01*
X0012947Y0056126D01*
X0013117Y0056162D01*
X0013288Y0056194D01*
X0013460Y0056221D01*
X0013632Y0056245D01*
X0013805Y0056264D01*
X0013979Y0056279D01*
X0014152Y0056289D01*
X0014326Y0056296D01*
X0014500Y0056298D01*
X0014674Y0056296D01*
X0014848Y0056289D01*
X0015021Y0056279D01*
X0015195Y0056264D01*
X0015368Y0056245D01*
X0015540Y0056221D01*
X0015712Y0056194D01*
X0015883Y0056162D01*
X0016053Y0056126D01*
X0016222Y0056086D01*
X0016390Y0056041D01*
X0016557Y0055993D01*
X0016723Y0055940D01*
X0016888Y0055884D01*
X0017051Y0055823D01*
X0017212Y0055759D01*
X0017372Y0055690D01*
X0017530Y0055618D01*
X0017686Y0055541D01*
X0017841Y0055461D01*
X0017993Y0055377D01*
X0018143Y0055290D01*
X0018292Y0055198D01*
X0018437Y0055104D01*
X0018581Y0055005D01*
X0018722Y0054903D01*
X0018860Y0054798D01*
X0018996Y0054689D01*
X0019129Y0054577D01*
X0019259Y0054462D01*
X0019387Y0054344D01*
X0019511Y0054222D01*
X0019633Y0054098D01*
X0019751Y0053970D01*
X0019866Y0053840D01*
X0019978Y0053707D01*
X0020087Y0053571D01*
X0020192Y0053433D01*
X0020294Y0053292D01*
X0020393Y0053148D01*
X0020487Y0053003D01*
X0020579Y0052854D01*
X0020666Y0052704D01*
X0020750Y0052552D01*
X0020830Y0052397D01*
X0020907Y0052241D01*
X0020979Y0052083D01*
X0021048Y0051923D01*
X0021112Y0051762D01*
X0021173Y0051599D01*
X0021229Y0051434D01*
X0021282Y0051268D01*
X0021330Y0051101D01*
X0021375Y0050933D01*
X0021415Y0050764D01*
X0021451Y0050594D01*
X0021483Y0050423D01*
X0021510Y0050251D01*
X0021534Y0050079D01*
X0021553Y0049906D01*
X0021568Y0049732D01*
X0021578Y0049559D01*
X0021585Y0049385D01*
X0021587Y0049211D01*
X0021585Y0049037D01*
X0021578Y0048863D01*
X0021568Y0048690D01*
X0021553Y0048516D01*
X0021534Y0048343D01*
X0021510Y0048171D01*
X0021483Y0047999D01*
X0021451Y0047828D01*
X0021415Y0047658D01*
X0021375Y0047489D01*
X0021330Y0047321D01*
X0021282Y0047154D01*
X0021229Y0046988D01*
X0021173Y0046823D01*
X0021112Y0046660D01*
X0021048Y0046499D01*
X0020979Y0046339D01*
X0020907Y0046181D01*
X0020830Y0046025D01*
X0020750Y0045870D01*
X0020666Y0045718D01*
X0020579Y0045568D01*
X0020487Y0045419D01*
X0020393Y0045274D01*
X0020294Y0045130D01*
X0020192Y0044989D01*
X0020087Y0044851D01*
X0019978Y0044715D01*
X0019866Y0044582D01*
X0019751Y0044452D01*
X0019633Y0044324D01*
X0019511Y0044200D01*
X0019387Y0044078D01*
X0019259Y0043960D01*
X0019129Y0043845D01*
X0018996Y0043733D01*
X0018860Y0043624D01*
X0018722Y0043519D01*
X0018581Y0043417D01*
X0018437Y0043318D01*
X0018292Y0043224D01*
X0018143Y0043132D01*
X0017993Y0043045D01*
X0017841Y0042961D01*
X0017686Y0042881D01*
X0017530Y0042804D01*
X0017372Y0042732D01*
X0017212Y0042663D01*
X0017051Y0042599D01*
X0016888Y0042538D01*
X0016723Y0042482D01*
X0016557Y0042429D01*
X0016390Y0042381D01*
X0016222Y0042336D01*
X0016053Y0042296D01*
X0015883Y0042260D01*
X0015712Y0042228D01*
X0015540Y0042201D01*
X0015368Y0042177D01*
X0015195Y0042158D01*
X0015021Y0042143D01*
X0014848Y0042133D01*
X0014674Y0042126D01*
X0014500Y0042124D01*
X0014326Y0042126D01*
X0014152Y0042133D01*
X0013979Y0042143D01*
X0013805Y0042158D01*
X0013632Y0042177D01*
X0013460Y0042201D01*
X0013288Y0042228D01*
X0013117Y0042260D01*
X0012947Y0042296D01*
X0012778Y0042336D01*
X0012610Y0042381D01*
X0012443Y0042429D01*
X0012277Y0042482D01*
X0012112Y0042538D01*
X0011949Y0042599D01*
X0011788Y0042663D01*
X0011628Y0042732D01*
X0011470Y0042804D01*
X0011314Y0042881D01*
X0011159Y0042961D01*
X0011007Y0043045D01*
X0010857Y0043132D01*
X0010708Y0043224D01*
X0010563Y0043318D01*
X0010419Y0043417D01*
X0010278Y0043519D01*
X0010140Y0043624D01*
X0010004Y0043733D01*
X0009871Y0043845D01*
X0009741Y0043960D01*
X0009613Y0044078D01*
X0009489Y0044200D01*
X0009367Y0044324D01*
X0009249Y0044452D01*
X0009134Y0044582D01*
X0009022Y0044715D01*
X0008913Y0044851D01*
X0008808Y0044989D01*
X0008706Y0045130D01*
X0008607Y0045274D01*
X0008513Y0045419D01*
X0008421Y0045568D01*
X0008334Y0045718D01*
X0008250Y0045870D01*
X0008170Y0046025D01*
X0008093Y0046181D01*
X0008021Y0046339D01*
X0007952Y0046499D01*
X0007888Y0046660D01*
X0007827Y0046823D01*
X0007771Y0046988D01*
X0007718Y0047154D01*
X0007670Y0047321D01*
X0007625Y0047489D01*
X0007585Y0047658D01*
X0007549Y0047828D01*
X0007517Y0047999D01*
X0007490Y0048171D01*
X0007466Y0048343D01*
X0007447Y0048516D01*
X0007432Y0048690D01*
X0007422Y0048863D01*
X0007415Y0049037D01*
X0007413Y0049211D01*
X0007413Y0284211D02*
X0007415Y0284385D01*
X0007422Y0284559D01*
X0007432Y0284732D01*
X0007447Y0284906D01*
X0007466Y0285079D01*
X0007490Y0285251D01*
X0007517Y0285423D01*
X0007549Y0285594D01*
X0007585Y0285764D01*
X0007625Y0285933D01*
X0007670Y0286101D01*
X0007718Y0286268D01*
X0007771Y0286434D01*
X0007827Y0286599D01*
X0007888Y0286762D01*
X0007952Y0286923D01*
X0008021Y0287083D01*
X0008093Y0287241D01*
X0008170Y0287397D01*
X0008250Y0287552D01*
X0008334Y0287704D01*
X0008421Y0287854D01*
X0008513Y0288003D01*
X0008607Y0288148D01*
X0008706Y0288292D01*
X0008808Y0288433D01*
X0008913Y0288571D01*
X0009022Y0288707D01*
X0009134Y0288840D01*
X0009249Y0288970D01*
X0009367Y0289098D01*
X0009489Y0289222D01*
X0009613Y0289344D01*
X0009741Y0289462D01*
X0009871Y0289577D01*
X0010004Y0289689D01*
X0010140Y0289798D01*
X0010278Y0289903D01*
X0010419Y0290005D01*
X0010563Y0290104D01*
X0010708Y0290198D01*
X0010857Y0290290D01*
X0011007Y0290377D01*
X0011159Y0290461D01*
X0011314Y0290541D01*
X0011470Y0290618D01*
X0011628Y0290690D01*
X0011788Y0290759D01*
X0011949Y0290823D01*
X0012112Y0290884D01*
X0012277Y0290940D01*
X0012443Y0290993D01*
X0012610Y0291041D01*
X0012778Y0291086D01*
X0012947Y0291126D01*
X0013117Y0291162D01*
X0013288Y0291194D01*
X0013460Y0291221D01*
X0013632Y0291245D01*
X0013805Y0291264D01*
X0013979Y0291279D01*
X0014152Y0291289D01*
X0014326Y0291296D01*
X0014500Y0291298D01*
X0014674Y0291296D01*
X0014848Y0291289D01*
X0015021Y0291279D01*
X0015195Y0291264D01*
X0015368Y0291245D01*
X0015540Y0291221D01*
X0015712Y0291194D01*
X0015883Y0291162D01*
X0016053Y0291126D01*
X0016222Y0291086D01*
X0016390Y0291041D01*
X0016557Y0290993D01*
X0016723Y0290940D01*
X0016888Y0290884D01*
X0017051Y0290823D01*
X0017212Y0290759D01*
X0017372Y0290690D01*
X0017530Y0290618D01*
X0017686Y0290541D01*
X0017841Y0290461D01*
X0017993Y0290377D01*
X0018143Y0290290D01*
X0018292Y0290198D01*
X0018437Y0290104D01*
X0018581Y0290005D01*
X0018722Y0289903D01*
X0018860Y0289798D01*
X0018996Y0289689D01*
X0019129Y0289577D01*
X0019259Y0289462D01*
X0019387Y0289344D01*
X0019511Y0289222D01*
X0019633Y0289098D01*
X0019751Y0288970D01*
X0019866Y0288840D01*
X0019978Y0288707D01*
X0020087Y0288571D01*
X0020192Y0288433D01*
X0020294Y0288292D01*
X0020393Y0288148D01*
X0020487Y0288003D01*
X0020579Y0287854D01*
X0020666Y0287704D01*
X0020750Y0287552D01*
X0020830Y0287397D01*
X0020907Y0287241D01*
X0020979Y0287083D01*
X0021048Y0286923D01*
X0021112Y0286762D01*
X0021173Y0286599D01*
X0021229Y0286434D01*
X0021282Y0286268D01*
X0021330Y0286101D01*
X0021375Y0285933D01*
X0021415Y0285764D01*
X0021451Y0285594D01*
X0021483Y0285423D01*
X0021510Y0285251D01*
X0021534Y0285079D01*
X0021553Y0284906D01*
X0021568Y0284732D01*
X0021578Y0284559D01*
X0021585Y0284385D01*
X0021587Y0284211D01*
X0021585Y0284037D01*
X0021578Y0283863D01*
X0021568Y0283690D01*
X0021553Y0283516D01*
X0021534Y0283343D01*
X0021510Y0283171D01*
X0021483Y0282999D01*
X0021451Y0282828D01*
X0021415Y0282658D01*
X0021375Y0282489D01*
X0021330Y0282321D01*
X0021282Y0282154D01*
X0021229Y0281988D01*
X0021173Y0281823D01*
X0021112Y0281660D01*
X0021048Y0281499D01*
X0020979Y0281339D01*
X0020907Y0281181D01*
X0020830Y0281025D01*
X0020750Y0280870D01*
X0020666Y0280718D01*
X0020579Y0280568D01*
X0020487Y0280419D01*
X0020393Y0280274D01*
X0020294Y0280130D01*
X0020192Y0279989D01*
X0020087Y0279851D01*
X0019978Y0279715D01*
X0019866Y0279582D01*
X0019751Y0279452D01*
X0019633Y0279324D01*
X0019511Y0279200D01*
X0019387Y0279078D01*
X0019259Y0278960D01*
X0019129Y0278845D01*
X0018996Y0278733D01*
X0018860Y0278624D01*
X0018722Y0278519D01*
X0018581Y0278417D01*
X0018437Y0278318D01*
X0018292Y0278224D01*
X0018143Y0278132D01*
X0017993Y0278045D01*
X0017841Y0277961D01*
X0017686Y0277881D01*
X0017530Y0277804D01*
X0017372Y0277732D01*
X0017212Y0277663D01*
X0017051Y0277599D01*
X0016888Y0277538D01*
X0016723Y0277482D01*
X0016557Y0277429D01*
X0016390Y0277381D01*
X0016222Y0277336D01*
X0016053Y0277296D01*
X0015883Y0277260D01*
X0015712Y0277228D01*
X0015540Y0277201D01*
X0015368Y0277177D01*
X0015195Y0277158D01*
X0015021Y0277143D01*
X0014848Y0277133D01*
X0014674Y0277126D01*
X0014500Y0277124D01*
X0014326Y0277126D01*
X0014152Y0277133D01*
X0013979Y0277143D01*
X0013805Y0277158D01*
X0013632Y0277177D01*
X0013460Y0277201D01*
X0013288Y0277228D01*
X0013117Y0277260D01*
X0012947Y0277296D01*
X0012778Y0277336D01*
X0012610Y0277381D01*
X0012443Y0277429D01*
X0012277Y0277482D01*
X0012112Y0277538D01*
X0011949Y0277599D01*
X0011788Y0277663D01*
X0011628Y0277732D01*
X0011470Y0277804D01*
X0011314Y0277881D01*
X0011159Y0277961D01*
X0011007Y0278045D01*
X0010857Y0278132D01*
X0010708Y0278224D01*
X0010563Y0278318D01*
X0010419Y0278417D01*
X0010278Y0278519D01*
X0010140Y0278624D01*
X0010004Y0278733D01*
X0009871Y0278845D01*
X0009741Y0278960D01*
X0009613Y0279078D01*
X0009489Y0279200D01*
X0009367Y0279324D01*
X0009249Y0279452D01*
X0009134Y0279582D01*
X0009022Y0279715D01*
X0008913Y0279851D01*
X0008808Y0279989D01*
X0008706Y0280130D01*
X0008607Y0280274D01*
X0008513Y0280419D01*
X0008421Y0280568D01*
X0008334Y0280718D01*
X0008250Y0280870D01*
X0008170Y0281025D01*
X0008093Y0281181D01*
X0008021Y0281339D01*
X0007952Y0281499D01*
X0007888Y0281660D01*
X0007827Y0281823D01*
X0007771Y0281988D01*
X0007718Y0282154D01*
X0007670Y0282321D01*
X0007625Y0282489D01*
X0007585Y0282658D01*
X0007549Y0282828D01*
X0007517Y0282999D01*
X0007490Y0283171D01*
X0007466Y0283343D01*
X0007447Y0283516D01*
X0007432Y0283690D01*
X0007422Y0283863D01*
X0007415Y0284037D01*
X0007413Y0284211D01*
X0120413Y0284211D02*
X0120415Y0284385D01*
X0120422Y0284559D01*
X0120432Y0284732D01*
X0120447Y0284906D01*
X0120466Y0285079D01*
X0120490Y0285251D01*
X0120517Y0285423D01*
X0120549Y0285594D01*
X0120585Y0285764D01*
X0120625Y0285933D01*
X0120670Y0286101D01*
X0120718Y0286268D01*
X0120771Y0286434D01*
X0120827Y0286599D01*
X0120888Y0286762D01*
X0120952Y0286923D01*
X0121021Y0287083D01*
X0121093Y0287241D01*
X0121170Y0287397D01*
X0121250Y0287552D01*
X0121334Y0287704D01*
X0121421Y0287854D01*
X0121513Y0288003D01*
X0121607Y0288148D01*
X0121706Y0288292D01*
X0121808Y0288433D01*
X0121913Y0288571D01*
X0122022Y0288707D01*
X0122134Y0288840D01*
X0122249Y0288970D01*
X0122367Y0289098D01*
X0122489Y0289222D01*
X0122613Y0289344D01*
X0122741Y0289462D01*
X0122871Y0289577D01*
X0123004Y0289689D01*
X0123140Y0289798D01*
X0123278Y0289903D01*
X0123419Y0290005D01*
X0123563Y0290104D01*
X0123708Y0290198D01*
X0123857Y0290290D01*
X0124007Y0290377D01*
X0124159Y0290461D01*
X0124314Y0290541D01*
X0124470Y0290618D01*
X0124628Y0290690D01*
X0124788Y0290759D01*
X0124949Y0290823D01*
X0125112Y0290884D01*
X0125277Y0290940D01*
X0125443Y0290993D01*
X0125610Y0291041D01*
X0125778Y0291086D01*
X0125947Y0291126D01*
X0126117Y0291162D01*
X0126288Y0291194D01*
X0126460Y0291221D01*
X0126632Y0291245D01*
X0126805Y0291264D01*
X0126979Y0291279D01*
X0127152Y0291289D01*
X0127326Y0291296D01*
X0127500Y0291298D01*
X0127674Y0291296D01*
X0127848Y0291289D01*
X0128021Y0291279D01*
X0128195Y0291264D01*
X0128368Y0291245D01*
X0128540Y0291221D01*
X0128712Y0291194D01*
X0128883Y0291162D01*
X0129053Y0291126D01*
X0129222Y0291086D01*
X0129390Y0291041D01*
X0129557Y0290993D01*
X0129723Y0290940D01*
X0129888Y0290884D01*
X0130051Y0290823D01*
X0130212Y0290759D01*
X0130372Y0290690D01*
X0130530Y0290618D01*
X0130686Y0290541D01*
X0130841Y0290461D01*
X0130993Y0290377D01*
X0131143Y0290290D01*
X0131292Y0290198D01*
X0131437Y0290104D01*
X0131581Y0290005D01*
X0131722Y0289903D01*
X0131860Y0289798D01*
X0131996Y0289689D01*
X0132129Y0289577D01*
X0132259Y0289462D01*
X0132387Y0289344D01*
X0132511Y0289222D01*
X0132633Y0289098D01*
X0132751Y0288970D01*
X0132866Y0288840D01*
X0132978Y0288707D01*
X0133087Y0288571D01*
X0133192Y0288433D01*
X0133294Y0288292D01*
X0133393Y0288148D01*
X0133487Y0288003D01*
X0133579Y0287854D01*
X0133666Y0287704D01*
X0133750Y0287552D01*
X0133830Y0287397D01*
X0133907Y0287241D01*
X0133979Y0287083D01*
X0134048Y0286923D01*
X0134112Y0286762D01*
X0134173Y0286599D01*
X0134229Y0286434D01*
X0134282Y0286268D01*
X0134330Y0286101D01*
X0134375Y0285933D01*
X0134415Y0285764D01*
X0134451Y0285594D01*
X0134483Y0285423D01*
X0134510Y0285251D01*
X0134534Y0285079D01*
X0134553Y0284906D01*
X0134568Y0284732D01*
X0134578Y0284559D01*
X0134585Y0284385D01*
X0134587Y0284211D01*
X0134585Y0284037D01*
X0134578Y0283863D01*
X0134568Y0283690D01*
X0134553Y0283516D01*
X0134534Y0283343D01*
X0134510Y0283171D01*
X0134483Y0282999D01*
X0134451Y0282828D01*
X0134415Y0282658D01*
X0134375Y0282489D01*
X0134330Y0282321D01*
X0134282Y0282154D01*
X0134229Y0281988D01*
X0134173Y0281823D01*
X0134112Y0281660D01*
X0134048Y0281499D01*
X0133979Y0281339D01*
X0133907Y0281181D01*
X0133830Y0281025D01*
X0133750Y0280870D01*
X0133666Y0280718D01*
X0133579Y0280568D01*
X0133487Y0280419D01*
X0133393Y0280274D01*
X0133294Y0280130D01*
X0133192Y0279989D01*
X0133087Y0279851D01*
X0132978Y0279715D01*
X0132866Y0279582D01*
X0132751Y0279452D01*
X0132633Y0279324D01*
X0132511Y0279200D01*
X0132387Y0279078D01*
X0132259Y0278960D01*
X0132129Y0278845D01*
X0131996Y0278733D01*
X0131860Y0278624D01*
X0131722Y0278519D01*
X0131581Y0278417D01*
X0131437Y0278318D01*
X0131292Y0278224D01*
X0131143Y0278132D01*
X0130993Y0278045D01*
X0130841Y0277961D01*
X0130686Y0277881D01*
X0130530Y0277804D01*
X0130372Y0277732D01*
X0130212Y0277663D01*
X0130051Y0277599D01*
X0129888Y0277538D01*
X0129723Y0277482D01*
X0129557Y0277429D01*
X0129390Y0277381D01*
X0129222Y0277336D01*
X0129053Y0277296D01*
X0128883Y0277260D01*
X0128712Y0277228D01*
X0128540Y0277201D01*
X0128368Y0277177D01*
X0128195Y0277158D01*
X0128021Y0277143D01*
X0127848Y0277133D01*
X0127674Y0277126D01*
X0127500Y0277124D01*
X0127326Y0277126D01*
X0127152Y0277133D01*
X0126979Y0277143D01*
X0126805Y0277158D01*
X0126632Y0277177D01*
X0126460Y0277201D01*
X0126288Y0277228D01*
X0126117Y0277260D01*
X0125947Y0277296D01*
X0125778Y0277336D01*
X0125610Y0277381D01*
X0125443Y0277429D01*
X0125277Y0277482D01*
X0125112Y0277538D01*
X0124949Y0277599D01*
X0124788Y0277663D01*
X0124628Y0277732D01*
X0124470Y0277804D01*
X0124314Y0277881D01*
X0124159Y0277961D01*
X0124007Y0278045D01*
X0123857Y0278132D01*
X0123708Y0278224D01*
X0123563Y0278318D01*
X0123419Y0278417D01*
X0123278Y0278519D01*
X0123140Y0278624D01*
X0123004Y0278733D01*
X0122871Y0278845D01*
X0122741Y0278960D01*
X0122613Y0279078D01*
X0122489Y0279200D01*
X0122367Y0279324D01*
X0122249Y0279452D01*
X0122134Y0279582D01*
X0122022Y0279715D01*
X0121913Y0279851D01*
X0121808Y0279989D01*
X0121706Y0280130D01*
X0121607Y0280274D01*
X0121513Y0280419D01*
X0121421Y0280568D01*
X0121334Y0280718D01*
X0121250Y0280870D01*
X0121170Y0281025D01*
X0121093Y0281181D01*
X0121021Y0281339D01*
X0120952Y0281499D01*
X0120888Y0281660D01*
X0120827Y0281823D01*
X0120771Y0281988D01*
X0120718Y0282154D01*
X0120670Y0282321D01*
X0120625Y0282489D01*
X0120585Y0282658D01*
X0120549Y0282828D01*
X0120517Y0282999D01*
X0120490Y0283171D01*
X0120466Y0283343D01*
X0120447Y0283516D01*
X0120432Y0283690D01*
X0120422Y0283863D01*
X0120415Y0284037D01*
X0120413Y0284211D01*
X0120413Y0049211D02*
X0120415Y0049385D01*
X0120422Y0049559D01*
X0120432Y0049732D01*
X0120447Y0049906D01*
X0120466Y0050079D01*
X0120490Y0050251D01*
X0120517Y0050423D01*
X0120549Y0050594D01*
X0120585Y0050764D01*
X0120625Y0050933D01*
X0120670Y0051101D01*
X0120718Y0051268D01*
X0120771Y0051434D01*
X0120827Y0051599D01*
X0120888Y0051762D01*
X0120952Y0051923D01*
X0121021Y0052083D01*
X0121093Y0052241D01*
X0121170Y0052397D01*
X0121250Y0052552D01*
X0121334Y0052704D01*
X0121421Y0052854D01*
X0121513Y0053003D01*
X0121607Y0053148D01*
X0121706Y0053292D01*
X0121808Y0053433D01*
X0121913Y0053571D01*
X0122022Y0053707D01*
X0122134Y0053840D01*
X0122249Y0053970D01*
X0122367Y0054098D01*
X0122489Y0054222D01*
X0122613Y0054344D01*
X0122741Y0054462D01*
X0122871Y0054577D01*
X0123004Y0054689D01*
X0123140Y0054798D01*
X0123278Y0054903D01*
X0123419Y0055005D01*
X0123563Y0055104D01*
X0123708Y0055198D01*
X0123857Y0055290D01*
X0124007Y0055377D01*
X0124159Y0055461D01*
X0124314Y0055541D01*
X0124470Y0055618D01*
X0124628Y0055690D01*
X0124788Y0055759D01*
X0124949Y0055823D01*
X0125112Y0055884D01*
X0125277Y0055940D01*
X0125443Y0055993D01*
X0125610Y0056041D01*
X0125778Y0056086D01*
X0125947Y0056126D01*
X0126117Y0056162D01*
X0126288Y0056194D01*
X0126460Y0056221D01*
X0126632Y0056245D01*
X0126805Y0056264D01*
X0126979Y0056279D01*
X0127152Y0056289D01*
X0127326Y0056296D01*
X0127500Y0056298D01*
X0127674Y0056296D01*
X0127848Y0056289D01*
X0128021Y0056279D01*
X0128195Y0056264D01*
X0128368Y0056245D01*
X0128540Y0056221D01*
X0128712Y0056194D01*
X0128883Y0056162D01*
X0129053Y0056126D01*
X0129222Y0056086D01*
X0129390Y0056041D01*
X0129557Y0055993D01*
X0129723Y0055940D01*
X0129888Y0055884D01*
X0130051Y0055823D01*
X0130212Y0055759D01*
X0130372Y0055690D01*
X0130530Y0055618D01*
X0130686Y0055541D01*
X0130841Y0055461D01*
X0130993Y0055377D01*
X0131143Y0055290D01*
X0131292Y0055198D01*
X0131437Y0055104D01*
X0131581Y0055005D01*
X0131722Y0054903D01*
X0131860Y0054798D01*
X0131996Y0054689D01*
X0132129Y0054577D01*
X0132259Y0054462D01*
X0132387Y0054344D01*
X0132511Y0054222D01*
X0132633Y0054098D01*
X0132751Y0053970D01*
X0132866Y0053840D01*
X0132978Y0053707D01*
X0133087Y0053571D01*
X0133192Y0053433D01*
X0133294Y0053292D01*
X0133393Y0053148D01*
X0133487Y0053003D01*
X0133579Y0052854D01*
X0133666Y0052704D01*
X0133750Y0052552D01*
X0133830Y0052397D01*
X0133907Y0052241D01*
X0133979Y0052083D01*
X0134048Y0051923D01*
X0134112Y0051762D01*
X0134173Y0051599D01*
X0134229Y0051434D01*
X0134282Y0051268D01*
X0134330Y0051101D01*
X0134375Y0050933D01*
X0134415Y0050764D01*
X0134451Y0050594D01*
X0134483Y0050423D01*
X0134510Y0050251D01*
X0134534Y0050079D01*
X0134553Y0049906D01*
X0134568Y0049732D01*
X0134578Y0049559D01*
X0134585Y0049385D01*
X0134587Y0049211D01*
X0134585Y0049037D01*
X0134578Y0048863D01*
X0134568Y0048690D01*
X0134553Y0048516D01*
X0134534Y0048343D01*
X0134510Y0048171D01*
X0134483Y0047999D01*
X0134451Y0047828D01*
X0134415Y0047658D01*
X0134375Y0047489D01*
X0134330Y0047321D01*
X0134282Y0047154D01*
X0134229Y0046988D01*
X0134173Y0046823D01*
X0134112Y0046660D01*
X0134048Y0046499D01*
X0133979Y0046339D01*
X0133907Y0046181D01*
X0133830Y0046025D01*
X0133750Y0045870D01*
X0133666Y0045718D01*
X0133579Y0045568D01*
X0133487Y0045419D01*
X0133393Y0045274D01*
X0133294Y0045130D01*
X0133192Y0044989D01*
X0133087Y0044851D01*
X0132978Y0044715D01*
X0132866Y0044582D01*
X0132751Y0044452D01*
X0132633Y0044324D01*
X0132511Y0044200D01*
X0132387Y0044078D01*
X0132259Y0043960D01*
X0132129Y0043845D01*
X0131996Y0043733D01*
X0131860Y0043624D01*
X0131722Y0043519D01*
X0131581Y0043417D01*
X0131437Y0043318D01*
X0131292Y0043224D01*
X0131143Y0043132D01*
X0130993Y0043045D01*
X0130841Y0042961D01*
X0130686Y0042881D01*
X0130530Y0042804D01*
X0130372Y0042732D01*
X0130212Y0042663D01*
X0130051Y0042599D01*
X0129888Y0042538D01*
X0129723Y0042482D01*
X0129557Y0042429D01*
X0129390Y0042381D01*
X0129222Y0042336D01*
X0129053Y0042296D01*
X0128883Y0042260D01*
X0128712Y0042228D01*
X0128540Y0042201D01*
X0128368Y0042177D01*
X0128195Y0042158D01*
X0128021Y0042143D01*
X0127848Y0042133D01*
X0127674Y0042126D01*
X0127500Y0042124D01*
X0127326Y0042126D01*
X0127152Y0042133D01*
X0126979Y0042143D01*
X0126805Y0042158D01*
X0126632Y0042177D01*
X0126460Y0042201D01*
X0126288Y0042228D01*
X0126117Y0042260D01*
X0125947Y0042296D01*
X0125778Y0042336D01*
X0125610Y0042381D01*
X0125443Y0042429D01*
X0125277Y0042482D01*
X0125112Y0042538D01*
X0124949Y0042599D01*
X0124788Y0042663D01*
X0124628Y0042732D01*
X0124470Y0042804D01*
X0124314Y0042881D01*
X0124159Y0042961D01*
X0124007Y0043045D01*
X0123857Y0043132D01*
X0123708Y0043224D01*
X0123563Y0043318D01*
X0123419Y0043417D01*
X0123278Y0043519D01*
X0123140Y0043624D01*
X0123004Y0043733D01*
X0122871Y0043845D01*
X0122741Y0043960D01*
X0122613Y0044078D01*
X0122489Y0044200D01*
X0122367Y0044324D01*
X0122249Y0044452D01*
X0122134Y0044582D01*
X0122022Y0044715D01*
X0121913Y0044851D01*
X0121808Y0044989D01*
X0121706Y0045130D01*
X0121607Y0045274D01*
X0121513Y0045419D01*
X0121421Y0045568D01*
X0121334Y0045718D01*
X0121250Y0045870D01*
X0121170Y0046025D01*
X0121093Y0046181D01*
X0121021Y0046339D01*
X0120952Y0046499D01*
X0120888Y0046660D01*
X0120827Y0046823D01*
X0120771Y0046988D01*
X0120718Y0047154D01*
X0120670Y0047321D01*
X0120625Y0047489D01*
X0120585Y0047658D01*
X0120549Y0047828D01*
X0120517Y0047999D01*
X0120490Y0048171D01*
X0120466Y0048343D01*
X0120447Y0048516D01*
X0120432Y0048690D01*
X0120422Y0048863D01*
X0120415Y0049037D01*
X0120413Y0049211D01*
D12*
X0127500Y0049211D03*
X0127500Y0284211D03*
X0014500Y0284211D03*
X0014500Y0049211D03*
D13*
X0044000Y0191011D03*
X0044000Y0210811D03*
X0044000Y0230611D03*
X0044000Y0250411D03*
X0044000Y0270211D03*
X0063800Y0270211D03*
X0063800Y0250411D03*
X0063800Y0230611D03*
X0063800Y0210811D03*
X0063800Y0191011D03*
X0083600Y0191011D03*
X0083600Y0210811D03*
X0083600Y0230611D03*
X0083600Y0250411D03*
X0083600Y0270211D03*
D14*
X0081000Y0071211D03*
X0081000Y0061211D03*
X0071000Y0061211D03*
X0071000Y0071211D03*
X0091000Y0071211D03*
X0091000Y0061211D03*
X0101000Y0061211D03*
X0101000Y0071211D03*
X0044000Y0052211D03*
X0034000Y0052211D03*
M02*
