G75*
%MOIN*%
%OFA0B0*%
%FSLAX25Y25*%
%IPPOS*%
%LPD*%
%AMOC8*
5,1,8,0,0,1.08239X$1,22.5*
%
%ADD10C,0.02000*%
%ADD11C,0.00200*%
%ADD12C,0.00400*%
%ADD13C,0.00000*%
%ADD14C,0.00500*%
%ADD15C,0.01200*%
%ADD16C,0.00600*%
%ADD17C,0.00100*%
%ADD18C,0.00700*%
%ADD19R,0.00591X0.01181*%
%ADD20R,0.01181X0.01181*%
%ADD21C,0.00800*%
D10*
X0002000Y0037211D02*
X0139000Y0036211D01*
X0139000Y0298211D01*
X0002000Y0298211D01*
X0002000Y0037211D01*
D11*
X0018705Y0076911D02*
X0018705Y0079111D01*
X0018094Y0079111D02*
X0019316Y0079111D01*
X0020215Y0079111D02*
X0020215Y0076911D01*
X0020215Y0077888D02*
X0020826Y0077888D01*
X0020826Y0077889D02*
X0020874Y0077891D01*
X0020922Y0077897D01*
X0020969Y0077906D01*
X0021015Y0077919D01*
X0021060Y0077936D01*
X0021103Y0077956D01*
X0021145Y0077979D01*
X0021185Y0078006D01*
X0021223Y0078035D01*
X0021258Y0078068D01*
X0021291Y0078103D01*
X0021320Y0078141D01*
X0021347Y0078181D01*
X0021370Y0078223D01*
X0021390Y0078266D01*
X0021407Y0078311D01*
X0021420Y0078357D01*
X0021429Y0078404D01*
X0021435Y0078452D01*
X0021437Y0078500D01*
X0021435Y0078548D01*
X0021429Y0078596D01*
X0021420Y0078643D01*
X0021407Y0078689D01*
X0021390Y0078734D01*
X0021370Y0078777D01*
X0021347Y0078819D01*
X0021320Y0078859D01*
X0021291Y0078897D01*
X0021258Y0078932D01*
X0021223Y0078965D01*
X0021185Y0078994D01*
X0021145Y0079021D01*
X0021103Y0079044D01*
X0021060Y0079064D01*
X0021015Y0079081D01*
X0020969Y0079094D01*
X0020922Y0079103D01*
X0020874Y0079109D01*
X0020826Y0079111D01*
X0020215Y0079111D01*
X0022176Y0076666D02*
X0023154Y0076666D01*
X0024070Y0077400D02*
X0024070Y0078622D01*
X0024072Y0078665D01*
X0024077Y0078707D01*
X0024087Y0078749D01*
X0024099Y0078789D01*
X0024116Y0078829D01*
X0024136Y0078866D01*
X0024158Y0078902D01*
X0024184Y0078936D01*
X0024213Y0078968D01*
X0024245Y0078997D01*
X0024279Y0079023D01*
X0024314Y0079045D01*
X0024352Y0079065D01*
X0024392Y0079082D01*
X0024432Y0079094D01*
X0024474Y0079104D01*
X0024516Y0079109D01*
X0024559Y0079111D01*
X0025292Y0079111D01*
X0025292Y0078133D02*
X0025292Y0076911D01*
X0024559Y0076911D01*
X0024516Y0076913D01*
X0024474Y0076918D01*
X0024432Y0076928D01*
X0024392Y0076940D01*
X0024352Y0076957D01*
X0024315Y0076977D01*
X0024279Y0076999D01*
X0024245Y0077025D01*
X0024213Y0077054D01*
X0024184Y0077086D01*
X0024158Y0077120D01*
X0024136Y0077156D01*
X0024116Y0077193D01*
X0024099Y0077233D01*
X0024087Y0077273D01*
X0024077Y0077315D01*
X0024072Y0077357D01*
X0024070Y0077400D01*
X0024925Y0078133D02*
X0025292Y0078133D01*
X0026374Y0079111D02*
X0026374Y0076911D01*
X0027596Y0076911D02*
X0026374Y0079111D01*
X0027596Y0079111D02*
X0027596Y0076911D01*
X0028678Y0076911D02*
X0028678Y0079111D01*
X0029289Y0079111D01*
X0029337Y0079109D01*
X0029385Y0079103D01*
X0029432Y0079094D01*
X0029478Y0079081D01*
X0029523Y0079064D01*
X0029566Y0079044D01*
X0029608Y0079021D01*
X0029648Y0078994D01*
X0029686Y0078965D01*
X0029721Y0078932D01*
X0029754Y0078897D01*
X0029783Y0078859D01*
X0029810Y0078819D01*
X0029833Y0078777D01*
X0029853Y0078734D01*
X0029870Y0078689D01*
X0029883Y0078643D01*
X0029892Y0078596D01*
X0029898Y0078548D01*
X0029900Y0078500D01*
X0029900Y0077522D01*
X0029898Y0077474D01*
X0029892Y0077426D01*
X0029883Y0077379D01*
X0029870Y0077333D01*
X0029853Y0077288D01*
X0029833Y0077245D01*
X0029810Y0077203D01*
X0029783Y0077163D01*
X0029754Y0077125D01*
X0029721Y0077090D01*
X0029686Y0077057D01*
X0029648Y0077028D01*
X0029608Y0077001D01*
X0029566Y0076978D01*
X0029523Y0076958D01*
X0029478Y0076941D01*
X0029432Y0076928D01*
X0029385Y0076919D01*
X0029337Y0076913D01*
X0029289Y0076911D01*
X0028678Y0076911D01*
X0033700Y0075268D02*
X0033700Y0074535D01*
X0033700Y0073719D02*
X0035900Y0072986D01*
X0033700Y0072252D01*
X0033700Y0070948D02*
X0033700Y0070215D01*
X0033700Y0070948D02*
X0033702Y0070991D01*
X0033707Y0071033D01*
X0033717Y0071075D01*
X0033729Y0071115D01*
X0033746Y0071155D01*
X0033766Y0071193D01*
X0033788Y0071228D01*
X0033814Y0071262D01*
X0033843Y0071294D01*
X0033875Y0071323D01*
X0033909Y0071349D01*
X0033945Y0071371D01*
X0033982Y0071391D01*
X0034022Y0071408D01*
X0034062Y0071420D01*
X0034104Y0071430D01*
X0034146Y0071435D01*
X0034189Y0071437D01*
X0034232Y0071435D01*
X0034274Y0071430D01*
X0034316Y0071420D01*
X0034356Y0071408D01*
X0034396Y0071391D01*
X0034434Y0071371D01*
X0034469Y0071349D01*
X0034503Y0071323D01*
X0034535Y0071294D01*
X0034564Y0071262D01*
X0034590Y0071228D01*
X0034612Y0071193D01*
X0034632Y0071155D01*
X0034649Y0071115D01*
X0034661Y0071075D01*
X0034671Y0071033D01*
X0034676Y0070991D01*
X0034678Y0070948D01*
X0034678Y0070459D01*
X0034678Y0070826D02*
X0034680Y0070874D01*
X0034686Y0070922D01*
X0034695Y0070969D01*
X0034708Y0071015D01*
X0034725Y0071060D01*
X0034745Y0071103D01*
X0034768Y0071145D01*
X0034795Y0071185D01*
X0034824Y0071223D01*
X0034857Y0071258D01*
X0034892Y0071291D01*
X0034930Y0071320D01*
X0034970Y0071347D01*
X0035012Y0071370D01*
X0035055Y0071390D01*
X0035100Y0071407D01*
X0035146Y0071420D01*
X0035193Y0071429D01*
X0035241Y0071435D01*
X0035289Y0071437D01*
X0035337Y0071435D01*
X0035385Y0071429D01*
X0035432Y0071420D01*
X0035478Y0071407D01*
X0035523Y0071390D01*
X0035566Y0071370D01*
X0035608Y0071347D01*
X0035648Y0071320D01*
X0035686Y0071291D01*
X0035721Y0071258D01*
X0035754Y0071223D01*
X0035783Y0071185D01*
X0035810Y0071145D01*
X0035833Y0071103D01*
X0035853Y0071060D01*
X0035870Y0071015D01*
X0035883Y0070969D01*
X0035892Y0070922D01*
X0035898Y0070874D01*
X0035900Y0070826D01*
X0035900Y0070215D01*
X0036144Y0069371D02*
X0036144Y0068393D01*
X0034922Y0067042D02*
X0034922Y0066431D01*
X0034922Y0067042D02*
X0034920Y0067090D01*
X0034914Y0067138D01*
X0034905Y0067185D01*
X0034892Y0067231D01*
X0034875Y0067276D01*
X0034855Y0067319D01*
X0034832Y0067361D01*
X0034805Y0067401D01*
X0034776Y0067439D01*
X0034743Y0067474D01*
X0034708Y0067507D01*
X0034670Y0067536D01*
X0034630Y0067563D01*
X0034588Y0067586D01*
X0034545Y0067606D01*
X0034500Y0067623D01*
X0034454Y0067636D01*
X0034407Y0067645D01*
X0034359Y0067651D01*
X0034311Y0067653D01*
X0034263Y0067651D01*
X0034215Y0067645D01*
X0034168Y0067636D01*
X0034122Y0067623D01*
X0034077Y0067606D01*
X0034034Y0067586D01*
X0033992Y0067563D01*
X0033952Y0067536D01*
X0033914Y0067507D01*
X0033879Y0067474D01*
X0033846Y0067439D01*
X0033817Y0067401D01*
X0033790Y0067361D01*
X0033767Y0067319D01*
X0033747Y0067276D01*
X0033730Y0067231D01*
X0033717Y0067185D01*
X0033708Y0067138D01*
X0033702Y0067090D01*
X0033700Y0067042D01*
X0033700Y0066431D01*
X0035900Y0066431D01*
X0035900Y0064922D02*
X0033700Y0064922D01*
X0033700Y0064311D02*
X0033700Y0065533D01*
X0035900Y0074535D02*
X0035900Y0075146D01*
X0035898Y0075194D01*
X0035892Y0075242D01*
X0035883Y0075289D01*
X0035870Y0075335D01*
X0035853Y0075380D01*
X0035833Y0075423D01*
X0035810Y0075465D01*
X0035783Y0075505D01*
X0035754Y0075543D01*
X0035721Y0075578D01*
X0035686Y0075611D01*
X0035648Y0075640D01*
X0035608Y0075667D01*
X0035566Y0075690D01*
X0035523Y0075710D01*
X0035478Y0075727D01*
X0035432Y0075740D01*
X0035385Y0075749D01*
X0035337Y0075755D01*
X0035289Y0075757D01*
X0035241Y0075755D01*
X0035193Y0075749D01*
X0035146Y0075740D01*
X0035100Y0075727D01*
X0035055Y0075710D01*
X0035012Y0075690D01*
X0034970Y0075667D01*
X0034930Y0075640D01*
X0034892Y0075611D01*
X0034857Y0075578D01*
X0034824Y0075543D01*
X0034795Y0075505D01*
X0034768Y0075465D01*
X0034745Y0075423D01*
X0034725Y0075380D01*
X0034708Y0075335D01*
X0034695Y0075289D01*
X0034686Y0075242D01*
X0034680Y0075194D01*
X0034678Y0075146D01*
X0034678Y0075268D02*
X0034678Y0074779D01*
X0034678Y0075268D02*
X0034676Y0075311D01*
X0034671Y0075353D01*
X0034661Y0075395D01*
X0034649Y0075435D01*
X0034632Y0075475D01*
X0034612Y0075513D01*
X0034590Y0075548D01*
X0034564Y0075582D01*
X0034535Y0075614D01*
X0034503Y0075643D01*
X0034469Y0075669D01*
X0034434Y0075691D01*
X0034396Y0075711D01*
X0034356Y0075728D01*
X0034316Y0075740D01*
X0034274Y0075750D01*
X0034232Y0075755D01*
X0034189Y0075757D01*
X0034146Y0075755D01*
X0034104Y0075750D01*
X0034062Y0075740D01*
X0034022Y0075728D01*
X0033982Y0075711D01*
X0033945Y0075691D01*
X0033909Y0075669D01*
X0033875Y0075643D01*
X0033843Y0075614D01*
X0033814Y0075582D01*
X0033788Y0075548D01*
X0033766Y0075513D01*
X0033746Y0075475D01*
X0033729Y0075435D01*
X0033717Y0075395D01*
X0033707Y0075353D01*
X0033702Y0075311D01*
X0033700Y0075268D01*
X0046100Y0088511D02*
X0047322Y0088511D01*
X0046711Y0088511D02*
X0046711Y0086311D01*
X0048221Y0086311D02*
X0048221Y0088511D01*
X0048832Y0088511D01*
X0048880Y0088509D01*
X0048928Y0088503D01*
X0048975Y0088494D01*
X0049021Y0088481D01*
X0049066Y0088464D01*
X0049109Y0088444D01*
X0049151Y0088421D01*
X0049191Y0088394D01*
X0049229Y0088365D01*
X0049264Y0088332D01*
X0049297Y0088297D01*
X0049326Y0088259D01*
X0049353Y0088219D01*
X0049376Y0088177D01*
X0049396Y0088134D01*
X0049413Y0088089D01*
X0049426Y0088043D01*
X0049435Y0087996D01*
X0049441Y0087948D01*
X0049443Y0087900D01*
X0049441Y0087852D01*
X0049435Y0087804D01*
X0049426Y0087757D01*
X0049413Y0087711D01*
X0049396Y0087666D01*
X0049376Y0087623D01*
X0049353Y0087581D01*
X0049326Y0087541D01*
X0049297Y0087503D01*
X0049264Y0087468D01*
X0049229Y0087435D01*
X0049191Y0087406D01*
X0049151Y0087379D01*
X0049109Y0087356D01*
X0049066Y0087336D01*
X0049021Y0087319D01*
X0048975Y0087306D01*
X0048928Y0087297D01*
X0048880Y0087291D01*
X0048832Y0087289D01*
X0048832Y0087288D02*
X0048221Y0087288D01*
X0050182Y0086066D02*
X0051160Y0086066D01*
X0052004Y0086311D02*
X0052737Y0086311D01*
X0052780Y0086313D01*
X0052822Y0086318D01*
X0052864Y0086328D01*
X0052904Y0086340D01*
X0052944Y0086357D01*
X0052981Y0086377D01*
X0053017Y0086399D01*
X0053051Y0086425D01*
X0053083Y0086454D01*
X0053112Y0086486D01*
X0053138Y0086520D01*
X0053160Y0086555D01*
X0053180Y0086593D01*
X0053197Y0086633D01*
X0053209Y0086673D01*
X0053219Y0086715D01*
X0053224Y0086757D01*
X0053226Y0086800D01*
X0053226Y0087044D01*
X0053224Y0087087D01*
X0053219Y0087129D01*
X0053209Y0087171D01*
X0053197Y0087211D01*
X0053180Y0087251D01*
X0053160Y0087289D01*
X0053138Y0087324D01*
X0053112Y0087358D01*
X0053083Y0087390D01*
X0053051Y0087419D01*
X0053017Y0087445D01*
X0052982Y0087467D01*
X0052944Y0087487D01*
X0052904Y0087504D01*
X0052864Y0087516D01*
X0052822Y0087526D01*
X0052780Y0087531D01*
X0052737Y0087533D01*
X0052004Y0087533D01*
X0052004Y0088511D01*
X0053226Y0088511D01*
X0054042Y0088511D02*
X0054775Y0086311D01*
X0055508Y0088511D01*
X0057546Y0087411D02*
X0057544Y0087329D01*
X0057539Y0087247D01*
X0057529Y0087165D01*
X0057516Y0087084D01*
X0057500Y0087003D01*
X0057479Y0086924D01*
X0057455Y0086845D01*
X0057428Y0086767D01*
X0057397Y0086691D01*
X0057363Y0086617D01*
X0057363Y0086616D02*
X0057348Y0086579D01*
X0057330Y0086543D01*
X0057309Y0086509D01*
X0057285Y0086477D01*
X0057258Y0086447D01*
X0057229Y0086420D01*
X0057198Y0086395D01*
X0057164Y0086373D01*
X0057129Y0086355D01*
X0057092Y0086339D01*
X0057054Y0086327D01*
X0057015Y0086318D01*
X0056975Y0086313D01*
X0056935Y0086311D01*
X0056895Y0086313D01*
X0056855Y0086318D01*
X0056816Y0086327D01*
X0056778Y0086339D01*
X0056741Y0086355D01*
X0056706Y0086373D01*
X0056672Y0086395D01*
X0056641Y0086420D01*
X0056612Y0086447D01*
X0056585Y0086477D01*
X0056561Y0086509D01*
X0056540Y0086543D01*
X0056522Y0086579D01*
X0056507Y0086616D01*
X0056446Y0086800D02*
X0057424Y0088022D01*
X0057363Y0088205D02*
X0057348Y0088242D01*
X0057330Y0088278D01*
X0057309Y0088312D01*
X0057285Y0088344D01*
X0057258Y0088374D01*
X0057229Y0088401D01*
X0057198Y0088426D01*
X0057164Y0088448D01*
X0057129Y0088466D01*
X0057092Y0088482D01*
X0057054Y0088494D01*
X0057015Y0088503D01*
X0056975Y0088508D01*
X0056935Y0088510D01*
X0056895Y0088508D01*
X0056855Y0088503D01*
X0056816Y0088494D01*
X0056778Y0088482D01*
X0056741Y0088466D01*
X0056706Y0088448D01*
X0056672Y0088426D01*
X0056641Y0088401D01*
X0056612Y0088374D01*
X0056585Y0088344D01*
X0056561Y0088312D01*
X0056540Y0088278D01*
X0056522Y0088242D01*
X0056507Y0088205D01*
X0057363Y0088205D02*
X0057397Y0088131D01*
X0057428Y0088055D01*
X0057455Y0087977D01*
X0057479Y0087898D01*
X0057500Y0087819D01*
X0057516Y0087738D01*
X0057529Y0087657D01*
X0057539Y0087575D01*
X0057544Y0087493D01*
X0057546Y0087411D01*
X0056324Y0087411D02*
X0056326Y0087493D01*
X0056331Y0087575D01*
X0056341Y0087657D01*
X0056354Y0087738D01*
X0056370Y0087819D01*
X0056391Y0087898D01*
X0056415Y0087977D01*
X0056442Y0088055D01*
X0056473Y0088131D01*
X0056507Y0088205D01*
X0056324Y0087411D02*
X0056326Y0087329D01*
X0056331Y0087247D01*
X0056341Y0087165D01*
X0056354Y0087084D01*
X0056370Y0087003D01*
X0056391Y0086924D01*
X0056415Y0086845D01*
X0056442Y0086767D01*
X0056473Y0086691D01*
X0056507Y0086617D01*
X0033871Y0183311D02*
X0033260Y0183311D01*
X0033871Y0183311D02*
X0033919Y0183313D01*
X0033967Y0183319D01*
X0034014Y0183328D01*
X0034060Y0183341D01*
X0034105Y0183358D01*
X0034148Y0183378D01*
X0034190Y0183401D01*
X0034230Y0183428D01*
X0034268Y0183457D01*
X0034303Y0183490D01*
X0034336Y0183525D01*
X0034365Y0183563D01*
X0034392Y0183603D01*
X0034415Y0183645D01*
X0034435Y0183688D01*
X0034452Y0183733D01*
X0034465Y0183779D01*
X0034474Y0183826D01*
X0034480Y0183874D01*
X0034482Y0183922D01*
X0034480Y0183970D01*
X0034474Y0184018D01*
X0034465Y0184065D01*
X0034452Y0184111D01*
X0034435Y0184156D01*
X0034415Y0184199D01*
X0034392Y0184241D01*
X0034365Y0184281D01*
X0034336Y0184319D01*
X0034303Y0184354D01*
X0034268Y0184387D01*
X0034230Y0184416D01*
X0034190Y0184443D01*
X0034148Y0184466D01*
X0034105Y0184486D01*
X0034060Y0184503D01*
X0034014Y0184516D01*
X0033967Y0184525D01*
X0033919Y0184531D01*
X0033871Y0184533D01*
X0033993Y0184533D02*
X0033504Y0184533D01*
X0033993Y0184533D02*
X0034036Y0184535D01*
X0034078Y0184540D01*
X0034120Y0184550D01*
X0034160Y0184562D01*
X0034200Y0184579D01*
X0034238Y0184599D01*
X0034273Y0184621D01*
X0034307Y0184647D01*
X0034339Y0184676D01*
X0034368Y0184708D01*
X0034394Y0184742D01*
X0034416Y0184778D01*
X0034436Y0184815D01*
X0034453Y0184855D01*
X0034465Y0184895D01*
X0034475Y0184937D01*
X0034480Y0184979D01*
X0034482Y0185022D01*
X0034480Y0185065D01*
X0034475Y0185107D01*
X0034465Y0185149D01*
X0034453Y0185189D01*
X0034436Y0185229D01*
X0034416Y0185267D01*
X0034394Y0185302D01*
X0034368Y0185336D01*
X0034339Y0185368D01*
X0034307Y0185397D01*
X0034273Y0185423D01*
X0034238Y0185445D01*
X0034200Y0185465D01*
X0034160Y0185482D01*
X0034120Y0185494D01*
X0034078Y0185504D01*
X0034036Y0185509D01*
X0033993Y0185511D01*
X0033260Y0185511D01*
X0031711Y0185511D02*
X0031711Y0183311D01*
X0031100Y0183311D02*
X0032322Y0183311D01*
X0031100Y0185022D02*
X0031711Y0185511D01*
X0032100Y0202311D02*
X0033322Y0202311D01*
X0032711Y0202311D02*
X0032711Y0204511D01*
X0032100Y0204022D01*
X0035482Y0203411D02*
X0035480Y0203329D01*
X0035475Y0203247D01*
X0035465Y0203165D01*
X0035452Y0203084D01*
X0035436Y0203003D01*
X0035415Y0202924D01*
X0035391Y0202845D01*
X0035364Y0202767D01*
X0035333Y0202691D01*
X0035299Y0202617D01*
X0035299Y0202616D02*
X0035284Y0202579D01*
X0035266Y0202543D01*
X0035245Y0202509D01*
X0035221Y0202477D01*
X0035194Y0202447D01*
X0035165Y0202420D01*
X0035134Y0202395D01*
X0035100Y0202373D01*
X0035065Y0202355D01*
X0035028Y0202339D01*
X0034990Y0202327D01*
X0034951Y0202318D01*
X0034911Y0202313D01*
X0034871Y0202311D01*
X0034831Y0202313D01*
X0034791Y0202318D01*
X0034752Y0202327D01*
X0034714Y0202339D01*
X0034677Y0202355D01*
X0034642Y0202373D01*
X0034608Y0202395D01*
X0034577Y0202420D01*
X0034548Y0202447D01*
X0034521Y0202477D01*
X0034497Y0202509D01*
X0034476Y0202543D01*
X0034458Y0202579D01*
X0034443Y0202616D01*
X0034382Y0202800D02*
X0035360Y0204022D01*
X0035299Y0204205D02*
X0035284Y0204242D01*
X0035266Y0204278D01*
X0035245Y0204312D01*
X0035221Y0204344D01*
X0035194Y0204374D01*
X0035165Y0204401D01*
X0035134Y0204426D01*
X0035100Y0204448D01*
X0035065Y0204466D01*
X0035028Y0204482D01*
X0034990Y0204494D01*
X0034951Y0204503D01*
X0034911Y0204508D01*
X0034871Y0204510D01*
X0034831Y0204508D01*
X0034791Y0204503D01*
X0034752Y0204494D01*
X0034714Y0204482D01*
X0034677Y0204466D01*
X0034642Y0204448D01*
X0034608Y0204426D01*
X0034577Y0204401D01*
X0034548Y0204374D01*
X0034521Y0204344D01*
X0034497Y0204312D01*
X0034476Y0204278D01*
X0034458Y0204242D01*
X0034443Y0204205D01*
X0035299Y0204205D02*
X0035333Y0204131D01*
X0035364Y0204055D01*
X0035391Y0203977D01*
X0035415Y0203898D01*
X0035436Y0203819D01*
X0035452Y0203738D01*
X0035465Y0203657D01*
X0035475Y0203575D01*
X0035480Y0203493D01*
X0035482Y0203411D01*
X0034260Y0203411D02*
X0034262Y0203493D01*
X0034267Y0203575D01*
X0034277Y0203657D01*
X0034290Y0203738D01*
X0034306Y0203819D01*
X0034327Y0203898D01*
X0034351Y0203977D01*
X0034378Y0204055D01*
X0034409Y0204131D01*
X0034443Y0204205D01*
X0034260Y0203411D02*
X0034262Y0203329D01*
X0034267Y0203247D01*
X0034277Y0203165D01*
X0034290Y0203084D01*
X0034306Y0203003D01*
X0034327Y0202924D01*
X0034351Y0202845D01*
X0034378Y0202767D01*
X0034409Y0202691D01*
X0034443Y0202617D01*
X0034711Y0222311D02*
X0035322Y0224511D01*
X0034100Y0224511D01*
X0034100Y0224266D01*
X0032956Y0242311D02*
X0032956Y0243288D01*
X0033322Y0242800D02*
X0032100Y0242800D01*
X0032589Y0244511D01*
X0032322Y0264311D02*
X0031100Y0264311D01*
X0031711Y0264311D02*
X0031711Y0266511D01*
X0031100Y0266022D01*
X0020100Y0216720D02*
X0020100Y0215497D01*
X0020100Y0216108D02*
X0017900Y0216108D01*
X0018389Y0215497D01*
X0018878Y0214679D02*
X0018878Y0213702D01*
X0017900Y0213702D02*
X0017900Y0214679D01*
X0017900Y0213702D02*
X0020100Y0213702D01*
X0020411Y0193265D02*
X0020411Y0192043D01*
X0018700Y0192531D01*
X0019922Y0192898D02*
X0020900Y0192898D01*
X0020289Y0191033D02*
X0019311Y0191033D01*
X0019263Y0191031D01*
X0019215Y0191025D01*
X0019168Y0191016D01*
X0019122Y0191003D01*
X0019077Y0190986D01*
X0019034Y0190966D01*
X0018992Y0190943D01*
X0018952Y0190916D01*
X0018914Y0190887D01*
X0018879Y0190854D01*
X0018846Y0190819D01*
X0018817Y0190781D01*
X0018790Y0190741D01*
X0018767Y0190699D01*
X0018747Y0190656D01*
X0018730Y0190611D01*
X0018717Y0190565D01*
X0018708Y0190518D01*
X0018702Y0190470D01*
X0018700Y0190422D01*
X0018700Y0189811D01*
X0020900Y0189811D01*
X0020900Y0190422D01*
X0020898Y0190470D01*
X0020892Y0190518D01*
X0020883Y0190565D01*
X0020870Y0190611D01*
X0020853Y0190656D01*
X0020833Y0190699D01*
X0020810Y0190741D01*
X0020783Y0190781D01*
X0020754Y0190819D01*
X0020721Y0190854D01*
X0020686Y0190887D01*
X0020648Y0190916D01*
X0020608Y0190943D01*
X0020566Y0190966D01*
X0020523Y0190986D01*
X0020478Y0191003D01*
X0020432Y0191016D01*
X0020385Y0191025D01*
X0020337Y0191031D01*
X0020289Y0191033D01*
X0117800Y0155201D02*
X0117802Y0155243D01*
X0117808Y0155284D01*
X0117817Y0155324D01*
X0117830Y0155364D01*
X0117847Y0155402D01*
X0117867Y0155438D01*
X0117891Y0155472D01*
X0117917Y0155504D01*
X0117947Y0155534D01*
X0117979Y0155560D01*
X0118013Y0155584D01*
X0118049Y0155604D01*
X0118087Y0155621D01*
X0118127Y0155634D01*
X0118167Y0155643D01*
X0118208Y0155649D01*
X0118250Y0155651D01*
X0118600Y0155501D02*
X0119600Y0154651D01*
X0119600Y0155651D01*
X0118200Y0154651D02*
X0118157Y0154667D01*
X0118116Y0154686D01*
X0118076Y0154708D01*
X0118039Y0154733D01*
X0118003Y0154761D01*
X0117970Y0154792D01*
X0117939Y0154825D01*
X0117911Y0154861D01*
X0117885Y0154899D01*
X0117863Y0154938D01*
X0117844Y0154980D01*
X0117828Y0155022D01*
X0117816Y0155066D01*
X0117807Y0155111D01*
X0117802Y0155156D01*
X0117800Y0155201D01*
X0118250Y0155650D02*
X0118289Y0155648D01*
X0118328Y0155644D01*
X0118366Y0155636D01*
X0118404Y0155625D01*
X0118440Y0155611D01*
X0118476Y0155594D01*
X0118509Y0155574D01*
X0118541Y0155552D01*
X0118572Y0155527D01*
X0118600Y0155500D01*
X0118850Y0153711D02*
X0118550Y0153161D01*
X0117800Y0153361D02*
X0117802Y0153415D01*
X0117808Y0153468D01*
X0117817Y0153521D01*
X0117830Y0153573D01*
X0117847Y0153623D01*
X0117868Y0153673D01*
X0117892Y0153721D01*
X0117919Y0153767D01*
X0117950Y0153811D01*
X0118550Y0153161D02*
X0118529Y0153129D01*
X0118505Y0153099D01*
X0118478Y0153071D01*
X0118449Y0153046D01*
X0118418Y0153024D01*
X0118385Y0153005D01*
X0118350Y0152990D01*
X0118313Y0152977D01*
X0118276Y0152968D01*
X0118238Y0152963D01*
X0118200Y0152961D01*
X0118161Y0152963D01*
X0118122Y0152969D01*
X0118084Y0152978D01*
X0118047Y0152991D01*
X0118011Y0153008D01*
X0117978Y0153028D01*
X0117946Y0153052D01*
X0117917Y0153078D01*
X0117891Y0153107D01*
X0117867Y0153139D01*
X0117847Y0153172D01*
X0117830Y0153208D01*
X0117817Y0153245D01*
X0117808Y0153283D01*
X0117802Y0153322D01*
X0117800Y0153361D01*
X0119350Y0152911D02*
X0119388Y0152951D01*
X0119424Y0152994D01*
X0119456Y0153039D01*
X0119486Y0153086D01*
X0119512Y0153135D01*
X0119535Y0153186D01*
X0119555Y0153238D01*
X0119571Y0153291D01*
X0119584Y0153345D01*
X0119593Y0153400D01*
X0119598Y0153455D01*
X0119600Y0153511D01*
X0119598Y0153550D01*
X0119592Y0153589D01*
X0119583Y0153627D01*
X0119570Y0153664D01*
X0119553Y0153700D01*
X0119533Y0153733D01*
X0119509Y0153765D01*
X0119483Y0153794D01*
X0119454Y0153820D01*
X0119422Y0153844D01*
X0119389Y0153864D01*
X0119353Y0153881D01*
X0119316Y0153894D01*
X0119278Y0153903D01*
X0119239Y0153909D01*
X0119200Y0153911D01*
X0119200Y0153910D02*
X0119162Y0153908D01*
X0119124Y0153903D01*
X0119087Y0153894D01*
X0119050Y0153881D01*
X0119015Y0153866D01*
X0118982Y0153847D01*
X0118951Y0153825D01*
X0118922Y0153800D01*
X0118895Y0153772D01*
X0118871Y0153742D01*
X0118850Y0153710D01*
X0118800Y0151761D02*
X0118800Y0151261D01*
X0118800Y0151761D02*
X0118798Y0151805D01*
X0118792Y0151848D01*
X0118783Y0151890D01*
X0118770Y0151932D01*
X0118753Y0151972D01*
X0118733Y0152011D01*
X0118710Y0152048D01*
X0118683Y0152082D01*
X0118654Y0152115D01*
X0118621Y0152144D01*
X0118587Y0152171D01*
X0118550Y0152194D01*
X0118511Y0152214D01*
X0118471Y0152231D01*
X0118429Y0152244D01*
X0118387Y0152253D01*
X0118344Y0152259D01*
X0118300Y0152261D01*
X0118256Y0152259D01*
X0118213Y0152253D01*
X0118171Y0152244D01*
X0118129Y0152231D01*
X0118089Y0152214D01*
X0118050Y0152194D01*
X0118013Y0152171D01*
X0117979Y0152144D01*
X0117946Y0152115D01*
X0117917Y0152082D01*
X0117890Y0152048D01*
X0117867Y0152011D01*
X0117847Y0151972D01*
X0117830Y0151932D01*
X0117817Y0151890D01*
X0117808Y0151848D01*
X0117802Y0151805D01*
X0117800Y0151761D01*
X0117800Y0151261D01*
X0119600Y0151261D01*
X0119100Y0150311D02*
X0117800Y0150311D01*
X0117800Y0149311D02*
X0119100Y0149311D01*
X0119144Y0149313D01*
X0119187Y0149319D01*
X0119229Y0149328D01*
X0119271Y0149341D01*
X0119311Y0149358D01*
X0119350Y0149378D01*
X0119387Y0149401D01*
X0119421Y0149428D01*
X0119454Y0149457D01*
X0119483Y0149490D01*
X0119510Y0149524D01*
X0119533Y0149561D01*
X0119553Y0149600D01*
X0119570Y0149640D01*
X0119583Y0149682D01*
X0119592Y0149724D01*
X0119598Y0149767D01*
X0119600Y0149811D01*
X0119598Y0149855D01*
X0119592Y0149898D01*
X0119583Y0149940D01*
X0119570Y0149982D01*
X0119553Y0150022D01*
X0119533Y0150061D01*
X0119510Y0150098D01*
X0119483Y0150132D01*
X0119454Y0150165D01*
X0119421Y0150194D01*
X0119387Y0150221D01*
X0119350Y0150244D01*
X0119311Y0150264D01*
X0119271Y0150281D01*
X0119229Y0150294D01*
X0119187Y0150303D01*
X0119144Y0150309D01*
X0119100Y0150311D01*
X0123851Y0260263D02*
X0124829Y0260263D01*
X0125750Y0260507D02*
X0125750Y0262707D01*
X0126727Y0262707D01*
X0127539Y0262219D02*
X0127539Y0260996D01*
X0127541Y0260953D01*
X0127546Y0260911D01*
X0127556Y0260869D01*
X0127568Y0260829D01*
X0127585Y0260789D01*
X0127605Y0260752D01*
X0127627Y0260716D01*
X0127653Y0260682D01*
X0127682Y0260650D01*
X0127714Y0260621D01*
X0127748Y0260595D01*
X0127784Y0260573D01*
X0127821Y0260553D01*
X0127861Y0260536D01*
X0127901Y0260524D01*
X0127943Y0260514D01*
X0127985Y0260509D01*
X0128028Y0260507D01*
X0128517Y0260507D01*
X0129417Y0261119D02*
X0129417Y0262707D01*
X0128517Y0262707D02*
X0128028Y0262707D01*
X0128028Y0262708D02*
X0127985Y0262706D01*
X0127943Y0262701D01*
X0127901Y0262691D01*
X0127861Y0262679D01*
X0127821Y0262662D01*
X0127783Y0262642D01*
X0127748Y0262620D01*
X0127714Y0262594D01*
X0127682Y0262565D01*
X0127653Y0262533D01*
X0127627Y0262499D01*
X0127605Y0262463D01*
X0127585Y0262426D01*
X0127568Y0262386D01*
X0127556Y0262346D01*
X0127546Y0262304D01*
X0127541Y0262262D01*
X0127539Y0262219D01*
X0126483Y0261730D02*
X0125750Y0261730D01*
X0125750Y0260507D02*
X0126727Y0260507D01*
X0129417Y0261119D02*
X0129419Y0261071D01*
X0129425Y0261023D01*
X0129434Y0260976D01*
X0129447Y0260930D01*
X0129464Y0260885D01*
X0129484Y0260842D01*
X0129507Y0260800D01*
X0129534Y0260760D01*
X0129563Y0260722D01*
X0129596Y0260687D01*
X0129631Y0260654D01*
X0129669Y0260625D01*
X0129709Y0260598D01*
X0129751Y0260575D01*
X0129794Y0260555D01*
X0129839Y0260538D01*
X0129885Y0260525D01*
X0129932Y0260516D01*
X0129980Y0260510D01*
X0130028Y0260508D01*
X0130076Y0260510D01*
X0130124Y0260516D01*
X0130171Y0260525D01*
X0130217Y0260538D01*
X0130262Y0260555D01*
X0130305Y0260575D01*
X0130347Y0260598D01*
X0130387Y0260625D01*
X0130425Y0260654D01*
X0130460Y0260687D01*
X0130493Y0260722D01*
X0130522Y0260760D01*
X0130549Y0260800D01*
X0130572Y0260842D01*
X0130592Y0260885D01*
X0130609Y0260930D01*
X0130622Y0260976D01*
X0130631Y0261023D01*
X0130637Y0261071D01*
X0130639Y0261119D01*
X0130639Y0262707D01*
X0122501Y0262707D02*
X0121890Y0262707D01*
X0121890Y0260507D01*
X0121890Y0261485D02*
X0122501Y0261485D01*
X0122549Y0261487D01*
X0122597Y0261493D01*
X0122644Y0261502D01*
X0122690Y0261515D01*
X0122735Y0261532D01*
X0122778Y0261552D01*
X0122820Y0261575D01*
X0122860Y0261602D01*
X0122898Y0261631D01*
X0122933Y0261664D01*
X0122966Y0261699D01*
X0122995Y0261737D01*
X0123022Y0261777D01*
X0123045Y0261819D01*
X0123065Y0261862D01*
X0123082Y0261907D01*
X0123095Y0261953D01*
X0123104Y0262000D01*
X0123110Y0262048D01*
X0123112Y0262096D01*
X0123110Y0262144D01*
X0123104Y0262192D01*
X0123095Y0262239D01*
X0123082Y0262285D01*
X0123065Y0262330D01*
X0123045Y0262373D01*
X0123022Y0262415D01*
X0122995Y0262455D01*
X0122966Y0262493D01*
X0122933Y0262528D01*
X0122898Y0262561D01*
X0122860Y0262590D01*
X0122820Y0262617D01*
X0122778Y0262640D01*
X0122735Y0262660D01*
X0122690Y0262677D01*
X0122644Y0262690D01*
X0122597Y0262699D01*
X0122549Y0262705D01*
X0122501Y0262707D01*
X0120992Y0262707D02*
X0119769Y0262707D01*
X0120380Y0262707D02*
X0120380Y0260507D01*
D12*
X0111800Y0270506D02*
X0109800Y0270506D01*
X0109800Y0271061D01*
X0109802Y0271107D01*
X0109808Y0271153D01*
X0109817Y0271197D01*
X0109830Y0271242D01*
X0109847Y0271284D01*
X0109867Y0271326D01*
X0109891Y0271365D01*
X0109917Y0271403D01*
X0109947Y0271438D01*
X0109979Y0271470D01*
X0110014Y0271500D01*
X0110052Y0271526D01*
X0110091Y0271550D01*
X0110133Y0271570D01*
X0110175Y0271587D01*
X0110220Y0271600D01*
X0110264Y0271609D01*
X0110310Y0271615D01*
X0110356Y0271617D01*
X0110402Y0271615D01*
X0110448Y0271609D01*
X0110492Y0271600D01*
X0110537Y0271587D01*
X0110579Y0271570D01*
X0110621Y0271550D01*
X0110660Y0271526D01*
X0110698Y0271500D01*
X0110733Y0271470D01*
X0110765Y0271438D01*
X0110795Y0271403D01*
X0110821Y0271365D01*
X0110845Y0271326D01*
X0110865Y0271284D01*
X0110882Y0271242D01*
X0110895Y0271197D01*
X0110904Y0271153D01*
X0110910Y0271107D01*
X0110912Y0271061D01*
X0110911Y0271061D02*
X0110911Y0270506D01*
X0110911Y0271172D02*
X0111800Y0271617D01*
X0111800Y0272644D02*
X0111800Y0273755D01*
X0111800Y0273200D02*
X0109800Y0273200D01*
X0110244Y0272644D01*
X0111356Y0274804D02*
X0109800Y0275249D01*
X0110911Y0275582D02*
X0111800Y0275582D01*
X0111356Y0275915D02*
X0111356Y0274804D01*
X0108522Y0245972D02*
X0108454Y0245940D01*
X0108385Y0245912D01*
X0108314Y0245887D01*
X0108243Y0245866D01*
X0108171Y0245847D01*
X0108097Y0245832D01*
X0108024Y0245820D01*
X0107949Y0245812D01*
X0107875Y0245807D01*
X0107800Y0245805D01*
X0107800Y0246915D02*
X0107725Y0246913D01*
X0107651Y0246908D01*
X0107576Y0246900D01*
X0107503Y0246888D01*
X0107429Y0246873D01*
X0107357Y0246854D01*
X0107285Y0246833D01*
X0107215Y0246808D01*
X0107146Y0246780D01*
X0107078Y0246748D01*
X0107244Y0246804D02*
X0108356Y0245915D01*
X0108800Y0246360D02*
X0108798Y0246399D01*
X0108793Y0246438D01*
X0108783Y0246476D01*
X0108770Y0246513D01*
X0108754Y0246549D01*
X0108734Y0246583D01*
X0108712Y0246615D01*
X0108686Y0246644D01*
X0108658Y0246671D01*
X0108627Y0246695D01*
X0108594Y0246716D01*
X0108559Y0246734D01*
X0108522Y0246749D01*
X0108800Y0246360D02*
X0108798Y0246321D01*
X0108793Y0246282D01*
X0108783Y0246244D01*
X0108770Y0246207D01*
X0108754Y0246171D01*
X0108734Y0246137D01*
X0108712Y0246105D01*
X0108686Y0246076D01*
X0108658Y0246049D01*
X0108627Y0246025D01*
X0108594Y0246004D01*
X0108559Y0245986D01*
X0108522Y0245971D01*
X0108522Y0246748D02*
X0108454Y0246780D01*
X0108385Y0246808D01*
X0108315Y0246833D01*
X0108243Y0246854D01*
X0108171Y0246873D01*
X0108097Y0246888D01*
X0108024Y0246900D01*
X0107949Y0246908D01*
X0107875Y0246913D01*
X0107800Y0246915D01*
X0107800Y0245805D02*
X0107725Y0245807D01*
X0107651Y0245812D01*
X0107576Y0245820D01*
X0107503Y0245832D01*
X0107429Y0245847D01*
X0107357Y0245866D01*
X0107285Y0245887D01*
X0107215Y0245912D01*
X0107146Y0245940D01*
X0107078Y0245972D01*
X0106800Y0246360D02*
X0106802Y0246399D01*
X0106807Y0246438D01*
X0106817Y0246476D01*
X0106830Y0246513D01*
X0106846Y0246549D01*
X0106866Y0246583D01*
X0106888Y0246615D01*
X0106914Y0246644D01*
X0106942Y0246671D01*
X0106973Y0246695D01*
X0107006Y0246716D01*
X0107041Y0246734D01*
X0107078Y0246749D01*
X0106800Y0246360D02*
X0106802Y0246321D01*
X0106807Y0246282D01*
X0106817Y0246244D01*
X0106830Y0246207D01*
X0106846Y0246171D01*
X0106866Y0246137D01*
X0106888Y0246105D01*
X0106914Y0246076D01*
X0106942Y0246049D01*
X0106973Y0246025D01*
X0107006Y0246004D01*
X0107041Y0245986D01*
X0107078Y0245971D01*
X0106800Y0244200D02*
X0108800Y0244200D01*
X0108800Y0244755D02*
X0108800Y0243644D01*
X0108800Y0242617D02*
X0107911Y0242172D01*
X0107911Y0242061D02*
X0107911Y0241506D01*
X0107912Y0242061D02*
X0107910Y0242107D01*
X0107904Y0242153D01*
X0107895Y0242197D01*
X0107882Y0242242D01*
X0107865Y0242284D01*
X0107845Y0242326D01*
X0107821Y0242365D01*
X0107795Y0242403D01*
X0107765Y0242438D01*
X0107733Y0242470D01*
X0107698Y0242500D01*
X0107660Y0242526D01*
X0107621Y0242550D01*
X0107579Y0242570D01*
X0107537Y0242587D01*
X0107492Y0242600D01*
X0107448Y0242609D01*
X0107402Y0242615D01*
X0107356Y0242617D01*
X0107310Y0242615D01*
X0107264Y0242609D01*
X0107220Y0242600D01*
X0107175Y0242587D01*
X0107133Y0242570D01*
X0107091Y0242550D01*
X0107052Y0242526D01*
X0107014Y0242500D01*
X0106979Y0242470D01*
X0106947Y0242438D01*
X0106917Y0242403D01*
X0106891Y0242365D01*
X0106867Y0242326D01*
X0106847Y0242284D01*
X0106830Y0242242D01*
X0106817Y0242197D01*
X0106808Y0242153D01*
X0106802Y0242107D01*
X0106800Y0242061D01*
X0106800Y0241506D01*
X0108800Y0241506D01*
X0107244Y0243644D02*
X0106800Y0244200D01*
X0105200Y0244200D02*
X0103200Y0244200D01*
X0103644Y0243644D01*
X0105200Y0243644D02*
X0105200Y0244755D01*
X0105200Y0245804D02*
X0105200Y0246360D01*
X0105198Y0246406D01*
X0105192Y0246452D01*
X0105183Y0246496D01*
X0105170Y0246541D01*
X0105153Y0246583D01*
X0105133Y0246625D01*
X0105109Y0246664D01*
X0105083Y0246702D01*
X0105053Y0246737D01*
X0105021Y0246769D01*
X0104986Y0246799D01*
X0104948Y0246825D01*
X0104909Y0246849D01*
X0104867Y0246869D01*
X0104825Y0246886D01*
X0104780Y0246899D01*
X0104736Y0246908D01*
X0104690Y0246914D01*
X0104644Y0246916D01*
X0104598Y0246914D01*
X0104552Y0246908D01*
X0104508Y0246899D01*
X0104463Y0246886D01*
X0104421Y0246869D01*
X0104379Y0246849D01*
X0104340Y0246825D01*
X0104302Y0246799D01*
X0104267Y0246769D01*
X0104235Y0246737D01*
X0104205Y0246702D01*
X0104179Y0246664D01*
X0104155Y0246625D01*
X0104135Y0246583D01*
X0104118Y0246541D01*
X0104105Y0246496D01*
X0104096Y0246452D01*
X0104090Y0246406D01*
X0104088Y0246360D01*
X0104089Y0246471D02*
X0104089Y0246027D01*
X0104088Y0246471D02*
X0104086Y0246512D01*
X0104080Y0246553D01*
X0104071Y0246593D01*
X0104058Y0246631D01*
X0104041Y0246669D01*
X0104021Y0246705D01*
X0103998Y0246739D01*
X0103972Y0246770D01*
X0103943Y0246799D01*
X0103912Y0246825D01*
X0103878Y0246848D01*
X0103842Y0246868D01*
X0103804Y0246885D01*
X0103766Y0246898D01*
X0103726Y0246907D01*
X0103685Y0246913D01*
X0103644Y0246915D01*
X0103603Y0246913D01*
X0103562Y0246907D01*
X0103522Y0246898D01*
X0103484Y0246885D01*
X0103446Y0246868D01*
X0103410Y0246848D01*
X0103376Y0246825D01*
X0103345Y0246799D01*
X0103316Y0246770D01*
X0103290Y0246739D01*
X0103267Y0246705D01*
X0103247Y0246669D01*
X0103230Y0246631D01*
X0103217Y0246593D01*
X0103208Y0246553D01*
X0103202Y0246512D01*
X0103200Y0246471D01*
X0103200Y0245804D01*
X0103200Y0242061D02*
X0103200Y0241506D01*
X0105200Y0241506D01*
X0104311Y0241506D02*
X0104311Y0242061D01*
X0104311Y0242172D02*
X0105200Y0242617D01*
X0104312Y0242061D02*
X0104310Y0242107D01*
X0104304Y0242153D01*
X0104295Y0242197D01*
X0104282Y0242242D01*
X0104265Y0242284D01*
X0104245Y0242326D01*
X0104221Y0242365D01*
X0104195Y0242403D01*
X0104165Y0242438D01*
X0104133Y0242470D01*
X0104098Y0242500D01*
X0104060Y0242526D01*
X0104021Y0242550D01*
X0103979Y0242570D01*
X0103937Y0242587D01*
X0103892Y0242600D01*
X0103848Y0242609D01*
X0103802Y0242615D01*
X0103756Y0242617D01*
X0103710Y0242615D01*
X0103664Y0242609D01*
X0103620Y0242600D01*
X0103575Y0242587D01*
X0103533Y0242570D01*
X0103491Y0242550D01*
X0103452Y0242526D01*
X0103414Y0242500D01*
X0103379Y0242470D01*
X0103347Y0242438D01*
X0103317Y0242403D01*
X0103291Y0242365D01*
X0103267Y0242326D01*
X0103247Y0242284D01*
X0103230Y0242242D01*
X0103217Y0242197D01*
X0103208Y0242153D01*
X0103202Y0242107D01*
X0103200Y0242061D01*
X0118200Y0233200D02*
X0120200Y0233200D01*
X0120200Y0233755D02*
X0120200Y0232644D01*
X0120200Y0231617D02*
X0119311Y0231172D01*
X0119311Y0231061D02*
X0119311Y0230506D01*
X0119312Y0231061D02*
X0119310Y0231107D01*
X0119304Y0231153D01*
X0119295Y0231197D01*
X0119282Y0231242D01*
X0119265Y0231284D01*
X0119245Y0231326D01*
X0119221Y0231365D01*
X0119195Y0231403D01*
X0119165Y0231438D01*
X0119133Y0231470D01*
X0119098Y0231500D01*
X0119060Y0231526D01*
X0119021Y0231550D01*
X0118979Y0231570D01*
X0118937Y0231587D01*
X0118892Y0231600D01*
X0118848Y0231609D01*
X0118802Y0231615D01*
X0118756Y0231617D01*
X0118710Y0231615D01*
X0118664Y0231609D01*
X0118620Y0231600D01*
X0118575Y0231587D01*
X0118533Y0231570D01*
X0118491Y0231550D01*
X0118452Y0231526D01*
X0118414Y0231500D01*
X0118379Y0231470D01*
X0118347Y0231438D01*
X0118317Y0231403D01*
X0118291Y0231365D01*
X0118267Y0231326D01*
X0118247Y0231284D01*
X0118230Y0231242D01*
X0118217Y0231197D01*
X0118208Y0231153D01*
X0118202Y0231107D01*
X0118200Y0231061D01*
X0118200Y0230506D01*
X0120200Y0230506D01*
X0118644Y0232644D02*
X0118200Y0233200D01*
X0119089Y0235748D02*
X0119058Y0235779D01*
X0119024Y0235806D01*
X0118988Y0235831D01*
X0118951Y0235853D01*
X0118912Y0235872D01*
X0118871Y0235887D01*
X0118829Y0235899D01*
X0118787Y0235908D01*
X0118743Y0235913D01*
X0118700Y0235915D01*
X0119089Y0235749D02*
X0120200Y0234804D01*
X0120200Y0235915D01*
X0118644Y0234804D02*
X0118600Y0234821D01*
X0118556Y0234840D01*
X0118515Y0234863D01*
X0118475Y0234888D01*
X0118437Y0234917D01*
X0118401Y0234948D01*
X0118368Y0234982D01*
X0118337Y0235018D01*
X0118309Y0235057D01*
X0118284Y0235097D01*
X0118262Y0235139D01*
X0118243Y0235183D01*
X0118228Y0235228D01*
X0118216Y0235274D01*
X0118207Y0235320D01*
X0118202Y0235368D01*
X0118200Y0235415D01*
X0118202Y0235459D01*
X0118208Y0235502D01*
X0118217Y0235544D01*
X0118230Y0235586D01*
X0118247Y0235626D01*
X0118267Y0235665D01*
X0118290Y0235702D01*
X0118317Y0235736D01*
X0118346Y0235769D01*
X0118379Y0235798D01*
X0118413Y0235825D01*
X0118450Y0235848D01*
X0118489Y0235868D01*
X0118529Y0235885D01*
X0118571Y0235898D01*
X0118613Y0235907D01*
X0118656Y0235913D01*
X0118700Y0235915D01*
X0106300Y0208511D02*
X0105189Y0208511D01*
X0105744Y0208511D02*
X0105744Y0210511D01*
X0105189Y0210066D01*
X0104262Y0209955D02*
X0104262Y0209066D01*
X0104040Y0208955D02*
X0104485Y0208511D01*
X0104263Y0209066D02*
X0104261Y0209020D01*
X0104255Y0208974D01*
X0104246Y0208930D01*
X0104233Y0208885D01*
X0104216Y0208843D01*
X0104196Y0208801D01*
X0104172Y0208762D01*
X0104146Y0208724D01*
X0104116Y0208689D01*
X0104084Y0208657D01*
X0104049Y0208627D01*
X0104011Y0208601D01*
X0103972Y0208577D01*
X0103930Y0208557D01*
X0103888Y0208540D01*
X0103843Y0208527D01*
X0103799Y0208518D01*
X0103753Y0208512D01*
X0103707Y0208510D01*
X0103661Y0208512D01*
X0103615Y0208518D01*
X0103571Y0208527D01*
X0103526Y0208540D01*
X0103484Y0208557D01*
X0103442Y0208577D01*
X0103403Y0208601D01*
X0103365Y0208627D01*
X0103330Y0208657D01*
X0103298Y0208689D01*
X0103268Y0208724D01*
X0103242Y0208762D01*
X0103218Y0208801D01*
X0103198Y0208843D01*
X0103181Y0208885D01*
X0103168Y0208930D01*
X0103159Y0208974D01*
X0103153Y0209020D01*
X0103151Y0209066D01*
X0103151Y0209955D01*
X0103153Y0210001D01*
X0103159Y0210047D01*
X0103168Y0210091D01*
X0103181Y0210136D01*
X0103198Y0210178D01*
X0103218Y0210220D01*
X0103242Y0210259D01*
X0103268Y0210297D01*
X0103298Y0210332D01*
X0103330Y0210364D01*
X0103365Y0210394D01*
X0103403Y0210420D01*
X0103442Y0210444D01*
X0103484Y0210464D01*
X0103526Y0210481D01*
X0103571Y0210494D01*
X0103615Y0210503D01*
X0103661Y0210509D01*
X0103707Y0210511D01*
X0103753Y0210509D01*
X0103799Y0210503D01*
X0103843Y0210494D01*
X0103888Y0210481D01*
X0103930Y0210464D01*
X0103972Y0210444D01*
X0104011Y0210420D01*
X0104049Y0210394D01*
X0104084Y0210364D01*
X0104116Y0210332D01*
X0104146Y0210297D01*
X0104172Y0210259D01*
X0104196Y0210220D01*
X0104216Y0210178D01*
X0104233Y0210136D01*
X0104246Y0210091D01*
X0104255Y0210047D01*
X0104261Y0210001D01*
X0104263Y0209955D01*
X0113295Y0197411D02*
X0113851Y0197411D01*
X0113295Y0197411D02*
X0113295Y0195411D01*
X0113295Y0196300D02*
X0113851Y0196300D01*
X0113962Y0196300D02*
X0114406Y0195411D01*
X0115434Y0195411D02*
X0116545Y0195411D01*
X0115989Y0195411D02*
X0115989Y0197411D01*
X0115434Y0196966D01*
X0113851Y0197411D02*
X0113897Y0197409D01*
X0113943Y0197403D01*
X0113987Y0197394D01*
X0114032Y0197381D01*
X0114074Y0197364D01*
X0114116Y0197344D01*
X0114155Y0197320D01*
X0114193Y0197294D01*
X0114228Y0197264D01*
X0114260Y0197232D01*
X0114290Y0197197D01*
X0114316Y0197159D01*
X0114340Y0197120D01*
X0114360Y0197078D01*
X0114377Y0197036D01*
X0114390Y0196991D01*
X0114399Y0196947D01*
X0114405Y0196901D01*
X0114407Y0196855D01*
X0114405Y0196809D01*
X0114399Y0196763D01*
X0114390Y0196719D01*
X0114377Y0196674D01*
X0114360Y0196632D01*
X0114340Y0196590D01*
X0114316Y0196551D01*
X0114290Y0196513D01*
X0114260Y0196478D01*
X0114228Y0196446D01*
X0114193Y0196416D01*
X0114155Y0196390D01*
X0114116Y0196366D01*
X0114074Y0196346D01*
X0114032Y0196329D01*
X0113987Y0196316D01*
X0113943Y0196307D01*
X0113897Y0196301D01*
X0113851Y0196299D01*
X0117594Y0196966D02*
X0118149Y0197411D01*
X0118149Y0195411D01*
X0117594Y0195411D02*
X0118705Y0195411D01*
X0115800Y0178711D02*
X0114689Y0178711D01*
X0114689Y0178488D01*
X0115800Y0178711D02*
X0115244Y0176711D01*
X0113490Y0177544D02*
X0112879Y0177877D01*
X0113101Y0178710D02*
X0113155Y0178708D01*
X0113208Y0178703D01*
X0113261Y0178695D01*
X0113313Y0178683D01*
X0113364Y0178667D01*
X0113415Y0178649D01*
X0113464Y0178627D01*
X0113511Y0178602D01*
X0113557Y0178574D01*
X0113601Y0178543D01*
X0112879Y0177877D02*
X0112846Y0177899D01*
X0112816Y0177923D01*
X0112787Y0177949D01*
X0112761Y0177978D01*
X0112737Y0178009D01*
X0112716Y0178042D01*
X0112699Y0178077D01*
X0112684Y0178113D01*
X0112672Y0178150D01*
X0112664Y0178188D01*
X0112659Y0178227D01*
X0112657Y0178266D01*
X0112659Y0178307D01*
X0112665Y0178348D01*
X0112674Y0178388D01*
X0112687Y0178426D01*
X0112704Y0178464D01*
X0112724Y0178500D01*
X0112747Y0178534D01*
X0112773Y0178565D01*
X0112802Y0178594D01*
X0112833Y0178620D01*
X0112867Y0178644D01*
X0112903Y0178663D01*
X0112941Y0178680D01*
X0112980Y0178693D01*
X0113019Y0178702D01*
X0113060Y0178708D01*
X0113101Y0178710D01*
X0112601Y0176989D02*
X0112643Y0176950D01*
X0112686Y0176913D01*
X0112732Y0176879D01*
X0112780Y0176848D01*
X0112829Y0176820D01*
X0112881Y0176795D01*
X0112933Y0176773D01*
X0112987Y0176754D01*
X0113042Y0176739D01*
X0113098Y0176727D01*
X0113154Y0176718D01*
X0113211Y0176713D01*
X0113268Y0176711D01*
X0113309Y0176713D01*
X0113350Y0176719D01*
X0113390Y0176728D01*
X0113428Y0176741D01*
X0113466Y0176758D01*
X0113502Y0176778D01*
X0113536Y0176801D01*
X0113567Y0176827D01*
X0113596Y0176856D01*
X0113622Y0176887D01*
X0113645Y0176921D01*
X0113665Y0176957D01*
X0113682Y0176995D01*
X0113695Y0177033D01*
X0113704Y0177073D01*
X0113710Y0177114D01*
X0113712Y0177155D01*
X0113710Y0177194D01*
X0113705Y0177233D01*
X0113697Y0177271D01*
X0113685Y0177308D01*
X0113670Y0177344D01*
X0113653Y0177379D01*
X0113632Y0177412D01*
X0113608Y0177443D01*
X0113582Y0177472D01*
X0113553Y0177498D01*
X0113523Y0177522D01*
X0113490Y0177544D01*
X0111190Y0177600D02*
X0110634Y0177600D01*
X0111190Y0177599D02*
X0111236Y0177601D01*
X0111282Y0177607D01*
X0111326Y0177616D01*
X0111371Y0177629D01*
X0111413Y0177646D01*
X0111455Y0177666D01*
X0111494Y0177690D01*
X0111532Y0177716D01*
X0111567Y0177746D01*
X0111599Y0177778D01*
X0111629Y0177813D01*
X0111655Y0177851D01*
X0111679Y0177890D01*
X0111699Y0177932D01*
X0111716Y0177974D01*
X0111729Y0178019D01*
X0111738Y0178063D01*
X0111744Y0178109D01*
X0111746Y0178155D01*
X0111744Y0178201D01*
X0111738Y0178247D01*
X0111729Y0178291D01*
X0111716Y0178336D01*
X0111699Y0178378D01*
X0111679Y0178420D01*
X0111655Y0178459D01*
X0111629Y0178497D01*
X0111599Y0178532D01*
X0111567Y0178564D01*
X0111532Y0178594D01*
X0111494Y0178620D01*
X0111455Y0178644D01*
X0111413Y0178664D01*
X0111371Y0178681D01*
X0111326Y0178694D01*
X0111282Y0178703D01*
X0111236Y0178709D01*
X0111190Y0178711D01*
X0110634Y0178711D01*
X0110634Y0176711D01*
X0109592Y0176711D02*
X0109148Y0176711D01*
X0109107Y0176713D01*
X0109066Y0176719D01*
X0109026Y0176728D01*
X0108988Y0176741D01*
X0108950Y0176758D01*
X0108914Y0176778D01*
X0108880Y0176801D01*
X0108849Y0176827D01*
X0108820Y0176856D01*
X0108794Y0176887D01*
X0108771Y0176921D01*
X0108751Y0176957D01*
X0108734Y0176995D01*
X0108721Y0177033D01*
X0108712Y0177073D01*
X0108706Y0177114D01*
X0108704Y0177155D01*
X0108703Y0177155D02*
X0108703Y0178266D01*
X0108704Y0178266D02*
X0108706Y0178307D01*
X0108712Y0178348D01*
X0108721Y0178388D01*
X0108734Y0178426D01*
X0108751Y0178464D01*
X0108771Y0178500D01*
X0108794Y0178534D01*
X0108820Y0178565D01*
X0108849Y0178594D01*
X0108880Y0178620D01*
X0108914Y0178643D01*
X0108950Y0178663D01*
X0108988Y0178680D01*
X0109026Y0178693D01*
X0109066Y0178702D01*
X0109107Y0178708D01*
X0109148Y0178710D01*
X0109148Y0178711D02*
X0109592Y0178711D01*
X0110148Y0167711D02*
X0110592Y0167711D01*
X0110148Y0167710D02*
X0110107Y0167708D01*
X0110066Y0167702D01*
X0110026Y0167693D01*
X0109988Y0167680D01*
X0109950Y0167663D01*
X0109914Y0167643D01*
X0109880Y0167620D01*
X0109849Y0167594D01*
X0109820Y0167565D01*
X0109794Y0167534D01*
X0109771Y0167500D01*
X0109751Y0167464D01*
X0109734Y0167426D01*
X0109721Y0167388D01*
X0109712Y0167348D01*
X0109706Y0167307D01*
X0109704Y0167266D01*
X0109703Y0167266D02*
X0109703Y0166155D01*
X0109704Y0166155D02*
X0109706Y0166114D01*
X0109712Y0166073D01*
X0109721Y0166033D01*
X0109734Y0165995D01*
X0109751Y0165957D01*
X0109771Y0165921D01*
X0109794Y0165887D01*
X0109820Y0165856D01*
X0109849Y0165827D01*
X0109880Y0165801D01*
X0109914Y0165778D01*
X0109950Y0165758D01*
X0109988Y0165741D01*
X0110026Y0165728D01*
X0110066Y0165719D01*
X0110107Y0165713D01*
X0110148Y0165711D01*
X0110592Y0165711D01*
X0111634Y0165711D02*
X0111634Y0167711D01*
X0112190Y0167711D01*
X0112236Y0167709D01*
X0112282Y0167703D01*
X0112326Y0167694D01*
X0112371Y0167681D01*
X0112413Y0167664D01*
X0112455Y0167644D01*
X0112494Y0167620D01*
X0112532Y0167594D01*
X0112567Y0167564D01*
X0112599Y0167532D01*
X0112629Y0167497D01*
X0112655Y0167459D01*
X0112679Y0167420D01*
X0112699Y0167378D01*
X0112716Y0167336D01*
X0112729Y0167291D01*
X0112738Y0167247D01*
X0112744Y0167201D01*
X0112746Y0167155D01*
X0112744Y0167109D01*
X0112738Y0167063D01*
X0112729Y0167019D01*
X0112716Y0166974D01*
X0112699Y0166932D01*
X0112679Y0166890D01*
X0112655Y0166851D01*
X0112629Y0166813D01*
X0112599Y0166778D01*
X0112567Y0166746D01*
X0112532Y0166716D01*
X0112494Y0166690D01*
X0112455Y0166666D01*
X0112413Y0166646D01*
X0112371Y0166629D01*
X0112326Y0166616D01*
X0112282Y0166607D01*
X0112236Y0166601D01*
X0112190Y0166599D01*
X0112190Y0166600D02*
X0111634Y0166600D01*
X0113879Y0166877D02*
X0114490Y0166544D01*
X0114268Y0165711D02*
X0114211Y0165713D01*
X0114154Y0165718D01*
X0114098Y0165727D01*
X0114042Y0165739D01*
X0113987Y0165754D01*
X0113933Y0165773D01*
X0113881Y0165795D01*
X0113829Y0165820D01*
X0113780Y0165848D01*
X0113732Y0165879D01*
X0113686Y0165913D01*
X0113643Y0165950D01*
X0113601Y0165989D01*
X0114490Y0166544D02*
X0114523Y0166522D01*
X0114553Y0166498D01*
X0114582Y0166472D01*
X0114608Y0166443D01*
X0114632Y0166412D01*
X0114653Y0166379D01*
X0114670Y0166344D01*
X0114685Y0166308D01*
X0114697Y0166271D01*
X0114705Y0166233D01*
X0114710Y0166194D01*
X0114712Y0166155D01*
X0114710Y0166114D01*
X0114704Y0166073D01*
X0114695Y0166033D01*
X0114682Y0165995D01*
X0114665Y0165957D01*
X0114645Y0165921D01*
X0114622Y0165887D01*
X0114596Y0165856D01*
X0114567Y0165827D01*
X0114536Y0165801D01*
X0114502Y0165778D01*
X0114466Y0165758D01*
X0114428Y0165741D01*
X0114390Y0165728D01*
X0114350Y0165719D01*
X0114309Y0165713D01*
X0114268Y0165711D01*
X0114601Y0167543D02*
X0114557Y0167574D01*
X0114511Y0167602D01*
X0114464Y0167627D01*
X0114415Y0167649D01*
X0114364Y0167667D01*
X0114313Y0167683D01*
X0114261Y0167695D01*
X0114208Y0167703D01*
X0114155Y0167708D01*
X0114101Y0167710D01*
X0114060Y0167708D01*
X0114019Y0167702D01*
X0113980Y0167693D01*
X0113941Y0167680D01*
X0113903Y0167663D01*
X0113867Y0167644D01*
X0113833Y0167620D01*
X0113802Y0167594D01*
X0113773Y0167565D01*
X0113747Y0167534D01*
X0113724Y0167500D01*
X0113704Y0167464D01*
X0113687Y0167426D01*
X0113674Y0167388D01*
X0113665Y0167348D01*
X0113659Y0167307D01*
X0113657Y0167266D01*
X0113659Y0167227D01*
X0113664Y0167188D01*
X0113672Y0167150D01*
X0113684Y0167113D01*
X0113699Y0167077D01*
X0113716Y0167042D01*
X0113737Y0167009D01*
X0113761Y0166978D01*
X0113787Y0166949D01*
X0113816Y0166923D01*
X0113846Y0166899D01*
X0113879Y0166877D01*
X0115800Y0167266D02*
X0115802Y0167225D01*
X0115808Y0167184D01*
X0115817Y0167144D01*
X0115830Y0167106D01*
X0115847Y0167068D01*
X0115867Y0167032D01*
X0115890Y0166998D01*
X0115916Y0166967D01*
X0115945Y0166938D01*
X0115976Y0166912D01*
X0116010Y0166889D01*
X0116046Y0166869D01*
X0116084Y0166852D01*
X0116122Y0166839D01*
X0116162Y0166830D01*
X0116203Y0166824D01*
X0116244Y0166822D01*
X0116285Y0166824D01*
X0116326Y0166830D01*
X0116366Y0166839D01*
X0116404Y0166852D01*
X0116442Y0166869D01*
X0116478Y0166889D01*
X0116512Y0166912D01*
X0116543Y0166938D01*
X0116572Y0166967D01*
X0116598Y0166998D01*
X0116621Y0167032D01*
X0116641Y0167068D01*
X0116658Y0167106D01*
X0116671Y0167144D01*
X0116680Y0167184D01*
X0116686Y0167225D01*
X0116688Y0167266D01*
X0116686Y0167307D01*
X0116680Y0167348D01*
X0116671Y0167388D01*
X0116658Y0167426D01*
X0116641Y0167464D01*
X0116621Y0167500D01*
X0116598Y0167534D01*
X0116572Y0167565D01*
X0116543Y0167594D01*
X0116512Y0167620D01*
X0116478Y0167643D01*
X0116442Y0167663D01*
X0116404Y0167680D01*
X0116366Y0167693D01*
X0116326Y0167702D01*
X0116285Y0167708D01*
X0116244Y0167710D01*
X0116203Y0167708D01*
X0116162Y0167702D01*
X0116122Y0167693D01*
X0116084Y0167680D01*
X0116046Y0167663D01*
X0116010Y0167643D01*
X0115976Y0167620D01*
X0115945Y0167594D01*
X0115916Y0167565D01*
X0115890Y0167534D01*
X0115867Y0167500D01*
X0115847Y0167464D01*
X0115830Y0167426D01*
X0115817Y0167388D01*
X0115808Y0167348D01*
X0115802Y0167307D01*
X0115800Y0167266D01*
X0115688Y0166266D02*
X0115690Y0166220D01*
X0115696Y0166174D01*
X0115705Y0166130D01*
X0115718Y0166085D01*
X0115735Y0166043D01*
X0115755Y0166001D01*
X0115779Y0165962D01*
X0115805Y0165924D01*
X0115835Y0165889D01*
X0115867Y0165857D01*
X0115902Y0165827D01*
X0115940Y0165801D01*
X0115979Y0165777D01*
X0116021Y0165757D01*
X0116063Y0165740D01*
X0116108Y0165727D01*
X0116152Y0165718D01*
X0116198Y0165712D01*
X0116244Y0165710D01*
X0116290Y0165712D01*
X0116336Y0165718D01*
X0116380Y0165727D01*
X0116425Y0165740D01*
X0116467Y0165757D01*
X0116509Y0165777D01*
X0116548Y0165801D01*
X0116586Y0165827D01*
X0116621Y0165857D01*
X0116653Y0165889D01*
X0116683Y0165924D01*
X0116709Y0165962D01*
X0116733Y0166001D01*
X0116753Y0166043D01*
X0116770Y0166085D01*
X0116783Y0166130D01*
X0116792Y0166174D01*
X0116798Y0166220D01*
X0116800Y0166266D01*
X0116798Y0166312D01*
X0116792Y0166358D01*
X0116783Y0166402D01*
X0116770Y0166447D01*
X0116753Y0166489D01*
X0116733Y0166531D01*
X0116709Y0166570D01*
X0116683Y0166608D01*
X0116653Y0166643D01*
X0116621Y0166675D01*
X0116586Y0166705D01*
X0116548Y0166731D01*
X0116509Y0166755D01*
X0116467Y0166775D01*
X0116425Y0166792D01*
X0116380Y0166805D01*
X0116336Y0166814D01*
X0116290Y0166820D01*
X0116244Y0166822D01*
X0116198Y0166820D01*
X0116152Y0166814D01*
X0116108Y0166805D01*
X0116063Y0166792D01*
X0116021Y0166775D01*
X0115979Y0166755D01*
X0115940Y0166731D01*
X0115902Y0166705D01*
X0115867Y0166675D01*
X0115835Y0166643D01*
X0115805Y0166608D01*
X0115779Y0166570D01*
X0115755Y0166531D01*
X0115735Y0166489D01*
X0115718Y0166447D01*
X0115705Y0166402D01*
X0115696Y0166358D01*
X0115690Y0166312D01*
X0115688Y0166266D01*
X0129700Y0168355D02*
X0129700Y0170177D01*
X0129700Y0171836D02*
X0133800Y0171836D01*
X0133800Y0172975D01*
X0133798Y0173026D01*
X0133792Y0173077D01*
X0133783Y0173127D01*
X0133770Y0173176D01*
X0133753Y0173225D01*
X0133732Y0173271D01*
X0133708Y0173316D01*
X0133681Y0173360D01*
X0133651Y0173401D01*
X0133618Y0173440D01*
X0133582Y0173476D01*
X0133543Y0173509D01*
X0133502Y0173539D01*
X0133459Y0173566D01*
X0133413Y0173590D01*
X0133367Y0173611D01*
X0133318Y0173628D01*
X0133269Y0173641D01*
X0133219Y0173650D01*
X0133168Y0173656D01*
X0133117Y0173658D01*
X0131750Y0173658D01*
X0131699Y0173656D01*
X0131648Y0173650D01*
X0131598Y0173641D01*
X0131549Y0173628D01*
X0131500Y0173611D01*
X0131454Y0173590D01*
X0131409Y0173566D01*
X0131365Y0173539D01*
X0131324Y0173509D01*
X0131285Y0173476D01*
X0131249Y0173440D01*
X0131216Y0173401D01*
X0131186Y0173360D01*
X0131159Y0173317D01*
X0131135Y0173271D01*
X0131114Y0173225D01*
X0131097Y0173176D01*
X0131084Y0173127D01*
X0131075Y0173077D01*
X0131069Y0173026D01*
X0131067Y0172975D01*
X0131067Y0171836D01*
X0131522Y0169721D02*
X0131522Y0168355D01*
X0129700Y0168355D02*
X0133800Y0168355D01*
X0133800Y0170177D01*
X0133117Y0175324D02*
X0131978Y0175324D01*
X0132433Y0175324D02*
X0132433Y0177146D01*
X0131978Y0177146D01*
X0131918Y0177144D01*
X0131859Y0177138D01*
X0131800Y0177128D01*
X0131742Y0177115D01*
X0131685Y0177098D01*
X0131629Y0177077D01*
X0131575Y0177052D01*
X0131523Y0177024D01*
X0131472Y0176992D01*
X0131423Y0176958D01*
X0131377Y0176920D01*
X0131334Y0176879D01*
X0131293Y0176836D01*
X0131255Y0176790D01*
X0131221Y0176741D01*
X0131189Y0176691D01*
X0131161Y0176638D01*
X0131136Y0176584D01*
X0131115Y0176528D01*
X0131098Y0176471D01*
X0131085Y0176413D01*
X0131075Y0176354D01*
X0131069Y0176295D01*
X0131067Y0176235D01*
X0131069Y0176175D01*
X0131075Y0176116D01*
X0131085Y0176057D01*
X0131098Y0175999D01*
X0131115Y0175942D01*
X0131136Y0175886D01*
X0131161Y0175832D01*
X0131189Y0175780D01*
X0131221Y0175729D01*
X0131255Y0175680D01*
X0131293Y0175634D01*
X0131334Y0175591D01*
X0131377Y0175550D01*
X0131423Y0175512D01*
X0131472Y0175478D01*
X0131523Y0175446D01*
X0131575Y0175418D01*
X0131629Y0175393D01*
X0131685Y0175372D01*
X0131742Y0175355D01*
X0131800Y0175342D01*
X0131859Y0175332D01*
X0131918Y0175326D01*
X0131978Y0175324D01*
X0133117Y0175324D02*
X0133168Y0175326D01*
X0133219Y0175332D01*
X0133269Y0175341D01*
X0133318Y0175354D01*
X0133367Y0175371D01*
X0133413Y0175392D01*
X0133459Y0175416D01*
X0133502Y0175443D01*
X0133543Y0175473D01*
X0133582Y0175506D01*
X0133618Y0175542D01*
X0133651Y0175581D01*
X0133681Y0175622D01*
X0133708Y0175666D01*
X0133732Y0175711D01*
X0133753Y0175757D01*
X0133770Y0175806D01*
X0133783Y0175855D01*
X0133792Y0175905D01*
X0133798Y0175956D01*
X0133800Y0176007D01*
X0133800Y0177146D01*
X0133800Y0178994D02*
X0131067Y0178994D01*
X0131067Y0180360D01*
X0131522Y0180360D01*
X0133117Y0181717D02*
X0129700Y0181717D01*
X0131978Y0183829D02*
X0133117Y0183829D01*
X0133168Y0183831D01*
X0133219Y0183837D01*
X0133269Y0183846D01*
X0133318Y0183859D01*
X0133367Y0183876D01*
X0133413Y0183897D01*
X0133459Y0183921D01*
X0133502Y0183948D01*
X0133543Y0183978D01*
X0133582Y0184011D01*
X0133618Y0184047D01*
X0133651Y0184086D01*
X0133681Y0184127D01*
X0133708Y0184171D01*
X0133732Y0184216D01*
X0133753Y0184262D01*
X0133770Y0184311D01*
X0133783Y0184360D01*
X0133792Y0184410D01*
X0133798Y0184461D01*
X0133800Y0184512D01*
X0133800Y0185651D01*
X0132433Y0185651D02*
X0132433Y0183829D01*
X0131978Y0183829D02*
X0131918Y0183831D01*
X0131859Y0183837D01*
X0131800Y0183847D01*
X0131742Y0183860D01*
X0131685Y0183877D01*
X0131629Y0183898D01*
X0131575Y0183923D01*
X0131523Y0183951D01*
X0131472Y0183983D01*
X0131423Y0184017D01*
X0131377Y0184055D01*
X0131334Y0184096D01*
X0131293Y0184139D01*
X0131255Y0184185D01*
X0131221Y0184234D01*
X0131189Y0184285D01*
X0131161Y0184337D01*
X0131136Y0184391D01*
X0131115Y0184447D01*
X0131098Y0184504D01*
X0131085Y0184562D01*
X0131075Y0184621D01*
X0131069Y0184680D01*
X0131067Y0184740D01*
X0131069Y0184800D01*
X0131075Y0184859D01*
X0131085Y0184918D01*
X0131098Y0184976D01*
X0131115Y0185033D01*
X0131136Y0185089D01*
X0131161Y0185143D01*
X0131189Y0185196D01*
X0131221Y0185246D01*
X0131255Y0185295D01*
X0131293Y0185341D01*
X0131334Y0185384D01*
X0131377Y0185425D01*
X0131423Y0185463D01*
X0131472Y0185497D01*
X0131523Y0185529D01*
X0131575Y0185557D01*
X0131629Y0185582D01*
X0131685Y0185603D01*
X0131742Y0185620D01*
X0131800Y0185633D01*
X0131859Y0185643D01*
X0131918Y0185649D01*
X0131978Y0185651D01*
X0132433Y0185651D01*
X0133800Y0182401D02*
X0133798Y0182350D01*
X0133792Y0182299D01*
X0133783Y0182249D01*
X0133770Y0182200D01*
X0133753Y0182151D01*
X0133732Y0182105D01*
X0133708Y0182060D01*
X0133681Y0182016D01*
X0133651Y0181975D01*
X0133618Y0181936D01*
X0133582Y0181900D01*
X0133543Y0181867D01*
X0133502Y0181837D01*
X0133459Y0181810D01*
X0133413Y0181786D01*
X0133367Y0181765D01*
X0133318Y0181748D01*
X0133269Y0181735D01*
X0133219Y0181726D01*
X0133168Y0181720D01*
X0133117Y0181718D01*
X0133800Y0164186D02*
X0131750Y0164186D01*
X0131699Y0164184D01*
X0131648Y0164178D01*
X0131598Y0164169D01*
X0131549Y0164156D01*
X0131500Y0164139D01*
X0131454Y0164118D01*
X0131408Y0164094D01*
X0131365Y0164067D01*
X0131324Y0164037D01*
X0131285Y0164004D01*
X0131249Y0163968D01*
X0131216Y0163929D01*
X0131186Y0163888D01*
X0131159Y0163844D01*
X0131135Y0163799D01*
X0131114Y0163753D01*
X0131097Y0163704D01*
X0131084Y0163655D01*
X0131075Y0163605D01*
X0131069Y0163554D01*
X0131067Y0163503D01*
X0131067Y0162364D01*
X0133800Y0162364D01*
X0133800Y0160406D02*
X0131750Y0160406D01*
X0131699Y0160404D01*
X0131648Y0160398D01*
X0131598Y0160389D01*
X0131549Y0160376D01*
X0131500Y0160359D01*
X0131454Y0160338D01*
X0131408Y0160314D01*
X0131365Y0160287D01*
X0131324Y0160257D01*
X0131285Y0160224D01*
X0131249Y0160188D01*
X0131216Y0160149D01*
X0131186Y0160108D01*
X0131159Y0160064D01*
X0131135Y0160019D01*
X0131114Y0159973D01*
X0131097Y0159924D01*
X0131084Y0159875D01*
X0131075Y0159825D01*
X0131069Y0159774D01*
X0131067Y0159723D01*
X0131067Y0158584D01*
X0129700Y0158584D02*
X0133800Y0158584D01*
X0132889Y0156761D02*
X0131978Y0156761D01*
X0131918Y0156759D01*
X0131859Y0156753D01*
X0131800Y0156743D01*
X0131742Y0156730D01*
X0131685Y0156713D01*
X0131629Y0156692D01*
X0131575Y0156667D01*
X0131523Y0156639D01*
X0131472Y0156607D01*
X0131423Y0156573D01*
X0131377Y0156535D01*
X0131334Y0156494D01*
X0131293Y0156451D01*
X0131255Y0156405D01*
X0131221Y0156356D01*
X0131189Y0156306D01*
X0131161Y0156253D01*
X0131136Y0156199D01*
X0131115Y0156143D01*
X0131098Y0156086D01*
X0131085Y0156028D01*
X0131075Y0155969D01*
X0131069Y0155910D01*
X0131067Y0155850D01*
X0131069Y0155790D01*
X0131075Y0155731D01*
X0131085Y0155672D01*
X0131098Y0155614D01*
X0131115Y0155557D01*
X0131136Y0155501D01*
X0131161Y0155447D01*
X0131189Y0155395D01*
X0131221Y0155344D01*
X0131255Y0155295D01*
X0131293Y0155249D01*
X0131334Y0155206D01*
X0131377Y0155165D01*
X0131423Y0155127D01*
X0131472Y0155093D01*
X0131523Y0155061D01*
X0131575Y0155033D01*
X0131629Y0155008D01*
X0131685Y0154987D01*
X0131742Y0154970D01*
X0131800Y0154957D01*
X0131859Y0154947D01*
X0131918Y0154941D01*
X0131978Y0154939D01*
X0132889Y0154939D01*
X0132949Y0154941D01*
X0133008Y0154947D01*
X0133067Y0154957D01*
X0133125Y0154970D01*
X0133182Y0154987D01*
X0133238Y0155008D01*
X0133292Y0155033D01*
X0133345Y0155061D01*
X0133395Y0155093D01*
X0133444Y0155127D01*
X0133490Y0155165D01*
X0133533Y0155206D01*
X0133574Y0155249D01*
X0133612Y0155295D01*
X0133646Y0155344D01*
X0133678Y0155395D01*
X0133706Y0155447D01*
X0133731Y0155501D01*
X0133752Y0155557D01*
X0133769Y0155614D01*
X0133782Y0155672D01*
X0133792Y0155731D01*
X0133798Y0155790D01*
X0133800Y0155850D01*
X0133798Y0155910D01*
X0133792Y0155969D01*
X0133782Y0156028D01*
X0133769Y0156086D01*
X0133752Y0156143D01*
X0133731Y0156199D01*
X0133706Y0156253D01*
X0133678Y0156306D01*
X0133646Y0156356D01*
X0133612Y0156405D01*
X0133574Y0156451D01*
X0133533Y0156494D01*
X0133490Y0156535D01*
X0133444Y0156573D01*
X0133395Y0156607D01*
X0133345Y0156639D01*
X0133292Y0156667D01*
X0133238Y0156692D01*
X0133182Y0156713D01*
X0133125Y0156730D01*
X0133067Y0156743D01*
X0133008Y0156753D01*
X0132949Y0156759D01*
X0132889Y0156761D01*
X0132889Y0153091D02*
X0129700Y0153091D01*
X0130611Y0147986D02*
X0130671Y0147984D01*
X0130730Y0147978D01*
X0130789Y0147968D01*
X0130847Y0147955D01*
X0130904Y0147938D01*
X0130960Y0147917D01*
X0131014Y0147892D01*
X0131066Y0147864D01*
X0131117Y0147832D01*
X0131166Y0147798D01*
X0131212Y0147760D01*
X0131255Y0147719D01*
X0131296Y0147676D01*
X0131334Y0147630D01*
X0131368Y0147581D01*
X0131400Y0147531D01*
X0131428Y0147478D01*
X0131453Y0147424D01*
X0131474Y0147368D01*
X0131491Y0147311D01*
X0131504Y0147253D01*
X0131514Y0147194D01*
X0131520Y0147135D01*
X0131522Y0147075D01*
X0131520Y0147015D01*
X0131514Y0146956D01*
X0131504Y0146897D01*
X0131491Y0146839D01*
X0131474Y0146782D01*
X0131453Y0146726D01*
X0131428Y0146672D01*
X0131400Y0146620D01*
X0131368Y0146569D01*
X0131334Y0146520D01*
X0131296Y0146474D01*
X0131255Y0146431D01*
X0131212Y0146390D01*
X0131166Y0146352D01*
X0131117Y0146318D01*
X0131067Y0146286D01*
X0131014Y0146258D01*
X0130960Y0146233D01*
X0130904Y0146212D01*
X0130847Y0146195D01*
X0130789Y0146182D01*
X0130730Y0146172D01*
X0130671Y0146166D01*
X0130611Y0146164D01*
X0130551Y0146166D01*
X0130492Y0146172D01*
X0130433Y0146182D01*
X0130375Y0146195D01*
X0130318Y0146212D01*
X0130262Y0146233D01*
X0130208Y0146258D01*
X0130156Y0146286D01*
X0130105Y0146318D01*
X0130056Y0146352D01*
X0130010Y0146390D01*
X0129967Y0146431D01*
X0129926Y0146474D01*
X0129888Y0146520D01*
X0129854Y0146569D01*
X0129822Y0146620D01*
X0129794Y0146672D01*
X0129769Y0146726D01*
X0129748Y0146782D01*
X0129731Y0146839D01*
X0129718Y0146897D01*
X0129708Y0146956D01*
X0129702Y0147015D01*
X0129700Y0147075D01*
X0129702Y0147135D01*
X0129708Y0147194D01*
X0129718Y0147253D01*
X0129731Y0147311D01*
X0129748Y0147368D01*
X0129769Y0147424D01*
X0129794Y0147478D01*
X0129822Y0147531D01*
X0129854Y0147581D01*
X0129888Y0147630D01*
X0129926Y0147676D01*
X0129967Y0147719D01*
X0130010Y0147760D01*
X0130056Y0147798D01*
X0130105Y0147832D01*
X0130156Y0147864D01*
X0130208Y0147892D01*
X0130262Y0147917D01*
X0130318Y0147938D01*
X0130375Y0147955D01*
X0130433Y0147968D01*
X0130492Y0147978D01*
X0130551Y0147984D01*
X0130611Y0147986D01*
X0132661Y0148214D02*
X0132727Y0148212D01*
X0132793Y0148206D01*
X0132859Y0148197D01*
X0132924Y0148183D01*
X0132988Y0148166D01*
X0133051Y0148145D01*
X0133112Y0148121D01*
X0133172Y0148093D01*
X0133231Y0148061D01*
X0133287Y0148027D01*
X0133341Y0147989D01*
X0133393Y0147948D01*
X0133443Y0147903D01*
X0133489Y0147857D01*
X0133534Y0147807D01*
X0133575Y0147755D01*
X0133613Y0147701D01*
X0133647Y0147645D01*
X0133679Y0147586D01*
X0133707Y0147526D01*
X0133731Y0147465D01*
X0133752Y0147402D01*
X0133769Y0147338D01*
X0133783Y0147273D01*
X0133792Y0147207D01*
X0133798Y0147141D01*
X0133800Y0147075D01*
X0133798Y0147009D01*
X0133792Y0146943D01*
X0133783Y0146877D01*
X0133769Y0146812D01*
X0133752Y0146748D01*
X0133731Y0146685D01*
X0133707Y0146624D01*
X0133679Y0146564D01*
X0133647Y0146506D01*
X0133613Y0146449D01*
X0133575Y0146395D01*
X0133534Y0146343D01*
X0133489Y0146293D01*
X0133443Y0146247D01*
X0133393Y0146202D01*
X0133341Y0146161D01*
X0133287Y0146123D01*
X0133231Y0146089D01*
X0133172Y0146057D01*
X0133112Y0146029D01*
X0133051Y0146005D01*
X0132988Y0145984D01*
X0132924Y0145967D01*
X0132859Y0145953D01*
X0132793Y0145944D01*
X0132727Y0145938D01*
X0132661Y0145936D01*
X0132595Y0145938D01*
X0132529Y0145944D01*
X0132463Y0145953D01*
X0132398Y0145967D01*
X0132334Y0145984D01*
X0132271Y0146005D01*
X0132210Y0146029D01*
X0132150Y0146057D01*
X0132092Y0146089D01*
X0132035Y0146123D01*
X0131981Y0146161D01*
X0131929Y0146202D01*
X0131879Y0146247D01*
X0131833Y0146293D01*
X0131788Y0146343D01*
X0131747Y0146395D01*
X0131709Y0146449D01*
X0131675Y0146506D01*
X0131643Y0146564D01*
X0131615Y0146624D01*
X0131591Y0146685D01*
X0131570Y0146748D01*
X0131553Y0146812D01*
X0131539Y0146877D01*
X0131530Y0146943D01*
X0131524Y0147009D01*
X0131522Y0147075D01*
X0131524Y0147141D01*
X0131530Y0147207D01*
X0131539Y0147273D01*
X0131553Y0147338D01*
X0131570Y0147402D01*
X0131591Y0147465D01*
X0131615Y0147526D01*
X0131643Y0147586D01*
X0131675Y0147645D01*
X0131709Y0147701D01*
X0131747Y0147755D01*
X0131788Y0147807D01*
X0131833Y0147857D01*
X0131879Y0147903D01*
X0131929Y0147948D01*
X0131981Y0147989D01*
X0132035Y0148027D01*
X0132092Y0148061D01*
X0132150Y0148093D01*
X0132210Y0148121D01*
X0132271Y0148145D01*
X0132334Y0148166D01*
X0132398Y0148183D01*
X0132463Y0148197D01*
X0132529Y0148206D01*
X0132595Y0148212D01*
X0132661Y0148214D01*
X0133800Y0151725D02*
X0133800Y0152180D01*
X0133798Y0152240D01*
X0133792Y0152299D01*
X0133782Y0152358D01*
X0133769Y0152416D01*
X0133752Y0152473D01*
X0133731Y0152529D01*
X0133706Y0152583D01*
X0133678Y0152636D01*
X0133646Y0152686D01*
X0133612Y0152735D01*
X0133574Y0152781D01*
X0133533Y0152824D01*
X0133490Y0152865D01*
X0133444Y0152903D01*
X0133395Y0152937D01*
X0133345Y0152969D01*
X0133292Y0152997D01*
X0133238Y0153022D01*
X0133182Y0153043D01*
X0133125Y0153060D01*
X0133067Y0153073D01*
X0133008Y0153083D01*
X0132949Y0153089D01*
X0132889Y0153091D01*
X0133800Y0144164D02*
X0133800Y0141886D01*
X0133800Y0143025D02*
X0129700Y0143025D01*
X0130611Y0141886D01*
X0131750Y0137836D02*
X0131859Y0137838D01*
X0131969Y0137843D01*
X0132078Y0137852D01*
X0132187Y0137864D01*
X0132295Y0137880D01*
X0132403Y0137900D01*
X0132510Y0137923D01*
X0132616Y0137949D01*
X0132721Y0137979D01*
X0132826Y0138012D01*
X0132929Y0138048D01*
X0133031Y0138088D01*
X0133131Y0138131D01*
X0133231Y0138178D01*
X0132889Y0138064D02*
X0130611Y0139886D01*
X0130270Y0139772D02*
X0130218Y0139753D01*
X0130168Y0139730D01*
X0130120Y0139704D01*
X0130073Y0139675D01*
X0130028Y0139643D01*
X0129986Y0139608D01*
X0129946Y0139570D01*
X0129908Y0139530D01*
X0129873Y0139487D01*
X0129841Y0139442D01*
X0129812Y0139396D01*
X0129787Y0139347D01*
X0129764Y0139297D01*
X0129745Y0139245D01*
X0129729Y0139193D01*
X0129716Y0139139D01*
X0129707Y0139085D01*
X0129702Y0139030D01*
X0129700Y0138975D01*
X0129702Y0138920D01*
X0129707Y0138865D01*
X0129716Y0138811D01*
X0129729Y0138757D01*
X0129745Y0138705D01*
X0129764Y0138653D01*
X0129787Y0138603D01*
X0129812Y0138554D01*
X0129841Y0138508D01*
X0129873Y0138463D01*
X0129908Y0138420D01*
X0129946Y0138380D01*
X0129986Y0138342D01*
X0130028Y0138307D01*
X0130073Y0138275D01*
X0130120Y0138246D01*
X0130168Y0138220D01*
X0130218Y0138197D01*
X0130270Y0138178D01*
X0130269Y0139772D02*
X0130369Y0139819D01*
X0130469Y0139862D01*
X0130571Y0139902D01*
X0130674Y0139938D01*
X0130779Y0139971D01*
X0130884Y0140001D01*
X0130990Y0140027D01*
X0131097Y0140050D01*
X0131205Y0140070D01*
X0131313Y0140086D01*
X0131422Y0140098D01*
X0131531Y0140107D01*
X0131641Y0140112D01*
X0131750Y0140114D01*
X0131750Y0137836D02*
X0131641Y0137838D01*
X0131531Y0137843D01*
X0131422Y0137852D01*
X0131313Y0137864D01*
X0131205Y0137880D01*
X0131097Y0137900D01*
X0130990Y0137923D01*
X0130884Y0137949D01*
X0130779Y0137979D01*
X0130674Y0138012D01*
X0130571Y0138048D01*
X0130469Y0138088D01*
X0130369Y0138131D01*
X0130269Y0138178D01*
X0131750Y0140114D02*
X0131859Y0140112D01*
X0131969Y0140107D01*
X0132078Y0140098D01*
X0132187Y0140086D01*
X0132295Y0140070D01*
X0132403Y0140050D01*
X0132510Y0140027D01*
X0132616Y0140001D01*
X0132721Y0139971D01*
X0132826Y0139938D01*
X0132929Y0139902D01*
X0133031Y0139862D01*
X0133131Y0139819D01*
X0133231Y0139772D01*
X0133230Y0139772D02*
X0133282Y0139753D01*
X0133332Y0139730D01*
X0133380Y0139704D01*
X0133427Y0139675D01*
X0133472Y0139643D01*
X0133514Y0139608D01*
X0133554Y0139570D01*
X0133592Y0139530D01*
X0133627Y0139487D01*
X0133659Y0139442D01*
X0133688Y0139396D01*
X0133713Y0139347D01*
X0133736Y0139297D01*
X0133755Y0139245D01*
X0133771Y0139193D01*
X0133784Y0139139D01*
X0133793Y0139085D01*
X0133798Y0139030D01*
X0133800Y0138975D01*
X0133798Y0138920D01*
X0133793Y0138865D01*
X0133784Y0138811D01*
X0133771Y0138757D01*
X0133755Y0138705D01*
X0133736Y0138653D01*
X0133713Y0138603D01*
X0133688Y0138554D01*
X0133659Y0138508D01*
X0133627Y0138463D01*
X0133592Y0138420D01*
X0133554Y0138380D01*
X0133514Y0138342D01*
X0133472Y0138307D01*
X0133427Y0138275D01*
X0133380Y0138246D01*
X0133332Y0138220D01*
X0133282Y0138197D01*
X0133230Y0138178D01*
X0133800Y0136064D02*
X0133800Y0133786D01*
X0131522Y0135722D01*
X0129700Y0135039D02*
X0129702Y0134970D01*
X0129707Y0134901D01*
X0129716Y0134833D01*
X0129729Y0134765D01*
X0129745Y0134698D01*
X0129765Y0134632D01*
X0129788Y0134567D01*
X0129814Y0134503D01*
X0129844Y0134441D01*
X0129877Y0134380D01*
X0129913Y0134321D01*
X0129952Y0134264D01*
X0129994Y0134210D01*
X0130039Y0134157D01*
X0130086Y0134107D01*
X0130136Y0134060D01*
X0130189Y0134015D01*
X0130244Y0133973D01*
X0130301Y0133934D01*
X0130359Y0133898D01*
X0130420Y0133865D01*
X0130482Y0133835D01*
X0130546Y0133809D01*
X0130611Y0133786D01*
X0131522Y0135722D02*
X0131477Y0135767D01*
X0131429Y0135809D01*
X0131379Y0135849D01*
X0131327Y0135885D01*
X0131273Y0135918D01*
X0131216Y0135948D01*
X0131159Y0135975D01*
X0131099Y0135998D01*
X0131039Y0136018D01*
X0130977Y0136035D01*
X0130915Y0136047D01*
X0130852Y0136057D01*
X0130789Y0136062D01*
X0130725Y0136064D01*
X0130663Y0136062D01*
X0130601Y0136057D01*
X0130540Y0136047D01*
X0130480Y0136034D01*
X0130420Y0136018D01*
X0130362Y0135997D01*
X0130304Y0135974D01*
X0130249Y0135947D01*
X0130195Y0135916D01*
X0130143Y0135883D01*
X0130093Y0135846D01*
X0130045Y0135806D01*
X0130000Y0135764D01*
X0129958Y0135719D01*
X0129918Y0135671D01*
X0129881Y0135621D01*
X0129848Y0135569D01*
X0129817Y0135515D01*
X0129790Y0135460D01*
X0129767Y0135402D01*
X0129746Y0135344D01*
X0129730Y0135284D01*
X0129717Y0135224D01*
X0129707Y0135163D01*
X0129702Y0135101D01*
X0129700Y0135039D01*
X0131067Y0127513D02*
X0131067Y0126602D01*
X0131069Y0126551D01*
X0131075Y0126500D01*
X0131084Y0126450D01*
X0131097Y0126401D01*
X0131114Y0126352D01*
X0131135Y0126306D01*
X0131159Y0126261D01*
X0131186Y0126217D01*
X0131216Y0126176D01*
X0131249Y0126137D01*
X0131285Y0126101D01*
X0131324Y0126068D01*
X0131365Y0126038D01*
X0131409Y0126011D01*
X0131454Y0125987D01*
X0131500Y0125966D01*
X0131549Y0125949D01*
X0131598Y0125936D01*
X0131648Y0125927D01*
X0131699Y0125921D01*
X0131750Y0125919D01*
X0133117Y0125919D01*
X0133168Y0125921D01*
X0133219Y0125927D01*
X0133269Y0125936D01*
X0133318Y0125949D01*
X0133367Y0125966D01*
X0133413Y0125987D01*
X0133459Y0126011D01*
X0133502Y0126038D01*
X0133543Y0126068D01*
X0133582Y0126101D01*
X0133618Y0126137D01*
X0133651Y0126176D01*
X0133681Y0126217D01*
X0133708Y0126261D01*
X0133732Y0126306D01*
X0133753Y0126352D01*
X0133770Y0126401D01*
X0133783Y0126450D01*
X0133792Y0126500D01*
X0133798Y0126551D01*
X0133800Y0126602D01*
X0133800Y0127513D01*
X0134256Y0124321D02*
X0134160Y0124243D01*
X0134061Y0124168D01*
X0133960Y0124097D01*
X0133857Y0124028D01*
X0133752Y0123963D01*
X0133645Y0123901D01*
X0133536Y0123843D01*
X0133425Y0123788D01*
X0133313Y0123737D01*
X0133199Y0123689D01*
X0133083Y0123645D01*
X0132966Y0123604D01*
X0132848Y0123568D01*
X0132729Y0123535D01*
X0132609Y0123506D01*
X0132488Y0123480D01*
X0132366Y0123459D01*
X0132243Y0123441D01*
X0132121Y0123428D01*
X0131997Y0123418D01*
X0131874Y0123412D01*
X0131750Y0123410D01*
X0129244Y0128924D02*
X0129340Y0129002D01*
X0129439Y0129077D01*
X0129540Y0129148D01*
X0129643Y0129217D01*
X0129748Y0129282D01*
X0129855Y0129344D01*
X0129964Y0129402D01*
X0130075Y0129457D01*
X0130187Y0129508D01*
X0130301Y0129556D01*
X0130417Y0129600D01*
X0130534Y0129641D01*
X0130652Y0129677D01*
X0130771Y0129710D01*
X0130891Y0129739D01*
X0131012Y0129765D01*
X0131134Y0129786D01*
X0131257Y0129804D01*
X0131380Y0129817D01*
X0131503Y0129827D01*
X0131626Y0129833D01*
X0131750Y0129835D01*
X0129244Y0124321D02*
X0129340Y0124243D01*
X0129439Y0124168D01*
X0129540Y0124097D01*
X0129643Y0124028D01*
X0129748Y0123963D01*
X0129855Y0123901D01*
X0129964Y0123843D01*
X0130075Y0123788D01*
X0130187Y0123737D01*
X0130301Y0123689D01*
X0130417Y0123645D01*
X0130534Y0123604D01*
X0130652Y0123568D01*
X0130771Y0123535D01*
X0130891Y0123506D01*
X0131012Y0123480D01*
X0131134Y0123459D01*
X0131257Y0123441D01*
X0131379Y0123428D01*
X0131503Y0123418D01*
X0131626Y0123412D01*
X0131750Y0123410D01*
X0134256Y0128924D02*
X0134160Y0129002D01*
X0134061Y0129077D01*
X0133960Y0129148D01*
X0133857Y0129217D01*
X0133752Y0129282D01*
X0133645Y0129344D01*
X0133536Y0129402D01*
X0133425Y0129457D01*
X0133313Y0129508D01*
X0133199Y0129556D01*
X0133083Y0129600D01*
X0132966Y0129641D01*
X0132848Y0129677D01*
X0132729Y0129710D01*
X0132609Y0129739D01*
X0132488Y0129765D01*
X0132366Y0129786D01*
X0132243Y0129804D01*
X0132121Y0129817D01*
X0131997Y0129827D01*
X0131874Y0129833D01*
X0131750Y0129835D01*
X0114594Y0102966D02*
X0113705Y0101855D01*
X0113760Y0101689D02*
X0113775Y0101652D01*
X0113793Y0101617D01*
X0113814Y0101584D01*
X0113838Y0101553D01*
X0113865Y0101525D01*
X0113894Y0101499D01*
X0113926Y0101477D01*
X0113960Y0101457D01*
X0113996Y0101441D01*
X0114033Y0101428D01*
X0114071Y0101418D01*
X0114110Y0101413D01*
X0114149Y0101411D01*
X0114188Y0101413D01*
X0114227Y0101418D01*
X0114265Y0101428D01*
X0114302Y0101441D01*
X0114338Y0101457D01*
X0114372Y0101477D01*
X0114404Y0101499D01*
X0114433Y0101525D01*
X0114460Y0101553D01*
X0114484Y0101584D01*
X0114505Y0101617D01*
X0114523Y0101652D01*
X0114538Y0101689D01*
X0113594Y0102411D02*
X0113596Y0102486D01*
X0113601Y0102560D01*
X0113609Y0102635D01*
X0113621Y0102708D01*
X0113636Y0102782D01*
X0113655Y0102854D01*
X0113676Y0102926D01*
X0113701Y0102996D01*
X0113729Y0103065D01*
X0113761Y0103133D01*
X0114149Y0103411D02*
X0114188Y0103409D01*
X0114227Y0103404D01*
X0114265Y0103394D01*
X0114302Y0103381D01*
X0114338Y0103365D01*
X0114372Y0103345D01*
X0114404Y0103323D01*
X0114433Y0103297D01*
X0114460Y0103269D01*
X0114484Y0103238D01*
X0114505Y0103205D01*
X0114523Y0103170D01*
X0114538Y0103133D01*
X0114149Y0103411D02*
X0114110Y0103409D01*
X0114071Y0103404D01*
X0114033Y0103394D01*
X0113996Y0103381D01*
X0113960Y0103365D01*
X0113926Y0103345D01*
X0113894Y0103323D01*
X0113865Y0103297D01*
X0113838Y0103269D01*
X0113814Y0103238D01*
X0113793Y0103205D01*
X0113775Y0103170D01*
X0113760Y0103133D01*
X0114538Y0103133D02*
X0114570Y0103065D01*
X0114598Y0102996D01*
X0114623Y0102926D01*
X0114644Y0102854D01*
X0114663Y0102782D01*
X0114678Y0102708D01*
X0114690Y0102635D01*
X0114698Y0102560D01*
X0114703Y0102486D01*
X0114705Y0102411D01*
X0113594Y0102411D02*
X0113596Y0102336D01*
X0113601Y0102262D01*
X0113609Y0102187D01*
X0113621Y0102114D01*
X0113636Y0102040D01*
X0113655Y0101968D01*
X0113676Y0101897D01*
X0113701Y0101826D01*
X0113729Y0101757D01*
X0113761Y0101689D01*
X0114538Y0101689D02*
X0114570Y0101757D01*
X0114598Y0101826D01*
X0114623Y0101896D01*
X0114644Y0101968D01*
X0114663Y0102040D01*
X0114678Y0102114D01*
X0114690Y0102187D01*
X0114698Y0102262D01*
X0114703Y0102336D01*
X0114705Y0102411D01*
X0112378Y0102522D02*
X0111434Y0101411D01*
X0112545Y0101411D01*
X0111434Y0102966D02*
X0111451Y0103010D01*
X0111470Y0103054D01*
X0111493Y0103095D01*
X0111518Y0103135D01*
X0111547Y0103173D01*
X0111578Y0103209D01*
X0111612Y0103242D01*
X0111648Y0103273D01*
X0111687Y0103301D01*
X0111727Y0103326D01*
X0111769Y0103348D01*
X0111813Y0103367D01*
X0111858Y0103382D01*
X0111904Y0103394D01*
X0111950Y0103403D01*
X0111998Y0103408D01*
X0112045Y0103410D01*
X0112045Y0103411D02*
X0112089Y0103409D01*
X0112132Y0103403D01*
X0112174Y0103394D01*
X0112216Y0103381D01*
X0112256Y0103364D01*
X0112295Y0103344D01*
X0112332Y0103321D01*
X0112366Y0103294D01*
X0112399Y0103265D01*
X0112428Y0103232D01*
X0112455Y0103198D01*
X0112478Y0103161D01*
X0112498Y0103122D01*
X0112515Y0103082D01*
X0112528Y0103040D01*
X0112537Y0102998D01*
X0112543Y0102955D01*
X0112545Y0102911D01*
X0112543Y0102868D01*
X0112538Y0102824D01*
X0112529Y0102782D01*
X0112517Y0102740D01*
X0112502Y0102699D01*
X0112483Y0102660D01*
X0112461Y0102623D01*
X0112436Y0102587D01*
X0112409Y0102553D01*
X0112378Y0102522D01*
X0110406Y0101411D02*
X0109962Y0102300D01*
X0109851Y0102300D02*
X0109295Y0102300D01*
X0109851Y0102299D02*
X0109897Y0102301D01*
X0109943Y0102307D01*
X0109987Y0102316D01*
X0110032Y0102329D01*
X0110074Y0102346D01*
X0110116Y0102366D01*
X0110155Y0102390D01*
X0110193Y0102416D01*
X0110228Y0102446D01*
X0110260Y0102478D01*
X0110290Y0102513D01*
X0110316Y0102551D01*
X0110340Y0102590D01*
X0110360Y0102632D01*
X0110377Y0102674D01*
X0110390Y0102719D01*
X0110399Y0102763D01*
X0110405Y0102809D01*
X0110407Y0102855D01*
X0110405Y0102901D01*
X0110399Y0102947D01*
X0110390Y0102991D01*
X0110377Y0103036D01*
X0110360Y0103078D01*
X0110340Y0103120D01*
X0110316Y0103159D01*
X0110290Y0103197D01*
X0110260Y0103232D01*
X0110228Y0103264D01*
X0110193Y0103294D01*
X0110155Y0103320D01*
X0110116Y0103344D01*
X0110074Y0103364D01*
X0110032Y0103381D01*
X0109987Y0103394D01*
X0109943Y0103403D01*
X0109897Y0103409D01*
X0109851Y0103411D01*
X0109295Y0103411D01*
X0109295Y0101411D01*
X0108149Y0091011D02*
X0108149Y0089011D01*
X0107594Y0089011D02*
X0108705Y0089011D01*
X0107594Y0090566D02*
X0108149Y0091011D01*
X0106378Y0090122D02*
X0105434Y0089011D01*
X0106545Y0089011D01*
X0105434Y0090566D02*
X0105451Y0090610D01*
X0105470Y0090654D01*
X0105493Y0090695D01*
X0105518Y0090735D01*
X0105547Y0090773D01*
X0105578Y0090809D01*
X0105612Y0090842D01*
X0105648Y0090873D01*
X0105687Y0090901D01*
X0105727Y0090926D01*
X0105769Y0090948D01*
X0105813Y0090967D01*
X0105858Y0090982D01*
X0105904Y0090994D01*
X0105950Y0091003D01*
X0105998Y0091008D01*
X0106045Y0091010D01*
X0106045Y0091011D02*
X0106089Y0091009D01*
X0106132Y0091003D01*
X0106174Y0090994D01*
X0106216Y0090981D01*
X0106256Y0090964D01*
X0106295Y0090944D01*
X0106332Y0090921D01*
X0106366Y0090894D01*
X0106399Y0090865D01*
X0106428Y0090832D01*
X0106455Y0090798D01*
X0106478Y0090761D01*
X0106498Y0090722D01*
X0106515Y0090682D01*
X0106528Y0090640D01*
X0106537Y0090598D01*
X0106543Y0090555D01*
X0106545Y0090511D01*
X0106543Y0090468D01*
X0106538Y0090424D01*
X0106529Y0090382D01*
X0106517Y0090340D01*
X0106502Y0090299D01*
X0106483Y0090260D01*
X0106461Y0090223D01*
X0106436Y0090187D01*
X0106409Y0090153D01*
X0106378Y0090122D01*
X0104406Y0089011D02*
X0103962Y0089900D01*
X0103851Y0089900D02*
X0103295Y0089900D01*
X0103851Y0089899D02*
X0103897Y0089901D01*
X0103943Y0089907D01*
X0103987Y0089916D01*
X0104032Y0089929D01*
X0104074Y0089946D01*
X0104116Y0089966D01*
X0104155Y0089990D01*
X0104193Y0090016D01*
X0104228Y0090046D01*
X0104260Y0090078D01*
X0104290Y0090113D01*
X0104316Y0090151D01*
X0104340Y0090190D01*
X0104360Y0090232D01*
X0104377Y0090274D01*
X0104390Y0090319D01*
X0104399Y0090363D01*
X0104405Y0090409D01*
X0104407Y0090455D01*
X0104405Y0090501D01*
X0104399Y0090547D01*
X0104390Y0090591D01*
X0104377Y0090636D01*
X0104360Y0090678D01*
X0104340Y0090720D01*
X0104316Y0090759D01*
X0104290Y0090797D01*
X0104260Y0090832D01*
X0104228Y0090864D01*
X0104193Y0090894D01*
X0104155Y0090920D01*
X0104116Y0090944D01*
X0104074Y0090964D01*
X0104032Y0090981D01*
X0103987Y0090994D01*
X0103943Y0091003D01*
X0103897Y0091009D01*
X0103851Y0091011D01*
X0103295Y0091011D01*
X0103295Y0089011D01*
X0110800Y0117506D02*
X0110800Y0118061D01*
X0110800Y0117506D02*
X0112800Y0117506D01*
X0111911Y0117506D02*
X0111911Y0118061D01*
X0111911Y0118172D02*
X0112800Y0118617D01*
X0112800Y0119644D02*
X0112800Y0120755D01*
X0112800Y0120200D02*
X0110800Y0120200D01*
X0111244Y0119644D01*
X0110800Y0118061D02*
X0110802Y0118107D01*
X0110808Y0118153D01*
X0110817Y0118197D01*
X0110830Y0118242D01*
X0110847Y0118284D01*
X0110867Y0118326D01*
X0110891Y0118365D01*
X0110917Y0118403D01*
X0110947Y0118438D01*
X0110979Y0118470D01*
X0111014Y0118500D01*
X0111052Y0118526D01*
X0111091Y0118550D01*
X0111133Y0118570D01*
X0111175Y0118587D01*
X0111220Y0118600D01*
X0111264Y0118609D01*
X0111310Y0118615D01*
X0111356Y0118617D01*
X0111402Y0118615D01*
X0111448Y0118609D01*
X0111492Y0118600D01*
X0111537Y0118587D01*
X0111579Y0118570D01*
X0111621Y0118550D01*
X0111660Y0118526D01*
X0111698Y0118500D01*
X0111733Y0118470D01*
X0111765Y0118438D01*
X0111795Y0118403D01*
X0111821Y0118365D01*
X0111845Y0118326D01*
X0111865Y0118284D01*
X0111882Y0118242D01*
X0111895Y0118197D01*
X0111904Y0118153D01*
X0111910Y0118107D01*
X0111912Y0118061D01*
X0111022Y0121804D02*
X0110800Y0121804D01*
X0110800Y0122915D01*
X0112800Y0122360D01*
X0090946Y0151092D02*
X0090279Y0151092D01*
X0090946Y0151092D02*
X0090987Y0151094D01*
X0091028Y0151100D01*
X0091068Y0151109D01*
X0091106Y0151122D01*
X0091144Y0151139D01*
X0091180Y0151159D01*
X0091214Y0151182D01*
X0091245Y0151208D01*
X0091274Y0151237D01*
X0091300Y0151268D01*
X0091323Y0151302D01*
X0091343Y0151338D01*
X0091360Y0151376D01*
X0091373Y0151414D01*
X0091382Y0151454D01*
X0091388Y0151495D01*
X0091390Y0151536D01*
X0091390Y0151758D01*
X0091388Y0151799D01*
X0091382Y0151840D01*
X0091373Y0151880D01*
X0091360Y0151918D01*
X0091343Y0151956D01*
X0091323Y0151992D01*
X0091300Y0152026D01*
X0091274Y0152057D01*
X0091245Y0152086D01*
X0091214Y0152112D01*
X0091180Y0152135D01*
X0091144Y0152155D01*
X0091106Y0152172D01*
X0091068Y0152185D01*
X0091028Y0152194D01*
X0090987Y0152200D01*
X0090946Y0152202D01*
X0090946Y0152203D02*
X0090279Y0152203D01*
X0090279Y0153092D01*
X0091390Y0153092D01*
X0089080Y0151925D02*
X0088469Y0152258D01*
X0088691Y0153091D02*
X0088745Y0153089D01*
X0088798Y0153084D01*
X0088851Y0153076D01*
X0088903Y0153064D01*
X0088954Y0153048D01*
X0089005Y0153030D01*
X0089054Y0153008D01*
X0089101Y0152983D01*
X0089147Y0152955D01*
X0089191Y0152924D01*
X0088469Y0152258D02*
X0088436Y0152280D01*
X0088406Y0152304D01*
X0088377Y0152330D01*
X0088351Y0152359D01*
X0088327Y0152390D01*
X0088306Y0152423D01*
X0088289Y0152458D01*
X0088274Y0152494D01*
X0088262Y0152531D01*
X0088254Y0152569D01*
X0088249Y0152608D01*
X0088247Y0152647D01*
X0088249Y0152688D01*
X0088255Y0152729D01*
X0088264Y0152769D01*
X0088277Y0152807D01*
X0088294Y0152845D01*
X0088314Y0152881D01*
X0088337Y0152915D01*
X0088363Y0152946D01*
X0088392Y0152975D01*
X0088423Y0153001D01*
X0088457Y0153025D01*
X0088493Y0153044D01*
X0088531Y0153061D01*
X0088570Y0153074D01*
X0088609Y0153083D01*
X0088650Y0153089D01*
X0088691Y0153091D01*
X0088191Y0151370D02*
X0088233Y0151331D01*
X0088276Y0151294D01*
X0088322Y0151260D01*
X0088370Y0151229D01*
X0088419Y0151201D01*
X0088471Y0151176D01*
X0088523Y0151154D01*
X0088577Y0151135D01*
X0088632Y0151120D01*
X0088688Y0151108D01*
X0088744Y0151099D01*
X0088801Y0151094D01*
X0088858Y0151092D01*
X0088899Y0151094D01*
X0088940Y0151100D01*
X0088980Y0151109D01*
X0089018Y0151122D01*
X0089056Y0151139D01*
X0089092Y0151159D01*
X0089126Y0151182D01*
X0089157Y0151208D01*
X0089186Y0151237D01*
X0089212Y0151268D01*
X0089235Y0151302D01*
X0089255Y0151338D01*
X0089272Y0151376D01*
X0089285Y0151414D01*
X0089294Y0151454D01*
X0089300Y0151495D01*
X0089302Y0151536D01*
X0089300Y0151575D01*
X0089295Y0151614D01*
X0089287Y0151652D01*
X0089275Y0151689D01*
X0089260Y0151725D01*
X0089243Y0151760D01*
X0089222Y0151793D01*
X0089198Y0151824D01*
X0089172Y0151853D01*
X0089143Y0151879D01*
X0089113Y0151903D01*
X0089080Y0151925D01*
X0086780Y0151981D02*
X0086225Y0151981D01*
X0086780Y0151980D02*
X0086826Y0151982D01*
X0086872Y0151988D01*
X0086916Y0151997D01*
X0086961Y0152010D01*
X0087003Y0152027D01*
X0087045Y0152047D01*
X0087084Y0152071D01*
X0087122Y0152097D01*
X0087157Y0152127D01*
X0087189Y0152159D01*
X0087219Y0152194D01*
X0087245Y0152232D01*
X0087269Y0152271D01*
X0087289Y0152313D01*
X0087306Y0152355D01*
X0087319Y0152400D01*
X0087328Y0152444D01*
X0087334Y0152490D01*
X0087336Y0152536D01*
X0087334Y0152582D01*
X0087328Y0152628D01*
X0087319Y0152672D01*
X0087306Y0152717D01*
X0087289Y0152759D01*
X0087269Y0152801D01*
X0087245Y0152840D01*
X0087219Y0152878D01*
X0087189Y0152913D01*
X0087157Y0152945D01*
X0087122Y0152975D01*
X0087084Y0153001D01*
X0087045Y0153025D01*
X0087003Y0153045D01*
X0086961Y0153062D01*
X0086916Y0153075D01*
X0086872Y0153084D01*
X0086826Y0153090D01*
X0086780Y0153092D01*
X0086225Y0153092D01*
X0086225Y0151092D01*
X0085183Y0151092D02*
X0084738Y0151092D01*
X0084697Y0151094D01*
X0084656Y0151100D01*
X0084616Y0151109D01*
X0084578Y0151122D01*
X0084540Y0151139D01*
X0084504Y0151159D01*
X0084470Y0151182D01*
X0084439Y0151208D01*
X0084410Y0151237D01*
X0084384Y0151268D01*
X0084361Y0151302D01*
X0084341Y0151338D01*
X0084324Y0151376D01*
X0084311Y0151414D01*
X0084302Y0151454D01*
X0084296Y0151495D01*
X0084294Y0151536D01*
X0084294Y0152647D01*
X0084296Y0152688D01*
X0084302Y0152729D01*
X0084311Y0152769D01*
X0084324Y0152807D01*
X0084341Y0152845D01*
X0084361Y0152881D01*
X0084384Y0152915D01*
X0084410Y0152946D01*
X0084439Y0152975D01*
X0084470Y0153001D01*
X0084504Y0153024D01*
X0084540Y0153044D01*
X0084578Y0153061D01*
X0084616Y0153074D01*
X0084656Y0153083D01*
X0084697Y0153089D01*
X0084738Y0153091D01*
X0084738Y0153092D02*
X0085183Y0153092D01*
X0085183Y0164092D02*
X0084738Y0164092D01*
X0084697Y0164094D01*
X0084656Y0164100D01*
X0084616Y0164109D01*
X0084578Y0164122D01*
X0084540Y0164139D01*
X0084504Y0164159D01*
X0084470Y0164182D01*
X0084439Y0164208D01*
X0084410Y0164237D01*
X0084384Y0164268D01*
X0084361Y0164302D01*
X0084341Y0164338D01*
X0084324Y0164376D01*
X0084311Y0164414D01*
X0084302Y0164454D01*
X0084296Y0164495D01*
X0084294Y0164536D01*
X0084294Y0165647D01*
X0084296Y0165688D01*
X0084302Y0165729D01*
X0084311Y0165769D01*
X0084324Y0165807D01*
X0084341Y0165845D01*
X0084361Y0165881D01*
X0084384Y0165915D01*
X0084410Y0165946D01*
X0084439Y0165975D01*
X0084470Y0166001D01*
X0084504Y0166024D01*
X0084540Y0166044D01*
X0084578Y0166061D01*
X0084616Y0166074D01*
X0084656Y0166083D01*
X0084697Y0166089D01*
X0084738Y0166091D01*
X0084738Y0166092D02*
X0085183Y0166092D01*
X0086225Y0166092D02*
X0086225Y0164092D01*
X0086225Y0164981D02*
X0086780Y0164981D01*
X0086780Y0164980D02*
X0086826Y0164982D01*
X0086872Y0164988D01*
X0086916Y0164997D01*
X0086961Y0165010D01*
X0087003Y0165027D01*
X0087045Y0165047D01*
X0087084Y0165071D01*
X0087122Y0165097D01*
X0087157Y0165127D01*
X0087189Y0165159D01*
X0087219Y0165194D01*
X0087245Y0165232D01*
X0087269Y0165271D01*
X0087289Y0165313D01*
X0087306Y0165355D01*
X0087319Y0165400D01*
X0087328Y0165444D01*
X0087334Y0165490D01*
X0087336Y0165536D01*
X0087334Y0165582D01*
X0087328Y0165628D01*
X0087319Y0165672D01*
X0087306Y0165717D01*
X0087289Y0165759D01*
X0087269Y0165801D01*
X0087245Y0165840D01*
X0087219Y0165878D01*
X0087189Y0165913D01*
X0087157Y0165945D01*
X0087122Y0165975D01*
X0087084Y0166001D01*
X0087045Y0166025D01*
X0087003Y0166045D01*
X0086961Y0166062D01*
X0086916Y0166075D01*
X0086872Y0166084D01*
X0086826Y0166090D01*
X0086780Y0166092D01*
X0086225Y0166092D01*
X0088469Y0165258D02*
X0089080Y0164925D01*
X0088858Y0164092D02*
X0088801Y0164094D01*
X0088744Y0164099D01*
X0088688Y0164108D01*
X0088632Y0164120D01*
X0088577Y0164135D01*
X0088523Y0164154D01*
X0088471Y0164176D01*
X0088419Y0164201D01*
X0088370Y0164229D01*
X0088322Y0164260D01*
X0088276Y0164294D01*
X0088233Y0164331D01*
X0088191Y0164370D01*
X0089080Y0164925D02*
X0089113Y0164903D01*
X0089143Y0164879D01*
X0089172Y0164853D01*
X0089198Y0164824D01*
X0089222Y0164793D01*
X0089243Y0164760D01*
X0089260Y0164725D01*
X0089275Y0164689D01*
X0089287Y0164652D01*
X0089295Y0164614D01*
X0089300Y0164575D01*
X0089302Y0164536D01*
X0089300Y0164495D01*
X0089294Y0164454D01*
X0089285Y0164414D01*
X0089272Y0164376D01*
X0089255Y0164338D01*
X0089235Y0164302D01*
X0089212Y0164268D01*
X0089186Y0164237D01*
X0089157Y0164208D01*
X0089126Y0164182D01*
X0089092Y0164159D01*
X0089056Y0164139D01*
X0089018Y0164122D01*
X0088980Y0164109D01*
X0088940Y0164100D01*
X0088899Y0164094D01*
X0088858Y0164092D01*
X0089191Y0165924D02*
X0089147Y0165955D01*
X0089101Y0165983D01*
X0089054Y0166008D01*
X0089005Y0166030D01*
X0088954Y0166048D01*
X0088903Y0166064D01*
X0088851Y0166076D01*
X0088798Y0166084D01*
X0088745Y0166089D01*
X0088691Y0166091D01*
X0088650Y0166089D01*
X0088609Y0166083D01*
X0088570Y0166074D01*
X0088531Y0166061D01*
X0088493Y0166044D01*
X0088457Y0166025D01*
X0088423Y0166001D01*
X0088392Y0165975D01*
X0088363Y0165946D01*
X0088337Y0165915D01*
X0088314Y0165881D01*
X0088294Y0165845D01*
X0088277Y0165807D01*
X0088264Y0165769D01*
X0088255Y0165729D01*
X0088249Y0165688D01*
X0088247Y0165647D01*
X0088249Y0165608D01*
X0088254Y0165569D01*
X0088262Y0165531D01*
X0088274Y0165494D01*
X0088289Y0165458D01*
X0088306Y0165423D01*
X0088327Y0165390D01*
X0088351Y0165359D01*
X0088377Y0165330D01*
X0088406Y0165304D01*
X0088436Y0165280D01*
X0088469Y0165258D01*
X0090279Y0165647D02*
X0090835Y0166092D01*
X0090835Y0164092D01*
X0091390Y0164092D02*
X0090279Y0164092D01*
X0071919Y0137911D02*
X0071963Y0137909D01*
X0072006Y0137903D01*
X0072048Y0137894D01*
X0072090Y0137881D01*
X0072130Y0137864D01*
X0072169Y0137844D01*
X0072206Y0137821D01*
X0072240Y0137794D01*
X0072273Y0137765D01*
X0072302Y0137732D01*
X0072329Y0137698D01*
X0072352Y0137661D01*
X0072372Y0137622D01*
X0072389Y0137582D01*
X0072402Y0137540D01*
X0072411Y0137498D01*
X0072417Y0137455D01*
X0072419Y0137411D01*
X0072252Y0137022D02*
X0071308Y0135911D01*
X0072419Y0135911D01*
X0071308Y0137466D02*
X0071325Y0137510D01*
X0071344Y0137554D01*
X0071367Y0137595D01*
X0071392Y0137635D01*
X0071421Y0137673D01*
X0071452Y0137709D01*
X0071486Y0137742D01*
X0071522Y0137773D01*
X0071561Y0137801D01*
X0071601Y0137826D01*
X0071643Y0137848D01*
X0071687Y0137867D01*
X0071732Y0137882D01*
X0071778Y0137894D01*
X0071824Y0137903D01*
X0071872Y0137908D01*
X0071919Y0137910D01*
X0072419Y0137411D02*
X0072417Y0137368D01*
X0072412Y0137324D01*
X0072403Y0137282D01*
X0072391Y0137240D01*
X0072376Y0137199D01*
X0072357Y0137160D01*
X0072335Y0137123D01*
X0072310Y0137087D01*
X0072283Y0137053D01*
X0072252Y0137022D01*
X0070109Y0136744D02*
X0069498Y0137077D01*
X0069720Y0137910D02*
X0069774Y0137908D01*
X0069827Y0137903D01*
X0069880Y0137895D01*
X0069932Y0137883D01*
X0069983Y0137867D01*
X0070034Y0137849D01*
X0070083Y0137827D01*
X0070130Y0137802D01*
X0070176Y0137774D01*
X0070220Y0137743D01*
X0069498Y0137077D02*
X0069465Y0137099D01*
X0069435Y0137123D01*
X0069406Y0137149D01*
X0069380Y0137178D01*
X0069356Y0137209D01*
X0069335Y0137242D01*
X0069318Y0137277D01*
X0069303Y0137313D01*
X0069291Y0137350D01*
X0069283Y0137388D01*
X0069278Y0137427D01*
X0069276Y0137466D01*
X0069278Y0137507D01*
X0069284Y0137548D01*
X0069293Y0137588D01*
X0069306Y0137626D01*
X0069323Y0137664D01*
X0069343Y0137700D01*
X0069366Y0137734D01*
X0069392Y0137765D01*
X0069421Y0137794D01*
X0069452Y0137820D01*
X0069486Y0137844D01*
X0069522Y0137863D01*
X0069560Y0137880D01*
X0069599Y0137893D01*
X0069638Y0137902D01*
X0069679Y0137908D01*
X0069720Y0137910D01*
X0069220Y0136189D02*
X0069262Y0136150D01*
X0069305Y0136113D01*
X0069351Y0136079D01*
X0069399Y0136048D01*
X0069448Y0136020D01*
X0069500Y0135995D01*
X0069552Y0135973D01*
X0069606Y0135954D01*
X0069661Y0135939D01*
X0069717Y0135927D01*
X0069773Y0135918D01*
X0069830Y0135913D01*
X0069887Y0135911D01*
X0069928Y0135913D01*
X0069969Y0135919D01*
X0070009Y0135928D01*
X0070047Y0135941D01*
X0070085Y0135958D01*
X0070121Y0135978D01*
X0070155Y0136001D01*
X0070186Y0136027D01*
X0070215Y0136056D01*
X0070241Y0136087D01*
X0070264Y0136121D01*
X0070284Y0136157D01*
X0070301Y0136195D01*
X0070314Y0136233D01*
X0070323Y0136273D01*
X0070329Y0136314D01*
X0070331Y0136355D01*
X0070329Y0136394D01*
X0070324Y0136433D01*
X0070316Y0136471D01*
X0070304Y0136508D01*
X0070289Y0136544D01*
X0070272Y0136579D01*
X0070251Y0136612D01*
X0070227Y0136643D01*
X0070201Y0136672D01*
X0070172Y0136698D01*
X0070142Y0136722D01*
X0070109Y0136744D01*
X0067809Y0136800D02*
X0067253Y0136800D01*
X0067809Y0136799D02*
X0067855Y0136801D01*
X0067901Y0136807D01*
X0067945Y0136816D01*
X0067990Y0136829D01*
X0068032Y0136846D01*
X0068074Y0136866D01*
X0068113Y0136890D01*
X0068151Y0136916D01*
X0068186Y0136946D01*
X0068218Y0136978D01*
X0068248Y0137013D01*
X0068274Y0137051D01*
X0068298Y0137090D01*
X0068318Y0137132D01*
X0068335Y0137174D01*
X0068348Y0137219D01*
X0068357Y0137263D01*
X0068363Y0137309D01*
X0068365Y0137355D01*
X0068363Y0137401D01*
X0068357Y0137447D01*
X0068348Y0137491D01*
X0068335Y0137536D01*
X0068318Y0137578D01*
X0068298Y0137620D01*
X0068274Y0137659D01*
X0068248Y0137697D01*
X0068218Y0137732D01*
X0068186Y0137764D01*
X0068151Y0137794D01*
X0068113Y0137820D01*
X0068074Y0137844D01*
X0068032Y0137864D01*
X0067990Y0137881D01*
X0067945Y0137894D01*
X0067901Y0137903D01*
X0067855Y0137909D01*
X0067809Y0137911D01*
X0067253Y0137911D01*
X0067253Y0135911D01*
X0066011Y0136466D02*
X0066011Y0137355D01*
X0066012Y0137355D02*
X0066010Y0137401D01*
X0066004Y0137447D01*
X0065995Y0137491D01*
X0065982Y0137536D01*
X0065965Y0137578D01*
X0065945Y0137620D01*
X0065921Y0137659D01*
X0065895Y0137697D01*
X0065865Y0137732D01*
X0065833Y0137764D01*
X0065798Y0137794D01*
X0065760Y0137820D01*
X0065721Y0137844D01*
X0065679Y0137864D01*
X0065637Y0137881D01*
X0065592Y0137894D01*
X0065548Y0137903D01*
X0065502Y0137909D01*
X0065456Y0137911D01*
X0064900Y0137911D01*
X0064900Y0135911D01*
X0065456Y0135911D01*
X0065456Y0135910D02*
X0065502Y0135912D01*
X0065548Y0135918D01*
X0065592Y0135927D01*
X0065637Y0135940D01*
X0065679Y0135957D01*
X0065721Y0135977D01*
X0065760Y0136001D01*
X0065797Y0136027D01*
X0065833Y0136057D01*
X0065865Y0136089D01*
X0065895Y0136124D01*
X0065921Y0136162D01*
X0065945Y0136201D01*
X0065965Y0136243D01*
X0065982Y0136285D01*
X0065995Y0136330D01*
X0066004Y0136374D01*
X0066010Y0136420D01*
X0066012Y0136466D01*
X0067300Y0118130D02*
X0067300Y0117019D01*
X0067300Y0117574D02*
X0065300Y0117574D01*
X0065744Y0117019D01*
X0066467Y0115819D02*
X0066133Y0115208D01*
X0065300Y0115431D02*
X0065302Y0115485D01*
X0065307Y0115538D01*
X0065315Y0115591D01*
X0065327Y0115643D01*
X0065343Y0115694D01*
X0065361Y0115745D01*
X0065383Y0115794D01*
X0065408Y0115841D01*
X0065436Y0115887D01*
X0065467Y0115931D01*
X0066133Y0115209D02*
X0066111Y0115176D01*
X0066087Y0115146D01*
X0066061Y0115117D01*
X0066032Y0115091D01*
X0066001Y0115067D01*
X0065968Y0115046D01*
X0065933Y0115029D01*
X0065897Y0115014D01*
X0065860Y0115002D01*
X0065822Y0114994D01*
X0065783Y0114989D01*
X0065744Y0114987D01*
X0065703Y0114989D01*
X0065662Y0114995D01*
X0065622Y0115004D01*
X0065584Y0115017D01*
X0065546Y0115034D01*
X0065510Y0115054D01*
X0065476Y0115077D01*
X0065445Y0115103D01*
X0065416Y0115132D01*
X0065390Y0115163D01*
X0065367Y0115197D01*
X0065347Y0115233D01*
X0065330Y0115271D01*
X0065317Y0115309D01*
X0065308Y0115349D01*
X0065302Y0115390D01*
X0065300Y0115431D01*
X0067022Y0114930D02*
X0067061Y0114972D01*
X0067098Y0115015D01*
X0067132Y0115061D01*
X0067163Y0115109D01*
X0067191Y0115158D01*
X0067216Y0115210D01*
X0067238Y0115262D01*
X0067257Y0115316D01*
X0067272Y0115371D01*
X0067284Y0115427D01*
X0067293Y0115483D01*
X0067298Y0115540D01*
X0067300Y0115597D01*
X0067298Y0115638D01*
X0067292Y0115679D01*
X0067283Y0115719D01*
X0067270Y0115757D01*
X0067253Y0115795D01*
X0067233Y0115831D01*
X0067210Y0115865D01*
X0067184Y0115896D01*
X0067155Y0115925D01*
X0067124Y0115951D01*
X0067090Y0115974D01*
X0067054Y0115994D01*
X0067016Y0116011D01*
X0066978Y0116024D01*
X0066938Y0116033D01*
X0066897Y0116039D01*
X0066856Y0116041D01*
X0066817Y0116039D01*
X0066778Y0116034D01*
X0066740Y0116026D01*
X0066703Y0116014D01*
X0066667Y0115999D01*
X0066632Y0115982D01*
X0066599Y0115961D01*
X0066568Y0115937D01*
X0066539Y0115911D01*
X0066513Y0115882D01*
X0066489Y0115852D01*
X0066467Y0115819D01*
X0066411Y0113520D02*
X0066411Y0112964D01*
X0066412Y0113520D02*
X0066410Y0113566D01*
X0066404Y0113612D01*
X0066395Y0113656D01*
X0066382Y0113701D01*
X0066365Y0113743D01*
X0066345Y0113785D01*
X0066321Y0113824D01*
X0066295Y0113862D01*
X0066265Y0113897D01*
X0066233Y0113929D01*
X0066198Y0113959D01*
X0066160Y0113985D01*
X0066121Y0114009D01*
X0066079Y0114029D01*
X0066037Y0114046D01*
X0065992Y0114059D01*
X0065948Y0114068D01*
X0065902Y0114074D01*
X0065856Y0114076D01*
X0065810Y0114074D01*
X0065764Y0114068D01*
X0065720Y0114059D01*
X0065675Y0114046D01*
X0065633Y0114029D01*
X0065591Y0114009D01*
X0065552Y0113985D01*
X0065514Y0113959D01*
X0065479Y0113929D01*
X0065447Y0113897D01*
X0065417Y0113862D01*
X0065391Y0113824D01*
X0065367Y0113785D01*
X0065347Y0113743D01*
X0065330Y0113701D01*
X0065317Y0113656D01*
X0065308Y0113612D01*
X0065302Y0113566D01*
X0065300Y0113520D01*
X0065300Y0112964D01*
X0067300Y0112964D01*
X0066744Y0111722D02*
X0065300Y0111722D01*
X0065300Y0110611D02*
X0066744Y0110611D01*
X0066744Y0110610D02*
X0066790Y0110612D01*
X0066836Y0110618D01*
X0066880Y0110627D01*
X0066925Y0110640D01*
X0066967Y0110657D01*
X0067009Y0110677D01*
X0067048Y0110701D01*
X0067086Y0110727D01*
X0067121Y0110757D01*
X0067153Y0110789D01*
X0067183Y0110824D01*
X0067209Y0110862D01*
X0067233Y0110901D01*
X0067253Y0110943D01*
X0067270Y0110985D01*
X0067283Y0111030D01*
X0067292Y0111074D01*
X0067298Y0111120D01*
X0067300Y0111166D01*
X0067298Y0111212D01*
X0067292Y0111258D01*
X0067283Y0111302D01*
X0067270Y0111347D01*
X0067253Y0111389D01*
X0067233Y0111431D01*
X0067209Y0111470D01*
X0067183Y0111508D01*
X0067153Y0111543D01*
X0067121Y0111575D01*
X0067086Y0111605D01*
X0067048Y0111631D01*
X0067009Y0111655D01*
X0066967Y0111675D01*
X0066925Y0111692D01*
X0066880Y0111705D01*
X0066836Y0111714D01*
X0066790Y0111720D01*
X0066744Y0111722D01*
X0050222Y0068067D02*
X0050154Y0068035D01*
X0050085Y0068007D01*
X0050014Y0067982D01*
X0049943Y0067961D01*
X0049871Y0067942D01*
X0049797Y0067927D01*
X0049724Y0067915D01*
X0049649Y0067907D01*
X0049575Y0067902D01*
X0049500Y0067900D01*
X0049500Y0069011D02*
X0049425Y0069009D01*
X0049351Y0069004D01*
X0049276Y0068996D01*
X0049203Y0068984D01*
X0049129Y0068969D01*
X0049057Y0068950D01*
X0048985Y0068929D01*
X0048915Y0068904D01*
X0048846Y0068876D01*
X0048778Y0068844D01*
X0048944Y0068900D02*
X0050056Y0068011D01*
X0050500Y0068455D02*
X0050498Y0068494D01*
X0050493Y0068533D01*
X0050483Y0068571D01*
X0050470Y0068608D01*
X0050454Y0068644D01*
X0050434Y0068678D01*
X0050412Y0068710D01*
X0050386Y0068739D01*
X0050358Y0068766D01*
X0050327Y0068790D01*
X0050294Y0068811D01*
X0050259Y0068829D01*
X0050222Y0068844D01*
X0050500Y0068455D02*
X0050498Y0068416D01*
X0050493Y0068377D01*
X0050483Y0068339D01*
X0050470Y0068302D01*
X0050454Y0068266D01*
X0050434Y0068232D01*
X0050412Y0068200D01*
X0050386Y0068171D01*
X0050358Y0068144D01*
X0050327Y0068120D01*
X0050294Y0068099D01*
X0050259Y0068081D01*
X0050222Y0068066D01*
X0050222Y0068844D02*
X0050154Y0068876D01*
X0050085Y0068904D01*
X0050015Y0068929D01*
X0049943Y0068950D01*
X0049871Y0068969D01*
X0049797Y0068984D01*
X0049724Y0068996D01*
X0049649Y0069004D01*
X0049575Y0069009D01*
X0049500Y0069011D01*
X0049500Y0067900D02*
X0049425Y0067902D01*
X0049351Y0067907D01*
X0049276Y0067915D01*
X0049203Y0067927D01*
X0049129Y0067942D01*
X0049057Y0067961D01*
X0048985Y0067982D01*
X0048915Y0068007D01*
X0048846Y0068035D01*
X0048778Y0068067D01*
X0048500Y0068455D02*
X0048502Y0068494D01*
X0048507Y0068533D01*
X0048517Y0068571D01*
X0048530Y0068608D01*
X0048546Y0068644D01*
X0048566Y0068678D01*
X0048588Y0068710D01*
X0048614Y0068739D01*
X0048642Y0068766D01*
X0048673Y0068790D01*
X0048706Y0068811D01*
X0048741Y0068829D01*
X0048778Y0068844D01*
X0048500Y0068455D02*
X0048502Y0068416D01*
X0048507Y0068377D01*
X0048517Y0068339D01*
X0048530Y0068302D01*
X0048546Y0068266D01*
X0048566Y0068232D01*
X0048588Y0068200D01*
X0048614Y0068171D01*
X0048642Y0068144D01*
X0048673Y0068120D01*
X0048706Y0068099D01*
X0048741Y0068081D01*
X0048778Y0068066D01*
X0049389Y0066684D02*
X0050500Y0065740D01*
X0050500Y0066851D01*
X0048944Y0065740D02*
X0048900Y0065757D01*
X0048856Y0065776D01*
X0048815Y0065799D01*
X0048775Y0065824D01*
X0048737Y0065853D01*
X0048701Y0065884D01*
X0048668Y0065918D01*
X0048637Y0065954D01*
X0048609Y0065993D01*
X0048584Y0066033D01*
X0048562Y0066075D01*
X0048543Y0066119D01*
X0048528Y0066164D01*
X0048516Y0066210D01*
X0048507Y0066256D01*
X0048502Y0066304D01*
X0048500Y0066351D01*
X0048502Y0066395D01*
X0048508Y0066438D01*
X0048517Y0066480D01*
X0048530Y0066522D01*
X0048547Y0066562D01*
X0048567Y0066601D01*
X0048590Y0066638D01*
X0048617Y0066672D01*
X0048646Y0066705D01*
X0048679Y0066734D01*
X0048713Y0066761D01*
X0048750Y0066784D01*
X0048789Y0066804D01*
X0048829Y0066821D01*
X0048871Y0066834D01*
X0048913Y0066843D01*
X0048956Y0066849D01*
X0049000Y0066851D01*
X0049043Y0066849D01*
X0049087Y0066844D01*
X0049129Y0066835D01*
X0049171Y0066823D01*
X0049212Y0066808D01*
X0049251Y0066789D01*
X0049288Y0066767D01*
X0049324Y0066742D01*
X0049358Y0066715D01*
X0049389Y0066684D01*
X0048500Y0064819D02*
X0048500Y0064374D01*
X0048502Y0064333D01*
X0048508Y0064292D01*
X0048517Y0064252D01*
X0048530Y0064214D01*
X0048547Y0064176D01*
X0048567Y0064140D01*
X0048590Y0064106D01*
X0048616Y0064075D01*
X0048645Y0064046D01*
X0048676Y0064020D01*
X0048710Y0063996D01*
X0048746Y0063977D01*
X0048784Y0063960D01*
X0048822Y0063947D01*
X0048862Y0063938D01*
X0048903Y0063932D01*
X0048944Y0063930D01*
X0050056Y0063930D01*
X0050097Y0063932D01*
X0050138Y0063938D01*
X0050178Y0063947D01*
X0050216Y0063960D01*
X0050254Y0063977D01*
X0050290Y0063997D01*
X0050324Y0064020D01*
X0050355Y0064046D01*
X0050384Y0064075D01*
X0050410Y0064106D01*
X0050433Y0064140D01*
X0050453Y0064176D01*
X0050470Y0064214D01*
X0050483Y0064252D01*
X0050492Y0064292D01*
X0050498Y0064333D01*
X0050500Y0064374D01*
X0050500Y0064819D01*
X0040980Y0102911D02*
X0039869Y0102911D01*
X0040425Y0102911D02*
X0040425Y0104911D01*
X0039869Y0104466D01*
X0038670Y0103744D02*
X0038059Y0104077D01*
X0038281Y0104910D02*
X0038335Y0104908D01*
X0038388Y0104903D01*
X0038441Y0104895D01*
X0038493Y0104883D01*
X0038544Y0104867D01*
X0038595Y0104849D01*
X0038644Y0104827D01*
X0038691Y0104802D01*
X0038737Y0104774D01*
X0038781Y0104743D01*
X0038059Y0104077D02*
X0038026Y0104099D01*
X0037996Y0104123D01*
X0037967Y0104149D01*
X0037941Y0104178D01*
X0037917Y0104209D01*
X0037896Y0104242D01*
X0037879Y0104277D01*
X0037864Y0104313D01*
X0037852Y0104350D01*
X0037844Y0104388D01*
X0037839Y0104427D01*
X0037837Y0104466D01*
X0037839Y0104507D01*
X0037845Y0104548D01*
X0037854Y0104588D01*
X0037867Y0104626D01*
X0037884Y0104664D01*
X0037904Y0104700D01*
X0037927Y0104734D01*
X0037953Y0104765D01*
X0037982Y0104794D01*
X0038013Y0104820D01*
X0038047Y0104844D01*
X0038083Y0104863D01*
X0038121Y0104880D01*
X0038160Y0104893D01*
X0038199Y0104902D01*
X0038240Y0104908D01*
X0038281Y0104910D01*
X0037781Y0103189D02*
X0037823Y0103150D01*
X0037866Y0103113D01*
X0037912Y0103079D01*
X0037960Y0103048D01*
X0038009Y0103020D01*
X0038061Y0102995D01*
X0038113Y0102973D01*
X0038167Y0102954D01*
X0038222Y0102939D01*
X0038278Y0102927D01*
X0038334Y0102918D01*
X0038391Y0102913D01*
X0038448Y0102911D01*
X0038489Y0102913D01*
X0038530Y0102919D01*
X0038570Y0102928D01*
X0038608Y0102941D01*
X0038646Y0102958D01*
X0038682Y0102978D01*
X0038716Y0103001D01*
X0038747Y0103027D01*
X0038776Y0103056D01*
X0038802Y0103087D01*
X0038825Y0103121D01*
X0038845Y0103157D01*
X0038862Y0103195D01*
X0038875Y0103233D01*
X0038884Y0103273D01*
X0038890Y0103314D01*
X0038892Y0103355D01*
X0038890Y0103394D01*
X0038885Y0103433D01*
X0038877Y0103471D01*
X0038865Y0103508D01*
X0038850Y0103544D01*
X0038833Y0103579D01*
X0038812Y0103612D01*
X0038788Y0103643D01*
X0038762Y0103672D01*
X0038733Y0103698D01*
X0038703Y0103722D01*
X0038670Y0103744D01*
X0036370Y0103800D02*
X0035815Y0103800D01*
X0036370Y0103799D02*
X0036416Y0103801D01*
X0036462Y0103807D01*
X0036506Y0103816D01*
X0036551Y0103829D01*
X0036593Y0103846D01*
X0036635Y0103866D01*
X0036674Y0103890D01*
X0036712Y0103916D01*
X0036747Y0103946D01*
X0036779Y0103978D01*
X0036809Y0104013D01*
X0036835Y0104051D01*
X0036859Y0104090D01*
X0036879Y0104132D01*
X0036896Y0104174D01*
X0036909Y0104219D01*
X0036918Y0104263D01*
X0036924Y0104309D01*
X0036926Y0104355D01*
X0036924Y0104401D01*
X0036918Y0104447D01*
X0036909Y0104491D01*
X0036896Y0104536D01*
X0036879Y0104578D01*
X0036859Y0104620D01*
X0036835Y0104659D01*
X0036809Y0104697D01*
X0036779Y0104732D01*
X0036747Y0104764D01*
X0036712Y0104794D01*
X0036674Y0104820D01*
X0036635Y0104844D01*
X0036593Y0104864D01*
X0036551Y0104881D01*
X0036506Y0104894D01*
X0036462Y0104903D01*
X0036416Y0104909D01*
X0036370Y0104911D01*
X0035815Y0104911D01*
X0035815Y0102911D01*
X0034789Y0102911D02*
X0033900Y0102911D01*
X0033900Y0104911D01*
X0034089Y0141711D02*
X0033644Y0141711D01*
X0033603Y0141713D01*
X0033562Y0141719D01*
X0033522Y0141728D01*
X0033484Y0141741D01*
X0033446Y0141758D01*
X0033410Y0141778D01*
X0033376Y0141801D01*
X0033345Y0141827D01*
X0033316Y0141856D01*
X0033290Y0141887D01*
X0033267Y0141921D01*
X0033247Y0141957D01*
X0033230Y0141995D01*
X0033217Y0142033D01*
X0033208Y0142073D01*
X0033202Y0142114D01*
X0033200Y0142155D01*
X0033200Y0143266D01*
X0033202Y0143307D01*
X0033208Y0143348D01*
X0033217Y0143388D01*
X0033230Y0143426D01*
X0033247Y0143464D01*
X0033267Y0143500D01*
X0033290Y0143534D01*
X0033316Y0143565D01*
X0033345Y0143594D01*
X0033376Y0143620D01*
X0033410Y0143643D01*
X0033446Y0143663D01*
X0033484Y0143680D01*
X0033522Y0143693D01*
X0033562Y0143702D01*
X0033603Y0143708D01*
X0033644Y0143710D01*
X0033644Y0143711D02*
X0034089Y0143711D01*
X0035131Y0143711D02*
X0035687Y0143711D01*
X0035733Y0143709D01*
X0035779Y0143703D01*
X0035823Y0143694D01*
X0035868Y0143681D01*
X0035910Y0143664D01*
X0035952Y0143644D01*
X0035991Y0143620D01*
X0036029Y0143594D01*
X0036064Y0143564D01*
X0036096Y0143532D01*
X0036126Y0143497D01*
X0036152Y0143459D01*
X0036176Y0143420D01*
X0036196Y0143378D01*
X0036213Y0143336D01*
X0036226Y0143291D01*
X0036235Y0143247D01*
X0036241Y0143201D01*
X0036243Y0143155D01*
X0036241Y0143109D01*
X0036235Y0143063D01*
X0036226Y0143019D01*
X0036213Y0142974D01*
X0036196Y0142932D01*
X0036176Y0142890D01*
X0036152Y0142851D01*
X0036126Y0142813D01*
X0036096Y0142778D01*
X0036064Y0142746D01*
X0036029Y0142716D01*
X0035991Y0142690D01*
X0035952Y0142666D01*
X0035910Y0142646D01*
X0035868Y0142629D01*
X0035823Y0142616D01*
X0035779Y0142607D01*
X0035733Y0142601D01*
X0035687Y0142599D01*
X0035687Y0142600D02*
X0035131Y0142600D01*
X0035131Y0141711D02*
X0035131Y0143711D01*
X0037375Y0142877D02*
X0037987Y0142544D01*
X0037764Y0141711D02*
X0037707Y0141713D01*
X0037650Y0141718D01*
X0037594Y0141727D01*
X0037538Y0141739D01*
X0037483Y0141754D01*
X0037429Y0141773D01*
X0037377Y0141795D01*
X0037325Y0141820D01*
X0037276Y0141848D01*
X0037228Y0141879D01*
X0037182Y0141913D01*
X0037139Y0141950D01*
X0037097Y0141989D01*
X0037986Y0142544D02*
X0038019Y0142522D01*
X0038049Y0142498D01*
X0038078Y0142472D01*
X0038104Y0142443D01*
X0038128Y0142412D01*
X0038149Y0142379D01*
X0038166Y0142344D01*
X0038181Y0142308D01*
X0038193Y0142271D01*
X0038201Y0142233D01*
X0038206Y0142194D01*
X0038208Y0142155D01*
X0038206Y0142114D01*
X0038200Y0142073D01*
X0038191Y0142033D01*
X0038178Y0141995D01*
X0038161Y0141957D01*
X0038141Y0141921D01*
X0038118Y0141887D01*
X0038092Y0141856D01*
X0038063Y0141827D01*
X0038032Y0141801D01*
X0037998Y0141778D01*
X0037962Y0141758D01*
X0037924Y0141741D01*
X0037886Y0141728D01*
X0037846Y0141719D01*
X0037805Y0141713D01*
X0037764Y0141711D01*
X0038098Y0143543D02*
X0038054Y0143574D01*
X0038008Y0143602D01*
X0037961Y0143627D01*
X0037912Y0143649D01*
X0037861Y0143667D01*
X0037810Y0143683D01*
X0037758Y0143695D01*
X0037705Y0143703D01*
X0037652Y0143708D01*
X0037598Y0143710D01*
X0037557Y0143708D01*
X0037516Y0143702D01*
X0037477Y0143693D01*
X0037438Y0143680D01*
X0037400Y0143663D01*
X0037364Y0143644D01*
X0037330Y0143620D01*
X0037299Y0143594D01*
X0037270Y0143565D01*
X0037244Y0143534D01*
X0037221Y0143500D01*
X0037201Y0143464D01*
X0037184Y0143426D01*
X0037171Y0143388D01*
X0037162Y0143348D01*
X0037156Y0143307D01*
X0037154Y0143266D01*
X0037156Y0143227D01*
X0037161Y0143188D01*
X0037169Y0143150D01*
X0037181Y0143113D01*
X0037196Y0143077D01*
X0037213Y0143042D01*
X0037234Y0143009D01*
X0037258Y0142978D01*
X0037284Y0142949D01*
X0037313Y0142923D01*
X0037343Y0142899D01*
X0037376Y0142877D01*
X0039186Y0142822D02*
X0039186Y0142266D01*
X0039185Y0142266D02*
X0039187Y0142220D01*
X0039193Y0142174D01*
X0039202Y0142130D01*
X0039215Y0142085D01*
X0039232Y0142043D01*
X0039252Y0142001D01*
X0039276Y0141962D01*
X0039302Y0141924D01*
X0039332Y0141889D01*
X0039364Y0141857D01*
X0039399Y0141827D01*
X0039437Y0141801D01*
X0039476Y0141777D01*
X0039518Y0141757D01*
X0039560Y0141740D01*
X0039605Y0141727D01*
X0039649Y0141718D01*
X0039695Y0141712D01*
X0039741Y0141710D01*
X0039787Y0141712D01*
X0039833Y0141718D01*
X0039877Y0141727D01*
X0039922Y0141740D01*
X0039964Y0141757D01*
X0040006Y0141777D01*
X0040045Y0141801D01*
X0040083Y0141827D01*
X0040118Y0141857D01*
X0040150Y0141889D01*
X0040180Y0141924D01*
X0040206Y0141962D01*
X0040230Y0142001D01*
X0040250Y0142043D01*
X0040267Y0142085D01*
X0040280Y0142130D01*
X0040289Y0142174D01*
X0040295Y0142220D01*
X0040297Y0142266D01*
X0040297Y0142377D01*
X0040296Y0142377D02*
X0040294Y0142418D01*
X0040288Y0142459D01*
X0040279Y0142499D01*
X0040266Y0142537D01*
X0040249Y0142575D01*
X0040229Y0142611D01*
X0040206Y0142645D01*
X0040180Y0142676D01*
X0040151Y0142705D01*
X0040120Y0142731D01*
X0040086Y0142754D01*
X0040050Y0142774D01*
X0040012Y0142791D01*
X0039974Y0142804D01*
X0039934Y0142813D01*
X0039893Y0142819D01*
X0039852Y0142821D01*
X0039852Y0142822D02*
X0039186Y0142822D01*
X0039185Y0142822D02*
X0039187Y0142880D01*
X0039193Y0142938D01*
X0039202Y0142995D01*
X0039215Y0143052D01*
X0039232Y0143108D01*
X0039253Y0143162D01*
X0039277Y0143215D01*
X0039304Y0143266D01*
X0039335Y0143316D01*
X0039369Y0143363D01*
X0039406Y0143408D01*
X0039445Y0143451D01*
X0039488Y0143490D01*
X0039533Y0143527D01*
X0039580Y0143561D01*
X0039629Y0143592D01*
X0039681Y0143619D01*
X0039734Y0143643D01*
X0039788Y0143664D01*
X0039844Y0143681D01*
X0039901Y0143694D01*
X0039958Y0143703D01*
X0040016Y0143709D01*
X0040074Y0143711D01*
X0039997Y0153911D02*
X0038886Y0153911D01*
X0039830Y0155022D01*
X0039497Y0155910D02*
X0039450Y0155908D01*
X0039402Y0155903D01*
X0039356Y0155894D01*
X0039310Y0155882D01*
X0039265Y0155867D01*
X0039221Y0155848D01*
X0039179Y0155826D01*
X0039139Y0155801D01*
X0039100Y0155773D01*
X0039064Y0155742D01*
X0039030Y0155709D01*
X0038999Y0155673D01*
X0038970Y0155635D01*
X0038945Y0155595D01*
X0038922Y0155554D01*
X0038903Y0155510D01*
X0038886Y0155466D01*
X0039830Y0155022D02*
X0039861Y0155053D01*
X0039888Y0155087D01*
X0039913Y0155123D01*
X0039935Y0155160D01*
X0039954Y0155199D01*
X0039969Y0155240D01*
X0039981Y0155282D01*
X0039990Y0155324D01*
X0039995Y0155368D01*
X0039997Y0155411D01*
X0039995Y0155455D01*
X0039989Y0155498D01*
X0039980Y0155540D01*
X0039967Y0155582D01*
X0039950Y0155622D01*
X0039930Y0155661D01*
X0039907Y0155698D01*
X0039880Y0155732D01*
X0039851Y0155765D01*
X0039818Y0155794D01*
X0039784Y0155821D01*
X0039747Y0155844D01*
X0039708Y0155864D01*
X0039668Y0155881D01*
X0039626Y0155894D01*
X0039584Y0155903D01*
X0039541Y0155909D01*
X0039497Y0155911D01*
X0037687Y0154744D02*
X0037075Y0155077D01*
X0037298Y0155910D02*
X0037352Y0155908D01*
X0037405Y0155903D01*
X0037458Y0155895D01*
X0037510Y0155883D01*
X0037561Y0155867D01*
X0037612Y0155849D01*
X0037661Y0155827D01*
X0037708Y0155802D01*
X0037754Y0155774D01*
X0037798Y0155743D01*
X0037076Y0155077D02*
X0037043Y0155099D01*
X0037013Y0155123D01*
X0036984Y0155149D01*
X0036958Y0155178D01*
X0036934Y0155209D01*
X0036913Y0155242D01*
X0036896Y0155277D01*
X0036881Y0155313D01*
X0036869Y0155350D01*
X0036861Y0155388D01*
X0036856Y0155427D01*
X0036854Y0155466D01*
X0036856Y0155507D01*
X0036862Y0155548D01*
X0036871Y0155588D01*
X0036884Y0155626D01*
X0036901Y0155664D01*
X0036921Y0155700D01*
X0036944Y0155734D01*
X0036970Y0155765D01*
X0036999Y0155794D01*
X0037030Y0155820D01*
X0037064Y0155844D01*
X0037100Y0155863D01*
X0037138Y0155880D01*
X0037177Y0155893D01*
X0037216Y0155902D01*
X0037257Y0155908D01*
X0037298Y0155910D01*
X0036797Y0154189D02*
X0036839Y0154150D01*
X0036882Y0154113D01*
X0036928Y0154079D01*
X0036976Y0154048D01*
X0037025Y0154020D01*
X0037077Y0153995D01*
X0037129Y0153973D01*
X0037183Y0153954D01*
X0037238Y0153939D01*
X0037294Y0153927D01*
X0037350Y0153918D01*
X0037407Y0153913D01*
X0037464Y0153911D01*
X0037505Y0153913D01*
X0037546Y0153919D01*
X0037586Y0153928D01*
X0037624Y0153941D01*
X0037662Y0153958D01*
X0037698Y0153978D01*
X0037732Y0154001D01*
X0037763Y0154027D01*
X0037792Y0154056D01*
X0037818Y0154087D01*
X0037841Y0154121D01*
X0037861Y0154157D01*
X0037878Y0154195D01*
X0037891Y0154233D01*
X0037900Y0154273D01*
X0037906Y0154314D01*
X0037908Y0154355D01*
X0037906Y0154394D01*
X0037901Y0154433D01*
X0037893Y0154471D01*
X0037881Y0154508D01*
X0037866Y0154544D01*
X0037849Y0154579D01*
X0037828Y0154612D01*
X0037804Y0154643D01*
X0037778Y0154672D01*
X0037749Y0154698D01*
X0037719Y0154722D01*
X0037686Y0154744D01*
X0035387Y0154800D02*
X0034831Y0154800D01*
X0035387Y0154799D02*
X0035433Y0154801D01*
X0035479Y0154807D01*
X0035523Y0154816D01*
X0035568Y0154829D01*
X0035610Y0154846D01*
X0035652Y0154866D01*
X0035691Y0154890D01*
X0035729Y0154916D01*
X0035764Y0154946D01*
X0035796Y0154978D01*
X0035826Y0155013D01*
X0035852Y0155051D01*
X0035876Y0155090D01*
X0035896Y0155132D01*
X0035913Y0155174D01*
X0035926Y0155219D01*
X0035935Y0155263D01*
X0035941Y0155309D01*
X0035943Y0155355D01*
X0035941Y0155401D01*
X0035935Y0155447D01*
X0035926Y0155491D01*
X0035913Y0155536D01*
X0035896Y0155578D01*
X0035876Y0155620D01*
X0035852Y0155659D01*
X0035826Y0155697D01*
X0035796Y0155732D01*
X0035764Y0155764D01*
X0035729Y0155794D01*
X0035691Y0155820D01*
X0035652Y0155844D01*
X0035610Y0155864D01*
X0035568Y0155881D01*
X0035523Y0155894D01*
X0035479Y0155903D01*
X0035433Y0155909D01*
X0035387Y0155911D01*
X0034831Y0155911D01*
X0034831Y0153911D01*
X0033789Y0153911D02*
X0033344Y0153911D01*
X0033303Y0153913D01*
X0033262Y0153919D01*
X0033222Y0153928D01*
X0033184Y0153941D01*
X0033146Y0153958D01*
X0033110Y0153978D01*
X0033076Y0154001D01*
X0033045Y0154027D01*
X0033016Y0154056D01*
X0032990Y0154087D01*
X0032967Y0154121D01*
X0032947Y0154157D01*
X0032930Y0154195D01*
X0032917Y0154233D01*
X0032908Y0154273D01*
X0032902Y0154314D01*
X0032900Y0154355D01*
X0032900Y0155466D01*
X0032902Y0155507D01*
X0032908Y0155548D01*
X0032917Y0155588D01*
X0032930Y0155626D01*
X0032947Y0155664D01*
X0032967Y0155700D01*
X0032990Y0155734D01*
X0033016Y0155765D01*
X0033045Y0155794D01*
X0033076Y0155820D01*
X0033110Y0155843D01*
X0033146Y0155863D01*
X0033184Y0155880D01*
X0033222Y0155893D01*
X0033262Y0155902D01*
X0033303Y0155908D01*
X0033344Y0155910D01*
X0033344Y0155911D02*
X0033789Y0155911D01*
X0013800Y0156670D02*
X0011067Y0156670D01*
X0011067Y0158037D01*
X0011522Y0158037D01*
X0011067Y0159109D02*
X0011067Y0160476D01*
X0010383Y0159565D02*
X0010332Y0159567D01*
X0010281Y0159573D01*
X0010231Y0159582D01*
X0010182Y0159595D01*
X0010133Y0159612D01*
X0010087Y0159633D01*
X0010042Y0159657D01*
X0009998Y0159684D01*
X0009957Y0159714D01*
X0009918Y0159747D01*
X0009882Y0159783D01*
X0009849Y0159822D01*
X0009819Y0159863D01*
X0009792Y0159906D01*
X0009768Y0159952D01*
X0009747Y0159998D01*
X0009730Y0160047D01*
X0009717Y0160096D01*
X0009708Y0160146D01*
X0009702Y0160197D01*
X0009700Y0160248D01*
X0009700Y0160476D01*
X0010383Y0159565D02*
X0013800Y0159565D01*
X0013800Y0162416D02*
X0013800Y0163441D01*
X0011750Y0163441D01*
X0012206Y0163441D02*
X0012206Y0162416D01*
X0011750Y0163440D02*
X0011699Y0163438D01*
X0011648Y0163432D01*
X0011598Y0163423D01*
X0011549Y0163410D01*
X0011500Y0163393D01*
X0011454Y0163372D01*
X0011409Y0163348D01*
X0011365Y0163321D01*
X0011324Y0163291D01*
X0011285Y0163258D01*
X0011249Y0163222D01*
X0011216Y0163183D01*
X0011186Y0163142D01*
X0011159Y0163099D01*
X0011135Y0163053D01*
X0011114Y0163007D01*
X0011097Y0162958D01*
X0011084Y0162909D01*
X0011075Y0162859D01*
X0011069Y0162808D01*
X0011067Y0162757D01*
X0011067Y0161846D01*
X0012206Y0162416D02*
X0012208Y0162360D01*
X0012214Y0162305D01*
X0012223Y0162250D01*
X0012237Y0162196D01*
X0012254Y0162143D01*
X0012275Y0162092D01*
X0012299Y0162042D01*
X0012327Y0161994D01*
X0012358Y0161948D01*
X0012392Y0161904D01*
X0012430Y0161862D01*
X0012470Y0161824D01*
X0012512Y0161788D01*
X0012557Y0161755D01*
X0012605Y0161726D01*
X0012654Y0161700D01*
X0012704Y0161677D01*
X0012757Y0161658D01*
X0012810Y0161643D01*
X0012865Y0161631D01*
X0012920Y0161623D01*
X0012975Y0161619D01*
X0013031Y0161619D01*
X0013086Y0161623D01*
X0013141Y0161631D01*
X0013196Y0161643D01*
X0013249Y0161658D01*
X0013302Y0161677D01*
X0013352Y0161700D01*
X0013402Y0161726D01*
X0013449Y0161755D01*
X0013494Y0161788D01*
X0013536Y0161824D01*
X0013576Y0161862D01*
X0013614Y0161904D01*
X0013648Y0161948D01*
X0013679Y0161994D01*
X0013707Y0162042D01*
X0013731Y0162092D01*
X0013752Y0162143D01*
X0013769Y0162196D01*
X0013783Y0162250D01*
X0013792Y0162305D01*
X0013798Y0162360D01*
X0013800Y0162416D01*
X0013117Y0165291D02*
X0011750Y0165291D01*
X0011699Y0165293D01*
X0011648Y0165299D01*
X0011598Y0165308D01*
X0011549Y0165321D01*
X0011500Y0165338D01*
X0011454Y0165359D01*
X0011409Y0165383D01*
X0011365Y0165410D01*
X0011324Y0165440D01*
X0011285Y0165473D01*
X0011249Y0165509D01*
X0011216Y0165548D01*
X0011186Y0165589D01*
X0011159Y0165633D01*
X0011135Y0165678D01*
X0011114Y0165724D01*
X0011097Y0165773D01*
X0011084Y0165822D01*
X0011075Y0165872D01*
X0011069Y0165923D01*
X0011067Y0165974D01*
X0011067Y0166885D01*
X0011978Y0168391D02*
X0013117Y0168391D01*
X0013168Y0168393D01*
X0013219Y0168399D01*
X0013269Y0168408D01*
X0013318Y0168421D01*
X0013367Y0168438D01*
X0013413Y0168459D01*
X0013459Y0168483D01*
X0013502Y0168510D01*
X0013543Y0168540D01*
X0013582Y0168573D01*
X0013618Y0168609D01*
X0013651Y0168648D01*
X0013681Y0168689D01*
X0013708Y0168733D01*
X0013732Y0168778D01*
X0013753Y0168824D01*
X0013770Y0168873D01*
X0013783Y0168922D01*
X0013792Y0168972D01*
X0013798Y0169023D01*
X0013800Y0169074D01*
X0013800Y0170213D01*
X0012433Y0170213D02*
X0012433Y0168391D01*
X0011978Y0168391D02*
X0011918Y0168393D01*
X0011859Y0168399D01*
X0011800Y0168409D01*
X0011742Y0168422D01*
X0011685Y0168439D01*
X0011629Y0168460D01*
X0011575Y0168485D01*
X0011522Y0168513D01*
X0011472Y0168545D01*
X0011423Y0168579D01*
X0011377Y0168617D01*
X0011334Y0168658D01*
X0011293Y0168701D01*
X0011255Y0168747D01*
X0011221Y0168796D01*
X0011189Y0168847D01*
X0011161Y0168899D01*
X0011136Y0168953D01*
X0011115Y0169009D01*
X0011098Y0169066D01*
X0011085Y0169124D01*
X0011075Y0169183D01*
X0011069Y0169242D01*
X0011067Y0169302D01*
X0011069Y0169362D01*
X0011075Y0169421D01*
X0011085Y0169480D01*
X0011098Y0169538D01*
X0011115Y0169595D01*
X0011136Y0169651D01*
X0011161Y0169705D01*
X0011189Y0169758D01*
X0011221Y0169808D01*
X0011255Y0169857D01*
X0011293Y0169903D01*
X0011334Y0169946D01*
X0011377Y0169987D01*
X0011423Y0170025D01*
X0011472Y0170059D01*
X0011523Y0170091D01*
X0011575Y0170119D01*
X0011629Y0170144D01*
X0011685Y0170165D01*
X0011742Y0170182D01*
X0011800Y0170195D01*
X0011859Y0170205D01*
X0011918Y0170211D01*
X0011978Y0170213D01*
X0012433Y0170213D01*
X0013800Y0166885D02*
X0013800Y0165974D01*
X0013798Y0165923D01*
X0013792Y0165872D01*
X0013783Y0165822D01*
X0013770Y0165773D01*
X0013753Y0165724D01*
X0013732Y0165678D01*
X0013708Y0165633D01*
X0013681Y0165589D01*
X0013651Y0165548D01*
X0013618Y0165509D01*
X0013582Y0165473D01*
X0013543Y0165440D01*
X0013502Y0165410D01*
X0013459Y0165383D01*
X0013413Y0165359D01*
X0013367Y0165338D01*
X0013318Y0165321D01*
X0013269Y0165308D01*
X0013219Y0165299D01*
X0013168Y0165293D01*
X0013117Y0165291D01*
X0009700Y0173875D02*
X0013800Y0175242D01*
X0009700Y0176608D01*
X0010611Y0178153D02*
X0009700Y0179292D01*
X0013800Y0179292D01*
X0013800Y0178153D02*
X0013800Y0180431D01*
X0013800Y0182013D02*
X0013800Y0182241D01*
X0013572Y0182241D01*
X0013572Y0182013D01*
X0013800Y0182013D01*
X0013231Y0185759D02*
X0013131Y0185806D01*
X0013031Y0185849D01*
X0012929Y0185889D01*
X0012826Y0185925D01*
X0012721Y0185958D01*
X0012616Y0185988D01*
X0012510Y0186014D01*
X0012403Y0186037D01*
X0012295Y0186057D01*
X0012187Y0186073D01*
X0012078Y0186085D01*
X0011969Y0186094D01*
X0011859Y0186099D01*
X0011750Y0186101D01*
X0011750Y0183823D02*
X0011641Y0183825D01*
X0011531Y0183830D01*
X0011422Y0183839D01*
X0011313Y0183851D01*
X0011205Y0183867D01*
X0011097Y0183887D01*
X0010990Y0183910D01*
X0010884Y0183936D01*
X0010779Y0183966D01*
X0010674Y0183999D01*
X0010571Y0184035D01*
X0010469Y0184075D01*
X0010369Y0184118D01*
X0010269Y0184165D01*
X0010270Y0184165D02*
X0010218Y0184184D01*
X0010168Y0184207D01*
X0010120Y0184233D01*
X0010073Y0184262D01*
X0010028Y0184294D01*
X0009986Y0184329D01*
X0009946Y0184367D01*
X0009908Y0184407D01*
X0009873Y0184450D01*
X0009841Y0184495D01*
X0009812Y0184541D01*
X0009787Y0184590D01*
X0009764Y0184640D01*
X0009745Y0184692D01*
X0009729Y0184744D01*
X0009716Y0184798D01*
X0009707Y0184852D01*
X0009702Y0184907D01*
X0009700Y0184962D01*
X0009702Y0185017D01*
X0009707Y0185072D01*
X0009716Y0185126D01*
X0009729Y0185180D01*
X0009745Y0185232D01*
X0009764Y0185284D01*
X0009787Y0185334D01*
X0009812Y0185383D01*
X0009841Y0185429D01*
X0009873Y0185474D01*
X0009908Y0185517D01*
X0009946Y0185557D01*
X0009986Y0185595D01*
X0010028Y0185630D01*
X0010073Y0185662D01*
X0010120Y0185691D01*
X0010168Y0185717D01*
X0010218Y0185740D01*
X0010270Y0185759D01*
X0010611Y0185873D02*
X0012889Y0184051D01*
X0013800Y0184962D02*
X0013798Y0185017D01*
X0013793Y0185072D01*
X0013784Y0185126D01*
X0013771Y0185180D01*
X0013755Y0185232D01*
X0013736Y0185284D01*
X0013713Y0185334D01*
X0013688Y0185383D01*
X0013659Y0185429D01*
X0013627Y0185474D01*
X0013592Y0185517D01*
X0013554Y0185557D01*
X0013514Y0185595D01*
X0013472Y0185630D01*
X0013427Y0185662D01*
X0013380Y0185691D01*
X0013332Y0185717D01*
X0013282Y0185740D01*
X0013230Y0185759D01*
X0013800Y0184962D02*
X0013798Y0184907D01*
X0013793Y0184852D01*
X0013784Y0184798D01*
X0013771Y0184744D01*
X0013755Y0184692D01*
X0013736Y0184640D01*
X0013713Y0184590D01*
X0013688Y0184541D01*
X0013659Y0184495D01*
X0013627Y0184450D01*
X0013592Y0184407D01*
X0013554Y0184367D01*
X0013514Y0184329D01*
X0013472Y0184294D01*
X0013427Y0184262D01*
X0013380Y0184233D01*
X0013332Y0184207D01*
X0013282Y0184184D01*
X0013230Y0184165D01*
X0011750Y0186101D02*
X0011641Y0186099D01*
X0011531Y0186094D01*
X0011422Y0186085D01*
X0011313Y0186073D01*
X0011205Y0186057D01*
X0011097Y0186037D01*
X0010990Y0186014D01*
X0010884Y0185988D01*
X0010779Y0185958D01*
X0010674Y0185925D01*
X0010571Y0185889D01*
X0010469Y0185849D01*
X0010369Y0185806D01*
X0010269Y0185759D01*
X0011750Y0183823D02*
X0011859Y0183825D01*
X0011969Y0183830D01*
X0012078Y0183839D01*
X0012187Y0183851D01*
X0012295Y0183867D01*
X0012403Y0183887D01*
X0012510Y0183910D01*
X0012616Y0183936D01*
X0012721Y0183966D01*
X0012826Y0183999D01*
X0012929Y0184035D01*
X0013031Y0184075D01*
X0013131Y0184118D01*
X0013231Y0184165D01*
X0013800Y0154823D02*
X0013800Y0153684D01*
X0013798Y0153633D01*
X0013792Y0153582D01*
X0013783Y0153532D01*
X0013770Y0153483D01*
X0013753Y0153434D01*
X0013732Y0153388D01*
X0013708Y0153343D01*
X0013681Y0153299D01*
X0013651Y0153258D01*
X0013618Y0153219D01*
X0013582Y0153183D01*
X0013543Y0153150D01*
X0013502Y0153120D01*
X0013459Y0153093D01*
X0013413Y0153069D01*
X0013367Y0153048D01*
X0013318Y0153031D01*
X0013269Y0153018D01*
X0013219Y0153009D01*
X0013168Y0153003D01*
X0013117Y0153001D01*
X0011978Y0153001D01*
X0012433Y0153001D02*
X0012433Y0154823D01*
X0011978Y0154823D01*
X0011918Y0154821D01*
X0011859Y0154815D01*
X0011800Y0154805D01*
X0011742Y0154792D01*
X0011685Y0154775D01*
X0011629Y0154754D01*
X0011575Y0154729D01*
X0011523Y0154701D01*
X0011472Y0154669D01*
X0011423Y0154635D01*
X0011377Y0154597D01*
X0011334Y0154556D01*
X0011293Y0154513D01*
X0011255Y0154467D01*
X0011221Y0154418D01*
X0011189Y0154368D01*
X0011161Y0154315D01*
X0011136Y0154261D01*
X0011115Y0154205D01*
X0011098Y0154148D01*
X0011085Y0154090D01*
X0011075Y0154031D01*
X0011069Y0153972D01*
X0011067Y0153912D01*
X0011069Y0153852D01*
X0011075Y0153793D01*
X0011085Y0153734D01*
X0011098Y0153676D01*
X0011115Y0153619D01*
X0011136Y0153563D01*
X0011161Y0153509D01*
X0011189Y0153457D01*
X0011221Y0153406D01*
X0011255Y0153357D01*
X0011293Y0153311D01*
X0011334Y0153268D01*
X0011377Y0153227D01*
X0011423Y0153189D01*
X0011472Y0153155D01*
X0011522Y0153123D01*
X0011575Y0153095D01*
X0011629Y0153070D01*
X0011685Y0153049D01*
X0011742Y0153032D01*
X0011800Y0153019D01*
X0011859Y0153009D01*
X0011918Y0153003D01*
X0011978Y0153001D01*
X0011067Y0151456D02*
X0011067Y0150089D01*
X0009700Y0150544D02*
X0013117Y0150544D01*
X0013117Y0150545D02*
X0013168Y0150547D01*
X0013219Y0150553D01*
X0013269Y0150562D01*
X0013318Y0150575D01*
X0013367Y0150592D01*
X0013413Y0150613D01*
X0013459Y0150637D01*
X0013502Y0150664D01*
X0013543Y0150694D01*
X0013582Y0150727D01*
X0013618Y0150763D01*
X0013651Y0150802D01*
X0013681Y0150843D01*
X0013708Y0150887D01*
X0013732Y0150932D01*
X0013753Y0150978D01*
X0013770Y0151027D01*
X0013783Y0151076D01*
X0013792Y0151126D01*
X0013798Y0151177D01*
X0013800Y0151228D01*
X0013800Y0151456D01*
X0013800Y0148613D02*
X0011750Y0148613D01*
X0011699Y0148611D01*
X0011648Y0148605D01*
X0011598Y0148596D01*
X0011549Y0148583D01*
X0011500Y0148566D01*
X0011454Y0148545D01*
X0011408Y0148521D01*
X0011365Y0148494D01*
X0011324Y0148464D01*
X0011285Y0148431D01*
X0011249Y0148395D01*
X0011216Y0148356D01*
X0011186Y0148315D01*
X0011159Y0148271D01*
X0011135Y0148226D01*
X0011114Y0148180D01*
X0011097Y0148131D01*
X0011084Y0148082D01*
X0011075Y0148032D01*
X0011069Y0147981D01*
X0011067Y0147930D01*
X0011067Y0146791D01*
X0013800Y0146791D01*
X0013800Y0145052D02*
X0013800Y0144141D01*
X0013800Y0144597D02*
X0009700Y0144597D01*
X0009700Y0145052D02*
X0009700Y0144141D01*
X0009700Y0140201D02*
X0012661Y0140201D01*
X0012727Y0140199D01*
X0012793Y0140193D01*
X0012859Y0140184D01*
X0012924Y0140170D01*
X0012988Y0140153D01*
X0013051Y0140132D01*
X0013112Y0140108D01*
X0013172Y0140080D01*
X0013230Y0140048D01*
X0013287Y0140014D01*
X0013341Y0139976D01*
X0013393Y0139935D01*
X0013443Y0139890D01*
X0013489Y0139844D01*
X0013534Y0139794D01*
X0013575Y0139742D01*
X0013613Y0139688D01*
X0013647Y0139632D01*
X0013679Y0139573D01*
X0013707Y0139513D01*
X0013731Y0139452D01*
X0013752Y0139389D01*
X0013769Y0139325D01*
X0013783Y0139260D01*
X0013792Y0139194D01*
X0013798Y0139128D01*
X0013800Y0139062D01*
X0013798Y0138996D01*
X0013792Y0138930D01*
X0013783Y0138864D01*
X0013769Y0138799D01*
X0013752Y0138735D01*
X0013731Y0138672D01*
X0013707Y0138611D01*
X0013679Y0138551D01*
X0013647Y0138493D01*
X0013613Y0138436D01*
X0013575Y0138382D01*
X0013534Y0138330D01*
X0013489Y0138280D01*
X0013443Y0138234D01*
X0013393Y0138189D01*
X0013341Y0138148D01*
X0013287Y0138110D01*
X0013231Y0138076D01*
X0013172Y0138044D01*
X0013112Y0138016D01*
X0013051Y0137992D01*
X0012988Y0137971D01*
X0012924Y0137954D01*
X0012859Y0137940D01*
X0012793Y0137931D01*
X0012727Y0137925D01*
X0012661Y0137923D01*
X0009700Y0137923D01*
X0009700Y0136223D02*
X0009700Y0135312D01*
X0009702Y0135252D01*
X0009708Y0135193D01*
X0009718Y0135134D01*
X0009731Y0135076D01*
X0009748Y0135019D01*
X0009769Y0134963D01*
X0009794Y0134909D01*
X0009822Y0134856D01*
X0009854Y0134806D01*
X0009888Y0134757D01*
X0009926Y0134711D01*
X0009967Y0134668D01*
X0010010Y0134627D01*
X0010056Y0134589D01*
X0010105Y0134555D01*
X0010156Y0134523D01*
X0010208Y0134495D01*
X0010262Y0134470D01*
X0010318Y0134449D01*
X0010375Y0134432D01*
X0010433Y0134419D01*
X0010492Y0134409D01*
X0010551Y0134403D01*
X0010611Y0134401D01*
X0012889Y0134401D01*
X0012949Y0134403D01*
X0013008Y0134409D01*
X0013067Y0134419D01*
X0013125Y0134432D01*
X0013182Y0134449D01*
X0013238Y0134470D01*
X0013292Y0134495D01*
X0013345Y0134523D01*
X0013395Y0134555D01*
X0013444Y0134589D01*
X0013490Y0134627D01*
X0013533Y0134668D01*
X0013574Y0134711D01*
X0013612Y0134757D01*
X0013646Y0134806D01*
X0013678Y0134857D01*
X0013706Y0134909D01*
X0013731Y0134963D01*
X0013752Y0135019D01*
X0013769Y0135076D01*
X0013782Y0135134D01*
X0013792Y0135193D01*
X0013798Y0135252D01*
X0013800Y0135312D01*
X0013800Y0136223D01*
X0013800Y0132869D02*
X0013800Y0131046D01*
X0009700Y0131046D01*
X0009700Y0132869D01*
X0011522Y0132413D02*
X0011522Y0131046D01*
X0013800Y0127199D02*
X0009700Y0124465D01*
X0009700Y0123047D02*
X0009700Y0122136D01*
X0009700Y0122592D02*
X0013800Y0122592D01*
X0013800Y0123047D02*
X0013800Y0122136D01*
X0013800Y0120356D02*
X0009700Y0120356D01*
X0009700Y0118078D02*
X0013800Y0120356D01*
X0013800Y0118078D02*
X0009700Y0118078D01*
X0009700Y0116399D02*
X0009700Y0114577D01*
X0013800Y0114577D01*
X0013800Y0116399D01*
X0011522Y0115943D02*
X0011522Y0114577D01*
X0011978Y0111777D02*
X0013800Y0112688D01*
X0011978Y0111550D02*
X0011978Y0110411D01*
X0011978Y0111550D02*
X0011976Y0111616D01*
X0011970Y0111682D01*
X0011961Y0111748D01*
X0011947Y0111813D01*
X0011930Y0111877D01*
X0011909Y0111940D01*
X0011885Y0112001D01*
X0011857Y0112061D01*
X0011825Y0112120D01*
X0011791Y0112176D01*
X0011753Y0112230D01*
X0011712Y0112282D01*
X0011667Y0112332D01*
X0011621Y0112378D01*
X0011571Y0112423D01*
X0011519Y0112464D01*
X0011465Y0112502D01*
X0011409Y0112536D01*
X0011350Y0112568D01*
X0011290Y0112596D01*
X0011229Y0112620D01*
X0011166Y0112641D01*
X0011102Y0112658D01*
X0011037Y0112672D01*
X0010971Y0112681D01*
X0010905Y0112687D01*
X0010839Y0112689D01*
X0010773Y0112687D01*
X0010707Y0112681D01*
X0010641Y0112672D01*
X0010576Y0112658D01*
X0010512Y0112641D01*
X0010449Y0112620D01*
X0010388Y0112596D01*
X0010328Y0112568D01*
X0010270Y0112536D01*
X0010213Y0112502D01*
X0010159Y0112464D01*
X0010107Y0112423D01*
X0010057Y0112378D01*
X0010011Y0112332D01*
X0009966Y0112282D01*
X0009925Y0112230D01*
X0009887Y0112176D01*
X0009853Y0112120D01*
X0009821Y0112061D01*
X0009793Y0112001D01*
X0009769Y0111940D01*
X0009748Y0111877D01*
X0009731Y0111813D01*
X0009717Y0111748D01*
X0009708Y0111682D01*
X0009702Y0111616D01*
X0009700Y0111550D01*
X0009700Y0110411D01*
X0013800Y0110411D01*
X0013800Y0124465D02*
X0009700Y0127199D01*
X0060800Y0165911D02*
X0061356Y0165911D01*
X0061356Y0165910D02*
X0061402Y0165912D01*
X0061448Y0165918D01*
X0061492Y0165927D01*
X0061537Y0165940D01*
X0061579Y0165957D01*
X0061621Y0165977D01*
X0061660Y0166001D01*
X0061697Y0166027D01*
X0061733Y0166057D01*
X0061765Y0166089D01*
X0061795Y0166124D01*
X0061821Y0166162D01*
X0061845Y0166201D01*
X0061865Y0166243D01*
X0061882Y0166285D01*
X0061895Y0166330D01*
X0061904Y0166374D01*
X0061910Y0166420D01*
X0061912Y0166466D01*
X0061911Y0166466D02*
X0061911Y0167355D01*
X0061912Y0167355D02*
X0061910Y0167401D01*
X0061904Y0167447D01*
X0061895Y0167491D01*
X0061882Y0167536D01*
X0061865Y0167578D01*
X0061845Y0167620D01*
X0061821Y0167659D01*
X0061795Y0167697D01*
X0061765Y0167732D01*
X0061733Y0167764D01*
X0061698Y0167794D01*
X0061660Y0167820D01*
X0061621Y0167844D01*
X0061579Y0167864D01*
X0061537Y0167881D01*
X0061492Y0167894D01*
X0061448Y0167903D01*
X0061402Y0167909D01*
X0061356Y0167911D01*
X0060800Y0167911D01*
X0060800Y0165911D01*
X0063032Y0165911D02*
X0064143Y0165911D01*
X0063588Y0165911D02*
X0063588Y0167911D01*
X0063032Y0167466D01*
X0133500Y0211263D02*
X0133500Y0211708D01*
X0133500Y0211263D02*
X0133502Y0211222D01*
X0133508Y0211181D01*
X0133517Y0211141D01*
X0133530Y0211103D01*
X0133547Y0211065D01*
X0133567Y0211029D01*
X0133590Y0210995D01*
X0133616Y0210964D01*
X0133645Y0210935D01*
X0133676Y0210909D01*
X0133710Y0210885D01*
X0133746Y0210866D01*
X0133784Y0210849D01*
X0133822Y0210836D01*
X0133862Y0210827D01*
X0133903Y0210821D01*
X0133944Y0210819D01*
X0135056Y0210819D01*
X0135097Y0210821D01*
X0135138Y0210827D01*
X0135178Y0210836D01*
X0135216Y0210849D01*
X0135254Y0210866D01*
X0135290Y0210886D01*
X0135324Y0210909D01*
X0135355Y0210935D01*
X0135384Y0210964D01*
X0135410Y0210995D01*
X0135433Y0211029D01*
X0135453Y0211065D01*
X0135470Y0211103D01*
X0135483Y0211141D01*
X0135492Y0211181D01*
X0135498Y0211222D01*
X0135500Y0211263D01*
X0135500Y0211708D01*
X0135500Y0212628D02*
X0135500Y0213740D01*
X0135500Y0213184D02*
X0133500Y0213184D01*
X0133944Y0212628D01*
X0133500Y0214677D02*
X0135500Y0216011D01*
X0135500Y0214677D02*
X0133500Y0216011D01*
D13*
X0120413Y0284211D02*
X0120415Y0284385D01*
X0120422Y0284559D01*
X0120432Y0284732D01*
X0120447Y0284906D01*
X0120466Y0285079D01*
X0120490Y0285251D01*
X0120517Y0285423D01*
X0120549Y0285594D01*
X0120585Y0285764D01*
X0120625Y0285933D01*
X0120670Y0286101D01*
X0120718Y0286268D01*
X0120771Y0286434D01*
X0120827Y0286599D01*
X0120888Y0286762D01*
X0120952Y0286923D01*
X0121021Y0287083D01*
X0121093Y0287241D01*
X0121170Y0287397D01*
X0121250Y0287552D01*
X0121334Y0287704D01*
X0121421Y0287854D01*
X0121513Y0288003D01*
X0121607Y0288148D01*
X0121706Y0288292D01*
X0121808Y0288433D01*
X0121913Y0288571D01*
X0122022Y0288707D01*
X0122134Y0288840D01*
X0122249Y0288970D01*
X0122367Y0289098D01*
X0122489Y0289222D01*
X0122613Y0289344D01*
X0122741Y0289462D01*
X0122871Y0289577D01*
X0123004Y0289689D01*
X0123140Y0289798D01*
X0123278Y0289903D01*
X0123419Y0290005D01*
X0123563Y0290104D01*
X0123708Y0290198D01*
X0123857Y0290290D01*
X0124007Y0290377D01*
X0124159Y0290461D01*
X0124314Y0290541D01*
X0124470Y0290618D01*
X0124628Y0290690D01*
X0124788Y0290759D01*
X0124949Y0290823D01*
X0125112Y0290884D01*
X0125277Y0290940D01*
X0125443Y0290993D01*
X0125610Y0291041D01*
X0125778Y0291086D01*
X0125947Y0291126D01*
X0126117Y0291162D01*
X0126288Y0291194D01*
X0126460Y0291221D01*
X0126632Y0291245D01*
X0126805Y0291264D01*
X0126979Y0291279D01*
X0127152Y0291289D01*
X0127326Y0291296D01*
X0127500Y0291298D01*
X0127674Y0291296D01*
X0127848Y0291289D01*
X0128021Y0291279D01*
X0128195Y0291264D01*
X0128368Y0291245D01*
X0128540Y0291221D01*
X0128712Y0291194D01*
X0128883Y0291162D01*
X0129053Y0291126D01*
X0129222Y0291086D01*
X0129390Y0291041D01*
X0129557Y0290993D01*
X0129723Y0290940D01*
X0129888Y0290884D01*
X0130051Y0290823D01*
X0130212Y0290759D01*
X0130372Y0290690D01*
X0130530Y0290618D01*
X0130686Y0290541D01*
X0130841Y0290461D01*
X0130993Y0290377D01*
X0131143Y0290290D01*
X0131292Y0290198D01*
X0131437Y0290104D01*
X0131581Y0290005D01*
X0131722Y0289903D01*
X0131860Y0289798D01*
X0131996Y0289689D01*
X0132129Y0289577D01*
X0132259Y0289462D01*
X0132387Y0289344D01*
X0132511Y0289222D01*
X0132633Y0289098D01*
X0132751Y0288970D01*
X0132866Y0288840D01*
X0132978Y0288707D01*
X0133087Y0288571D01*
X0133192Y0288433D01*
X0133294Y0288292D01*
X0133393Y0288148D01*
X0133487Y0288003D01*
X0133579Y0287854D01*
X0133666Y0287704D01*
X0133750Y0287552D01*
X0133830Y0287397D01*
X0133907Y0287241D01*
X0133979Y0287083D01*
X0134048Y0286923D01*
X0134112Y0286762D01*
X0134173Y0286599D01*
X0134229Y0286434D01*
X0134282Y0286268D01*
X0134330Y0286101D01*
X0134375Y0285933D01*
X0134415Y0285764D01*
X0134451Y0285594D01*
X0134483Y0285423D01*
X0134510Y0285251D01*
X0134534Y0285079D01*
X0134553Y0284906D01*
X0134568Y0284732D01*
X0134578Y0284559D01*
X0134585Y0284385D01*
X0134587Y0284211D01*
X0134585Y0284037D01*
X0134578Y0283863D01*
X0134568Y0283690D01*
X0134553Y0283516D01*
X0134534Y0283343D01*
X0134510Y0283171D01*
X0134483Y0282999D01*
X0134451Y0282828D01*
X0134415Y0282658D01*
X0134375Y0282489D01*
X0134330Y0282321D01*
X0134282Y0282154D01*
X0134229Y0281988D01*
X0134173Y0281823D01*
X0134112Y0281660D01*
X0134048Y0281499D01*
X0133979Y0281339D01*
X0133907Y0281181D01*
X0133830Y0281025D01*
X0133750Y0280870D01*
X0133666Y0280718D01*
X0133579Y0280568D01*
X0133487Y0280419D01*
X0133393Y0280274D01*
X0133294Y0280130D01*
X0133192Y0279989D01*
X0133087Y0279851D01*
X0132978Y0279715D01*
X0132866Y0279582D01*
X0132751Y0279452D01*
X0132633Y0279324D01*
X0132511Y0279200D01*
X0132387Y0279078D01*
X0132259Y0278960D01*
X0132129Y0278845D01*
X0131996Y0278733D01*
X0131860Y0278624D01*
X0131722Y0278519D01*
X0131581Y0278417D01*
X0131437Y0278318D01*
X0131292Y0278224D01*
X0131143Y0278132D01*
X0130993Y0278045D01*
X0130841Y0277961D01*
X0130686Y0277881D01*
X0130530Y0277804D01*
X0130372Y0277732D01*
X0130212Y0277663D01*
X0130051Y0277599D01*
X0129888Y0277538D01*
X0129723Y0277482D01*
X0129557Y0277429D01*
X0129390Y0277381D01*
X0129222Y0277336D01*
X0129053Y0277296D01*
X0128883Y0277260D01*
X0128712Y0277228D01*
X0128540Y0277201D01*
X0128368Y0277177D01*
X0128195Y0277158D01*
X0128021Y0277143D01*
X0127848Y0277133D01*
X0127674Y0277126D01*
X0127500Y0277124D01*
X0127326Y0277126D01*
X0127152Y0277133D01*
X0126979Y0277143D01*
X0126805Y0277158D01*
X0126632Y0277177D01*
X0126460Y0277201D01*
X0126288Y0277228D01*
X0126117Y0277260D01*
X0125947Y0277296D01*
X0125778Y0277336D01*
X0125610Y0277381D01*
X0125443Y0277429D01*
X0125277Y0277482D01*
X0125112Y0277538D01*
X0124949Y0277599D01*
X0124788Y0277663D01*
X0124628Y0277732D01*
X0124470Y0277804D01*
X0124314Y0277881D01*
X0124159Y0277961D01*
X0124007Y0278045D01*
X0123857Y0278132D01*
X0123708Y0278224D01*
X0123563Y0278318D01*
X0123419Y0278417D01*
X0123278Y0278519D01*
X0123140Y0278624D01*
X0123004Y0278733D01*
X0122871Y0278845D01*
X0122741Y0278960D01*
X0122613Y0279078D01*
X0122489Y0279200D01*
X0122367Y0279324D01*
X0122249Y0279452D01*
X0122134Y0279582D01*
X0122022Y0279715D01*
X0121913Y0279851D01*
X0121808Y0279989D01*
X0121706Y0280130D01*
X0121607Y0280274D01*
X0121513Y0280419D01*
X0121421Y0280568D01*
X0121334Y0280718D01*
X0121250Y0280870D01*
X0121170Y0281025D01*
X0121093Y0281181D01*
X0121021Y0281339D01*
X0120952Y0281499D01*
X0120888Y0281660D01*
X0120827Y0281823D01*
X0120771Y0281988D01*
X0120718Y0282154D01*
X0120670Y0282321D01*
X0120625Y0282489D01*
X0120585Y0282658D01*
X0120549Y0282828D01*
X0120517Y0282999D01*
X0120490Y0283171D01*
X0120466Y0283343D01*
X0120447Y0283516D01*
X0120432Y0283690D01*
X0120422Y0283863D01*
X0120415Y0284037D01*
X0120413Y0284211D01*
X0007413Y0284211D02*
X0007415Y0284385D01*
X0007422Y0284559D01*
X0007432Y0284732D01*
X0007447Y0284906D01*
X0007466Y0285079D01*
X0007490Y0285251D01*
X0007517Y0285423D01*
X0007549Y0285594D01*
X0007585Y0285764D01*
X0007625Y0285933D01*
X0007670Y0286101D01*
X0007718Y0286268D01*
X0007771Y0286434D01*
X0007827Y0286599D01*
X0007888Y0286762D01*
X0007952Y0286923D01*
X0008021Y0287083D01*
X0008093Y0287241D01*
X0008170Y0287397D01*
X0008250Y0287552D01*
X0008334Y0287704D01*
X0008421Y0287854D01*
X0008513Y0288003D01*
X0008607Y0288148D01*
X0008706Y0288292D01*
X0008808Y0288433D01*
X0008913Y0288571D01*
X0009022Y0288707D01*
X0009134Y0288840D01*
X0009249Y0288970D01*
X0009367Y0289098D01*
X0009489Y0289222D01*
X0009613Y0289344D01*
X0009741Y0289462D01*
X0009871Y0289577D01*
X0010004Y0289689D01*
X0010140Y0289798D01*
X0010278Y0289903D01*
X0010419Y0290005D01*
X0010563Y0290104D01*
X0010708Y0290198D01*
X0010857Y0290290D01*
X0011007Y0290377D01*
X0011159Y0290461D01*
X0011314Y0290541D01*
X0011470Y0290618D01*
X0011628Y0290690D01*
X0011788Y0290759D01*
X0011949Y0290823D01*
X0012112Y0290884D01*
X0012277Y0290940D01*
X0012443Y0290993D01*
X0012610Y0291041D01*
X0012778Y0291086D01*
X0012947Y0291126D01*
X0013117Y0291162D01*
X0013288Y0291194D01*
X0013460Y0291221D01*
X0013632Y0291245D01*
X0013805Y0291264D01*
X0013979Y0291279D01*
X0014152Y0291289D01*
X0014326Y0291296D01*
X0014500Y0291298D01*
X0014674Y0291296D01*
X0014848Y0291289D01*
X0015021Y0291279D01*
X0015195Y0291264D01*
X0015368Y0291245D01*
X0015540Y0291221D01*
X0015712Y0291194D01*
X0015883Y0291162D01*
X0016053Y0291126D01*
X0016222Y0291086D01*
X0016390Y0291041D01*
X0016557Y0290993D01*
X0016723Y0290940D01*
X0016888Y0290884D01*
X0017051Y0290823D01*
X0017212Y0290759D01*
X0017372Y0290690D01*
X0017530Y0290618D01*
X0017686Y0290541D01*
X0017841Y0290461D01*
X0017993Y0290377D01*
X0018143Y0290290D01*
X0018292Y0290198D01*
X0018437Y0290104D01*
X0018581Y0290005D01*
X0018722Y0289903D01*
X0018860Y0289798D01*
X0018996Y0289689D01*
X0019129Y0289577D01*
X0019259Y0289462D01*
X0019387Y0289344D01*
X0019511Y0289222D01*
X0019633Y0289098D01*
X0019751Y0288970D01*
X0019866Y0288840D01*
X0019978Y0288707D01*
X0020087Y0288571D01*
X0020192Y0288433D01*
X0020294Y0288292D01*
X0020393Y0288148D01*
X0020487Y0288003D01*
X0020579Y0287854D01*
X0020666Y0287704D01*
X0020750Y0287552D01*
X0020830Y0287397D01*
X0020907Y0287241D01*
X0020979Y0287083D01*
X0021048Y0286923D01*
X0021112Y0286762D01*
X0021173Y0286599D01*
X0021229Y0286434D01*
X0021282Y0286268D01*
X0021330Y0286101D01*
X0021375Y0285933D01*
X0021415Y0285764D01*
X0021451Y0285594D01*
X0021483Y0285423D01*
X0021510Y0285251D01*
X0021534Y0285079D01*
X0021553Y0284906D01*
X0021568Y0284732D01*
X0021578Y0284559D01*
X0021585Y0284385D01*
X0021587Y0284211D01*
X0021585Y0284037D01*
X0021578Y0283863D01*
X0021568Y0283690D01*
X0021553Y0283516D01*
X0021534Y0283343D01*
X0021510Y0283171D01*
X0021483Y0282999D01*
X0021451Y0282828D01*
X0021415Y0282658D01*
X0021375Y0282489D01*
X0021330Y0282321D01*
X0021282Y0282154D01*
X0021229Y0281988D01*
X0021173Y0281823D01*
X0021112Y0281660D01*
X0021048Y0281499D01*
X0020979Y0281339D01*
X0020907Y0281181D01*
X0020830Y0281025D01*
X0020750Y0280870D01*
X0020666Y0280718D01*
X0020579Y0280568D01*
X0020487Y0280419D01*
X0020393Y0280274D01*
X0020294Y0280130D01*
X0020192Y0279989D01*
X0020087Y0279851D01*
X0019978Y0279715D01*
X0019866Y0279582D01*
X0019751Y0279452D01*
X0019633Y0279324D01*
X0019511Y0279200D01*
X0019387Y0279078D01*
X0019259Y0278960D01*
X0019129Y0278845D01*
X0018996Y0278733D01*
X0018860Y0278624D01*
X0018722Y0278519D01*
X0018581Y0278417D01*
X0018437Y0278318D01*
X0018292Y0278224D01*
X0018143Y0278132D01*
X0017993Y0278045D01*
X0017841Y0277961D01*
X0017686Y0277881D01*
X0017530Y0277804D01*
X0017372Y0277732D01*
X0017212Y0277663D01*
X0017051Y0277599D01*
X0016888Y0277538D01*
X0016723Y0277482D01*
X0016557Y0277429D01*
X0016390Y0277381D01*
X0016222Y0277336D01*
X0016053Y0277296D01*
X0015883Y0277260D01*
X0015712Y0277228D01*
X0015540Y0277201D01*
X0015368Y0277177D01*
X0015195Y0277158D01*
X0015021Y0277143D01*
X0014848Y0277133D01*
X0014674Y0277126D01*
X0014500Y0277124D01*
X0014326Y0277126D01*
X0014152Y0277133D01*
X0013979Y0277143D01*
X0013805Y0277158D01*
X0013632Y0277177D01*
X0013460Y0277201D01*
X0013288Y0277228D01*
X0013117Y0277260D01*
X0012947Y0277296D01*
X0012778Y0277336D01*
X0012610Y0277381D01*
X0012443Y0277429D01*
X0012277Y0277482D01*
X0012112Y0277538D01*
X0011949Y0277599D01*
X0011788Y0277663D01*
X0011628Y0277732D01*
X0011470Y0277804D01*
X0011314Y0277881D01*
X0011159Y0277961D01*
X0011007Y0278045D01*
X0010857Y0278132D01*
X0010708Y0278224D01*
X0010563Y0278318D01*
X0010419Y0278417D01*
X0010278Y0278519D01*
X0010140Y0278624D01*
X0010004Y0278733D01*
X0009871Y0278845D01*
X0009741Y0278960D01*
X0009613Y0279078D01*
X0009489Y0279200D01*
X0009367Y0279324D01*
X0009249Y0279452D01*
X0009134Y0279582D01*
X0009022Y0279715D01*
X0008913Y0279851D01*
X0008808Y0279989D01*
X0008706Y0280130D01*
X0008607Y0280274D01*
X0008513Y0280419D01*
X0008421Y0280568D01*
X0008334Y0280718D01*
X0008250Y0280870D01*
X0008170Y0281025D01*
X0008093Y0281181D01*
X0008021Y0281339D01*
X0007952Y0281499D01*
X0007888Y0281660D01*
X0007827Y0281823D01*
X0007771Y0281988D01*
X0007718Y0282154D01*
X0007670Y0282321D01*
X0007625Y0282489D01*
X0007585Y0282658D01*
X0007549Y0282828D01*
X0007517Y0282999D01*
X0007490Y0283171D01*
X0007466Y0283343D01*
X0007447Y0283516D01*
X0007432Y0283690D01*
X0007422Y0283863D01*
X0007415Y0284037D01*
X0007413Y0284211D01*
X0007413Y0049211D02*
X0007415Y0049385D01*
X0007422Y0049559D01*
X0007432Y0049732D01*
X0007447Y0049906D01*
X0007466Y0050079D01*
X0007490Y0050251D01*
X0007517Y0050423D01*
X0007549Y0050594D01*
X0007585Y0050764D01*
X0007625Y0050933D01*
X0007670Y0051101D01*
X0007718Y0051268D01*
X0007771Y0051434D01*
X0007827Y0051599D01*
X0007888Y0051762D01*
X0007952Y0051923D01*
X0008021Y0052083D01*
X0008093Y0052241D01*
X0008170Y0052397D01*
X0008250Y0052552D01*
X0008334Y0052704D01*
X0008421Y0052854D01*
X0008513Y0053003D01*
X0008607Y0053148D01*
X0008706Y0053292D01*
X0008808Y0053433D01*
X0008913Y0053571D01*
X0009022Y0053707D01*
X0009134Y0053840D01*
X0009249Y0053970D01*
X0009367Y0054098D01*
X0009489Y0054222D01*
X0009613Y0054344D01*
X0009741Y0054462D01*
X0009871Y0054577D01*
X0010004Y0054689D01*
X0010140Y0054798D01*
X0010278Y0054903D01*
X0010419Y0055005D01*
X0010563Y0055104D01*
X0010708Y0055198D01*
X0010857Y0055290D01*
X0011007Y0055377D01*
X0011159Y0055461D01*
X0011314Y0055541D01*
X0011470Y0055618D01*
X0011628Y0055690D01*
X0011788Y0055759D01*
X0011949Y0055823D01*
X0012112Y0055884D01*
X0012277Y0055940D01*
X0012443Y0055993D01*
X0012610Y0056041D01*
X0012778Y0056086D01*
X0012947Y0056126D01*
X0013117Y0056162D01*
X0013288Y0056194D01*
X0013460Y0056221D01*
X0013632Y0056245D01*
X0013805Y0056264D01*
X0013979Y0056279D01*
X0014152Y0056289D01*
X0014326Y0056296D01*
X0014500Y0056298D01*
X0014674Y0056296D01*
X0014848Y0056289D01*
X0015021Y0056279D01*
X0015195Y0056264D01*
X0015368Y0056245D01*
X0015540Y0056221D01*
X0015712Y0056194D01*
X0015883Y0056162D01*
X0016053Y0056126D01*
X0016222Y0056086D01*
X0016390Y0056041D01*
X0016557Y0055993D01*
X0016723Y0055940D01*
X0016888Y0055884D01*
X0017051Y0055823D01*
X0017212Y0055759D01*
X0017372Y0055690D01*
X0017530Y0055618D01*
X0017686Y0055541D01*
X0017841Y0055461D01*
X0017993Y0055377D01*
X0018143Y0055290D01*
X0018292Y0055198D01*
X0018437Y0055104D01*
X0018581Y0055005D01*
X0018722Y0054903D01*
X0018860Y0054798D01*
X0018996Y0054689D01*
X0019129Y0054577D01*
X0019259Y0054462D01*
X0019387Y0054344D01*
X0019511Y0054222D01*
X0019633Y0054098D01*
X0019751Y0053970D01*
X0019866Y0053840D01*
X0019978Y0053707D01*
X0020087Y0053571D01*
X0020192Y0053433D01*
X0020294Y0053292D01*
X0020393Y0053148D01*
X0020487Y0053003D01*
X0020579Y0052854D01*
X0020666Y0052704D01*
X0020750Y0052552D01*
X0020830Y0052397D01*
X0020907Y0052241D01*
X0020979Y0052083D01*
X0021048Y0051923D01*
X0021112Y0051762D01*
X0021173Y0051599D01*
X0021229Y0051434D01*
X0021282Y0051268D01*
X0021330Y0051101D01*
X0021375Y0050933D01*
X0021415Y0050764D01*
X0021451Y0050594D01*
X0021483Y0050423D01*
X0021510Y0050251D01*
X0021534Y0050079D01*
X0021553Y0049906D01*
X0021568Y0049732D01*
X0021578Y0049559D01*
X0021585Y0049385D01*
X0021587Y0049211D01*
X0021585Y0049037D01*
X0021578Y0048863D01*
X0021568Y0048690D01*
X0021553Y0048516D01*
X0021534Y0048343D01*
X0021510Y0048171D01*
X0021483Y0047999D01*
X0021451Y0047828D01*
X0021415Y0047658D01*
X0021375Y0047489D01*
X0021330Y0047321D01*
X0021282Y0047154D01*
X0021229Y0046988D01*
X0021173Y0046823D01*
X0021112Y0046660D01*
X0021048Y0046499D01*
X0020979Y0046339D01*
X0020907Y0046181D01*
X0020830Y0046025D01*
X0020750Y0045870D01*
X0020666Y0045718D01*
X0020579Y0045568D01*
X0020487Y0045419D01*
X0020393Y0045274D01*
X0020294Y0045130D01*
X0020192Y0044989D01*
X0020087Y0044851D01*
X0019978Y0044715D01*
X0019866Y0044582D01*
X0019751Y0044452D01*
X0019633Y0044324D01*
X0019511Y0044200D01*
X0019387Y0044078D01*
X0019259Y0043960D01*
X0019129Y0043845D01*
X0018996Y0043733D01*
X0018860Y0043624D01*
X0018722Y0043519D01*
X0018581Y0043417D01*
X0018437Y0043318D01*
X0018292Y0043224D01*
X0018143Y0043132D01*
X0017993Y0043045D01*
X0017841Y0042961D01*
X0017686Y0042881D01*
X0017530Y0042804D01*
X0017372Y0042732D01*
X0017212Y0042663D01*
X0017051Y0042599D01*
X0016888Y0042538D01*
X0016723Y0042482D01*
X0016557Y0042429D01*
X0016390Y0042381D01*
X0016222Y0042336D01*
X0016053Y0042296D01*
X0015883Y0042260D01*
X0015712Y0042228D01*
X0015540Y0042201D01*
X0015368Y0042177D01*
X0015195Y0042158D01*
X0015021Y0042143D01*
X0014848Y0042133D01*
X0014674Y0042126D01*
X0014500Y0042124D01*
X0014326Y0042126D01*
X0014152Y0042133D01*
X0013979Y0042143D01*
X0013805Y0042158D01*
X0013632Y0042177D01*
X0013460Y0042201D01*
X0013288Y0042228D01*
X0013117Y0042260D01*
X0012947Y0042296D01*
X0012778Y0042336D01*
X0012610Y0042381D01*
X0012443Y0042429D01*
X0012277Y0042482D01*
X0012112Y0042538D01*
X0011949Y0042599D01*
X0011788Y0042663D01*
X0011628Y0042732D01*
X0011470Y0042804D01*
X0011314Y0042881D01*
X0011159Y0042961D01*
X0011007Y0043045D01*
X0010857Y0043132D01*
X0010708Y0043224D01*
X0010563Y0043318D01*
X0010419Y0043417D01*
X0010278Y0043519D01*
X0010140Y0043624D01*
X0010004Y0043733D01*
X0009871Y0043845D01*
X0009741Y0043960D01*
X0009613Y0044078D01*
X0009489Y0044200D01*
X0009367Y0044324D01*
X0009249Y0044452D01*
X0009134Y0044582D01*
X0009022Y0044715D01*
X0008913Y0044851D01*
X0008808Y0044989D01*
X0008706Y0045130D01*
X0008607Y0045274D01*
X0008513Y0045419D01*
X0008421Y0045568D01*
X0008334Y0045718D01*
X0008250Y0045870D01*
X0008170Y0046025D01*
X0008093Y0046181D01*
X0008021Y0046339D01*
X0007952Y0046499D01*
X0007888Y0046660D01*
X0007827Y0046823D01*
X0007771Y0046988D01*
X0007718Y0047154D01*
X0007670Y0047321D01*
X0007625Y0047489D01*
X0007585Y0047658D01*
X0007549Y0047828D01*
X0007517Y0047999D01*
X0007490Y0048171D01*
X0007466Y0048343D01*
X0007447Y0048516D01*
X0007432Y0048690D01*
X0007422Y0048863D01*
X0007415Y0049037D01*
X0007413Y0049211D01*
X0120413Y0049211D02*
X0120415Y0049385D01*
X0120422Y0049559D01*
X0120432Y0049732D01*
X0120447Y0049906D01*
X0120466Y0050079D01*
X0120490Y0050251D01*
X0120517Y0050423D01*
X0120549Y0050594D01*
X0120585Y0050764D01*
X0120625Y0050933D01*
X0120670Y0051101D01*
X0120718Y0051268D01*
X0120771Y0051434D01*
X0120827Y0051599D01*
X0120888Y0051762D01*
X0120952Y0051923D01*
X0121021Y0052083D01*
X0121093Y0052241D01*
X0121170Y0052397D01*
X0121250Y0052552D01*
X0121334Y0052704D01*
X0121421Y0052854D01*
X0121513Y0053003D01*
X0121607Y0053148D01*
X0121706Y0053292D01*
X0121808Y0053433D01*
X0121913Y0053571D01*
X0122022Y0053707D01*
X0122134Y0053840D01*
X0122249Y0053970D01*
X0122367Y0054098D01*
X0122489Y0054222D01*
X0122613Y0054344D01*
X0122741Y0054462D01*
X0122871Y0054577D01*
X0123004Y0054689D01*
X0123140Y0054798D01*
X0123278Y0054903D01*
X0123419Y0055005D01*
X0123563Y0055104D01*
X0123708Y0055198D01*
X0123857Y0055290D01*
X0124007Y0055377D01*
X0124159Y0055461D01*
X0124314Y0055541D01*
X0124470Y0055618D01*
X0124628Y0055690D01*
X0124788Y0055759D01*
X0124949Y0055823D01*
X0125112Y0055884D01*
X0125277Y0055940D01*
X0125443Y0055993D01*
X0125610Y0056041D01*
X0125778Y0056086D01*
X0125947Y0056126D01*
X0126117Y0056162D01*
X0126288Y0056194D01*
X0126460Y0056221D01*
X0126632Y0056245D01*
X0126805Y0056264D01*
X0126979Y0056279D01*
X0127152Y0056289D01*
X0127326Y0056296D01*
X0127500Y0056298D01*
X0127674Y0056296D01*
X0127848Y0056289D01*
X0128021Y0056279D01*
X0128195Y0056264D01*
X0128368Y0056245D01*
X0128540Y0056221D01*
X0128712Y0056194D01*
X0128883Y0056162D01*
X0129053Y0056126D01*
X0129222Y0056086D01*
X0129390Y0056041D01*
X0129557Y0055993D01*
X0129723Y0055940D01*
X0129888Y0055884D01*
X0130051Y0055823D01*
X0130212Y0055759D01*
X0130372Y0055690D01*
X0130530Y0055618D01*
X0130686Y0055541D01*
X0130841Y0055461D01*
X0130993Y0055377D01*
X0131143Y0055290D01*
X0131292Y0055198D01*
X0131437Y0055104D01*
X0131581Y0055005D01*
X0131722Y0054903D01*
X0131860Y0054798D01*
X0131996Y0054689D01*
X0132129Y0054577D01*
X0132259Y0054462D01*
X0132387Y0054344D01*
X0132511Y0054222D01*
X0132633Y0054098D01*
X0132751Y0053970D01*
X0132866Y0053840D01*
X0132978Y0053707D01*
X0133087Y0053571D01*
X0133192Y0053433D01*
X0133294Y0053292D01*
X0133393Y0053148D01*
X0133487Y0053003D01*
X0133579Y0052854D01*
X0133666Y0052704D01*
X0133750Y0052552D01*
X0133830Y0052397D01*
X0133907Y0052241D01*
X0133979Y0052083D01*
X0134048Y0051923D01*
X0134112Y0051762D01*
X0134173Y0051599D01*
X0134229Y0051434D01*
X0134282Y0051268D01*
X0134330Y0051101D01*
X0134375Y0050933D01*
X0134415Y0050764D01*
X0134451Y0050594D01*
X0134483Y0050423D01*
X0134510Y0050251D01*
X0134534Y0050079D01*
X0134553Y0049906D01*
X0134568Y0049732D01*
X0134578Y0049559D01*
X0134585Y0049385D01*
X0134587Y0049211D01*
X0134585Y0049037D01*
X0134578Y0048863D01*
X0134568Y0048690D01*
X0134553Y0048516D01*
X0134534Y0048343D01*
X0134510Y0048171D01*
X0134483Y0047999D01*
X0134451Y0047828D01*
X0134415Y0047658D01*
X0134375Y0047489D01*
X0134330Y0047321D01*
X0134282Y0047154D01*
X0134229Y0046988D01*
X0134173Y0046823D01*
X0134112Y0046660D01*
X0134048Y0046499D01*
X0133979Y0046339D01*
X0133907Y0046181D01*
X0133830Y0046025D01*
X0133750Y0045870D01*
X0133666Y0045718D01*
X0133579Y0045568D01*
X0133487Y0045419D01*
X0133393Y0045274D01*
X0133294Y0045130D01*
X0133192Y0044989D01*
X0133087Y0044851D01*
X0132978Y0044715D01*
X0132866Y0044582D01*
X0132751Y0044452D01*
X0132633Y0044324D01*
X0132511Y0044200D01*
X0132387Y0044078D01*
X0132259Y0043960D01*
X0132129Y0043845D01*
X0131996Y0043733D01*
X0131860Y0043624D01*
X0131722Y0043519D01*
X0131581Y0043417D01*
X0131437Y0043318D01*
X0131292Y0043224D01*
X0131143Y0043132D01*
X0130993Y0043045D01*
X0130841Y0042961D01*
X0130686Y0042881D01*
X0130530Y0042804D01*
X0130372Y0042732D01*
X0130212Y0042663D01*
X0130051Y0042599D01*
X0129888Y0042538D01*
X0129723Y0042482D01*
X0129557Y0042429D01*
X0129390Y0042381D01*
X0129222Y0042336D01*
X0129053Y0042296D01*
X0128883Y0042260D01*
X0128712Y0042228D01*
X0128540Y0042201D01*
X0128368Y0042177D01*
X0128195Y0042158D01*
X0128021Y0042143D01*
X0127848Y0042133D01*
X0127674Y0042126D01*
X0127500Y0042124D01*
X0127326Y0042126D01*
X0127152Y0042133D01*
X0126979Y0042143D01*
X0126805Y0042158D01*
X0126632Y0042177D01*
X0126460Y0042201D01*
X0126288Y0042228D01*
X0126117Y0042260D01*
X0125947Y0042296D01*
X0125778Y0042336D01*
X0125610Y0042381D01*
X0125443Y0042429D01*
X0125277Y0042482D01*
X0125112Y0042538D01*
X0124949Y0042599D01*
X0124788Y0042663D01*
X0124628Y0042732D01*
X0124470Y0042804D01*
X0124314Y0042881D01*
X0124159Y0042961D01*
X0124007Y0043045D01*
X0123857Y0043132D01*
X0123708Y0043224D01*
X0123563Y0043318D01*
X0123419Y0043417D01*
X0123278Y0043519D01*
X0123140Y0043624D01*
X0123004Y0043733D01*
X0122871Y0043845D01*
X0122741Y0043960D01*
X0122613Y0044078D01*
X0122489Y0044200D01*
X0122367Y0044324D01*
X0122249Y0044452D01*
X0122134Y0044582D01*
X0122022Y0044715D01*
X0121913Y0044851D01*
X0121808Y0044989D01*
X0121706Y0045130D01*
X0121607Y0045274D01*
X0121513Y0045419D01*
X0121421Y0045568D01*
X0121334Y0045718D01*
X0121250Y0045870D01*
X0121170Y0046025D01*
X0121093Y0046181D01*
X0121021Y0046339D01*
X0120952Y0046499D01*
X0120888Y0046660D01*
X0120827Y0046823D01*
X0120771Y0046988D01*
X0120718Y0047154D01*
X0120670Y0047321D01*
X0120625Y0047489D01*
X0120585Y0047658D01*
X0120549Y0047828D01*
X0120517Y0047999D01*
X0120490Y0048171D01*
X0120466Y0048343D01*
X0120447Y0048516D01*
X0120432Y0048690D01*
X0120422Y0048863D01*
X0120415Y0049037D01*
X0120413Y0049211D01*
D14*
X0114677Y0081959D02*
X0058378Y0081959D01*
X0058378Y0001250D01*
X0114677Y0001250D01*
X0114677Y0081959D01*
X0108000Y0016211D02*
X0108000Y0006211D01*
X0104000Y0006211D01*
X0104000Y0016211D01*
X0100000Y0016211D01*
X0100000Y0006211D01*
X0096000Y0006211D01*
X0096000Y0014211D01*
X0090000Y0014211D01*
X0090000Y0006211D01*
X0088000Y0006211D01*
X0088000Y0016211D01*
X0082000Y0016211D01*
X0082000Y0006211D01*
X0078000Y0006211D01*
X0078000Y0014211D01*
X0072000Y0014211D01*
X0072000Y0016211D01*
X0072000Y0006211D01*
X0068000Y0006211D01*
X0068000Y0014211D01*
X0062000Y0014211D01*
X0062000Y0006211D01*
X0048750Y0044561D02*
X0047694Y0044561D01*
X0048222Y0044561D02*
X0048222Y0046461D01*
X0047694Y0046038D01*
X0046534Y0046461D02*
X0046534Y0044983D01*
X0046532Y0044944D01*
X0046527Y0044905D01*
X0046518Y0044868D01*
X0046506Y0044831D01*
X0046490Y0044795D01*
X0046471Y0044761D01*
X0046449Y0044729D01*
X0046424Y0044699D01*
X0046396Y0044671D01*
X0046366Y0044646D01*
X0046334Y0044624D01*
X0046300Y0044605D01*
X0046264Y0044589D01*
X0046227Y0044577D01*
X0046190Y0044568D01*
X0046151Y0044563D01*
X0046112Y0044561D01*
X0045901Y0044561D01*
X0061850Y0063461D02*
X0063222Y0063461D01*
X0063222Y0063460D02*
X0063267Y0063462D01*
X0063311Y0063468D01*
X0063355Y0063477D01*
X0063398Y0063490D01*
X0063439Y0063507D01*
X0063480Y0063527D01*
X0063518Y0063551D01*
X0063554Y0063577D01*
X0063587Y0063607D01*
X0063618Y0063639D01*
X0063647Y0063674D01*
X0063672Y0063711D01*
X0063693Y0063750D01*
X0063712Y0063791D01*
X0063727Y0063833D01*
X0063738Y0063877D01*
X0063746Y0063921D01*
X0063750Y0063966D01*
X0063750Y0064010D01*
X0063746Y0064055D01*
X0063738Y0064099D01*
X0063727Y0064143D01*
X0063712Y0064185D01*
X0063693Y0064226D01*
X0063672Y0064265D01*
X0063647Y0064302D01*
X0063618Y0064337D01*
X0063587Y0064369D01*
X0063554Y0064399D01*
X0063518Y0064425D01*
X0063480Y0064449D01*
X0063439Y0064469D01*
X0063398Y0064486D01*
X0063355Y0064499D01*
X0063311Y0064508D01*
X0063267Y0064514D01*
X0063222Y0064516D01*
X0061850Y0064516D01*
X0061850Y0065772D02*
X0061850Y0066617D01*
X0061850Y0065772D02*
X0063750Y0065772D01*
X0063750Y0066617D01*
X0062694Y0066406D02*
X0062694Y0065772D01*
X0062642Y0067756D02*
X0062958Y0068337D01*
X0063750Y0068126D02*
X0063748Y0068067D01*
X0063742Y0068009D01*
X0063733Y0067951D01*
X0063719Y0067894D01*
X0063702Y0067838D01*
X0063681Y0067783D01*
X0063657Y0067730D01*
X0063629Y0067678D01*
X0063598Y0067628D01*
X0063564Y0067581D01*
X0063526Y0067535D01*
X0063486Y0067493D01*
X0062958Y0068337D02*
X0062981Y0068371D01*
X0063006Y0068402D01*
X0063034Y0068431D01*
X0063065Y0068458D01*
X0063098Y0068481D01*
X0063133Y0068501D01*
X0063170Y0068518D01*
X0063208Y0068531D01*
X0063247Y0068540D01*
X0063288Y0068546D01*
X0063328Y0068548D01*
X0063367Y0068546D01*
X0063406Y0068541D01*
X0063443Y0068532D01*
X0063480Y0068520D01*
X0063516Y0068504D01*
X0063550Y0068485D01*
X0063582Y0068463D01*
X0063612Y0068438D01*
X0063640Y0068410D01*
X0063665Y0068380D01*
X0063687Y0068348D01*
X0063706Y0068314D01*
X0063722Y0068278D01*
X0063734Y0068241D01*
X0063743Y0068204D01*
X0063748Y0068165D01*
X0063750Y0068126D01*
X0062008Y0068443D02*
X0061979Y0068401D01*
X0061953Y0068358D01*
X0061929Y0068313D01*
X0061908Y0068266D01*
X0061891Y0068218D01*
X0061876Y0068170D01*
X0061865Y0068120D01*
X0061857Y0068070D01*
X0061852Y0068019D01*
X0061850Y0067968D01*
X0061852Y0067929D01*
X0061857Y0067890D01*
X0061866Y0067853D01*
X0061878Y0067816D01*
X0061894Y0067780D01*
X0061913Y0067746D01*
X0061935Y0067714D01*
X0061960Y0067684D01*
X0061988Y0067656D01*
X0062018Y0067631D01*
X0062050Y0067609D01*
X0062084Y0067590D01*
X0062120Y0067574D01*
X0062157Y0067562D01*
X0062194Y0067553D01*
X0062233Y0067548D01*
X0062272Y0067546D01*
X0062272Y0067545D02*
X0062312Y0067547D01*
X0062353Y0067553D01*
X0062392Y0067562D01*
X0062430Y0067575D01*
X0062467Y0067592D01*
X0062502Y0067612D01*
X0062535Y0067635D01*
X0062566Y0067662D01*
X0062594Y0067691D01*
X0062619Y0067722D01*
X0062642Y0067756D01*
X0062906Y0069710D02*
X0062906Y0070238D01*
X0062904Y0070283D01*
X0062898Y0070327D01*
X0062889Y0070371D01*
X0062876Y0070414D01*
X0062859Y0070455D01*
X0062839Y0070496D01*
X0062815Y0070534D01*
X0062789Y0070570D01*
X0062759Y0070603D01*
X0062727Y0070634D01*
X0062692Y0070663D01*
X0062655Y0070688D01*
X0062616Y0070709D01*
X0062575Y0070728D01*
X0062533Y0070743D01*
X0062489Y0070754D01*
X0062445Y0070762D01*
X0062400Y0070766D01*
X0062356Y0070766D01*
X0062311Y0070762D01*
X0062267Y0070754D01*
X0062223Y0070743D01*
X0062181Y0070728D01*
X0062140Y0070709D01*
X0062101Y0070688D01*
X0062064Y0070663D01*
X0062029Y0070634D01*
X0061997Y0070603D01*
X0061967Y0070570D01*
X0061941Y0070534D01*
X0061917Y0070496D01*
X0061897Y0070455D01*
X0061880Y0070414D01*
X0061867Y0070371D01*
X0061858Y0070327D01*
X0061852Y0070283D01*
X0061850Y0070238D01*
X0061850Y0069710D01*
X0063750Y0069710D01*
X0027000Y0171211D02*
X0101000Y0171211D01*
X0101000Y0289211D01*
X0027000Y0289211D01*
X0027000Y0171211D01*
X0029000Y0280211D02*
X0039000Y0280211D01*
X0044000Y0285211D01*
X0049000Y0280211D01*
X0059000Y0280211D01*
X0064000Y0285211D01*
X0069000Y0280211D01*
X0079000Y0280211D01*
X0084000Y0285211D01*
X0089000Y0280211D01*
X0099000Y0280211D01*
D15*
X0128880Y0211211D02*
X0129120Y0211211D01*
X0112000Y0182331D02*
X0112000Y0182091D01*
X0112000Y0172331D02*
X0112000Y0172091D01*
X0054120Y0066211D02*
X0053880Y0066211D01*
X0032000Y0148091D02*
X0032000Y0148331D01*
D16*
X0030400Y0157311D02*
X0033600Y0157311D01*
X0033600Y0169111D02*
X0030400Y0169111D01*
X0021400Y0163211D02*
X0018400Y0163211D01*
X0021400Y0163211D01*
X0020000Y0164711D02*
X0020000Y0161711D01*
X0020000Y0164711D01*
X0031400Y0138911D02*
X0042600Y0138911D01*
X0057900Y0139211D02*
X0075900Y0139211D01*
X0075900Y0147211D01*
X0057900Y0147211D01*
X0068400Y0120711D02*
X0068200Y0113011D01*
X0068200Y0107911D01*
X0087900Y0107911D01*
X0088000Y0120711D01*
X0068400Y0120711D01*
X0068100Y0115411D02*
X0068169Y0115412D01*
X0068237Y0115409D01*
X0068305Y0115402D01*
X0068373Y0115391D01*
X0068440Y0115376D01*
X0068506Y0115358D01*
X0068571Y0115336D01*
X0068635Y0115310D01*
X0068697Y0115280D01*
X0068757Y0115248D01*
X0068815Y0115211D01*
X0068871Y0115172D01*
X0068925Y0115129D01*
X0068976Y0115083D01*
X0069024Y0115035D01*
X0069070Y0114983D01*
X0069112Y0114930D01*
X0069152Y0114873D01*
X0069188Y0114815D01*
X0069221Y0114755D01*
X0069250Y0114693D01*
X0069276Y0114629D01*
X0069298Y0114564D01*
X0069316Y0114498D01*
X0069331Y0114431D01*
X0069341Y0114364D01*
X0069348Y0114295D01*
X0069351Y0114227D01*
X0069350Y0114158D01*
X0069345Y0114090D01*
X0069336Y0114022D01*
X0069323Y0113954D01*
X0069307Y0113888D01*
X0069286Y0113822D01*
X0069262Y0113758D01*
X0069235Y0113695D01*
X0069203Y0113634D01*
X0069169Y0113575D01*
X0069131Y0113518D01*
X0069090Y0113463D01*
X0069045Y0113411D01*
X0068998Y0113361D01*
X0068948Y0113314D01*
X0068896Y0113270D01*
X0068841Y0113229D01*
X0068784Y0113191D01*
X0068724Y0113156D01*
X0068663Y0113125D01*
X0068600Y0113098D01*
X0068536Y0113074D01*
X0068470Y0113054D01*
X0068404Y0113037D01*
X0068336Y0113025D01*
X0068268Y0113016D01*
X0068200Y0113011D01*
X0068268Y0113016D01*
X0068336Y0113025D01*
X0068404Y0113037D01*
X0068470Y0113054D01*
X0068536Y0113074D01*
X0068600Y0113098D01*
X0068663Y0113125D01*
X0068724Y0113156D01*
X0068784Y0113191D01*
X0068841Y0113229D01*
X0068896Y0113270D01*
X0068948Y0113314D01*
X0068998Y0113361D01*
X0069045Y0113411D01*
X0069090Y0113463D01*
X0069131Y0113518D01*
X0069169Y0113575D01*
X0069203Y0113634D01*
X0069235Y0113695D01*
X0069262Y0113758D01*
X0069286Y0113822D01*
X0069307Y0113888D01*
X0069323Y0113954D01*
X0069336Y0114022D01*
X0069345Y0114090D01*
X0069350Y0114158D01*
X0069351Y0114227D01*
X0069348Y0114295D01*
X0069341Y0114364D01*
X0069331Y0114431D01*
X0069316Y0114498D01*
X0069298Y0114564D01*
X0069276Y0114629D01*
X0069250Y0114693D01*
X0069221Y0114755D01*
X0069188Y0114815D01*
X0069152Y0114873D01*
X0069112Y0114930D01*
X0069070Y0114983D01*
X0069024Y0115035D01*
X0068976Y0115083D01*
X0068925Y0115129D01*
X0068871Y0115172D01*
X0068815Y0115211D01*
X0068757Y0115248D01*
X0068697Y0115280D01*
X0068635Y0115310D01*
X0068571Y0115336D01*
X0068506Y0115358D01*
X0068440Y0115376D01*
X0068373Y0115391D01*
X0068305Y0115402D01*
X0068237Y0115409D01*
X0068169Y0115412D01*
X0068100Y0115411D01*
X0042600Y0107511D02*
X0031400Y0107511D01*
X0105500Y0145111D02*
X0110800Y0145111D01*
X0112500Y0149911D02*
X0112500Y0152511D01*
X0110800Y0157311D02*
X0105500Y0157311D01*
X0105500Y0153611D01*
X0105500Y0148811D02*
X0105500Y0145111D01*
D17*
X0058600Y0145066D02*
X0056600Y0145066D01*
X0058600Y0145066D01*
X0058600Y0145164D02*
X0056600Y0145164D01*
X0058600Y0145164D01*
X0058600Y0145263D02*
X0056600Y0145263D01*
X0058600Y0145263D01*
X0058600Y0145361D02*
X0056600Y0145361D01*
X0058600Y0145361D01*
X0058600Y0145460D02*
X0056600Y0145460D01*
X0058600Y0145460D01*
X0058600Y0145558D02*
X0056600Y0145558D01*
X0058600Y0145558D01*
X0058600Y0145657D02*
X0056600Y0145657D01*
X0058600Y0145657D01*
X0058600Y0145755D02*
X0056600Y0145755D01*
X0058600Y0145755D01*
X0058600Y0145854D02*
X0056600Y0145854D01*
X0058600Y0145854D01*
X0058600Y0145952D02*
X0056600Y0145952D01*
X0058600Y0145952D01*
X0058600Y0146051D02*
X0056600Y0146051D01*
X0058600Y0146051D01*
X0058600Y0146149D02*
X0056600Y0146149D01*
X0058600Y0146149D01*
X0058600Y0146248D02*
X0056600Y0146248D01*
X0058600Y0146248D01*
X0058600Y0146346D02*
X0056600Y0146346D01*
X0058600Y0146346D01*
X0058600Y0146445D02*
X0056600Y0146445D01*
X0058600Y0146445D01*
X0058600Y0146543D02*
X0056600Y0146543D01*
X0058600Y0146543D01*
X0058600Y0146642D02*
X0056600Y0146642D01*
X0058600Y0146642D01*
X0058600Y0146740D02*
X0056600Y0146740D01*
X0058600Y0146740D01*
X0058600Y0146839D02*
X0056600Y0146839D01*
X0058600Y0146839D01*
X0058600Y0146937D02*
X0056600Y0146937D01*
X0058600Y0146937D01*
X0058600Y0147036D02*
X0056600Y0147036D01*
X0058600Y0147036D01*
X0058600Y0147134D02*
X0056600Y0147134D01*
X0058600Y0147134D01*
X0058600Y0147233D02*
X0056600Y0147233D01*
X0058600Y0147233D01*
X0058600Y0147331D02*
X0056600Y0147331D01*
X0058600Y0147331D01*
X0058600Y0147430D02*
X0056600Y0147430D01*
X0058600Y0147430D01*
X0058600Y0147528D02*
X0056600Y0147528D01*
X0058600Y0147528D01*
X0058600Y0147611D02*
X0056600Y0147611D01*
X0056600Y0138811D01*
X0058600Y0138811D01*
X0058600Y0147611D01*
X0056600Y0147611D01*
X0056600Y0138811D01*
X0058600Y0138811D01*
X0058600Y0147611D01*
X0058600Y0144967D02*
X0056600Y0144967D01*
X0058600Y0144967D01*
X0058600Y0144869D02*
X0056600Y0144869D01*
X0058600Y0144869D01*
X0058600Y0144770D02*
X0056600Y0144770D01*
X0058600Y0144770D01*
X0058600Y0144672D02*
X0056600Y0144672D01*
X0058600Y0144672D01*
X0058600Y0144573D02*
X0056600Y0144573D01*
X0058600Y0144573D01*
X0058600Y0144475D02*
X0056600Y0144475D01*
X0058600Y0144475D01*
X0058600Y0144376D02*
X0056600Y0144376D01*
X0058600Y0144376D01*
X0058600Y0144278D02*
X0056600Y0144278D01*
X0058600Y0144278D01*
X0058600Y0144179D02*
X0056600Y0144179D01*
X0058600Y0144179D01*
X0058600Y0144081D02*
X0056600Y0144081D01*
X0058600Y0144081D01*
X0058600Y0143982D02*
X0056600Y0143982D01*
X0058600Y0143982D01*
X0058600Y0143884D02*
X0056600Y0143884D01*
X0058600Y0143884D01*
X0058600Y0143785D02*
X0056600Y0143785D01*
X0058600Y0143785D01*
X0058600Y0143686D02*
X0056600Y0143686D01*
X0058600Y0143686D01*
X0058600Y0143588D02*
X0056600Y0143588D01*
X0058600Y0143588D01*
X0058600Y0143489D02*
X0056600Y0143489D01*
X0058600Y0143489D01*
X0058600Y0143391D02*
X0056600Y0143391D01*
X0058600Y0143391D01*
X0058600Y0143292D02*
X0056600Y0143292D01*
X0058600Y0143292D01*
X0058600Y0143194D02*
X0056600Y0143194D01*
X0058600Y0143194D01*
X0058600Y0143095D02*
X0056600Y0143095D01*
X0058600Y0143095D01*
X0058600Y0142997D02*
X0056600Y0142997D01*
X0058600Y0142997D01*
X0058600Y0142898D02*
X0056600Y0142898D01*
X0058600Y0142898D01*
X0058600Y0142800D02*
X0056600Y0142800D01*
X0058600Y0142800D01*
X0058600Y0142701D02*
X0056600Y0142701D01*
X0058600Y0142701D01*
X0058600Y0142603D02*
X0056600Y0142603D01*
X0058600Y0142603D01*
X0058600Y0142504D02*
X0056600Y0142504D01*
X0058600Y0142504D01*
X0058600Y0142406D02*
X0056600Y0142406D01*
X0058600Y0142406D01*
X0058600Y0142307D02*
X0056600Y0142307D01*
X0058600Y0142307D01*
X0058600Y0142209D02*
X0056600Y0142209D01*
X0058600Y0142209D01*
X0058600Y0142110D02*
X0056600Y0142110D01*
X0058600Y0142110D01*
X0058600Y0142012D02*
X0056600Y0142012D01*
X0058600Y0142012D01*
X0058600Y0141913D02*
X0056600Y0141913D01*
X0058600Y0141913D01*
X0058600Y0141815D02*
X0056600Y0141815D01*
X0058600Y0141815D01*
X0058600Y0141716D02*
X0056600Y0141716D01*
X0058600Y0141716D01*
X0058600Y0141618D02*
X0056600Y0141618D01*
X0058600Y0141618D01*
X0058600Y0141519D02*
X0056600Y0141519D01*
X0058600Y0141519D01*
X0058600Y0141421D02*
X0056600Y0141421D01*
X0058600Y0141421D01*
X0058600Y0141322D02*
X0056600Y0141322D01*
X0058600Y0141322D01*
X0058600Y0141224D02*
X0056600Y0141224D01*
X0058600Y0141224D01*
X0058600Y0141125D02*
X0056600Y0141125D01*
X0058600Y0141125D01*
X0058600Y0141027D02*
X0056600Y0141027D01*
X0058600Y0141027D01*
X0058600Y0140928D02*
X0056600Y0140928D01*
X0058600Y0140928D01*
X0058600Y0140830D02*
X0056600Y0140830D01*
X0058600Y0140830D01*
X0058600Y0140731D02*
X0056600Y0140731D01*
X0058600Y0140731D01*
X0058600Y0140633D02*
X0056600Y0140633D01*
X0058600Y0140633D01*
X0058600Y0140534D02*
X0056600Y0140534D01*
X0058600Y0140534D01*
X0058600Y0140436D02*
X0056600Y0140436D01*
X0058600Y0140436D01*
X0058600Y0140337D02*
X0056600Y0140337D01*
X0058600Y0140337D01*
X0058600Y0140239D02*
X0056600Y0140239D01*
X0058600Y0140239D01*
X0058600Y0140140D02*
X0056600Y0140140D01*
X0058600Y0140140D01*
X0058600Y0140042D02*
X0056600Y0140042D01*
X0058600Y0140042D01*
X0058600Y0139943D02*
X0056600Y0139943D01*
X0058600Y0139943D01*
X0058600Y0139845D02*
X0056600Y0139845D01*
X0058600Y0139845D01*
X0058600Y0139746D02*
X0056600Y0139746D01*
X0058600Y0139746D01*
X0058600Y0139648D02*
X0056600Y0139648D01*
X0058600Y0139648D01*
X0058600Y0139549D02*
X0056600Y0139549D01*
X0058600Y0139549D01*
X0058600Y0139450D02*
X0056600Y0139450D01*
X0058600Y0139450D01*
X0058600Y0139352D02*
X0056600Y0139352D01*
X0058600Y0139352D01*
X0058600Y0139253D02*
X0056600Y0139253D01*
X0058600Y0139253D01*
X0058600Y0139155D02*
X0056600Y0139155D01*
X0058600Y0139155D01*
X0058600Y0139056D02*
X0056600Y0139056D01*
X0058600Y0139056D01*
X0058600Y0138958D02*
X0056600Y0138958D01*
X0058600Y0138958D01*
X0058600Y0138859D02*
X0056600Y0138859D01*
X0058600Y0138859D01*
X0055850Y0118480D02*
X0055850Y0117841D01*
X0055850Y0118480D02*
X0055848Y0118529D01*
X0055843Y0118578D01*
X0055833Y0118626D01*
X0055820Y0118673D01*
X0055804Y0118719D01*
X0055784Y0118764D01*
X0055760Y0118807D01*
X0055734Y0118848D01*
X0055704Y0118887D01*
X0055671Y0118923D01*
X0055636Y0118957D01*
X0055598Y0118988D01*
X0055558Y0119016D01*
X0055516Y0119041D01*
X0055472Y0119063D01*
X0055427Y0119081D01*
X0055380Y0119096D01*
X0055333Y0119107D01*
X0055284Y0119115D01*
X0055235Y0119119D01*
X0055187Y0119119D01*
X0055138Y0119115D01*
X0055089Y0119107D01*
X0055042Y0119096D01*
X0054995Y0119081D01*
X0054950Y0119063D01*
X0054906Y0119041D01*
X0054864Y0119016D01*
X0054824Y0118988D01*
X0054786Y0118957D01*
X0054751Y0118923D01*
X0054718Y0118887D01*
X0054688Y0118848D01*
X0054662Y0118807D01*
X0054638Y0118764D01*
X0054618Y0118719D01*
X0054602Y0118673D01*
X0054589Y0118626D01*
X0054579Y0118578D01*
X0054574Y0118529D01*
X0054572Y0118480D01*
X0054572Y0118608D02*
X0054572Y0118097D01*
X0054572Y0118608D02*
X0054570Y0118651D01*
X0054565Y0118694D01*
X0054556Y0118737D01*
X0054543Y0118778D01*
X0054527Y0118818D01*
X0054507Y0118857D01*
X0054484Y0118894D01*
X0054459Y0118929D01*
X0054430Y0118962D01*
X0054399Y0118992D01*
X0054365Y0119019D01*
X0054329Y0119043D01*
X0054291Y0119064D01*
X0054252Y0119082D01*
X0054211Y0119097D01*
X0054169Y0119108D01*
X0054126Y0119115D01*
X0054083Y0119119D01*
X0054039Y0119119D01*
X0053996Y0119115D01*
X0053953Y0119108D01*
X0053911Y0119097D01*
X0053870Y0119082D01*
X0053831Y0119064D01*
X0053793Y0119043D01*
X0053757Y0119019D01*
X0053723Y0118992D01*
X0053692Y0118962D01*
X0053663Y0118929D01*
X0053638Y0118894D01*
X0053615Y0118857D01*
X0053595Y0118818D01*
X0053579Y0118778D01*
X0053566Y0118737D01*
X0053557Y0118694D01*
X0053552Y0118651D01*
X0053550Y0118608D01*
X0053550Y0117841D01*
X0054508Y0116073D02*
X0054484Y0116035D01*
X0054456Y0115999D01*
X0054426Y0115967D01*
X0054392Y0115936D01*
X0054356Y0115909D01*
X0054319Y0115885D01*
X0054279Y0115865D01*
X0054237Y0115848D01*
X0054194Y0115834D01*
X0054150Y0115825D01*
X0054106Y0115819D01*
X0054061Y0115817D01*
X0054019Y0115819D01*
X0053977Y0115824D01*
X0053936Y0115833D01*
X0053895Y0115845D01*
X0053856Y0115860D01*
X0053818Y0115879D01*
X0053782Y0115900D01*
X0053747Y0115925D01*
X0053715Y0115952D01*
X0053685Y0115982D01*
X0053658Y0116014D01*
X0053633Y0116049D01*
X0053612Y0116085D01*
X0053593Y0116123D01*
X0053578Y0116162D01*
X0053566Y0116203D01*
X0053557Y0116244D01*
X0053552Y0116286D01*
X0053550Y0116328D01*
X0053552Y0116384D01*
X0053557Y0116440D01*
X0053565Y0116495D01*
X0053576Y0116550D01*
X0053591Y0116604D01*
X0053608Y0116657D01*
X0053629Y0116709D01*
X0053653Y0116760D01*
X0053680Y0116809D01*
X0053709Y0116857D01*
X0053742Y0116903D01*
X0055530Y0115753D02*
X0055572Y0115797D01*
X0055612Y0115844D01*
X0055649Y0115892D01*
X0055683Y0115943D01*
X0055714Y0115995D01*
X0055742Y0116049D01*
X0055767Y0116105D01*
X0055789Y0116161D01*
X0055807Y0116219D01*
X0055823Y0116278D01*
X0055835Y0116338D01*
X0055843Y0116398D01*
X0055848Y0116459D01*
X0055850Y0116520D01*
X0055848Y0116562D01*
X0055843Y0116604D01*
X0055834Y0116645D01*
X0055822Y0116686D01*
X0055807Y0116725D01*
X0055788Y0116763D01*
X0055767Y0116799D01*
X0055742Y0116834D01*
X0055715Y0116866D01*
X0055685Y0116896D01*
X0055653Y0116923D01*
X0055618Y0116948D01*
X0055582Y0116969D01*
X0055544Y0116988D01*
X0055505Y0117003D01*
X0055464Y0117015D01*
X0055423Y0117024D01*
X0055381Y0117029D01*
X0055339Y0117031D01*
X0054892Y0116776D02*
X0054508Y0116073D01*
X0054892Y0116776D02*
X0054916Y0116813D01*
X0054944Y0116849D01*
X0054974Y0116881D01*
X0055008Y0116912D01*
X0055044Y0116939D01*
X0055082Y0116963D01*
X0055121Y0116983D01*
X0055163Y0117000D01*
X0055206Y0117014D01*
X0055250Y0117023D01*
X0055294Y0117029D01*
X0055339Y0117031D01*
X0054828Y0114401D02*
X0054828Y0113762D01*
X0054828Y0114401D02*
X0054826Y0114450D01*
X0054821Y0114499D01*
X0054811Y0114547D01*
X0054798Y0114594D01*
X0054782Y0114640D01*
X0054762Y0114685D01*
X0054738Y0114728D01*
X0054712Y0114769D01*
X0054682Y0114808D01*
X0054649Y0114844D01*
X0054614Y0114878D01*
X0054576Y0114909D01*
X0054536Y0114937D01*
X0054494Y0114962D01*
X0054450Y0114984D01*
X0054405Y0115002D01*
X0054358Y0115017D01*
X0054311Y0115028D01*
X0054262Y0115036D01*
X0054213Y0115040D01*
X0054165Y0115040D01*
X0054116Y0115036D01*
X0054067Y0115028D01*
X0054020Y0115017D01*
X0053973Y0115002D01*
X0053928Y0114984D01*
X0053884Y0114962D01*
X0053842Y0114937D01*
X0053802Y0114909D01*
X0053764Y0114878D01*
X0053729Y0114844D01*
X0053696Y0114808D01*
X0053666Y0114769D01*
X0053640Y0114728D01*
X0053616Y0114685D01*
X0053596Y0114640D01*
X0053580Y0114594D01*
X0053567Y0114547D01*
X0053557Y0114499D01*
X0053552Y0114450D01*
X0053550Y0114401D01*
X0053550Y0113762D01*
X0055850Y0113762D01*
X0055850Y0112883D02*
X0055850Y0112372D01*
X0055848Y0112327D01*
X0055842Y0112283D01*
X0055833Y0112240D01*
X0055819Y0112197D01*
X0055802Y0112156D01*
X0055782Y0112117D01*
X0055758Y0112079D01*
X0055730Y0112044D01*
X0055700Y0112011D01*
X0055667Y0111981D01*
X0055632Y0111953D01*
X0055595Y0111929D01*
X0055555Y0111909D01*
X0055514Y0111892D01*
X0055471Y0111878D01*
X0055428Y0111869D01*
X0055384Y0111863D01*
X0055339Y0111861D01*
X0054061Y0111861D01*
X0054016Y0111863D01*
X0053972Y0111869D01*
X0053929Y0111878D01*
X0053886Y0111892D01*
X0053845Y0111909D01*
X0053806Y0111929D01*
X0053768Y0111953D01*
X0053733Y0111981D01*
X0053700Y0112011D01*
X0053670Y0112044D01*
X0053642Y0112079D01*
X0053618Y0112116D01*
X0053598Y0112156D01*
X0053581Y0112197D01*
X0053567Y0112240D01*
X0053558Y0112283D01*
X0053552Y0112327D01*
X0053550Y0112372D01*
X0053550Y0112883D01*
D18*
X0057900Y0139211D02*
X0074900Y0139211D01*
X0074900Y0147211D02*
X0057900Y0147211D01*
D19*
X0103638Y0120801D03*
X0108362Y0120801D03*
D20*
X0106000Y0120801D03*
D21*
X0103500Y0076211D02*
X0098500Y0076211D01*
X0096000Y0073711D01*
X0093500Y0076211D01*
X0088500Y0076211D01*
X0086000Y0073711D01*
X0083500Y0076211D01*
X0078500Y0076211D01*
X0076000Y0073711D01*
X0073500Y0076211D01*
X0068500Y0076211D01*
X0066000Y0073711D01*
X0066000Y0058711D01*
X0068500Y0056211D01*
X0073500Y0056211D01*
X0076000Y0058711D01*
X0078500Y0056211D01*
X0083500Y0056211D01*
X0086000Y0058711D01*
X0088500Y0056211D01*
X0093500Y0056211D01*
X0096000Y0058711D01*
X0098500Y0056211D01*
X0103500Y0056211D01*
X0106000Y0058711D01*
X0106000Y0073711D01*
X0103500Y0076211D01*
X0073500Y0055211D02*
X0068500Y0055211D01*
X0068500Y0056211D02*
X0066000Y0058711D01*
X0066000Y0073711D01*
X0068500Y0076211D01*
X0049000Y0054711D02*
X0049000Y0049711D01*
X0046500Y0047211D01*
X0041500Y0047211D01*
X0039000Y0049711D01*
X0036500Y0047211D01*
X0031500Y0047211D01*
X0029000Y0049711D01*
X0029000Y0054711D01*
X0031500Y0057211D01*
X0036500Y0057211D01*
X0039000Y0054711D01*
X0041500Y0057211D01*
X0046500Y0057211D01*
X0049000Y0054711D01*
X0054732Y0150203D02*
X0054732Y0150911D01*
X0054732Y0150203D02*
X0071268Y0150203D01*
X0071268Y0150911D01*
X0064937Y0153274D02*
X0064937Y0161148D01*
X0071268Y0163510D02*
X0071268Y0164219D01*
X0054732Y0164219D01*
X0054732Y0163510D01*
M02*
