%
M48
M72
T01C0.01378
T02C0.04000
T03C0.09500
T04C0.14173
%
T01
X118911Y88211
X106000Y132211
X109000Y138211
X108000Y162211
X92750Y154211
X80000Y154211
X76000Y132211
X94000Y118211
X60000Y54211
X24000Y60211
X46000Y158211
X106000Y262211
X124000Y242211
X106000Y226211
X129000Y198211
T02
X101000Y61211
X101000Y71211
X91000Y71211
X91000Y61211
X81000Y61211
X81000Y71211
X71000Y71211
X71000Y61211
X44000Y52211
X34000Y52211
T03
X83600Y191011
X83600Y210811
X83600Y230611
X83600Y250411
X83600Y270211
X63800Y270211
X63800Y250411
X63800Y230611
X63800Y210811
X63800Y191011
X44000Y191011
X44000Y210811
X44000Y230611
X44000Y250411
X44000Y270211
T04
X127500Y49211
X14500Y49211
X14500Y284211
X127500Y284211
M30
